<?xml version="1.0" encoding="UTF-8" standalone="no"?>
<!DOCTYPE svg PUBLIC "-//W3C//DTD SVG 1.1//EN"
 "http://www.w3.org/Graphics/SVG/1.1/DTD/svg11.dtd">
<!-- Generated by graphviz version 2.40.1 (20161225.0304)
 -->
<!-- Title: src/aqdata/aq_base.cc Pages: 1 -->
<svg width="531pt" height="151pt"
 viewBox="0.00 0.00 531.00 151.00" xmlns="http://www.w3.org/2000/svg" xmlns:xlink="http://www.w3.org/1999/xlink">
<g id="graph0" class="graph" transform="scale(1 1) rotate(0) translate(4 147)">
<title>src/aqdata/aq_base.cc</title>
<!-- Node0 -->
<g id="node1" class="node">
<title>Node0</title>
<polygon fill="#bfbfbf" stroke="#000000" points="178,-123.5 178,-142.5 295,-142.5 295,-123.5 178,-123.5"/>
<text text-anchor="middle" x="236.5" y="-130.5" font-family="Arial" font-size="10.00" fill="#000000">src/aqdata/aq_base.cc</text>
</g>
<!-- Node1 -->
<g id="node2" class="node">
<title>Node1</title>
<polygon fill="none" stroke="#bfbfbf" points="75.5,-67.5 75.5,-86.5 193.5,-86.5 193.5,-67.5 75.5,-67.5"/>
<text text-anchor="middle" x="134.5" y="-74.5" font-family="Arial" font-size="10.00" fill="#000000">deal.II/base/numbers.h</text>
</g>
<!-- Node0&#45;&gt;Node1 -->
<g id="edge1" class="edge">
<title>Node0&#45;&gt;Node1</title>
<path fill="none" stroke="#191970" d="M218.733,-123.2455C202.7905,-114.4928 179.1741,-101.527 161.0011,-91.5496"/>
<polygon fill="#191970" stroke="#191970" points="162.5137,-88.3873 152.0634,-86.6427 159.1448,-94.5233 162.5137,-88.3873"/>
</g>
<!-- Node2 -->
<g id="node3" class="node">
<title>Node2</title>
<polygon fill="none" stroke="#bfbfbf" points="211.5,-67.5 211.5,-86.5 261.5,-86.5 261.5,-67.5 211.5,-67.5"/>
<text text-anchor="middle" x="236.5" y="-74.5" font-family="Arial" font-size="10.00" fill="#000000">fstream</text>
</g>
<!-- Node0&#45;&gt;Node2 -->
<g id="edge2" class="edge">
<title>Node0&#45;&gt;Node2</title>
<path fill="none" stroke="#191970" d="M236.5,-123.2455C236.5,-115.9382 236.5,-105.6944 236.5,-96.7046"/>
<polygon fill="#191970" stroke="#191970" points="240.0001,-96.6426 236.5,-86.6427 233.0001,-96.6427 240.0001,-96.6426"/>
</g>
<!-- Node3 -->
<g id="node4" class="node">
<title>Node3</title>
<g id="a_node4"><a xlink:href="aq__base_8h.html" target="_top" xlink:title="aq_base.h">
<polygon fill="none" stroke="#000000" points="280,-67.5 280,-86.5 343,-86.5 343,-67.5 280,-67.5"/>
<text text-anchor="middle" x="311.5" y="-74.5" font-family="Arial" font-size="10.00" fill="#000000">aq_base.h</text>
</a>
</g>
</g>
<!-- Node0&#45;&gt;Node3 -->
<g id="edge3" class="edge">
<title>Node0&#45;&gt;Node3</title>
<path fill="none" stroke="#191970" d="M249.564,-123.2455C260.8562,-114.814 277.3845,-102.4729 290.5271,-92.6598"/>
<polygon fill="#191970" stroke="#191970" points="292.6669,-95.4301 298.5857,-86.6427 288.4789,-89.8211 292.6669,-95.4301"/>
</g>
<!-- Node4 -->
<g id="node5" class="node">
<title>Node4</title>
<polygon fill="none" stroke="#bfbfbf" points="0,-6 0,-25 107,-25 107,-6 0,-6"/>
<text text-anchor="middle" x="53.5" y="-13" font-family="Arial" font-size="10.00" fill="#000000">deal.II/base/tensor.h</text>
</g>
<!-- Node3&#45;&gt;Node4 -->
<g id="edge4" class="edge">
<title>Node3&#45;&gt;Node4</title>
<path fill="none" stroke="#191970" d="M279.7242,-69.2132C276.6084,-68.4607 273.4936,-67.7127 270.5,-67 201.7003,-50.6207 184.2523,-47.577 115.5,-31 110.8249,-29.8728 105.9556,-28.6829 101.0919,-27.484"/>
<polygon fill="#191970" stroke="#191970" points="101.7285,-24.036 91.1802,-25.0273 100.0444,-30.8304 101.7285,-24.036"/>
</g>
<!-- Node5 -->
<g id="node6" class="node">
<title>Node5</title>
<polygon fill="none" stroke="#bfbfbf" points="125,-.5 125,-30.5 242,-30.5 242,-.5 125,-.5"/>
<text text-anchor="start" x="133" y="-18.5" font-family="Arial" font-size="10.00" fill="#000000">deal.II/base/parameter</text>
<text text-anchor="middle" x="183.5" y="-7.5" font-family="Arial" font-size="10.00" fill="#000000">_handler.h</text>
</g>
<!-- Node3&#45;&gt;Node5 -->
<g id="edge5" class="edge">
<title>Node3&#45;&gt;Node5</title>
<path fill="none" stroke="#191970" d="M291.5,-67.3906C273.455,-58.7205 246.3648,-45.7046 223.8312,-34.8779"/>
<polygon fill="#191970" stroke="#191970" points="225.3417,-31.7206 214.8123,-30.5446 222.3101,-38.0302 225.3417,-31.7206"/>
</g>
<!-- Node6 -->
<g id="node7" class="node">
<title>Node6</title>
<polygon fill="none" stroke="#bfbfbf" points="260.5,-6 260.5,-25 304.5,-25 304.5,-6 260.5,-6"/>
<text text-anchor="middle" x="282.5" y="-13" font-family="Arial" font-size="10.00" fill="#000000">vector</text>
</g>
<!-- Node3&#45;&gt;Node6 -->
<g id="edge6" class="edge">
<title>Node3&#45;&gt;Node6</title>
<path fill="none" stroke="#191970" d="M306.9688,-67.3906C302.8219,-58.5965 296.5668,-45.3312 291.419,-34.4145"/>
<polygon fill="#191970" stroke="#191970" points="294.5259,-32.7969 287.0951,-25.2449 288.1945,-35.7825 294.5259,-32.7969"/>
</g>
<!-- Node7 -->
<g id="node8" class="node">
<title>Node7</title>
<polygon fill="none" stroke="#bfbfbf" points="322.5,-6 322.5,-25 358.5,-25 358.5,-6 322.5,-6"/>
<text text-anchor="middle" x="340.5" y="-13" font-family="Arial" font-size="10.00" fill="#000000">map</text>
</g>
<!-- Node3&#45;&gt;Node7 -->
<g id="edge7" class="edge">
<title>Node3&#45;&gt;Node7</title>
<path fill="none" stroke="#191970" d="M316.0313,-67.3906C320.1781,-58.5965 326.4332,-45.3312 331.581,-34.4145"/>
<polygon fill="#191970" stroke="#191970" points="334.8055,-35.7825 335.9049,-25.2449 328.4741,-32.7969 334.8055,-35.7825"/>
</g>
<!-- Node8 -->
<g id="node9" class="node">
<title>Node8</title>
<polygon fill="none" stroke="#bfbfbf" points="377,-6 377,-25 464,-25 464,-6 377,-6"/>
<text text-anchor="middle" x="420.5" y="-13" font-family="Arial" font-size="10.00" fill="#000000">unordered_map</text>
</g>
<!-- Node3&#45;&gt;Node8 -->
<g id="edge8" class="edge">
<title>Node3&#45;&gt;Node8</title>
<path fill="none" stroke="#191970" d="M328.5313,-67.3906C346.289,-57.3713 374.333,-41.5483 394.7882,-30.0071"/>
<polygon fill="#191970" stroke="#191970" points="396.5989,-33.0042 403.5883,-25.0419 393.1591,-26.9077 396.5989,-33.0042"/>
</g>
<!-- Node9 -->
<g id="node10" class="node">
<title>Node9</title>
<polygon fill="none" stroke="#bfbfbf" points="482,-6 482,-25 523,-25 523,-6 482,-6"/>
<text text-anchor="middle" x="502.5" y="-13" font-family="Arial" font-size="10.00" fill="#000000">string</text>
</g>
<!-- Node3&#45;&gt;Node9 -->
<g id="edge9" class="edge">
<title>Node3&#45;&gt;Node9</title>
<path fill="none" stroke="#191970" d="M343.2214,-70.1214C376.3741,-62.4438 429.5814,-48.7334 473.5,-31 474.5322,-30.5832 475.5755,-30.14 476.6221,-29.6767"/>
<polygon fill="#191970" stroke="#191970" points="478.4694,-32.67 485.9246,-25.142 475.402,-26.3778 478.4694,-32.67"/>
</g>
</g>
</svg>
