<?xml version="1.0" encoding="UTF-8" standalone="no"?>
<!DOCTYPE svg PUBLIC "-//W3C//DTD SVG 1.1//EN"
 "http://www.w3.org/Graphics/SVG/1.1/DTD/svg11.dtd">
<!-- Generated by graphviz version 2.40.1 (20161225.0304)
 -->
<!-- Title: src/aqdata/aq_base.h Pages: 1 -->
<!--zoomable 542 -->
<svg id="main" version="1.1" xmlns="http://www.w3.org/2000/svg" xmlns:xlink="http://www.w3.org/1999/xlink" xml:space="preserve" onload="init(evt)">
<style type="text/css"><![CDATA[
.edge:hover path { stroke: red; }
.edge:hover polygon { stroke: red; fill: red; }
]]></style>
<script type="text/javascript"><![CDATA[
var edges = document.getElementsByTagName('g');
if (edges && edges.length) {
  for (var i=0;i<edges.length;i++) {
    if (edges[i].id.substr(0,4)=='edge') {
      edges[i].setAttribute('class','edge');
    }
  }
}
]]></script>
        <defs>
                <circle id="rim" cx="0" cy="0" r="7"/>
                <circle id="rim2" cx="0" cy="0" r="3.5"/>
                <g id="zoomPlus">
                        <use xlink:href="#rim" fill="#404040">
                                <set attributeName="fill" to="#808080" begin="zoomplus.mouseover" end="zoomplus.mouseout"/>
                        </use>
                        <path d="M-4,0h8M0,-4v8" fill="none" stroke="white" stroke-width="1.5" pointer-events="none"/>
                </g>
                <g id="zoomMin">
                        <use xlink:href="#rim" fill="#404040">
                                <set attributeName="fill" to="#808080" begin="zoomminus.mouseover" end="zoomminus.mouseout"/>
                        </use>
                        <path d="M-4,0h8" fill="none" stroke="white" stroke-width="1.5" pointer-events="none"/>
                </g>
                <g id="dirArrow">
                        <path fill="none" stroke="white" stroke-width="1.5" d="M0,-3.0v7 M-2.5,-0.5L0,-3.0L2.5,-0.5"/>
                </g>
               <g id="resetDef">
                       <use xlink:href="#rim2" fill="#404040">
                               <set attributeName="fill" to="#808080" begin="reset.mouseover" end="reset.mouseout"/>
                       </use>
               </g>
        </defs>

<script type="text/javascript">
var viewWidth = 911;
var viewHeight = 542;
var sectionId = 'dynsection-1';
</script>
<script xlink:href="svgpan.js"/>
<svg id="graph" class="graph">
<g id="viewport">
<title>src/aqdata/aq_base.h</title>
<!-- Node7 -->
<g id="node1" class="node">
<title>Node7</title>
<polygon fill="#bfbfbf" stroke="#000000" points="237,-514.5 237,-533.5 350,-533.5 350,-514.5 237,-514.5"/>
<text text-anchor="middle" x="293.5" y="-521.5" font-family="Arial" font-size="10.00" fill="#000000">src/aqdata/aq_base.h</text>
</g>
<!-- Node8 -->
<g id="node2" class="node">
<title>Node8</title>
<g id="a_node2"><a xlink:href="aq__base_8cc.html" target="_top" xlink:title="src/aqdata/aq_base.cc">
<polygon fill="none" stroke="#000000" points="0,-453 0,-472 117,-472 117,-453 0,-453"/>
<text text-anchor="middle" x="58.5" y="-460" font-family="Arial" font-size="10.00" fill="#000000">src/aqdata/aq_base.cc</text>
</a>
</g>
</g>
<!-- Node7&#45;&gt;Node8 -->
<g id="edge1" class="edge">
<title>Node7&#45;&gt;Node8</title>
<path fill="none" stroke="#191970" d="M247.3191,-511.9144C202.7206,-500.2428 136.0727,-482.8009 95.0464,-472.0643"/>
<polygon fill="#191970" stroke="#191970" points="246.4787,-515.3122 257.0391,-514.4581 248.251,-508.5403 246.4787,-515.3122"/>
</g>
<!-- Node9 -->
<g id="node3" class="node">
<title>Node9</title>
<g id="a_node3"><a xlink:href="lsgc_8h.html" target="_top" xlink:title="src/aqdata/lsgc.h">
<polygon fill="none" stroke="#000000" points="135.5,-453 135.5,-472 227.5,-472 227.5,-453 135.5,-453"/>
<text text-anchor="middle" x="181.5" y="-460" font-family="Arial" font-size="10.00" fill="#000000">src/aqdata/lsgc.h</text>
</a>
</g>
</g>
<!-- Node7&#45;&gt;Node9 -->
<g id="edge2" class="edge">
<title>Node7&#45;&gt;Node9</title>
<path fill="none" stroke="#191970" d="M267.2227,-509.571C246.1453,-497.9972 217.158,-482.0801 198.8771,-472.0419"/>
<polygon fill="#191970" stroke="#191970" points="265.5499,-512.6453 276,-514.3906 268.9192,-506.5095 265.5499,-512.6453"/>
</g>
<!-- Node12 -->
<g id="node6" class="node">
<title>Node12</title>
<g id="a_node6"><a xlink:href="equation__base_8h.html" target="_top" xlink:title="src/equation/equation\l_base.h">
<polygon fill="none" stroke="#000000" points="367.5,-447.5 367.5,-477.5 479.5,-477.5 479.5,-447.5 367.5,-447.5"/>
<text text-anchor="start" x="375.5" y="-465.5" font-family="Arial" font-size="10.00" fill="#000000">src/equation/equation</text>
<text text-anchor="middle" x="423.5" y="-454.5" font-family="Arial" font-size="10.00" fill="#000000">_base.h</text>
</a>
</g>
</g>
<!-- Node7&#45;&gt;Node12 -->
<g id="edge5" class="edge">
<title>Node7&#45;&gt;Node12</title>
<path fill="none" stroke="#191970" d="M322.98,-510.0537C343.46,-500.3651 370.7296,-487.4644 391.6984,-477.5446"/>
<polygon fill="#191970" stroke="#191970" points="321.3553,-506.9504 313.8125,-514.3906 324.3488,-513.278 321.3553,-506.9504"/>
</g>
<!-- Node16 -->
<g id="node10" class="node">
<title>Node16</title>
<g id="a_node10"><a xlink:href="bart__driver_8h.html" target="_top" xlink:title="src/common/bart_driver.h">
<polygon fill="none" stroke="#000000" points="724.5,-62 724.5,-81 854.5,-81 854.5,-62 724.5,-62"/>
<text text-anchor="middle" x="789.5" y="-69" font-family="Arial" font-size="10.00" fill="#000000">src/common/bart_driver.h</text>
</a>
</g>
</g>
<!-- Node7&#45;&gt;Node16 -->
<g id="edge38" class="edge">
<title>Node7&#45;&gt;Node16</title>
<path fill="none" stroke="#191970" d="M360.3302,-516.884C518.479,-499.1449 902.5,-450.4164 902.5,-395.5 902.5,-395.5 902.5,-395.5 902.5,-205.5 902.5,-146.7672 838.2737,-100.4302 806.6623,-81.1808"/>
<polygon fill="#191970" stroke="#191970" points="359.7973,-513.4216 350.2464,-518.0074 360.5724,-520.3786 359.7973,-513.4216"/>
</g>
<!-- Node10 -->
<g id="node4" class="node">
<title>Node10</title>
<g id="a_node4"><a xlink:href="lsgc_8cc.html" target="_top" xlink:title="src/aqdata/lsgc.cc">
<polygon fill="none" stroke="#000000" points="4,-386 4,-405 101,-405 101,-386 4,-386"/>
<text text-anchor="middle" x="52.5" y="-393" font-family="Arial" font-size="10.00" fill="#000000">src/aqdata/lsgc.cc</text>
</a>
</g>
</g>
<!-- Node9&#45;&gt;Node10 -->
<g id="edge3" class="edge">
<title>Node9&#45;&gt;Node10</title>
<path fill="none" stroke="#191970" d="M154.0245,-448.2298C128.981,-435.2227 92.6779,-416.3676 70.9483,-405.0817"/>
<polygon fill="#191970" stroke="#191970" points="152.5298,-451.3973 163.0174,-452.9005 155.7563,-445.1852 152.5298,-451.3973"/>
</g>
<!-- Node11 -->
<g id="node5" class="node">
<title>Node11</title>
<g id="a_node5"><a xlink:href="bart__driver_8cc.html" target="_top" xlink:title="src/common/bart_driver.cc">
<polygon fill="none" stroke="#000000" points="310.5,-.5 310.5,-19.5 444.5,-19.5 444.5,-.5 310.5,-.5"/>
<text text-anchor="middle" x="377.5" y="-7.5" font-family="Arial" font-size="10.00" fill="#000000">src/common/bart_driver.cc</text>
</a>
</g>
</g>
<!-- Node9&#45;&gt;Node11 -->
<g id="edge4" class="edge">
<title>Node9&#45;&gt;Node11</title>
<path fill="none" stroke="#191970" d="M167.845,-444.5801C161.1576,-435.0475 153.4916,-422.8687 148.5,-411 133.9131,-376.3161 129.5,-366.1265 129.5,-328.5 129.5,-328.5 129.5,-328.5 129.5,-138.5 129.5,-56.791 236.9414,-26.974 310.3876,-16.137"/>
<polygon fill="#191970" stroke="#191970" points="165.1225,-446.7873 173.8374,-452.8124 170.7819,-442.6677 165.1225,-446.7873"/>
</g>
<!-- Node13 -->
<g id="node7" class="node">
<title>Node13</title>
<g id="a_node7"><a xlink:href="equation__base_8cc.html" target="_top" xlink:title="src/equation/equation\l_base.cc">
<polygon fill="none" stroke="#000000" points="157.5,-380.5 157.5,-410.5 269.5,-410.5 269.5,-380.5 157.5,-380.5"/>
<text text-anchor="start" x="165.5" y="-398.5" font-family="Arial" font-size="10.00" fill="#000000">src/equation/equation</text>
<text text-anchor="middle" x="213.5" y="-387.5" font-family="Arial" font-size="10.00" fill="#000000">_base.cc</text>
</a>
</g>
</g>
<!-- Node12&#45;&gt;Node13 -->
<g id="edge6" class="edge">
<title>Node12&#45;&gt;Node13</title>
<path fill="none" stroke="#191970" d="M366.8072,-444.4123C333.6382,-433.8298 292.2453,-420.6235 260.8336,-410.6017"/>
<polygon fill="#191970" stroke="#191970" points="365.7812,-447.7587 376.3719,-447.4639 367.9089,-441.0899 365.7812,-447.7587"/>
</g>
<!-- Node14 -->
<g id="node8" class="node">
<title>Node14</title>
<g id="a_node8"><a xlink:href="even__parity_8h.html" target="_top" xlink:title="src/equation/even_parity.h">
<polygon fill="none" stroke="#000000" points="287.5,-386 287.5,-405 421.5,-405 421.5,-386 287.5,-386"/>
<text text-anchor="middle" x="354.5" y="-393" font-family="Arial" font-size="10.00" fill="#000000">src/equation/even_parity.h</text>
</a>
</g>
</g>
<!-- Node12&#45;&gt;Node14 -->
<g id="edge7" class="edge">
<title>Node12&#45;&gt;Node14</title>
<path fill="none" stroke="#191970" d="M400.5377,-440.2032C388.2414,-428.2634 373.7352,-414.1776 364.3402,-405.055"/>
<polygon fill="#191970" stroke="#191970" points="398.2303,-442.8413 407.8428,-447.2967 403.1068,-437.8193 398.2303,-442.8413"/>
</g>
<!-- Node12&#45;&gt;Node16 -->
<g id="edge10" class="edge">
<title>Node12&#45;&gt;Node16</title>
<path fill="none" stroke="#191970" d="M489.8745,-456.2438C613.0268,-442.7887 864.5,-405.8444 864.5,-328.5 864.5,-328.5 864.5,-328.5 864.5,-205.5 864.5,-152.98 820.0866,-101.9397 799.6148,-81.2029"/>
<polygon fill="#191970" stroke="#191970" points="489.371,-452.7777 479.8009,-457.3233 490.1169,-459.7378 489.371,-452.7777"/>
</g>
<!-- Node18 -->
<g id="node12" class="node">
<title>Node18</title>
<g id="a_node12"><a xlink:href="iteration__base_8h.html" target="_top" xlink:title="src/iteration/iteration\l_base.h">
<polygon fill="none" stroke="#000000" points="440,-380.5 440,-410.5 547,-410.5 547,-380.5 440,-380.5"/>
<text text-anchor="start" x="448" y="-398.5" font-family="Arial" font-size="10.00" fill="#000000">src/iteration/iteration</text>
<text text-anchor="middle" x="493.5" y="-387.5" font-family="Arial" font-size="10.00" fill="#000000">_base.h</text>
</a>
</g>
</g>
<!-- Node12&#45;&gt;Node18 -->
<g id="edge13" class="edge">
<title>Node12&#45;&gt;Node18</title>
<path fill="none" stroke="#191970" d="M446.7867,-440.2113C456.9319,-430.5009 468.5614,-419.3698 477.6788,-410.6432"/>
<polygon fill="#191970" stroke="#191970" points="444.1882,-437.8536 439.3841,-447.2967 449.0284,-442.9105 444.1882,-437.8536"/>
</g>
<!-- Node21 -->
<g id="node15" class="node">
<title>Node21</title>
<g id="a_node15"><a xlink:href="iterations_8h.html" target="_top" xlink:title="src/iteration/iterations.h">
<polygon fill="none" stroke="#000000" points="617.5,-129 617.5,-148 737.5,-148 737.5,-129 617.5,-129"/>
<text text-anchor="middle" x="677.5" y="-136" font-family="Arial" font-size="10.00" fill="#000000">src/iteration/iterations.h</text>
</a>
</g>
</g>
<!-- Node12&#45;&gt;Node21 -->
<g id="edge37" class="edge">
<title>Node12&#45;&gt;Node21</title>
<path fill="none" stroke="#191970" d="M489.6088,-447.5482C576.8456,-426.459 723.4768,-385.8551 758.5,-344 783.5115,-314.1096 782.1325,-293.8705 769.5,-257 753.2917,-209.6927 709.6458,-166.6901 688.8359,-148.1455"/>
<polygon fill="#191970" stroke="#191970" points="488.7066,-444.1652 479.7971,-449.8985 490.3373,-450.9726 488.7066,-444.1652"/>
</g>
<!-- Node14&#45;&gt;Node11 -->
<g id="edge9" class="edge">
<title>Node14&#45;&gt;Node11</title>
<path fill="none" stroke="#191970" d="M300.973,-383.1368C245.7114,-366.8239 167.5,-332.2163 167.5,-267 167.5,-267 167.5,-267 167.5,-138.5 167.5,-66.4793 258.4786,-33.5968 320.671,-19.5325"/>
<polygon fill="#191970" stroke="#191970" points="300.0814,-386.5219 310.6568,-385.8799 301.9893,-379.7869 300.0814,-386.5219"/>
</g>
<!-- Node15 -->
<g id="node9" class="node">
<title>Node15</title>
<g id="a_node9"><a xlink:href="even__parity_8cc.html" target="_top" xlink:title="src/equation/even_parity.cc">
<polygon fill="none" stroke="#000000" points="270.5,-319 270.5,-338 408.5,-338 408.5,-319 270.5,-319"/>
<text text-anchor="middle" x="339.5" y="-326" font-family="Arial" font-size="10.00" fill="#000000">src/equation/even_parity.cc</text>
</a>
</g>
</g>
<!-- Node14&#45;&gt;Node15 -->
<g id="edge8" class="edge">
<title>Node14&#45;&gt;Node15</title>
<path fill="none" stroke="#191970" d="M350.1313,-375.9863C347.3422,-363.5286 343.849,-347.9258 341.6451,-338.0817"/>
<polygon fill="#191970" stroke="#191970" points="346.7506,-376.9068 352.3509,-385.9005 353.5815,-375.3774 346.7506,-376.9068"/>
</g>
<!-- Node16&#45;&gt;Node11 -->
<g id="edge11" class="edge">
<title>Node16&#45;&gt;Node11</title>
<path fill="none" stroke="#191970" d="M736.3959,-59.9021C729.3831,-58.51 722.2787,-57.1697 715.5,-56 621.9796,-39.8629 513.0982,-25.9037 444.7327,-17.7191"/>
<polygon fill="#191970" stroke="#191970" points="736.0597,-63.4052 746.5562,-61.9649 737.4525,-56.5452 736.0597,-63.4052"/>
</g>
<!-- Node17 -->
<g id="node11" class="node">
<title>Node17</title>
<g id="a_node11"><a xlink:href="main_8cc.html" target="_top" xlink:title="src/common/main.cc">
<polygon fill="none" stroke="#000000" points="735.5,-.5 735.5,-19.5 843.5,-19.5 843.5,-.5 735.5,-.5"/>
<text text-anchor="middle" x="789.5" y="-7.5" font-family="Arial" font-size="10.00" fill="#000000">src/common/main.cc</text>
</a>
</g>
</g>
<!-- Node16&#45;&gt;Node17 -->
<g id="edge12" class="edge">
<title>Node16&#45;&gt;Node17</title>
<path fill="none" stroke="#191970" d="M789.5,-51.7462C789.5,-41.0519 789.5,-28.314 789.5,-19.7449"/>
<polygon fill="#191970" stroke="#191970" points="786.0001,-51.8906 789.5,-61.8906 793.0001,-51.8907 786.0001,-51.8906"/>
</g>
<!-- Node19 -->
<g id="node13" class="node">
<title>Node19</title>
<g id="a_node13"><a xlink:href="mg__base_8h.html" target="_top" xlink:title="src/iteration/mg_base.h">
<polygon fill="none" stroke="#000000" points="464.5,-257.5 464.5,-276.5 584.5,-276.5 584.5,-257.5 464.5,-257.5"/>
<text text-anchor="middle" x="524.5" y="-264.5" font-family="Arial" font-size="10.00" fill="#000000">src/iteration/mg_base.h</text>
</a>
</g>
</g>
<!-- Node18&#45;&gt;Node19 -->
<g id="edge14" class="edge">
<title>Node18&#45;&gt;Node19</title>
<path fill="none" stroke="#191970" d="M493.0817,-370.2489C493.4265,-353.6724 495.0715,-331.6833 500.5,-313 504.3704,-299.679 512.2693,-285.7385 517.9493,-276.7443"/>
<polygon fill="#191970" stroke="#191970" points="489.5817,-370.2486 493.0161,-380.2713 496.5816,-370.2944 489.5817,-370.2486"/>
</g>
<!-- Node20 -->
<g id="node14" class="node">
<title>Node20</title>
<g id="a_node14"><a xlink:href="eigen__base_8h.html" target="_top" xlink:title="src/iteration/eigen\l_base.h">
<polygon fill="none" stroke="#000000" points="285,-190.5 285,-220.5 380,-220.5 380,-190.5 285,-190.5"/>
<text text-anchor="start" x="293" y="-208.5" font-family="Arial" font-size="10.00" fill="#000000">src/iteration/eigen</text>
<text text-anchor="middle" x="332.5" y="-197.5" font-family="Arial" font-size="10.00" fill="#000000">_base.h</text>
</a>
</g>
</g>
<!-- Node18&#45;&gt;Node20 -->
<g id="edge35" class="edge">
<title>Node18&#45;&gt;Node20</title>
<path fill="none" stroke="#191970" d="M474.0093,-372.4985C440.6039,-333.076 373.3044,-253.6543 345.2411,-220.5361"/>
<polygon fill="#191970" stroke="#191970" points="471.4617,-374.9061 480.5968,-380.2727 476.8023,-370.3807 471.4617,-374.9061"/>
</g>
<!-- Node29 -->
<g id="node23" class="node">
<title>Node29</title>
<g id="a_node23"><a xlink:href="ig__base_8h.html" target="_top" xlink:title="src/iteration/ig_base.h">
<polygon fill="none" stroke="#000000" points="635.5,-319 635.5,-338 749.5,-338 749.5,-319 635.5,-319"/>
<text text-anchor="middle" x="692.5" y="-326" font-family="Arial" font-size="10.00" fill="#000000">src/iteration/ig_base.h</text>
</a>
</g>
</g>
<!-- Node18&#45;&gt;Node29 -->
<g id="edge30" class="edge">
<title>Node18&#45;&gt;Node29</title>
<path fill="none" stroke="#191970" d="M547.9658,-377.1623C585.5961,-364.4928 634.1179,-348.1563 664.2679,-338.0053"/>
<polygon fill="#191970" stroke="#191970" points="546.5199,-373.9559 538.1595,-380.4639 548.7536,-380.59 546.5199,-373.9559"/>
</g>
<!-- Node31 -->
<g id="node25" class="node">
<title>Node31</title>
<g id="a_node25"><a xlink:href="iteration__base_8cc.html" target="_top" xlink:title="src/iteration/iteration\l_base.cc">
<polygon fill="none" stroke="#000000" points="510,-313.5 510,-343.5 617,-343.5 617,-313.5 510,-313.5"/>
<text text-anchor="start" x="518" y="-331.5" font-family="Arial" font-size="10.00" fill="#000000">src/iteration/iteration</text>
<text text-anchor="middle" x="563.5" y="-320.5" font-family="Arial" font-size="10.00" fill="#000000">_base.cc</text>
</a>
</g>
</g>
<!-- Node18&#45;&gt;Node31 -->
<g id="edge36" class="edge">
<title>Node18&#45;&gt;Node31</title>
<path fill="none" stroke="#191970" d="M516.7867,-373.2113C526.9319,-363.5009 538.5614,-352.3698 547.6788,-343.6432"/>
<polygon fill="#191970" stroke="#191970" points="514.1882,-370.8536 509.3841,-380.2967 519.0284,-375.9105 514.1882,-370.8536"/>
</g>
<!-- Node19&#45;&gt;Node16 -->
<g id="edge15" class="edge">
<title>Node19&#45;&gt;Node16</title>
<path fill="none" stroke="#191970" d="M594.8655,-256.3395C625.0384,-249.5167 659.6677,-238.5244 687.5,-221 743.0706,-186.0104 775.8898,-108.5076 786.0675,-81.229"/>
<polygon fill="#191970" stroke="#191970" points="593.8621,-252.9751 584.82,-258.4969 595.332,-259.8191 593.8621,-252.9751"/>
</g>
<!-- Node19&#45;&gt;Node20 -->
<g id="edge16" class="edge">
<title>Node19&#45;&gt;Node20</title>
<path fill="none" stroke="#191970" d="M484.6045,-254.221C454.0087,-244.4207 411.699,-230.8684 379.4685,-220.5446"/>
<polygon fill="#191970" stroke="#191970" points="483.9089,-257.6733 494.5,-257.3906 486.0443,-251.0069 483.9089,-257.6733"/>
</g>
<!-- Node19&#45;&gt;Node21 -->
<g id="edge25" class="edge">
<title>Node19&#45;&gt;Node21</title>
<path fill="none" stroke="#191970" d="M524.476,-247.4413C525.4775,-230.3433 529.5269,-205.8388 543.5,-190 556.8965,-174.8148 607.278,-158.1569 642.2931,-148.0145"/>
<polygon fill="#191970" stroke="#191970" points="520.9775,-247.3442 524.1844,-257.442 527.9745,-247.5483 520.9775,-247.3442"/>
</g>
<!-- Node26 -->
<g id="node20" class="node">
<title>Node26</title>
<g id="a_node20"><a xlink:href="gauss__seidel_8h.html" target="_top" xlink:title="src/iteration/gauss\l_seidel.h">
<polygon fill="none" stroke="#000000" points="398.5,-190.5 398.5,-220.5 496.5,-220.5 496.5,-190.5 398.5,-190.5"/>
<text text-anchor="start" x="406.5" y="-208.5" font-family="Arial" font-size="10.00" fill="#000000">src/iteration/gauss</text>
<text text-anchor="middle" x="447.5" y="-197.5" font-family="Arial" font-size="10.00" fill="#000000">_seidel.h</text>
</a>
</g>
</g>
<!-- Node19&#45;&gt;Node26 -->
<g id="edge26" class="edge">
<title>Node19&#45;&gt;Node26</title>
<path fill="none" stroke="#191970" d="M504.5156,-251.0385C492.7329,-241.6276 477.9133,-229.7911 466.3363,-220.5446"/>
<polygon fill="#191970" stroke="#191970" points="502.4708,-253.8846 512.4688,-257.3906 506.8394,-248.415 502.4708,-253.8846"/>
</g>
<!-- Node28 -->
<g id="node22" class="node">
<title>Node28</title>
<g id="a_node22"><a xlink:href="mg__base_8cc.html" target="_top" xlink:title="src/iteration/mg_base.cc">
<polygon fill="none" stroke="#000000" points="553,-196 553,-215 678,-215 678,-196 553,-196"/>
<text text-anchor="middle" x="615.5" y="-203" font-family="Arial" font-size="10.00" fill="#000000">src/iteration/mg_base.cc</text>
</a>
</g>
</g>
<!-- Node19&#45;&gt;Node28 -->
<g id="edge29" class="edge">
<title>Node19&#45;&gt;Node28</title>
<path fill="none" stroke="#191970" d="M547.0117,-251.786C564.0275,-240.2864 586.8609,-224.855 601.3811,-215.0419"/>
<polygon fill="#191970" stroke="#191970" points="545.0443,-248.8913 538.7188,-257.3906 548.9639,-254.691 545.0443,-248.8913"/>
</g>
<!-- Node20&#45;&gt;Node16 -->
<g id="edge17" class="edge">
<title>Node20&#45;&gt;Node16</title>
<path fill="none" stroke="#191970" d="M364.5938,-185.079C395.9859,-166.058 445.7581,-138.3893 492.5,-123 587.8588,-91.6041 616.7869,-105.2959 715.5,-87 725.3087,-85.182 735.8155,-83.0774 745.7413,-81.0165"/>
<polygon fill="#191970" stroke="#191970" points="362.5496,-182.2268 355.8553,-190.4389 366.2096,-188.1938 362.5496,-182.2268"/>
</g>
<!-- Node20&#45;&gt;Node21 -->
<g id="edge18" class="edge">
<title>Node20&#45;&gt;Node21</title>
<path fill="none" stroke="#191970" d="M390.2701,-189.9679C487.6208,-169.2514 514.7924,-172.2112 608.5,-154 617.6597,-152.2199 627.4621,-150.1306 636.7183,-148.0727"/>
<polygon fill="#191970" stroke="#191970" points="389.3431,-186.5873 380.3063,-192.1178 390.8196,-193.4298 389.3431,-186.5873"/>
</g>
<!-- Node23 -->
<g id="node17" class="node">
<title>Node23</title>
<g id="a_node17"><a xlink:href="power__iteration_8h.html" target="_top" xlink:title="src/iteration/power\l_iteration.h">
<polygon fill="none" stroke="#000000" points="309.5,-123.5 309.5,-153.5 407.5,-153.5 407.5,-123.5 309.5,-123.5"/>
<text text-anchor="start" x="317.5" y="-141.5" font-family="Arial" font-size="10.00" fill="#000000">src/iteration/power</text>
<text text-anchor="middle" x="358.5" y="-130.5" font-family="Arial" font-size="10.00" fill="#000000">_iteration.h</text>
</a>
</g>
</g>
<!-- Node20&#45;&gt;Node23 -->
<g id="edge21" class="edge">
<title>Node20&#45;&gt;Node23</title>
<path fill="none" stroke="#191970" d="M342.0454,-180.9021C345.5894,-171.7696 349.5027,-161.6854 352.6235,-153.6432"/>
<polygon fill="#191970" stroke="#191970" points="338.7547,-179.7078 338.3998,-190.2967 345.2805,-182.2402 338.7547,-179.7078"/>
</g>
<!-- Node25 -->
<g id="node19" class="node">
<title>Node25</title>
<g id="a_node19"><a xlink:href="eigen__base_8cc.html" target="_top" xlink:title="src/iteration/eigen\l_base.cc">
<polygon fill="none" stroke="#000000" points="196,-123.5 196,-153.5 291,-153.5 291,-123.5 196,-123.5"/>
<text text-anchor="start" x="204" y="-141.5" font-family="Arial" font-size="10.00" fill="#000000">src/iteration/eigen</text>
<text text-anchor="middle" x="243.5" y="-130.5" font-family="Arial" font-size="10.00" fill="#000000">_base.cc</text>
</a>
</g>
</g>
<!-- Node20&#45;&gt;Node25 -->
<g id="edge24" class="edge">
<title>Node20&#45;&gt;Node25</title>
<path fill="none" stroke="#191970" d="M304.0257,-184.0643C290.8662,-174.1577 275.5487,-162.6265 263.6156,-153.6432"/>
<polygon fill="#191970" stroke="#191970" points="302.2103,-187.0785 312.3045,-190.2967 306.4203,-181.486 302.2103,-187.0785"/>
</g>
<!-- Node21&#45;&gt;Node16 -->
<g id="edge19" class="edge">
<title>Node21&#45;&gt;Node16</title>
<path fill="none" stroke="#191970" d="M702.2219,-123.711C723.9288,-110.7256 754.8662,-92.2184 773.4829,-81.0817"/>
<polygon fill="#191970" stroke="#191970" points="700.3318,-120.7632 693.5469,-128.9005 703.9254,-126.7704 700.3318,-120.7632"/>
</g>
<!-- Node22 -->
<g id="node16" class="node">
<title>Node22</title>
<g id="a_node16"><a xlink:href="iterations_8cc.html" target="_top" xlink:title="src/iteration/iterations.cc">
<polygon fill="none" stroke="#000000" points="582.5,-62 582.5,-81 706.5,-81 706.5,-62 582.5,-62"/>
<text text-anchor="middle" x="644.5" y="-69" font-family="Arial" font-size="10.00" fill="#000000">src/iteration/iterations.cc</text>
</a>
</g>
</g>
<!-- Node21&#45;&gt;Node22 -->
<g id="edge20" class="edge">
<title>Node21&#45;&gt;Node22</title>
<path fill="none" stroke="#191970" d="M668.2587,-119.7374C662.0646,-107.1614 654.1659,-91.1246 649.2193,-81.0817"/>
<polygon fill="#191970" stroke="#191970" points="665.2135,-121.4761 672.7719,-128.9005 671.4932,-118.3831 665.2135,-121.4761"/>
</g>
<!-- Node23&#45;&gt;Node11 -->
<g id="edge22" class="edge">
<title>Node23&#45;&gt;Node11</title>
<path fill="none" stroke="#191970" d="M362.2427,-113.1876C366.4727,-84.5797 373.1476,-39.4362 376.0605,-19.7358"/>
<polygon fill="#191970" stroke="#191970" points="358.7546,-112.8503 360.7542,-123.2548 365.6793,-113.8743 358.7546,-112.8503"/>
</g>
<!-- Node24 -->
<g id="node18" class="node">
<title>Node24</title>
<g id="a_node18"><a xlink:href="power__iteration_8cc.html" target="_top" xlink:title="src/iteration/power\l_iteration.cc">
<polygon fill="none" stroke="#000000" points="251.5,-56.5 251.5,-86.5 349.5,-86.5 349.5,-56.5 251.5,-56.5"/>
<text text-anchor="start" x="259.5" y="-74.5" font-family="Arial" font-size="10.00" fill="#000000">src/iteration/power</text>
<text text-anchor="middle" x="300.5" y="-63.5" font-family="Arial" font-size="10.00" fill="#000000">_iteration.cc</text>
</a>
</g>
</g>
<!-- Node23&#45;&gt;Node24 -->
<g id="edge23" class="edge">
<title>Node23&#45;&gt;Node24</title>
<path fill="none" stroke="#191970" d="M338.7094,-115.6385C330.4222,-106.0653 321.0153,-95.1987 313.609,-86.6432"/>
<polygon fill="#191970" stroke="#191970" points="336.1476,-118.0268 345.3389,-123.2967 341.4401,-113.4453 336.1476,-118.0268"/>
</g>
<!-- Node26&#45;&gt;Node11 -->
<g id="edge27" class="edge">
<title>Node26&#45;&gt;Node11</title>
<path fill="none" stroke="#191970" d="M438.724,-180.9899C423.2197,-137.6887 391.6209,-49.4378 381.0411,-19.8898"/>
<polygon fill="#191970" stroke="#191970" points="435.4572,-182.2492 442.1234,-190.4841 442.0475,-179.8895 435.4572,-182.2492"/>
</g>
<!-- Node27 -->
<g id="node21" class="node">
<title>Node27</title>
<g id="a_node21"><a xlink:href="gauss__seidel_8cc.html" target="_top" xlink:title="src/iteration/gauss\l_seidel.cc">
<polygon fill="none" stroke="#000000" points="501.5,-123.5 501.5,-153.5 599.5,-153.5 599.5,-123.5 501.5,-123.5"/>
<text text-anchor="start" x="509.5" y="-141.5" font-family="Arial" font-size="10.00" fill="#000000">src/iteration/gauss</text>
<text text-anchor="middle" x="550.5" y="-130.5" font-family="Arial" font-size="10.00" fill="#000000">_seidel.cc</text>
</a>
</g>
</g>
<!-- Node26&#45;&gt;Node27 -->
<g id="edge28" class="edge">
<title>Node26&#45;&gt;Node27</title>
<path fill="none" stroke="#191970" d="M479.3299,-184.7951C494.7634,-174.7558 512.9705,-162.9124 527.1056,-153.7177"/>
<polygon fill="#191970" stroke="#191970" points="477.0893,-182.0772 470.6152,-190.4639 480.9063,-187.945 477.0893,-182.0772"/>
</g>
<!-- Node29&#45;&gt;Node16 -->
<g id="edge32" class="edge">
<title>Node29&#45;&gt;Node16</title>
<path fill="none" stroke="#191970" d="M726.0671,-314.4402C741.9438,-305.9894 759.5607,-293.613 769.5,-277 808.6997,-211.4798 796.5142,-112.7266 791.3146,-81.4002"/>
<polygon fill="#191970" stroke="#191970" points="724.3794,-311.3707 716.9914,-318.9647 727.5025,-317.6354 724.3794,-311.3707"/>
</g>
<!-- Node29&#45;&gt;Node19 -->
<g id="edge31" class="edge">
<title>Node29&#45;&gt;Node19</title>
<path fill="none" stroke="#191970" d="M656.8523,-315.4504C625.0038,-303.7916 579.0937,-286.9852 550.5657,-276.5419"/>
<polygon fill="#191970" stroke="#191970" points="655.6562,-318.7396 666.25,-318.8906 658.0626,-312.1662 655.6562,-318.7396"/>
</g>
<!-- Node29&#45;&gt;Node21 -->
<g id="edge33" class="edge">
<title>Node29&#45;&gt;Node21</title>
<path fill="none" stroke="#191970" d="M666.1011,-313.4222C653.4188,-304.6021 639.4858,-292.2023 632.5,-277 628.7885,-268.9231 628.2727,-264.8193 632.5,-257 646.394,-231.3 673.606,-246.7 687.5,-221 700.3309,-197.2664 689.0808,-164.1854 682.0842,-148.0768"/>
<polygon fill="#191970" stroke="#191970" points="664.2913,-316.4204 674.5805,-318.9469 668.1126,-310.5554 664.2913,-316.4204"/>
</g>
<!-- Node30 -->
<g id="node24" class="node">
<title>Node30</title>
<g id="a_node24"><a xlink:href="ig__base_8cc.html" target="_top" xlink:title="src/iteration/ig_base.cc">
<polygon fill="none" stroke="#000000" points="641,-257.5 641,-276.5 760,-276.5 760,-257.5 641,-257.5"/>
<text text-anchor="middle" x="700.5" y="-264.5" font-family="Arial" font-size="10.00" fill="#000000">src/iteration/ig_base.cc</text>
</a>
</g>
</g>
<!-- Node29&#45;&gt;Node30 -->
<g id="edge34" class="edge">
<title>Node29&#45;&gt;Node30</title>
<path fill="none" stroke="#191970" d="M695.0696,-308.7462C696.4607,-298.0519 698.1177,-285.314 699.2324,-276.7449"/>
<polygon fill="#191970" stroke="#191970" points="691.5693,-308.5227 693.75,-318.8906 698.5108,-309.4257 691.5693,-308.5227"/>
</g>
</g>
</svg>
        <g id="navigator" transform="translate(0 0)" fill="#404254">
                <rect fill="#f2f5e9" fill-opacity="0.5" stroke="#606060" stroke-width=".5" x="0" y="0" width="60" height="60"/>
                <use id="zoomplus" xlink:href="#zoomPlus" x="17" y="9" onmousedown="handleZoom(evt,'in')"/>
                <use id="zoomminus" xlink:href="#zoomMin" x="42" y="9" onmousedown="handleZoom(evt,'out')"/>
                <use id="reset" xlink:href="#resetDef" x="30" y="36" onmousedown="handleReset()"/>
                <g id="arrowUp" xlink:href="#dirArrow" transform="translate(30 24)" onmousedown="handlePan(0,-1)">
                  <use xlink:href="#rim" fill="#404040">
                        <set attributeName="fill" to="#808080" begin="arrowUp.mouseover" end="arrowUp.mouseout"/>
                  </use>
                  <path fill="none" stroke="white" stroke-width="1.5" d="M0,-3.0v7 M-2.5,-0.5L0,-3.0L2.5,-0.5"/>
                </g>
                <g id="arrowRight" xlink:href="#dirArrow" transform="rotate(90) translate(36 -43)" onmousedown="handlePan(1,0)">
                  <use xlink:href="#rim" fill="#404040">
                        <set attributeName="fill" to="#808080" begin="arrowRight.mouseover" end="arrowRight.mouseout"/>
                  </use>
                  <path fill="none" stroke="white" stroke-width="1.5" d="M0,-3.0v7 M-2.5,-0.5L0,-3.0L2.5,-0.5"/>
                </g>
                <g id="arrowDown" xlink:href="#dirArrow" transform="rotate(180) translate(-30 -48)" onmousedown="handlePan(0,1)">
                  <use xlink:href="#rim" fill="#404040">
                        <set attributeName="fill" to="#808080" begin="arrowDown.mouseover" end="arrowDown.mouseout"/>
                  </use>
                  <path fill="none" stroke="white" stroke-width="1.5" d="M0,-3.0v7 M-2.5,-0.5L0,-3.0L2.5,-0.5"/>
                </g>
                <g id="arrowLeft" xlink:href="#dirArrow" transform="rotate(270) translate(-36 17)" onmousedown="handlePan(-1,0)">
                  <use xlink:href="#rim" fill="#404040">
                        <set attributeName="fill" to="#808080" begin="arrowLeft.mouseover" end="arrowLeft.mouseout"/>
                  </use>
                  <path fill="none" stroke="white" stroke-width="1.5" d="M0,-3.0v7 M-2.5,-0.5L0,-3.0L2.5,-0.5"/>
                </g>
        </g>
        <svg viewBox="0 0 15 15" width="100%" height="30px" preserveAspectRatio="xMaxYMin meet">
         <g id="arrow_out" transform="scale(0.3 0.3)">
          <a xlink:href="aq__base_8h__dep__incl_org.svg" target="_base">
           <rect id="button" ry="5" rx="5" y="6" x="6" height="38" width="38"
                fill="#f2f5e9" fill-opacity="0.5" stroke="#606060" stroke-width="1.0"/>
           <path id="arrow"
             d="M 11.500037,31.436501 C 11.940474,20.09759 22.043105,11.32322 32.158766,21.979434 L 37.068811,17.246167 C 37.068811,17.246167 37.088388,32 37.088388,32 L 22.160133,31.978069 C 22.160133,31.978069 26.997745,27.140456 26.997745,27.140456 C 18.528582,18.264221 13.291696,25.230495 11.500037,31.436501 z"
             style="fill:#404040;"/>
          </a>
         </g>
        </svg>
</svg>
