<?xml version="1.0" encoding="UTF-8" standalone="no"?>
<!DOCTYPE svg PUBLIC "-//W3C//DTD SVG 1.1//EN"
 "http://www.w3.org/Graphics/SVG/1.1/DTD/svg11.dtd">
<!-- Generated by graphviz version 2.40.1 (20161225.0304)
 -->
<!-- Title: src/common/bart_driver.h Pages: 1 -->
<svg width="268pt" height="84pt"
 viewBox="0.00 0.00 268.00 84.00" xmlns="http://www.w3.org/2000/svg" xmlns:xlink="http://www.w3.org/1999/xlink">
<g id="graph0" class="graph" transform="scale(1 1) rotate(0) translate(4 80)">
<title>src/common/bart_driver.h</title>
<!-- Node40 -->
<g id="node1" class="node">
<title>Node40</title>
<polygon fill="#bfbfbf" stroke="#000000" points="71,-56.5 71,-75.5 201,-75.5 201,-56.5 71,-56.5"/>
<text text-anchor="middle" x="136" y="-63.5" font-family="Arial" font-size="10.00" fill="#000000">src/common/bart_driver.h</text>
</g>
<!-- Node41 -->
<g id="node2" class="node">
<title>Node41</title>
<g id="a_node2"><a xlink:href="bart__driver_8cc.html" target="_top" xlink:title="src/common/bart_driver.cc">
<polygon fill="none" stroke="#000000" points="0,-.5 0,-19.5 134,-19.5 134,-.5 0,-.5"/>
<text text-anchor="middle" x="67" y="-7.5" font-family="Arial" font-size="10.00" fill="#000000">src/common/bart_driver.cc</text>
</a>
</g>
</g>
<!-- Node40&#45;&gt;Node41 -->
<g id="edge1" class="edge">
<title>Node40&#45;&gt;Node41</title>
<path fill="none" stroke="#191970" d="M116.197,-49.928C104.1364,-40.1397 89.1286,-27.9595 78.8812,-19.6427"/>
<polygon fill="#191970" stroke="#191970" points="114.0109,-52.6614 123.9811,-56.2455 118.4221,-47.2262 114.0109,-52.6614"/>
</g>
<!-- Node42 -->
<g id="node3" class="node">
<title>Node42</title>
<g id="a_node3"><a xlink:href="main_8cc.html" target="_top" xlink:title="src/common/main.cc">
<polygon fill="none" stroke="#000000" points="152,-.5 152,-19.5 260,-19.5 260,-.5 152,-.5"/>
<text text-anchor="middle" x="206" y="-7.5" font-family="Arial" font-size="10.00" fill="#000000">src/common/main.cc</text>
</a>
</g>
</g>
<!-- Node40&#45;&gt;Node42 -->
<g id="edge2" class="edge">
<title>Node40&#45;&gt;Node42</title>
<path fill="none" stroke="#191970" d="M156.09,-49.928C168.3253,-40.1397 183.5507,-27.9595 193.9467,-19.6427"/>
<polygon fill="#191970" stroke="#191970" points="153.8153,-47.2655 148.1931,-56.2455 158.1882,-52.7316 153.8153,-47.2655"/>
</g>
</g>
</svg>
