<?xml version="1.0" encoding="UTF-8" standalone="no"?>
<!DOCTYPE svg PUBLIC "-//W3C//DTD SVG 1.1//EN"
 "http://www.w3.org/Graphics/SVG/1.1/DTD/svg11.dtd">
<!-- Generated by graphviz version 2.40.1 (20161225.0304)
 -->
<!-- Title: MeshGenerator::MeshGenerator Pages: 1 -->
<svg width="352pt" height="137pt"
 viewBox="0.00 0.00 352.00 137.00" xmlns="http://www.w3.org/2000/svg" xmlns:xlink="http://www.w3.org/1999/xlink">
<g id="graph0" class="graph" transform="scale(1 1) rotate(0) translate(4 133)">
<title>MeshGenerator::MeshGenerator</title>
<!-- Node0 -->
<g id="node1" class="node">
<title>Node0</title>
<polygon fill="#bfbfbf" stroke="#000000" points="0,-55 0,-74 161,-74 161,-55 0,-55"/>
<text text-anchor="middle" x="80.5" y="-62" font-family="Arial" font-size="10.00" fill="#000000">MeshGenerator::MeshGenerator</text>
</g>
<!-- Node1 -->
<g id="node2" class="node">
<title>Node1</title>
<g id="a_node2"><a xlink:href="class_mesh_generator.html#a253330ef901e2a915576f6d6cd4262b5" target="_top" xlink:title="MeshGenerator::process\l_coordinate_information">
<polygon fill="none" stroke="#000000" points="207,-98.5 207,-128.5 334,-128.5 334,-98.5 207,-98.5"/>
<text text-anchor="start" x="215" y="-116.5" font-family="Arial" font-size="10.00" fill="#000000">MeshGenerator::process</text>
<text text-anchor="middle" x="270.5" y="-105.5" font-family="Arial" font-size="10.00" fill="#000000">_coordinate_information</text>
</a>
</g>
</g>
<!-- Node0&#45;&gt;Node1 -->
<g id="edge1" class="edge">
<title>Node0&#45;&gt;Node1</title>
<path fill="none" stroke="#191970" d="M117.585,-74.064C141.6396,-80.2676 173.7051,-88.5371 202.2589,-95.901"/>
<polygon fill="#191970" stroke="#191970" points="201.6362,-99.3548 212.1934,-98.463 203.3843,-92.5766 201.6362,-99.3548"/>
</g>
<!-- Node2 -->
<g id="node3" class="node">
<title>Node2</title>
<g id="a_node3"><a xlink:href="class_mesh_generator.html#a6d216567b5b599cee526f33d435e6655" target="_top" xlink:title="MeshGenerator::initialize\l_relative_position_to_id_map">
<polygon fill="none" stroke="#000000" points="197,-49.5 197,-79.5 344,-79.5 344,-49.5 197,-49.5"/>
<text text-anchor="start" x="205" y="-67.5" font-family="Arial" font-size="10.00" fill="#000000">MeshGenerator::initialize</text>
<text text-anchor="middle" x="270.5" y="-56.5" font-family="Arial" font-size="10.00" fill="#000000">_relative_position_to_id_map</text>
</a>
</g>
</g>
<!-- Node0&#45;&gt;Node2 -->
<g id="edge2" class="edge">
<title>Node0&#45;&gt;Node2</title>
<path fill="none" stroke="#191970" d="M161.0771,-64.5C169.49,-64.5 178.0575,-64.5 186.5071,-64.5"/>
<polygon fill="#191970" stroke="#191970" points="186.7373,-68.0001 196.7372,-64.5 186.7372,-61.0001 186.7373,-68.0001"/>
</g>
<!-- Node3 -->
<g id="node4" class="node">
<title>Node3</title>
<g id="a_node4"><a xlink:href="class_mesh_generator.html#a93d10aa06b5b638a859e2fc53dbea5e0" target="_top" xlink:title="MeshGenerator::preprocess\l_reflective_bc">
<polygon fill="none" stroke="#000000" points="200,-.5 200,-30.5 341,-30.5 341,-.5 200,-.5"/>
<text text-anchor="start" x="208" y="-18.5" font-family="Arial" font-size="10.00" fill="#000000">MeshGenerator::preprocess</text>
<text text-anchor="middle" x="270.5" y="-7.5" font-family="Arial" font-size="10.00" fill="#000000">_reflective_bc</text>
</a>
</g>
</g>
<!-- Node0&#45;&gt;Node3 -->
<g id="edge3" class="edge">
<title>Node0&#45;&gt;Node3</title>
<path fill="none" stroke="#191970" d="M117.585,-54.936C141.6396,-48.7324 173.7051,-40.4629 202.2589,-33.099"/>
<polygon fill="#191970" stroke="#191970" points="203.3843,-36.4234 212.1934,-30.537 201.6362,-29.6452 203.3843,-36.4234"/>
</g>
</g>
</svg>
