<?xml version="1.0" encoding="UTF-8" standalone="no"?>
<!DOCTYPE svg PUBLIC "-//W3C//DTD SVG 1.1//EN"
 "http://www.w3.org/Graphics/SVG/1.1/DTD/svg11.dtd">
<!-- Generated by graphviz version 2.40.1 (20161225.0304)
 -->
<!-- Title: MeshGenerator::MeshGenerator Pages: 1 -->
<svg width="736pt" height="227pt"
 viewBox="0.00 0.00 736.00 227.00" xmlns="http://www.w3.org/2000/svg" xmlns:xlink="http://www.w3.org/1999/xlink">
<g id="graph0" class="graph" transform="scale(1 1) rotate(0) translate(4 223)">
<title>MeshGenerator::MeshGenerator</title>
<!-- Node0 -->
<g id="node1" class="node">
<title>Node0</title>
<polygon fill="#bfbfbf" stroke="#000000" points="0,-92.5 0,-126.5 363,-126.5 363,-92.5 0,-92.5"/>
<text text-anchor="middle" x="181.5" y="-103.3" font-family="Arial" font-size="24.00" fill="#000000">MeshGenerator::MeshGenerator</text>
</g>
<!-- Node1 -->
<g id="node2" class="node">
<title>Node1</title>
<g id="a_node2"><a xlink:href="class_mesh_generator.html#a253330ef901e2a915576f6d6cd4262b5" target="_top" xlink:title="MeshGenerator::process\l_coordinate_information">
<polygon fill="none" stroke="#000000" points="423,-158.5 423,-218.5 704,-218.5 704,-158.5 423,-158.5"/>
<text text-anchor="start" x="431" y="-195.3" font-family="Arial" font-size="24.00" fill="#000000">MeshGenerator::process</text>
<text text-anchor="middle" x="563.5" y="-169.3" font-family="Arial" font-size="24.00" fill="#000000">_coordinate_information</text>
</a>
</g>
</g>
<!-- Node0&#45;&gt;Node1 -->
<g id="edge1" class="edge">
<title>Node0&#45;&gt;Node1</title>
<path fill="none" stroke="#191970" d="M263.918,-126.5446C307.4073,-135.5384 362.1428,-146.8581 412.8916,-157.3532"/>
<polygon fill="#191970" stroke="#191970" points="412.482,-160.8425 422.9837,-159.4403 413.8997,-153.9876 412.482,-160.8425"/>
</g>
<!-- Node2 -->
<g id="node3" class="node">
<title>Node2</title>
<g id="a_node3"><a xlink:href="class_mesh_generator.html#a6d216567b5b599cee526f33d435e6655" target="_top" xlink:title="MeshGenerator::initialize\l_relative_position_to_id_map">
<polygon fill="none" stroke="#000000" points="399,-79.5 399,-139.5 728,-139.5 728,-79.5 399,-79.5"/>
<text text-anchor="start" x="407" y="-116.3" font-family="Arial" font-size="24.00" fill="#000000">MeshGenerator::initialize</text>
<text text-anchor="middle" x="563.5" y="-90.3" font-family="Arial" font-size="24.00" fill="#000000">_relative_position_to_id_map</text>
</a>
</g>
</g>
<!-- Node0&#45;&gt;Node2 -->
<g id="edge2" class="edge">
<title>Node0&#45;&gt;Node2</title>
<path fill="none" stroke="#191970" d="M363.2703,-109.5C371.6797,-109.5 380.1129,-109.5 388.5047,-109.5"/>
<polygon fill="#191970" stroke="#191970" points="388.7159,-113.0001 398.7159,-109.5 388.7159,-106.0001 388.7159,-113.0001"/>
</g>
<!-- Node3 -->
<g id="node4" class="node">
<title>Node3</title>
<g id="a_node4"><a xlink:href="class_mesh_generator.html#a93d10aa06b5b638a859e2fc53dbea5e0" target="_top" xlink:title="MeshGenerator::preprocess\l_reflective_bc">
<polygon fill="none" stroke="#000000" points="406,-.5 406,-60.5 721,-60.5 721,-.5 406,-.5"/>
<text text-anchor="start" x="414" y="-37.3" font-family="Arial" font-size="24.00" fill="#000000">MeshGenerator::preprocess</text>
<text text-anchor="middle" x="563.5" y="-11.3" font-family="Arial" font-size="24.00" fill="#000000">_reflective_bc</text>
</a>
</g>
</g>
<!-- Node0&#45;&gt;Node3 -->
<g id="edge3" class="edge">
<title>Node0&#45;&gt;Node3</title>
<path fill="none" stroke="#191970" d="M263.918,-92.4554C306.1735,-83.7167 359.0463,-72.7823 408.5633,-62.5419"/>
<polygon fill="#191970" stroke="#191970" points="409.3338,-65.9567 418.4178,-60.5039 407.9161,-59.1017 409.3338,-65.9567"/>
</g>
</g>
</svg>
