<?xml version="1.0" encoding="UTF-8" standalone="no"?>
<!DOCTYPE svg PUBLIC "-//W3C//DTD SVG 1.1//EN"
 "http://www.w3.org/Graphics/SVG/1.1/DTD/svg11.dtd">
<!-- Generated by graphviz version 2.40.1 (20161225.0304)
 -->
<!-- Title: GaussSeidel&lt; dim &gt; Pages: 1 -->
<svg width="117pt" height="140pt"
 viewBox="0.00 0.00 117.00 140.00" xmlns="http://www.w3.org/2000/svg" xmlns:xlink="http://www.w3.org/1999/xlink">
<g id="graph0" class="graph" transform="scale(1 1) rotate(0) translate(4 136)">
<title>GaussSeidel&lt; dim &gt;</title>
<!-- Node0 -->
<g id="node1" class="node">
<title>Node0</title>
<polygon fill="#bfbfbf" stroke="#000000" points="1,-.5 1,-19.5 108,-19.5 108,-.5 1,-.5"/>
<text text-anchor="middle" x="54.5" y="-7.5" font-family="Arial" font-size="10.00" fill="#000000">GaussSeidel&lt; dim &gt;</text>
</g>
<!-- Node1 -->
<g id="node2" class="node">
<title>Node1</title>
<g id="a_node2"><a xlink:href="class_m_g_base.html" target="_top" xlink:title="This class provides abstract functionalities for MG calculations. ">
<polygon fill="none" stroke="#000000" points="10,-56.5 10,-75.5 99,-75.5 99,-56.5 10,-56.5"/>
<text text-anchor="middle" x="54.5" y="-63.5" font-family="Arial" font-size="10.00" fill="#000000">MGBase&lt; dim &gt;</text>
</a>
</g>
</g>
<!-- Node1&#45;&gt;Node0 -->
<g id="edge1" class="edge">
<title>Node1&#45;&gt;Node0</title>
<path fill="none" stroke="#191970" d="M54.5,-46.1575C54.5,-37.155 54.5,-26.9199 54.5,-19.6427"/>
<polygon fill="#191970" stroke="#191970" points="51.0001,-46.2455 54.5,-56.2455 58.0001,-46.2456 51.0001,-46.2455"/>
</g>
<!-- Node2 -->
<g id="node3" class="node">
<title>Node2</title>
<g id="a_node3"><a xlink:href="class_iteration_base.html" target="_top" xlink:title="This class provides common functionalities for iteration related classes. ">
<polygon fill="none" stroke="#000000" points="0,-112.5 0,-131.5 109,-131.5 109,-112.5 0,-112.5"/>
<text text-anchor="middle" x="54.5" y="-119.5" font-family="Arial" font-size="10.00" fill="#000000">IterationBase&lt; dim &gt;</text>
</a>
</g>
</g>
<!-- Node2&#45;&gt;Node1 -->
<g id="edge2" class="edge">
<title>Node2&#45;&gt;Node1</title>
<path fill="none" stroke="#191970" d="M54.5,-102.1575C54.5,-93.155 54.5,-82.9199 54.5,-75.6427"/>
<polygon fill="#191970" stroke="#191970" points="51.0001,-102.2455 54.5,-112.2455 58.0001,-102.2456 51.0001,-102.2455"/>
</g>
</g>
</svg>
