<?xml version="1.0" encoding="UTF-8" standalone="no"?>
<!DOCTYPE svg PUBLIC "-//W3C//DTD SVG 1.1//EN"
 "http://www.w3.org/Graphics/SVG/1.1/DTD/svg11.dtd">
<!-- Generated by graphviz version 2.40.1 (20161225.0304)
 -->
<!-- Title: SourceIteration&lt; dim &gt; Pages: 1 -->
<svg width="126pt" height="140pt"
 viewBox="0.00 0.00 126.00 140.00" xmlns="http://www.w3.org/2000/svg" xmlns:xlink="http://www.w3.org/1999/xlink">
<g id="graph0" class="graph" transform="scale(1 1) rotate(0) translate(4 136)">
<title>SourceIteration&lt; dim &gt;</title>
<!-- Node3 -->
<g id="node1" class="node">
<title>Node3</title>
<polygon fill="#bfbfbf" stroke="#000000" points="0,-.5 0,-19.5 118,-19.5 118,-.5 0,-.5"/>
<text text-anchor="middle" x="59" y="-7.5" font-family="Arial" font-size="10.00" fill="#000000">SourceIteration&lt; dim &gt;</text>
</g>
<!-- Node4 -->
<g id="node2" class="node">
<title>Node4</title>
<g id="a_node2"><a xlink:href="class_i_g_base.html" target="_top" xlink:title="This class provides in&#45;group solving scheme. ">
<polygon fill="none" stroke="#000000" points="17.5,-56.5 17.5,-75.5 100.5,-75.5 100.5,-56.5 17.5,-56.5"/>
<text text-anchor="middle" x="59" y="-63.5" font-family="Arial" font-size="10.00" fill="#000000">IGBase&lt; dim &gt;</text>
</a>
</g>
</g>
<!-- Node4&#45;&gt;Node3 -->
<g id="edge1" class="edge">
<title>Node4&#45;&gt;Node3</title>
<path fill="none" stroke="#191970" d="M59,-46.1575C59,-37.155 59,-26.9199 59,-19.6427"/>
<polygon fill="#191970" stroke="#191970" points="55.5001,-46.2455 59,-56.2455 62.5001,-46.2456 55.5001,-46.2455"/>
</g>
<!-- Node5 -->
<g id="node3" class="node">
<title>Node5</title>
<g id="a_node3"><a xlink:href="class_iteration_base.html" target="_top" xlink:title="This class provides common functionalities for iteration related classes. ">
<polygon fill="none" stroke="#000000" points="4.5,-112.5 4.5,-131.5 113.5,-131.5 113.5,-112.5 4.5,-112.5"/>
<text text-anchor="middle" x="59" y="-119.5" font-family="Arial" font-size="10.00" fill="#000000">IterationBase&lt; dim &gt;</text>
</a>
</g>
</g>
<!-- Node5&#45;&gt;Node4 -->
<g id="edge2" class="edge">
<title>Node5&#45;&gt;Node4</title>
<path fill="none" stroke="#191970" d="M59,-102.1575C59,-93.155 59,-82.9199 59,-75.6427"/>
<polygon fill="#191970" stroke="#191970" points="55.5001,-102.2455 59,-112.2455 62.5001,-102.2456 55.5001,-102.2455"/>
</g>
</g>
</svg>
