<?xml version="1.0" encoding="UTF-8" standalone="no"?>
<!DOCTYPE svg PUBLIC "-//W3C//DTD SVG 1.1//EN"
 "http://www.w3.org/Graphics/SVG/1.1/DTD/svg11.dtd">
<!-- Generated by graphviz version 2.40.1 (20161225.0304)
 -->
<!-- Title: IterationBase&lt; dim &gt; Pages: 1 -->
<svg width="384pt" height="140pt"
 viewBox="0.00 0.00 383.50 140.00" xmlns="http://www.w3.org/2000/svg" xmlns:xlink="http://www.w3.org/1999/xlink">
<g id="graph0" class="graph" transform="scale(1 1) rotate(0) translate(4 136)">
<title>IterationBase&lt; dim &gt;</title>
<!-- Node0 -->
<g id="node1" class="node">
<title>Node0</title>
<polygon fill="#bfbfbf" stroke="#000000" points="136.5,-112.5 136.5,-131.5 245.5,-131.5 245.5,-112.5 136.5,-112.5"/>
<text text-anchor="middle" x="191" y="-119.5" font-family="Arial" font-size="10.00" fill="#000000">IterationBase&lt; dim &gt;</text>
</g>
<!-- Node1 -->
<g id="node2" class="node">
<title>Node1</title>
<g id="a_node2"><a xlink:href="class_eigen_base.html" target="_top" xlink:title="This class provides eigenvalue calculations foundations. ">
<polygon fill="none" stroke="#000000" points="21,-56.5 21,-75.5 119,-75.5 119,-56.5 21,-56.5"/>
<text text-anchor="middle" x="70" y="-63.5" font-family="Arial" font-size="10.00" fill="#000000">EigenBase&lt; dim &gt;</text>
</a>
</g>
</g>
<!-- Node0&#45;&gt;Node1 -->
<g id="edge1" class="edge">
<title>Node0&#45;&gt;Node1</title>
<path fill="none" stroke="#191970" d="M160.9896,-108.1109C139.0475,-97.9559 109.8612,-84.4482 90.5292,-75.5011"/>
<polygon fill="#191970" stroke="#191970" points="159.6541,-111.3494 170.1994,-112.3733 162.5942,-104.9968 159.6541,-111.3494"/>
</g>
<!-- Node3 -->
<g id="node4" class="node">
<title>Node3</title>
<g id="a_node4"><a xlink:href="class_i_g_base.html" target="_top" xlink:title="This class provides in&#45;group solving scheme. ">
<polygon fill="none" stroke="#000000" points="149.5,-56.5 149.5,-75.5 232.5,-75.5 232.5,-56.5 149.5,-56.5"/>
<text text-anchor="middle" x="191" y="-63.5" font-family="Arial" font-size="10.00" fill="#000000">IGBase&lt; dim &gt;</text>
</a>
</g>
</g>
<!-- Node0&#45;&gt;Node3 -->
<g id="edge3" class="edge">
<title>Node0&#45;&gt;Node3</title>
<path fill="none" stroke="#191970" d="M191,-102.1575C191,-93.155 191,-82.9199 191,-75.6427"/>
<polygon fill="#191970" stroke="#191970" points="187.5001,-102.2455 191,-112.2455 194.5001,-102.2456 187.5001,-102.2455"/>
</g>
<!-- Node5 -->
<g id="node6" class="node">
<title>Node5</title>
<g id="a_node6"><a xlink:href="class_m_g_base.html" target="_top" xlink:title="This class provides abstract functionalities for MG calculations. ">
<polygon fill="none" stroke="#000000" points="263.5,-56.5 263.5,-75.5 352.5,-75.5 352.5,-56.5 263.5,-56.5"/>
<text text-anchor="middle" x="308" y="-63.5" font-family="Arial" font-size="10.00" fill="#000000">MGBase&lt; dim &gt;</text>
</a>
</g>
</g>
<!-- Node0&#45;&gt;Node5 -->
<g id="edge5" class="edge">
<title>Node0&#45;&gt;Node5</title>
<path fill="none" stroke="#191970" d="M220.3042,-107.9741C241.488,-97.8348 269.5403,-84.408 288.1494,-75.5011"/>
<polygon fill="#191970" stroke="#191970" points="218.622,-104.8989 211.113,-112.3733 221.6441,-111.2129 218.622,-104.8989"/>
</g>
<!-- Node2 -->
<g id="node3" class="node">
<title>Node2</title>
<g id="a_node3"><a xlink:href="class_power_iteration.html" target="_top" xlink:title="This class provides power iteration scheme. ">
<polygon fill="none" stroke="#000000" points="0,-.5 0,-19.5 114,-19.5 114,-.5 0,-.5"/>
<text text-anchor="middle" x="57" y="-7.5" font-family="Arial" font-size="10.00" fill="#000000">PowerIteration&lt; dim &gt;</text>
</a>
</g>
</g>
<!-- Node1&#45;&gt;Node2 -->
<g id="edge2" class="edge">
<title>Node1&#45;&gt;Node2</title>
<path fill="none" stroke="#191970" d="M65.4625,-46.4538C63.3561,-37.3803 60.9464,-26.9998 59.2385,-19.6427"/>
<polygon fill="#191970" stroke="#191970" points="62.0649,-47.2961 67.7356,-56.2455 68.8835,-45.7131 62.0649,-47.2961"/>
</g>
<!-- Node4 -->
<g id="node5" class="node">
<title>Node4</title>
<g id="a_node5"><a xlink:href="class_source_iteration.html" target="_top" xlink:title="This class provides source iteration scheme for in group solve. ">
<polygon fill="none" stroke="#000000" points="132,-.5 132,-19.5 250,-19.5 250,-.5 132,-.5"/>
<text text-anchor="middle" x="191" y="-7.5" font-family="Arial" font-size="10.00" fill="#000000">SourceIteration&lt; dim &gt;</text>
</a>
</g>
</g>
<!-- Node3&#45;&gt;Node4 -->
<g id="edge4" class="edge">
<title>Node3&#45;&gt;Node4</title>
<path fill="none" stroke="#191970" d="M191,-46.1575C191,-37.155 191,-26.9199 191,-19.6427"/>
<polygon fill="#191970" stroke="#191970" points="187.5001,-46.2455 191,-56.2455 194.5001,-46.2456 187.5001,-46.2455"/>
</g>
<!-- Node6 -->
<g id="node7" class="node">
<title>Node6</title>
<g id="a_node7"><a xlink:href="class_gauss_seidel.html" target="_top" xlink:title="This class provides Gauss&#45;Seidel scheme for MG calculations. ">
<polygon fill="none" stroke="#000000" points="268.5,-.5 268.5,-19.5 375.5,-19.5 375.5,-.5 268.5,-.5"/>
<text text-anchor="middle" x="322" y="-7.5" font-family="Arial" font-size="10.00" fill="#000000">GaussSeidel&lt; dim &gt;</text>
</a>
</g>
</g>
<!-- Node5&#45;&gt;Node6 -->
<g id="edge6" class="edge">
<title>Node5&#45;&gt;Node6</title>
<path fill="none" stroke="#191970" d="M312.8865,-46.4538C315.1549,-37.3803 317.75,-26.9998 319.5893,-19.6427"/>
<polygon fill="#191970" stroke="#191970" points="309.4685,-45.6952 310.4386,-56.2455 316.2595,-47.393 309.4685,-45.6952"/>
</g>
</g>
</svg>
