<?xml version="1.0" encoding="UTF-8" standalone="no"?>
<!DOCTYPE svg PUBLIC "-//W3C//DTD SVG 1.1//EN"
 "http://www.w3.org/Graphics/SVG/1.1/DTD/svg11.dtd">
<!-- Generated by graphviz version 2.40.1 (20161225.0304)
 -->
<!-- Title: IterationBase&lt; dim &gt; Pages: 1 -->
<svg width="787pt" height="185pt"
 viewBox="0.00 0.00 787.00 185.00" xmlns="http://www.w3.org/2000/svg" xmlns:xlink="http://www.w3.org/1999/xlink">
<g id="graph0" class="graph" transform="scale(1 1) rotate(0) translate(4 181)">
<title>IterationBase&lt; dim &gt;</title>
<!-- Node0 -->
<g id="node1" class="node">
<title>Node0</title>
<polygon fill="#bfbfbf" stroke="#000000" points="279.5,-142.5 279.5,-176.5 517.5,-176.5 517.5,-142.5 279.5,-142.5"/>
<text text-anchor="middle" x="398.5" y="-153.3" font-family="Arial" font-size="24.00" fill="#000000">IterationBase&lt; dim &gt;</text>
</g>
<!-- Node1 -->
<g id="node2" class="node">
<title>Node1</title>
<g id="a_node2"><a xlink:href="class_eigen_base.html" target="_top" xlink:title="This class provides eigenvalue calculations foundations. ">
<polygon fill="none" stroke="#000000" points="49,-71.5 49,-105.5 262,-105.5 262,-71.5 49,-71.5"/>
<text text-anchor="middle" x="155.5" y="-82.3" font-family="Arial" font-size="24.00" fill="#000000">EigenBase&lt; dim &gt;</text>
</a>
</g>
</g>
<!-- Node0&#45;&gt;Node1 -->
<g id="edge1" class="edge">
<title>Node0&#45;&gt;Node1</title>
<path fill="none" stroke="#191970" d="M330.6759,-139.6831C294.0167,-128.9719 249.198,-115.8768 214.0718,-105.6136"/>
<polygon fill="#191970" stroke="#191970" points="329.7152,-143.0486 340.2954,-142.4937 331.6784,-136.3296 329.7152,-143.0486"/>
</g>
<!-- Node3 -->
<g id="node4" class="node">
<title>Node3</title>
<g id="a_node4"><a xlink:href="class_i_g_base.html" target="_top" xlink:title="This class provides in&#45;group solving scheme. ">
<polygon fill="none" stroke="#000000" points="310,-71.5 310,-105.5 487,-105.5 487,-71.5 310,-71.5"/>
<text text-anchor="middle" x="398.5" y="-82.3" font-family="Arial" font-size="24.00" fill="#000000">IGBase&lt; dim &gt;</text>
</a>
</g>
</g>
<!-- Node0&#45;&gt;Node3 -->
<g id="edge3" class="edge">
<title>Node0&#45;&gt;Node3</title>
<path fill="none" stroke="#191970" d="M398.5,-132.2534C398.5,-123.2651 398.5,-113.5295 398.5,-105.5288"/>
<polygon fill="#191970" stroke="#191970" points="395.0001,-132.3128 398.5,-142.3129 402.0001,-132.3129 395.0001,-132.3128"/>
</g>
<!-- Node5 -->
<g id="node6" class="node">
<title>Node5</title>
<g id="a_node6"><a xlink:href="class_m_g_base.html" target="_top" xlink:title="This class provides abstract functionalities for MG calculations. ">
<polygon fill="none" stroke="#000000" points="536.5,-71.5 536.5,-105.5 726.5,-105.5 726.5,-71.5 536.5,-71.5"/>
<text text-anchor="middle" x="631.5" y="-82.3" font-family="Arial" font-size="24.00" fill="#000000">MGBase&lt; dim &gt;</text>
</a>
</g>
</g>
<!-- Node0&#45;&gt;Node5 -->
<g id="edge5" class="edge">
<title>Node0&#45;&gt;Node5</title>
<path fill="none" stroke="#191970" d="M463.9822,-139.5462C499.0492,-128.8606 541.8012,-115.8331 575.3385,-105.6136"/>
<polygon fill="#191970" stroke="#191970" points="462.8548,-136.2308 454.3093,-142.4937 464.8953,-142.9268 462.8548,-136.2308"/>
</g>
<!-- Node2 -->
<g id="node3" class="node">
<title>Node2</title>
<g id="a_node3"><a xlink:href="class_power_iteration.html" target="_top" xlink:title="This class provides power iteration scheme. ">
<polygon fill="none" stroke="#000000" points="0,-.5 0,-34.5 251,-34.5 251,-.5 0,-.5"/>
<text text-anchor="middle" x="125.5" y="-11.3" font-family="Arial" font-size="24.00" fill="#000000">PowerIteration&lt; dim &gt;</text>
</a>
</g>
</g>
<!-- Node1&#45;&gt;Node2 -->
<g id="edge2" class="edge">
<title>Node1&#45;&gt;Node2</title>
<path fill="none" stroke="#191970" d="M144.2346,-61.8385C140.3687,-52.6892 136.1493,-42.7034 132.6953,-34.5288"/>
<polygon fill="#191970" stroke="#191970" points="141.1216,-63.4637 148.2378,-71.3129 147.5696,-60.7391 141.1216,-63.4637"/>
</g>
<!-- Node4 -->
<g id="node5" class="node">
<title>Node4</title>
<g id="a_node5"><a xlink:href="class_source_iteration.html" target="_top" xlink:title="This class provides source iteration scheme for in group solve. ">
<polygon fill="none" stroke="#000000" points="269,-.5 269,-34.5 528,-34.5 528,-.5 269,-.5"/>
<text text-anchor="middle" x="398.5" y="-11.3" font-family="Arial" font-size="24.00" fill="#000000">SourceIteration&lt; dim &gt;</text>
</a>
</g>
</g>
<!-- Node3&#45;&gt;Node4 -->
<g id="edge4" class="edge">
<title>Node3&#45;&gt;Node4</title>
<path fill="none" stroke="#191970" d="M398.5,-61.2534C398.5,-52.2651 398.5,-42.5295 398.5,-34.5288"/>
<polygon fill="#191970" stroke="#191970" points="395.0001,-61.3128 398.5,-71.3129 402.0001,-61.3129 395.0001,-61.3128"/>
</g>
<!-- Node6 -->
<g id="node7" class="node">
<title>Node6</title>
<g id="a_node7"><a xlink:href="class_gauss_seidel.html" target="_top" xlink:title="This class provides Gauss&#45;Seidel scheme for MG calculations. ">
<polygon fill="none" stroke="#000000" points="546,-.5 546,-34.5 779,-34.5 779,-.5 546,-.5"/>
<text text-anchor="middle" x="662.5" y="-11.3" font-family="Arial" font-size="24.00" fill="#000000">GaussSeidel&lt; dim &gt;</text>
</a>
</g>
</g>
<!-- Node5&#45;&gt;Node6 -->
<g id="edge6" class="edge">
<title>Node5&#45;&gt;Node6</title>
<path fill="none" stroke="#191970" d="M643.0136,-62.1302C647.0428,-52.9019 651.4577,-42.7904 655.0649,-34.5288"/>
<polygon fill="#191970" stroke="#191970" points="639.7981,-60.7478 639.0042,-71.3129 646.2133,-63.5489 639.7981,-60.7478"/>
</g>
</g>
</svg>
