<?xml version="1.0" encoding="UTF-8" standalone="no"?>
<!DOCTYPE svg PUBLIC "-//W3C//DTD SVG 1.1//EN"
 "http://www.w3.org/Graphics/SVG/1.1/DTD/svg11.dtd">
<!-- Generated by graphviz version 2.40.1 (20161225.0304)
 -->
<!-- Title: src/common Pages: 1 -->
<svg width="208pt" height="223pt"
 viewBox="0.00 0.00 208.00 223.00" xmlns="http://www.w3.org/2000/svg" xmlns:xlink="http://www.w3.org/1999/xlink">
<g id="graph0" class="graph" transform="scale(1 1) rotate(0) translate(4 219)">
<title>src/common</title>
<g id="clust1" class="cluster">
<title>clusterdir_68267d1309a1af8e8297ef4c3efbcdba</title>
<g id="a_clust1"><a xlink:href="dir_68267d1309a1af8e8297ef4c3efbcdba.html" target="_top" xlink:title="src">
<polygon fill="#ddddee" stroke="#000000" points="100,-136 100,-207 172,-207 172,-136 100,-136"/>
<text text-anchor="middle" x="136" y="-195" font-family="Arial" font-size="10.00" fill="#000000">src</text>
</a>
</g>
</g>
<!-- dir_fdedb0aba14d44ce9d99bc100e026e6a -->
<g id="node1" class="node">
<title>dir_fdedb0aba14d44ce9d99bc100e026e6a</title>
<g id="a_node1"><a xlink:href="dir_fdedb0aba14d44ce9d99bc100e026e6a.html" target="_top" xlink:title="common">
<polygon fill="#eeeeff" stroke="#000000" points="163.5,-180 108.5,-180 108.5,-144 163.5,-144 163.5,-180"/>
<text text-anchor="middle" x="136" y="-159.5" font-family="Arial" font-size="10.00" fill="#000000">common</text>
</a>
</g>
</g>
<!-- dir_7be0d8c199b9408ae01f5d77515b8def -->
<g id="node2" class="node">
<title>dir_7be0d8c199b9408ae01f5d77515b8def</title>
<g id="a_node2"><a xlink:href="dir_7be0d8c199b9408ae01f5d77515b8def.html" target="_top" xlink:title="mesh">
<polygon fill="none" stroke="#000000" points="127,-36 73,-36 73,0 127,0 127,-36"/>
<text text-anchor="middle" x="100" y="-15.5" font-family="Arial" font-size="10.00" fill="#000000">mesh</text>
</a>
</g>
</g>
<!-- dir_fdedb0aba14d44ce9d99bc100e026e6a&#45;&gt;dir_7be0d8c199b9408ae01f5d77515b8def -->
<g id="edge6" class="edge">
<title>dir_fdedb0aba14d44ce9d99bc100e026e6a&#45;&gt;dir_7be0d8c199b9408ae01f5d77515b8def</title>
<path fill="none" stroke="#000000" d="M132.7232,-143.9501C129.284,-125.6925 123.4828,-96.7149 117,-72 114.7662,-63.4838 112.0142,-54.3157 109.3801,-45.9947"/>
<polygon fill="#000000" stroke="#000000" points="112.6739,-44.8049 106.2684,-36.3657 106.0131,-46.9575 112.6739,-44.8049"/>
<g id="a_edge6&#45;headlabel"><a xlink:href="dir_000002_000006.html" target="_top" xlink:title="1">
<text text-anchor="middle" x="116.4809" y="-44.8523" font-family="Arial" font-size="10.00" fill="#000000">1</text>
</a>
</g>
</g>
<!-- dir_5a941291ac74d53ab7b7d34c93188adb -->
<g id="node3" class="node">
<title>dir_5a941291ac74d53ab7b7d34c93188adb</title>
<g id="a_node3"><a xlink:href="dir_5a941291ac74d53ab7b7d34c93188adb.html" target="_top" xlink:title="aqdata">
<polygon fill="none" stroke="#000000" points="200,-36 146,-36 146,0 200,0 200,-36"/>
<text text-anchor="middle" x="173" y="-15.5" font-family="Arial" font-size="10.00" fill="#000000">aqdata</text>
</a>
</g>
</g>
<!-- dir_fdedb0aba14d44ce9d99bc100e026e6a&#45;&gt;dir_5a941291ac74d53ab7b7d34c93188adb -->
<g id="edge7" class="edge">
<title>dir_fdedb0aba14d44ce9d99bc100e026e6a&#45;&gt;dir_5a941291ac74d53ab7b7d34c93188adb</title>
<path fill="none" stroke="#000000" d="M140.6861,-143.7623C147.0248,-119.0928 158.3902,-74.8598 165.8125,-45.9731"/>
<polygon fill="#000000" stroke="#000000" points="169.2532,-46.6461 168.352,-36.0896 162.4734,-44.904 169.2532,-46.6461"/>
<g id="a_edge7&#45;headlabel"><a xlink:href="dir_000002_000001.html" target="_top" xlink:title="2">
<text text-anchor="middle" x="171.1086" y="-48.3341" font-family="Arial" font-size="10.00" fill="#000000">2</text>
</a>
</g>
</g>
<!-- dir_63845ec17d71e3b16da0b4e7f327342a -->
<g id="node4" class="node">
<title>dir_63845ec17d71e3b16da0b4e7f327342a</title>
<g id="a_node4"><a xlink:href="dir_63845ec17d71e3b16da0b4e7f327342a.html" target="_top" xlink:title="material">
<polygon fill="none" stroke="#000000" points="54,-36 0,-36 0,0 54,0 54,-36"/>
<text text-anchor="middle" x="27" y="-15.5" font-family="Arial" font-size="10.00" fill="#000000">material</text>
</a>
</g>
</g>
<!-- dir_fdedb0aba14d44ce9d99bc100e026e6a&#45;&gt;dir_63845ec17d71e3b16da0b4e7f327342a -->
<g id="edge8" class="edge">
<title>dir_fdedb0aba14d44ce9d99bc100e026e6a&#45;&gt;dir_63845ec17d71e3b16da0b4e7f327342a</title>
<path fill="none" stroke="#000000" d="M111.2579,-143.8606C107.2263,-141.1249 103.0449,-138.4142 99,-136 75.1056,-121.7389 59.6524,-130.2939 43,-108 29.8394,-90.3808 26.2384,-65.4653 25.7039,-46.3152"/>
<polygon fill="#000000" stroke="#000000" points="29.2037,-46.0735 25.6877,-36.0791 22.2037,-46.0847 29.2037,-46.0735"/>
<g id="a_edge8&#45;headlabel"><a xlink:href="dir_000002_000005.html" target="_top" xlink:title="1">
<text text-anchor="middle" x="32.0485" y="-47.1636" font-family="Arial" font-size="10.00" fill="#000000">1</text>
</a>
</g>
</g>
<!-- dir_c1b016fa79ca76e473830f18b27f5110 -->
<g id="node5" class="node">
<title>dir_c1b016fa79ca76e473830f18b27f5110</title>
<g id="a_node5"><a xlink:href="dir_c1b016fa79ca76e473830f18b27f5110.html" target="_top" xlink:title="equation">
<polygon fill="none" stroke="#000000" points="107.5,-108 52.5,-108 52.5,-72 107.5,-72 107.5,-108"/>
<text text-anchor="middle" x="80" y="-87.5" font-family="Arial" font-size="10.00" fill="#000000">equation</text>
</a>
</g>
</g>
<!-- dir_fdedb0aba14d44ce9d99bc100e026e6a&#45;&gt;dir_c1b016fa79ca76e473830f18b27f5110 -->
<g id="edge9" class="edge">
<title>dir_fdedb0aba14d44ce9d99bc100e026e6a&#45;&gt;dir_c1b016fa79ca76e473830f18b27f5110</title>
<path fill="none" stroke="#000000" d="M115.9164,-143.8314C108.7324,-135.6232 100.8632,-125.7606 94.2447,-116.7323"/>
<polygon fill="#000000" stroke="#000000" points="96.985,-114.5459 88.3454,-108.4133 91.2749,-118.5951 96.985,-114.5459"/>
<g id="a_edge9&#45;headlabel"><a xlink:href="dir_000002_000003.html" target="_top" xlink:title="2">
<text text-anchor="middle" x="101.3803" y="-113.3357" font-family="Arial" font-size="10.00" fill="#000000">2</text>
</a>
</g>
</g>
<!-- dir_8845994d1217a8dedc835b1d7ba0c57c -->
<g id="node6" class="node">
<title>dir_8845994d1217a8dedc835b1d7ba0c57c</title>
<g id="a_node6"><a xlink:href="dir_8845994d1217a8dedc835b1d7ba0c57c.html" target="_top" xlink:title="iteration">
<polygon fill="none" stroke="#000000" points="90,-180 36,-180 36,-144 90,-144 90,-180"/>
<text text-anchor="middle" x="63" y="-159.5" font-family="Arial" font-size="10.00" fill="#000000">iteration</text>
</a>
</g>
</g>
<!-- dir_fdedb0aba14d44ce9d99bc100e026e6a&#45;&gt;dir_8845994d1217a8dedc835b1d7ba0c57c -->
<g id="edge10" class="edge">
<title>dir_fdedb0aba14d44ce9d99bc100e026e6a&#45;&gt;dir_8845994d1217a8dedc835b1d7ba0c57c</title>
<path fill="none" stroke="#000000" d="M108.3822,-162C105.6193,-162 102.8564,-162 100.0935,-162"/>
<polygon fill="#000000" stroke="#000000" points="100.0899,-158.5001 90.0898,-162 100.0898,-165.5001 100.0899,-158.5001"/>
<g id="a_edge10&#45;headlabel"><a xlink:href="dir_000002_000004.html" target="_top" xlink:title="6">
<text text-anchor="middle" x="103.6845" y="-153.1607" font-family="Arial" font-size="10.00" fill="#000000">6</text>
</a>
</g>
</g>
<!-- dir_c1b016fa79ca76e473830f18b27f5110&#45;&gt;dir_fdedb0aba14d44ce9d99bc100e026e6a -->
<g id="edge4" class="edge">
<title>dir_c1b016fa79ca76e473830f18b27f5110&#45;&gt;dir_fdedb0aba14d44ce9d99bc100e026e6a</title>
<path fill="none" stroke="#000000" d="M100.2974,-108.4133C107.4948,-116.654 115.3583,-126.5245 121.9518,-135.536"/>
<polygon fill="#000000" stroke="#000000" points="119.1881,-137.6897 127.8212,-143.8314 124.9024,-133.6465 119.1881,-137.6897"/>
<g id="a_edge4&#45;headlabel"><a xlink:href="dir_000003_000002.html" target="_top" xlink:title="2">
<text text-anchor="middle" x="114.7942" y="-133.8952" font-family="Arial" font-size="10.00" fill="#000000">2</text>
</a>
</g>
</g>
<!-- dir_c1b016fa79ca76e473830f18b27f5110&#45;&gt;dir_7be0d8c199b9408ae01f5d77515b8def -->
<g id="edge1" class="edge">
<title>dir_c1b016fa79ca76e473830f18b27f5110&#45;&gt;dir_7be0d8c199b9408ae01f5d77515b8def</title>
<path fill="none" stroke="#000000" d="M85.0468,-71.8314C87.2094,-64.0463 89.7853,-54.7729 92.1848,-46.1347"/>
<polygon fill="#000000" stroke="#000000" points="95.581,-46.9852 94.8852,-36.4133 88.8364,-45.1117 95.581,-46.9852"/>
<g id="a_edge1&#45;headlabel"><a xlink:href="dir_000003_000006.html" target="_top" xlink:title="1">
<text text-anchor="middle" x="97.3547" y="-48.7086" font-family="Arial" font-size="10.00" fill="#000000">1</text>
</a>
</g>
</g>
<!-- dir_c1b016fa79ca76e473830f18b27f5110&#45;&gt;dir_5a941291ac74d53ab7b7d34c93188adb -->
<g id="edge2" class="edge">
<title>dir_c1b016fa79ca76e473830f18b27f5110&#45;&gt;dir_5a941291ac74d53ab7b7d34c93188adb</title>
<path fill="none" stroke="#000000" d="M103.4678,-71.8314C115.0327,-62.8779 129.1404,-51.9558 141.6183,-42.2955"/>
<polygon fill="#000000" stroke="#000000" points="143.775,-45.0521 149.5397,-36.1628 139.4898,-39.5171 143.775,-45.0521"/>
<g id="a_edge2&#45;headlabel"><a xlink:href="dir_000003_000001.html" target="_top" xlink:title="1">
<text text-anchor="middle" x="142.6708" y="-46.9977" font-family="Arial" font-size="10.00" fill="#000000">1</text>
</a>
</g>
</g>
<!-- dir_c1b016fa79ca76e473830f18b27f5110&#45;&gt;dir_63845ec17d71e3b16da0b4e7f327342a -->
<g id="edge3" class="edge">
<title>dir_c1b016fa79ca76e473830f18b27f5110&#45;&gt;dir_63845ec17d71e3b16da0b4e7f327342a</title>
<path fill="none" stroke="#000000" d="M66.6259,-71.8314C60.5838,-63.6232 53.3237,-53.7606 46.6779,-44.7323"/>
<polygon fill="#000000" stroke="#000000" points="49.3011,-42.3918 40.5542,-36.4133 43.6637,-46.5415 49.3011,-42.3918"/>
<g id="a_edge3&#45;headlabel"><a xlink:href="dir_000003_000005.html" target="_top" xlink:title="1">
<text text-anchor="middle" x="53.7186" y="-41.1035" font-family="Arial" font-size="10.00" fill="#000000">1</text>
</a>
</g>
</g>
<!-- dir_8845994d1217a8dedc835b1d7ba0c57c&#45;&gt;dir_c1b016fa79ca76e473830f18b27f5110 -->
<g id="edge5" class="edge">
<title>dir_8845994d1217a8dedc835b1d7ba0c57c&#45;&gt;dir_c1b016fa79ca76e473830f18b27f5110</title>
<path fill="none" stroke="#000000" d="M67.2898,-143.8314C69.108,-136.131 71.2699,-126.9743 73.2905,-118.4166"/>
<polygon fill="#000000" stroke="#000000" points="76.7608,-118.95 75.6524,-108.4133 69.9481,-117.3414 76.7608,-118.95"/>
<g id="a_edge5&#45;headlabel"><a xlink:href="dir_000004_000003.html" target="_top" xlink:title="2">
<text text-anchor="middle" x="78.6981" y="-120.6008" font-family="Arial" font-size="10.00" fill="#000000">2</text>
</a>
</g>
</g>
</g>
</svg>
