<?xml version="1.0" encoding="UTF-8" standalone="no"?>
<!DOCTYPE svg PUBLIC "-//W3C//DTD SVG 1.1//EN"
 "http://www.w3.org/Graphics/SVG/1.1/DTD/svg11.dtd">
<!-- Generated by graphviz version 2.40.1 (20161225.0304)
 -->
<!-- Title: src Pages: 1 -->
<svg width="238pt" height="292pt"
 viewBox="0.00 0.00 238.00 292.00" xmlns="http://www.w3.org/2000/svg" xmlns:xlink="http://www.w3.org/1999/xlink">
<g id="graph0" class="graph" transform="scale(1 1) rotate(0) translate(4 288)">
<title>src</title>
<g id="clust1" class="cluster">
<title>clusterdir_68267d1309a1af8e8297ef4c3efbcdba</title>
<g id="a_clust1"><a xlink:href="dir_68267d1309a1af8e8297ef4c3efbcdba.html" target="_top">
<polygon fill="#eeeeff" stroke="#000000" points="8,-8 8,-276 222,-276 222,-8 8,-8"/>
</a>
</g>
</g>
<!-- dir_68267d1309a1af8e8297ef4c3efbcdba -->
<g id="node1" class="node">
<title>dir_68267d1309a1af8e8297ef4c3efbcdba</title>
<text text-anchor="middle" x="177" y="-247.5" font-family="Arial" font-size="10.00" fill="#000000">src</text>
</g>
<!-- dir_5a941291ac74d53ab7b7d34c93188adb -->
<g id="node2" class="node">
<title>dir_5a941291ac74d53ab7b7d34c93188adb</title>
<g id="a_node2"><a xlink:href="dir_5a941291ac74d53ab7b7d34c93188adb.html" target="_top" xlink:title="aqdata">
<polygon fill="#ffffff" stroke="#000000" points="70,-52 16,-52 16,-16 70,-16 70,-52"/>
<text text-anchor="middle" x="43" y="-31.5" font-family="Arial" font-size="10.00" fill="#000000">aqdata</text>
</a>
</g>
</g>
<!-- dir_fdedb0aba14d44ce9d99bc100e026e6a -->
<g id="node3" class="node">
<title>dir_fdedb0aba14d44ce9d99bc100e026e6a</title>
<g id="a_node3"><a xlink:href="dir_fdedb0aba14d44ce9d99bc100e026e6a.html" target="_top" xlink:title="common">
<polygon fill="#ffffff" stroke="#000000" points="106.5,-268 51.5,-268 51.5,-232 106.5,-232 106.5,-268"/>
<text text-anchor="middle" x="79" y="-247.5" font-family="Arial" font-size="10.00" fill="#000000">common</text>
</a>
</g>
</g>
<!-- dir_fdedb0aba14d44ce9d99bc100e026e6a&#45;&gt;dir_5a941291ac74d53ab7b7d34c93188adb -->
<g id="edge7" class="edge">
<title>dir_fdedb0aba14d44ce9d99bc100e026e6a&#45;&gt;dir_5a941291ac74d53ab7b7d34c93188adb</title>
<path fill="none" stroke="#000000" d="M75.9926,-231.9555C69.7191,-194.3144 55.1978,-107.1867 47.6874,-62.1246"/>
<polygon fill="#000000" stroke="#000000" points="51.1206,-61.4336 46.0242,-52.1451 44.2159,-62.5844 51.1206,-61.4336"/>
<g id="a_edge7&#45;headlabel"><a xlink:href="dir_000002_000001.html" target="_top" xlink:title="2">
<text text-anchor="middle" x="54.5121" y="-62.0125" font-family="Arial" font-size="10.00" fill="#000000">2</text>
</a>
</g>
</g>
<!-- dir_c1b016fa79ca76e473830f18b27f5110 -->
<g id="node4" class="node">
<title>dir_c1b016fa79ca76e473830f18b27f5110</title>
<g id="a_node4"><a xlink:href="dir_c1b016fa79ca76e473830f18b27f5110.html" target="_top" xlink:title="equation">
<polygon fill="#ffffff" stroke="#000000" points="130.5,-124 75.5,-124 75.5,-88 130.5,-88 130.5,-124"/>
<text text-anchor="middle" x="103" y="-103.5" font-family="Arial" font-size="10.00" fill="#000000">equation</text>
</a>
</g>
</g>
<!-- dir_fdedb0aba14d44ce9d99bc100e026e6a&#45;&gt;dir_c1b016fa79ca76e473830f18b27f5110 -->
<g id="edge9" class="edge">
<title>dir_fdedb0aba14d44ce9d99bc100e026e6a&#45;&gt;dir_c1b016fa79ca76e473830f18b27f5110</title>
<path fill="none" stroke="#000000" d="M69.6121,-231.8241C65.3573,-213.4685 63.6223,-184.4163 69,-160 71.002,-150.9103 74.6913,-141.5304 79.0245,-133.1903"/>
<polygon fill="#000000" stroke="#000000" points="82.1923,-134.702 84.1348,-124.2867 76.1213,-131.2173 82.1923,-134.702"/>
<g id="a_edge9&#45;headlabel"><a xlink:href="dir_000002_000003.html" target="_top" xlink:title="2">
<text text-anchor="middle" x="82.8654" y="-136.7329" font-family="Arial" font-size="10.00" fill="#000000">2</text>
</a>
</g>
</g>
<!-- dir_8845994d1217a8dedc835b1d7ba0c57c -->
<g id="node5" class="node">
<title>dir_8845994d1217a8dedc835b1d7ba0c57c</title>
<g id="a_node5"><a xlink:href="dir_8845994d1217a8dedc835b1d7ba0c57c.html" target="_top" xlink:title="iteration">
<polygon fill="#ffffff" stroke="#000000" points="141,-196 87,-196 87,-160 141,-160 141,-196"/>
<text text-anchor="middle" x="114" y="-175.5" font-family="Arial" font-size="10.00" fill="#000000">iteration</text>
</a>
</g>
</g>
<!-- dir_fdedb0aba14d44ce9d99bc100e026e6a&#45;&gt;dir_8845994d1217a8dedc835b1d7ba0c57c -->
<g id="edge10" class="edge">
<title>dir_fdedb0aba14d44ce9d99bc100e026e6a&#45;&gt;dir_8845994d1217a8dedc835b1d7ba0c57c</title>
<path fill="none" stroke="#000000" d="M87.832,-231.8314C91.6986,-223.8771 96.3206,-214.369 100.5968,-205.5723"/>
<polygon fill="#000000" stroke="#000000" points="103.8249,-206.9371 105.0491,-196.4133 97.5293,-203.8768 103.8249,-206.9371"/>
<g id="a_edge10&#45;headlabel"><a xlink:href="dir_000002_000004.html" target="_top" xlink:title="6">
<text text-anchor="middle" x="104.807" y="-208.9113" font-family="Arial" font-size="10.00" fill="#000000">6</text>
</a>
</g>
</g>
<!-- dir_63845ec17d71e3b16da0b4e7f327342a -->
<g id="node6" class="node">
<title>dir_63845ec17d71e3b16da0b4e7f327342a</title>
<g id="a_node6"><a xlink:href="dir_63845ec17d71e3b16da0b4e7f327342a.html" target="_top" xlink:title="material">
<polygon fill="#ffffff" stroke="#000000" points="142,-52 88,-52 88,-16 142,-16 142,-52"/>
<text text-anchor="middle" x="115" y="-31.5" font-family="Arial" font-size="10.00" fill="#000000">material</text>
</a>
</g>
</g>
<!-- dir_fdedb0aba14d44ce9d99bc100e026e6a&#45;&gt;dir_63845ec17d71e3b16da0b4e7f327342a -->
<g id="edge8" class="edge">
<title>dir_fdedb0aba14d44ce9d99bc100e026e6a&#45;&gt;dir_63845ec17d71e3b16da0b4e7f327342a</title>
<path fill="none" stroke="#000000" d="M106.8065,-236.9495C122.6078,-227.8901 140.9883,-214.1759 150,-196 171.8121,-152.0065 148.9902,-94.6772 131.3491,-61.3417"/>
<polygon fill="#000000" stroke="#000000" points="134.2108,-59.282 126.3243,-52.2071 128.0775,-62.6559 134.2108,-59.282"/>
<g id="a_edge8&#45;headlabel"><a xlink:href="dir_000002_000005.html" target="_top" xlink:title="1">
<text text-anchor="middle" x="138.431" y="-58.5631" font-family="Arial" font-size="10.00" fill="#000000">1</text>
</a>
</g>
</g>
<!-- dir_7be0d8c199b9408ae01f5d77515b8def -->
<g id="node7" class="node">
<title>dir_7be0d8c199b9408ae01f5d77515b8def</title>
<g id="a_node7"><a xlink:href="dir_7be0d8c199b9408ae01f5d77515b8def.html" target="_top" xlink:title="mesh">
<polygon fill="#ffffff" stroke="#000000" points="214,-52 160,-52 160,-16 214,-16 214,-52"/>
<text text-anchor="middle" x="187" y="-31.5" font-family="Arial" font-size="10.00" fill="#000000">mesh</text>
</a>
</g>
</g>
<!-- dir_fdedb0aba14d44ce9d99bc100e026e6a&#45;&gt;dir_7be0d8c199b9408ae01f5d77515b8def -->
<g id="edge6" class="edge">
<title>dir_fdedb0aba14d44ce9d99bc100e026e6a&#45;&gt;dir_7be0d8c199b9408ae01f5d77515b8def</title>
<path fill="none" stroke="#000000" d="M106.7064,-238.3387C124.4979,-229.3863 146.5326,-215.2765 159,-196 185.435,-155.1273 189.0753,-96.8164 188.5599,-62.4406"/>
<polygon fill="#000000" stroke="#000000" points="192.051,-62.0704 188.2702,-52.1732 185.0538,-62.268 192.051,-62.0704"/>
<g id="a_edge6&#45;headlabel"><a xlink:href="dir_000002_000006.html" target="_top" xlink:title="1">
<text text-anchor="middle" x="194.9904" y="-63.0836" font-family="Arial" font-size="10.00" fill="#000000">1</text>
</a>
</g>
</g>
<!-- dir_c1b016fa79ca76e473830f18b27f5110&#45;&gt;dir_5a941291ac74d53ab7b7d34c93188adb -->
<g id="edge2" class="edge">
<title>dir_c1b016fa79ca76e473830f18b27f5110&#45;&gt;dir_5a941291ac74d53ab7b7d34c93188adb</title>
<path fill="none" stroke="#000000" d="M87.8595,-87.8314C80.8783,-79.454 72.4609,-69.3531 64.8124,-60.1749"/>
<polygon fill="#000000" stroke="#000000" points="67.4351,-57.8548 58.3444,-52.4133 62.0575,-62.3362 67.4351,-57.8548"/>
<g id="a_edge2&#45;headlabel"><a xlink:href="dir_000003_000001.html" target="_top" xlink:title="1">
<text text-anchor="middle" x="71.9174" y="-56.2986" font-family="Arial" font-size="10.00" fill="#000000">1</text>
</a>
</g>
</g>
<!-- dir_c1b016fa79ca76e473830f18b27f5110&#45;&gt;dir_fdedb0aba14d44ce9d99bc100e026e6a -->
<g id="edge4" class="edge">
<title>dir_c1b016fa79ca76e473830f18b27f5110&#45;&gt;dir_fdedb0aba14d44ce9d99bc100e026e6a</title>
<path fill="none" stroke="#000000" d="M100.0892,-124.2867C95.7071,-134.4291 89.7555,-147.4895 87,-160 82.5255,-180.3151 82.9751,-203.8396 83.1719,-221.7419"/>
<polygon fill="#000000" stroke="#000000" points="79.6722,-221.8401 83.2176,-231.8241 86.6721,-221.8083 79.6722,-221.8401"/>
<g id="a_edge4&#45;headlabel"><a xlink:href="dir_000003_000002.html" target="_top" xlink:title="2">
<text text-anchor="middle" x="76.8168" y="-215.7583" font-family="Arial" font-size="10.00" fill="#000000">2</text>
</a>
</g>
</g>
<!-- dir_c1b016fa79ca76e473830f18b27f5110&#45;&gt;dir_63845ec17d71e3b16da0b4e7f327342a -->
<g id="edge3" class="edge">
<title>dir_c1b016fa79ca76e473830f18b27f5110&#45;&gt;dir_63845ec17d71e3b16da0b4e7f327342a</title>
<path fill="none" stroke="#000000" d="M106.0281,-87.8314C107.3115,-80.131 108.8376,-70.9743 110.2639,-62.4166"/>
<polygon fill="#000000" stroke="#000000" points="113.7394,-62.8526 111.9311,-52.4133 106.8347,-61.7018 113.7394,-62.8526"/>
<g id="a_edge3&#45;headlabel"><a xlink:href="dir_000003_000005.html" target="_top" xlink:title="1">
<text text-anchor="middle" x="115.9492" y="-64.3651" font-family="Arial" font-size="10.00" fill="#000000">1</text>
</a>
</g>
</g>
<!-- dir_c1b016fa79ca76e473830f18b27f5110&#45;&gt;dir_7be0d8c199b9408ae01f5d77515b8def -->
<g id="edge1" class="edge">
<title>dir_c1b016fa79ca76e473830f18b27f5110&#45;&gt;dir_7be0d8c199b9408ae01f5d77515b8def</title>
<path fill="none" stroke="#000000" d="M124.1967,-87.8314C134.4434,-79.0485 146.9003,-68.3712 158.0097,-58.8489"/>
<polygon fill="#000000" stroke="#000000" points="160.4952,-61.3282 165.81,-52.1628 155.9397,-56.0134 160.4952,-61.3282"/>
<g id="a_edge1&#45;headlabel"><a xlink:href="dir_000003_000006.html" target="_top" xlink:title="1">
<text text-anchor="middle" x="159.6138" y="-63.3232" font-family="Arial" font-size="10.00" fill="#000000">1</text>
</a>
</g>
</g>
<!-- dir_8845994d1217a8dedc835b1d7ba0c57c&#45;&gt;dir_c1b016fa79ca76e473830f18b27f5110 -->
<g id="edge5" class="edge">
<title>dir_8845994d1217a8dedc835b1d7ba0c57c&#45;&gt;dir_c1b016fa79ca76e473830f18b27f5110</title>
<path fill="none" stroke="#000000" d="M111.2242,-159.8314C110.0478,-152.131 108.6489,-142.9743 107.3414,-134.4166"/>
<polygon fill="#000000" stroke="#000000" points="110.7833,-133.7699 105.8131,-124.4133 103.8636,-134.8272 110.7833,-133.7699"/>
<g id="a_edge5&#45;headlabel"><a xlink:href="dir_000004_000003.html" target="_top" xlink:title="2">
<text text-anchor="middle" x="114.1328" y="-134.3946" font-family="Arial" font-size="10.00" fill="#000000">2</text>
</a>
</g>
</g>
</g>
</svg>
