<?xml version="1.0" encoding="UTF-8" standalone="no"?>
<!DOCTYPE svg PUBLIC "-//W3C//DTD SVG 1.1//EN"
 "http://www.w3.org/Graphics/SVG/1.1/DTD/svg11.dtd">
<!-- Generated by graphviz version 2.40.1 (20161225.0304)
 -->
<!-- Title: src/iteration/eigen_base.h Pages: 1 -->
<svg width="540pt" height="243pt"
 viewBox="0.00 0.00 540.00 243.00" xmlns="http://www.w3.org/2000/svg" xmlns:xlink="http://www.w3.org/1999/xlink">
<g id="graph0" class="graph" transform="scale(1 1) rotate(0) translate(4 239)">
<title>src/iteration/eigen_base.h</title>
<!-- Node34 -->
<g id="node1" class="node">
<title>Node34</title>
<polygon fill="#bfbfbf" stroke="#000000" points="217,-200.5 217,-234.5 328,-234.5 328,-200.5 217,-200.5"/>
<text text-anchor="start" x="225" y="-220.9" font-family="Arial" font-size="12.00" fill="#000000">src/iteration/eigen</text>
<text text-anchor="middle" x="272.5" y="-207.9" font-family="Arial" font-size="12.00" fill="#000000">_base.h</text>
</g>
<!-- Node35 -->
<g id="node2" class="node">
<title>Node35</title>
<g id="a_node2"><a xlink:href="bart__driver_8h.html" target="_top" xlink:title="src/common/bart_driver.h">
<polygon fill="none" stroke="#000000" points="0,-65 0,-86 153,-86 153,-65 0,-65"/>
<text text-anchor="middle" x="76.5" y="-72.4" font-family="Arial" font-size="12.00" fill="#000000">src/common/bart_driver.h</text>
</a>
</g>
</g>
<!-- Node34&#45;&gt;Node35 -->
<g id="edge1" class="edge">
<title>Node34&#45;&gt;Node35</title>
<path fill="none" stroke="#191970" d="M207.2398,-206.1726C177.984,-198.3699 144.698,-185.3917 120.5,-164 96.2029,-142.5207 83.7994,-104.5192 78.9712,-86.099"/>
<polygon fill="#191970" stroke="#191970" points="206.4361,-209.5794 216.9879,-208.625 208.144,-202.7909 206.4361,-209.5794"/>
</g>
<!-- Node38 -->
<g id="node5" class="node">
<title>Node38</title>
<g id="a_node5"><a xlink:href="iterations_8h.html" target="_top" xlink:title="src/iteration/iterations.h">
<polygon fill="none" stroke="#000000" points="129,-136 129,-157 270,-157 270,-136 129,-136"/>
<text text-anchor="middle" x="199.5" y="-143.4" font-family="Arial" font-size="12.00" fill="#000000">src/iteration/iterations.h</text>
</a>
</g>
</g>
<!-- Node34&#45;&gt;Node38 -->
<g id="edge4" class="edge">
<title>Node34&#45;&gt;Node38</title>
<path fill="none" stroke="#191970" d="M247.3127,-193.0027C234.73,-180.7648 220.157,-166.5911 210.4387,-157.139"/>
<polygon fill="#191970" stroke="#191970" points="245.2198,-195.8497 254.8287,-200.3129 250.1004,-190.8317 245.2198,-195.8497"/>
</g>
<!-- Node40 -->
<g id="node7" class="node">
<title>Node40</title>
<g id="a_node7"><a xlink:href="power__iteration_8h.html" target="_top" xlink:title="src/iteration/power\l_iteration.h">
<polygon fill="none" stroke="#000000" points="288,-129.5 288,-163.5 403,-163.5 403,-129.5 288,-129.5"/>
<text text-anchor="start" x="296" y="-149.9" font-family="Arial" font-size="12.00" fill="#000000">src/iteration/power</text>
<text text-anchor="middle" x="345.5" y="-136.9" font-family="Arial" font-size="12.00" fill="#000000">_iteration.h</text>
</a>
</g>
</g>
<!-- Node34&#45;&gt;Node40 -->
<g id="edge7" class="edge">
<title>Node34&#45;&gt;Node40</title>
<path fill="none" stroke="#191970" d="M297.5311,-193.1547C307.5585,-183.402 318.8713,-172.3991 327.9915,-163.5288"/>
<polygon fill="#191970" stroke="#191970" points="294.8996,-190.8317 290.1713,-200.3129 299.7802,-195.8497 294.8996,-190.8317"/>
</g>
<!-- Node42 -->
<g id="node9" class="node">
<title>Node42</title>
<g id="a_node9"><a xlink:href="eigen__base_8cc.html" target="_top" xlink:title="src/iteration/eigen\l_base.cc">
<polygon fill="none" stroke="#000000" points="421,-129.5 421,-163.5 532,-163.5 532,-129.5 421,-129.5"/>
<text text-anchor="start" x="429" y="-149.9" font-family="Arial" font-size="12.00" fill="#000000">src/iteration/eigen</text>
<text text-anchor="middle" x="476.5" y="-136.9" font-family="Arial" font-size="12.00" fill="#000000">_base.cc</text>
</a>
</g>
</g>
<!-- Node34&#45;&gt;Node42 -->
<g id="edge10" class="edge">
<title>Node34&#45;&gt;Node42</title>
<path fill="none" stroke="#191970" d="M331.0162,-197.1341C361.4929,-186.527 398.3419,-173.7021 427.3286,-163.6136"/>
<polygon fill="#191970" stroke="#191970" points="329.657,-193.9011 321.3631,-200.4937 331.9579,-200.5122 329.657,-193.9011"/>
</g>
<!-- Node36 -->
<g id="node3" class="node">
<title>Node36</title>
<g id="a_node3"><a xlink:href="bart__driver_8cc.html" target="_top" xlink:title="src/common/bart_driver.cc">
<polygon fill="none" stroke="#000000" points="212.5,-.5 212.5,-21.5 370.5,-21.5 370.5,-.5 212.5,-.5"/>
<text text-anchor="middle" x="291.5" y="-7.9" font-family="Arial" font-size="12.00" fill="#000000">src/common/bart_driver.cc</text>
</a>
</g>
</g>
<!-- Node35&#45;&gt;Node36 -->
<g id="edge2" class="edge">
<title>Node35&#45;&gt;Node36</title>
<path fill="none" stroke="#191970" d="M121.327,-62.0519C161.5085,-49.9975 219.6417,-32.5575 256.493,-21.5021"/>
<polygon fill="#191970" stroke="#191970" points="120.0945,-58.7675 111.522,-64.9934 122.106,-65.4723 120.0945,-58.7675"/>
</g>
<!-- Node37 -->
<g id="node4" class="node">
<title>Node37</title>
<g id="a_node4"><a xlink:href="main_8cc.html" target="_top" xlink:title="src/common/main.cc">
<polygon fill="none" stroke="#000000" points="13,-.5 13,-21.5 140,-21.5 140,-.5 13,-.5"/>
<text text-anchor="middle" x="76.5" y="-7.9" font-family="Arial" font-size="12.00" fill="#000000">src/common/main.cc</text>
</a>
</g>
</g>
<!-- Node35&#45;&gt;Node37 -->
<g id="edge3" class="edge">
<title>Node35&#45;&gt;Node37</title>
<path fill="none" stroke="#191970" d="M76.5,-54.8076C76.5,-43.8587 76.5,-30.8615 76.5,-21.8823"/>
<polygon fill="#191970" stroke="#191970" points="73.0001,-54.8491 76.5,-64.8491 80.0001,-54.8492 73.0001,-54.8491"/>
</g>
<!-- Node38&#45;&gt;Node35 -->
<g id="edge5" class="edge">
<title>Node38&#45;&gt;Node35</title>
<path fill="none" stroke="#191970" d="M172.3098,-130.8049C148.8387,-117.2565 115.5632,-98.0487 95.0402,-86.2021"/>
<polygon fill="#191970" stroke="#191970" points="170.6752,-133.9025 181.0857,-135.8706 174.1747,-127.84 170.6752,-133.9025"/>
</g>
<!-- Node39 -->
<g id="node6" class="node">
<title>Node39</title>
<g id="a_node6"><a xlink:href="iterations_8cc.html" target="_top" xlink:title="src/iteration/iterations.cc">
<polygon fill="none" stroke="#000000" points="171.5,-65 171.5,-86 317.5,-86 317.5,-65 171.5,-65"/>
<text text-anchor="middle" x="244.5" y="-72.4" font-family="Arial" font-size="12.00" fill="#000000">src/iteration/iterations.cc</text>
</a>
</g>
</g>
<!-- Node38&#45;&gt;Node39 -->
<g id="edge6" class="edge">
<title>Node38&#45;&gt;Node39</title>
<path fill="none" stroke="#191970" d="M211.8742,-126.9763C220.1641,-113.8966 230.7713,-97.1608 237.6011,-86.3849"/>
<polygon fill="#191970" stroke="#191970" points="208.7317,-125.3965 206.3345,-135.7166 214.6442,-129.1439 208.7317,-125.3965"/>
</g>
<!-- Node40&#45;&gt;Node36 -->
<g id="edge8" class="edge">
<title>Node40&#45;&gt;Node36</title>
<path fill="none" stroke="#191970" d="M342.6867,-119.0726C340.1111,-101.092 335.3028,-77.4096 326.5,-58 320.2809,-44.2873 309.5547,-30.7212 301.6112,-21.7153"/>
<polygon fill="#191970" stroke="#191970" points="339.2401,-119.7117 343.9881,-129.1831 346.1828,-118.818 339.2401,-119.7117"/>
</g>
<!-- Node41 -->
<g id="node8" class="node">
<title>Node41</title>
<g id="a_node8"><a xlink:href="power__iteration_8cc.html" target="_top" xlink:title="src/iteration/power\l_iteration.cc">
<polygon fill="none" stroke="#000000" points="374,-58.5 374,-92.5 489,-92.5 489,-58.5 374,-58.5"/>
<text text-anchor="start" x="382" y="-78.9" font-family="Arial" font-size="12.00" fill="#000000">src/iteration/power</text>
<text text-anchor="middle" x="431.5" y="-65.9" font-family="Arial" font-size="12.00" fill="#000000">_iteration.cc</text>
</a>
</g>
</g>
<!-- Node40&#45;&gt;Node41 -->
<g id="edge9" class="edge">
<title>Node40&#45;&gt;Node41</title>
<path fill="none" stroke="#191970" d="M374.2956,-122.7269C386.2781,-112.8343 399.9186,-101.573 410.8735,-92.5288"/>
<polygon fill="#191970" stroke="#191970" points="371.8015,-120.2473 366.3182,-129.3129 376.258,-125.6454 371.8015,-120.2473"/>
</g>
</g>
</svg>
