<?xml version="1.0" encoding="UTF-8" standalone="no"?>
<!DOCTYPE svg PUBLIC "-//W3C//DTD SVG 1.1//EN"
 "http://www.w3.org/Graphics/SVG/1.1/DTD/svg11.dtd">
<!-- Generated by graphviz version 2.40.1 (20161225.0304)
 -->
<!-- Title: src/iteration/eigen_base.h Pages: 1 -->
<svg width="471pt" height="229pt"
 viewBox="0.00 0.00 470.50 229.00" xmlns="http://www.w3.org/2000/svg" xmlns:xlink="http://www.w3.org/1999/xlink">
<g id="graph0" class="graph" transform="scale(1 1) rotate(0) translate(4 225)">
<title>src/iteration/eigen_base.h</title>
<!-- Node34 -->
<g id="node1" class="node">
<title>Node34</title>
<polygon fill="#bfbfbf" stroke="#000000" points="188.5,-190.5 188.5,-220.5 283.5,-220.5 283.5,-190.5 188.5,-190.5"/>
<text text-anchor="start" x="196.5" y="-208.5" font-family="Arial" font-size="10.00" fill="#000000">src/iteration/eigen</text>
<text text-anchor="middle" x="236" y="-197.5" font-family="Arial" font-size="10.00" fill="#000000">_base.h</text>
</g>
<!-- Node35 -->
<g id="node2" class="node">
<title>Node35</title>
<g id="a_node2"><a xlink:href="bart__driver_8h.html" target="_top" xlink:title="src/common/bart_driver.h">
<polygon fill="none" stroke="#000000" points="0,-62 0,-81 130,-81 130,-62 0,-62"/>
<text text-anchor="middle" x="65" y="-69" font-family="Arial" font-size="10.00" fill="#000000">src/common/bart_driver.h</text>
</a>
</g>
</g>
<!-- Node34&#45;&gt;Node35 -->
<g id="edge1" class="edge">
<title>Node34&#45;&gt;Node35</title>
<path fill="none" stroke="#191970" d="M178.3591,-193.2636C153.088,-185.502 124.5656,-173.1818 104,-154 81.9876,-133.4688 71.167,-97.9691 67.0507,-81.0292"/>
<polygon fill="#191970" stroke="#191970" points="177.6459,-196.7008 188.2247,-196.1189 179.592,-189.9767 177.6459,-196.7008"/>
</g>
<!-- Node38 -->
<g id="node5" class="node">
<title>Node38</title>
<g id="a_node5"><a xlink:href="iterations_8h.html" target="_top" xlink:title="src/iteration/iterations.h">
<polygon fill="none" stroke="#000000" points="113,-129 113,-148 233,-148 233,-129 113,-129"/>
<text text-anchor="middle" x="173" y="-136" font-family="Arial" font-size="10.00" fill="#000000">src/iteration/iterations.h</text>
</a>
</g>
</g>
<!-- Node34&#45;&gt;Node38 -->
<g id="edge4" class="edge">
<title>Node34&#45;&gt;Node38</title>
<path fill="none" stroke="#191970" d="M214.7161,-182.8648C203.5578,-170.998 190.4816,-157.0916 181.9845,-148.055"/>
<polygon fill="#191970" stroke="#191970" points="212.3042,-185.409 221.7043,-190.2967 217.4039,-180.6138 212.3042,-185.409"/>
</g>
<!-- Node40 -->
<g id="node7" class="node">
<title>Node40</title>
<g id="a_node7"><a xlink:href="power__iteration_8h.html" target="_top" xlink:title="src/iteration/power\l_iteration.h">
<polygon fill="none" stroke="#000000" points="251,-123.5 251,-153.5 349,-153.5 349,-123.5 251,-123.5"/>
<text text-anchor="start" x="259" y="-141.5" font-family="Arial" font-size="10.00" fill="#000000">src/iteration/power</text>
<text text-anchor="middle" x="300" y="-130.5" font-family="Arial" font-size="10.00" fill="#000000">_iteration.h</text>
</a>
</g>
</g>
<!-- Node34&#45;&gt;Node40 -->
<g id="edge7" class="edge">
<title>Node34&#45;&gt;Node40</title>
<path fill="none" stroke="#191970" d="M257.5639,-182.9253C266.7746,-173.2828 277.2807,-162.2843 285.5349,-153.6432"/>
<polygon fill="#191970" stroke="#191970" points="254.899,-180.648 250.5226,-190.2967 259.9608,-185.4831 254.899,-180.648"/>
</g>
<!-- Node42 -->
<g id="node9" class="node">
<title>Node42</title>
<g id="a_node9"><a xlink:href="eigen__base_8cc.html" target="_top" xlink:title="src/iteration/eigen\l_base.cc">
<polygon fill="none" stroke="#000000" points="367.5,-123.5 367.5,-153.5 462.5,-153.5 462.5,-123.5 367.5,-123.5"/>
<text text-anchor="start" x="375.5" y="-141.5" font-family="Arial" font-size="10.00" fill="#000000">src/iteration/eigen</text>
<text text-anchor="middle" x="415" y="-130.5" font-family="Arial" font-size="10.00" fill="#000000">_base.cc</text>
</a>
</g>
</g>
<!-- Node34&#45;&gt;Node42 -->
<g id="edge10" class="edge">
<title>Node34&#45;&gt;Node42</title>
<path fill="none" stroke="#191970" d="M285.786,-186.865C313.8054,-176.3773 348.3387,-163.4515 374.6537,-153.6017"/>
<polygon fill="#191970" stroke="#191970" points="284.3096,-183.6804 276.1711,-190.4639 286.7635,-190.2362 284.3096,-183.6804"/>
</g>
<!-- Node36 -->
<g id="node3" class="node">
<title>Node36</title>
<g id="a_node3"><a xlink:href="bart__driver_8cc.html" target="_top" xlink:title="src/common/bart_driver.cc">
<polygon fill="none" stroke="#000000" points="185,-.5 185,-19.5 319,-19.5 319,-.5 185,-.5"/>
<text text-anchor="middle" x="252" y="-7.5" font-family="Arial" font-size="10.00" fill="#000000">src/common/bart_driver.cc</text>
</a>
</g>
</g>
<!-- Node35&#45;&gt;Node36 -->
<g id="edge2" class="edge">
<title>Node35&#45;&gt;Node36</title>
<path fill="none" stroke="#191970" d="M103.766,-58.7507C139.2472,-47.0818 190.9583,-30.0752 222.9864,-19.5419"/>
<polygon fill="#191970" stroke="#191970" points="102.6247,-55.4416 94.2188,-61.8906 104.8117,-62.0912 102.6247,-55.4416"/>
</g>
<!-- Node37 -->
<g id="node4" class="node">
<title>Node37</title>
<g id="a_node4"><a xlink:href="main_8cc.html" target="_top" xlink:title="src/common/main.cc">
<polygon fill="none" stroke="#000000" points="11,-.5 11,-19.5 119,-19.5 119,-.5 11,-.5"/>
<text text-anchor="middle" x="65" y="-7.5" font-family="Arial" font-size="10.00" fill="#000000">src/common/main.cc</text>
</a>
</g>
</g>
<!-- Node35&#45;&gt;Node37 -->
<g id="edge3" class="edge">
<title>Node35&#45;&gt;Node37</title>
<path fill="none" stroke="#191970" d="M65,-51.7462C65,-41.0519 65,-28.314 65,-19.7449"/>
<polygon fill="#191970" stroke="#191970" points="61.5001,-51.8906 65,-61.8906 68.5001,-51.8907 61.5001,-51.8906"/>
</g>
<!-- Node38&#45;&gt;Node35 -->
<g id="edge5" class="edge">
<title>Node38&#45;&gt;Node35</title>
<path fill="none" stroke="#191970" d="M148.8802,-123.5368C127.9633,-110.5605 98.3167,-92.1687 80.4451,-81.0817"/>
<polygon fill="#191970" stroke="#191970" points="147.1835,-126.603 157.5262,-128.9005 150.8737,-120.6546 147.1835,-126.603"/>
</g>
<!-- Node39 -->
<g id="node6" class="node">
<title>Node39</title>
<g id="a_node6"><a xlink:href="iterations_8cc.html" target="_top" xlink:title="src/iteration/iterations.cc">
<polygon fill="none" stroke="#000000" points="148,-62 148,-81 272,-81 272,-62 148,-62"/>
<text text-anchor="middle" x="210" y="-69" font-family="Arial" font-size="10.00" fill="#000000">src/iteration/iterations.cc</text>
</a>
</g>
</g>
<!-- Node38&#45;&gt;Node39 -->
<g id="edge6" class="edge">
<title>Node38&#45;&gt;Node39</title>
<path fill="none" stroke="#191970" d="M183.1557,-120.1099C190.1307,-107.4795 199.1076,-91.2241 204.7086,-81.0817"/>
<polygon fill="#191970" stroke="#191970" points="180.0716,-118.4547 178.3012,-128.9005 186.1993,-121.8386 180.0716,-118.4547"/>
</g>
<!-- Node40&#45;&gt;Node36 -->
<g id="edge8" class="edge">
<title>Node40&#45;&gt;Node36</title>
<path fill="none" stroke="#191970" d="M296.4638,-113.3401C293.5759,-96.6405 288.6911,-74.4776 281,-56 275.4131,-42.5777 266.0535,-28.6577 259.482,-19.6961"/>
<polygon fill="#191970" stroke="#191970" points="293.0428,-114.1121 298.0826,-123.4315 299.9545,-113.0034 293.0428,-114.1121"/>
</g>
<!-- Node41 -->
<g id="node8" class="node">
<title>Node41</title>
<g id="a_node8"><a xlink:href="power__iteration_8cc.html" target="_top" xlink:title="src/iteration/power\l_iteration.cc">
<polygon fill="none" stroke="#000000" points="328,-56.5 328,-86.5 426,-86.5 426,-56.5 328,-56.5"/>
<text text-anchor="start" x="336" y="-74.5" font-family="Arial" font-size="10.00" fill="#000000">src/iteration/power</text>
<text text-anchor="middle" x="377" y="-63.5" font-family="Arial" font-size="10.00" fill="#000000">_iteration.cc</text>
</a>
</g>
</g>
<!-- Node40&#45;&gt;Node41 -->
<g id="edge9" class="edge">
<title>Node40&#45;&gt;Node41</title>
<path fill="none" stroke="#191970" d="M325.2876,-116.4965C336.524,-106.7193 349.4692,-95.4554 359.5967,-86.6432"/>
<polygon fill="#191970" stroke="#191970" points="322.719,-114.092 317.4725,-123.2967 327.3139,-119.3728 322.719,-114.092"/>
</g>
</g>
</svg>
