<?xml version="1.0" encoding="UTF-8" standalone="no"?>
<!DOCTYPE svg PUBLIC "-//W3C//DTD SVG 1.1//EN"
 "http://www.w3.org/Graphics/SVG/1.1/DTD/svg11.dtd">
<!-- Generated by graphviz version 2.40.1 (20161225.0304)
 -->
<!-- Title: src/equation/equation_base.h Pages: 1 -->
<svg width="1932pt" height="173pt"
 viewBox="0.00 0.00 1931.50 173.00" xmlns="http://www.w3.org/2000/svg" xmlns:xlink="http://www.w3.org/1999/xlink">
<g id="graph0" class="graph" transform="scale(1 1) rotate(0) translate(4 169)">
<title>src/equation/equation_base.h</title>
<!-- Node0 -->
<g id="node1" class="node">
<title>Node0</title>
<polygon fill="#bfbfbf" stroke="#000000" points="896.5,-134.5 896.5,-164.5 1008.5,-164.5 1008.5,-134.5 896.5,-134.5"/>
<text text-anchor="start" x="904.5" y="-152.5" font-family="Arial" font-size="10.00" fill="#000000">src/equation/equation</text>
<text text-anchor="middle" x="952.5" y="-141.5" font-family="Arial" font-size="10.00" fill="#000000">_base.h</text>
</g>
<!-- Node1 -->
<g id="node2" class="node">
<title>Node1</title>
<polygon fill="none" stroke="#bfbfbf" points="0,-67.5 0,-97.5 117,-97.5 117,-67.5 0,-67.5"/>
<text text-anchor="start" x="8" y="-85.5" font-family="Arial" font-size="10.00" fill="#000000">deal.II/numerics/vector</text>
<text text-anchor="middle" x="58.5" y="-74.5" font-family="Arial" font-size="10.00" fill="#000000">_tools.h</text>
</g>
<!-- Node0&#45;&gt;Node1 -->
<g id="edge1" class="edge">
<title>Node0&#45;&gt;Node1</title>
<path fill="none" stroke="#191970" d="M896.2524,-147.1823C738.7383,-140.5068 294.4619,-120.3652 127.4811,-97.9416"/>
<polygon fill="#191970" stroke="#191970" points="127.7503,-94.4454 117.3626,-96.5303 126.7832,-101.3782 127.7503,-94.4454"/>
</g>
<!-- Node2 -->
<g id="node3" class="node">
<title>Node2</title>
<polygon fill="none" stroke="#bfbfbf" points="135.5,-73 135.5,-92 233.5,-92 233.5,-73 135.5,-73"/>
<text text-anchor="middle" x="184.5" y="-80" font-family="Arial" font-size="10.00" fill="#000000">deal.II/fe/fe_poly.h</text>
</g>
<!-- Node0&#45;&gt;Node2 -->
<g id="edge2" class="edge">
<title>Node0&#45;&gt;Node2</title>
<path fill="none" stroke="#191970" d="M896.456,-146.8051C751.7406,-139.6266 368.1054,-119.1441 242.5,-98 237.0397,-97.0808 231.3479,-95.8757 225.7558,-94.5428"/>
<polygon fill="#191970" stroke="#191970" points="226.4226,-91.1012 215.8694,-92.0398 224.7045,-97.8871 226.4226,-91.1012"/>
</g>
<!-- Node3 -->
<g id="node4" class="node">
<title>Node3</title>
<polygon fill="none" stroke="#bfbfbf" points="252,-73 252,-92 361,-92 361,-73 252,-73"/>
<text text-anchor="middle" x="306.5" y="-80" font-family="Arial" font-size="10.00" fill="#000000">deal.II/fe/fe_values.h</text>
</g>
<!-- Node0&#45;&gt;Node3 -->
<g id="edge3" class="edge">
<title>Node0&#45;&gt;Node3</title>
<path fill="none" stroke="#191970" d="M896.0944,-146.9403C792.4717,-141.6896 565.0411,-127.6153 375.5,-98 368.7353,-96.943 361.6437,-95.6111 354.6884,-94.174"/>
<polygon fill="#191970" stroke="#191970" points="355.1624,-90.696 344.6498,-92.0133 353.6894,-97.5392 355.1624,-90.696"/>
</g>
<!-- Node4 -->
<g id="node5" class="node">
<title>Node4</title>
<polygon fill="none" stroke="#bfbfbf" points="612,-.5 612,-30.5 729,-30.5 729,-.5 612,-.5"/>
<text text-anchor="start" x="620" y="-18.5" font-family="Arial" font-size="10.00" fill="#000000">deal.II/base/parameter</text>
<text text-anchor="middle" x="670.5" y="-7.5" font-family="Arial" font-size="10.00" fill="#000000">_handler.h</text>
</g>
<!-- Node0&#45;&gt;Node4 -->
<g id="edge4" class="edge">
<title>Node0&#45;&gt;Node4</title>
<path fill="none" stroke="#191970" d="M896.1435,-141.883C856.1304,-134.7505 802.1627,-121.5366 759.5,-98 744.6483,-89.8064 713.2706,-59.2829 692.031,-37.7603"/>
<polygon fill="#191970" stroke="#191970" points="694.4851,-35.2641 684.9848,-30.5743 689.487,-40.165 694.4851,-35.2641"/>
</g>
<!-- Node5 -->
<g id="node6" class="node">
<title>Node5</title>
<polygon fill="none" stroke="#bfbfbf" points="1322,-67.5 1322,-97.5 1417,-97.5 1417,-67.5 1322,-67.5"/>
<text text-anchor="start" x="1330" y="-85.5" font-family="Arial" font-size="10.00" fill="#000000">deal.II/base/index</text>
<text text-anchor="middle" x="1369.5" y="-74.5" font-family="Arial" font-size="10.00" fill="#000000">_set.h</text>
</g>
<!-- Node0&#45;&gt;Node5 -->
<g id="edge5" class="edge">
<title>Node0&#45;&gt;Node5</title>
<path fill="none" stroke="#191970" d="M1008.5455,-143.762C1077.8346,-136.1671 1199.4649,-121.2019 1312.1172,-98.1468"/>
<polygon fill="#191970" stroke="#191970" points="1312.8612,-101.5671 1321.9428,-96.1103 1311.4405,-94.7128 1312.8612,-101.5671"/>
</g>
<!-- Node6 -->
<g id="node7" class="node">
<title>Node6</title>
<polygon fill="none" stroke="#bfbfbf" points="1435,-67.5 1435,-97.5 1554,-97.5 1554,-67.5 1435,-67.5"/>
<text text-anchor="start" x="1443" y="-85.5" font-family="Arial" font-size="10.00" fill="#000000">deal.II/base/conditional</text>
<text text-anchor="middle" x="1494.5" y="-74.5" font-family="Arial" font-size="10.00" fill="#000000">_ostream.h</text>
</g>
<!-- Node0&#45;&gt;Node6 -->
<g id="edge6" class="edge">
<title>Node0&#45;&gt;Node6</title>
<path fill="none" stroke="#191970" d="M1008.6093,-145.5209C1095.7122,-138.8792 1268.8499,-123.8234 1424.6383,-98.2051"/>
<polygon fill="#191970" stroke="#191970" points="1425.5836,-101.596 1434.8737,-96.5024 1424.4348,-94.6909 1425.5836,-101.596"/>
</g>
<!-- Node7 -->
<g id="node8" class="node">
<title>Node7</title>
<polygon fill="none" stroke="#bfbfbf" points="1572.5,-73 1572.5,-92 1622.5,-92 1622.5,-73 1572.5,-73"/>
<text text-anchor="middle" x="1597.5" y="-80" font-family="Arial" font-size="10.00" fill="#000000">fstream</text>
</g>
<!-- Node0&#45;&gt;Node7 -->
<g id="edge7" class="edge">
<title>Node0&#45;&gt;Node7</title>
<path fill="none" stroke="#191970" d="M1008.7051,-147.2251C1139.1979,-141.5465 1459.4845,-125.2156 1563.5,-98 1565.6927,-97.4263 1567.9201,-96.7205 1570.132,-95.9293"/>
<polygon fill="#191970" stroke="#191970" points="1571.648,-99.0906 1579.5734,-92.0593 1568.9931,-92.6136 1571.648,-99.0906"/>
</g>
<!-- Node8 -->
<g id="node9" class="node">
<title>Node8</title>
<polygon fill="none" stroke="#bfbfbf" points="1094,-6 1094,-25 1149,-25 1149,-6 1094,-6"/>
<text text-anchor="middle" x="1121.5" y="-13" font-family="Arial" font-size="10.00" fill="#000000">iostream</text>
</g>
<!-- Node0&#45;&gt;Node8 -->
<g id="edge8" class="edge">
<title>Node0&#45;&gt;Node8</title>
<path fill="none" stroke="#191970" d="M1008.7222,-139.5908C1036.1074,-132.2097 1067.7365,-119.5374 1089.5,-98 1106.7623,-80.917 1114.9076,-53.4722 1118.6131,-34.9772"/>
<polygon fill="#191970" stroke="#191970" points="1122.0777,-35.4826 1120.3529,-25.0291 1115.1824,-34.2766 1122.0777,-35.4826"/>
</g>
<!-- Node9 -->
<g id="node10" class="node">
<title>Node9</title>
<polygon fill="none" stroke="#bfbfbf" points="1640.5,-73 1640.5,-92 1692.5,-92 1692.5,-73 1640.5,-73"/>
<text text-anchor="middle" x="1666.5" y="-80" font-family="Arial" font-size="10.00" fill="#000000">sstream</text>
</g>
<!-- Node0&#45;&gt;Node9 -->
<g id="edge9" class="edge">
<title>Node0&#45;&gt;Node9</title>
<path fill="none" stroke="#191970" d="M1008.6152,-147.7003C1149.2668,-142.7962 1513.9809,-127.5448 1631.5,-98 1633.8383,-97.4121 1636.2169,-96.6796 1638.5773,-95.8551"/>
<polygon fill="#191970" stroke="#191970" points="1640.0376,-99.0408 1648.0285,-92.0841 1637.4435,-92.5392 1640.0376,-99.0408"/>
</g>
<!-- Node10 -->
<g id="node11" class="node">
<title>Node10</title>
<polygon fill="none" stroke="#bfbfbf" points="1167,-6 1167,-25 1208,-25 1208,-6 1167,-6"/>
<text text-anchor="middle" x="1187.5" y="-13" font-family="Arial" font-size="10.00" fill="#000000">string</text>
</g>
<!-- Node0&#45;&gt;Node10 -->
<g id="edge10" class="edge">
<title>Node0&#45;&gt;Node10</title>
<path fill="none" stroke="#191970" d="M1008.5718,-139.0103C1040.7849,-131.2007 1080.9749,-118.3042 1112.5,-98 1139.0718,-80.886 1162.2585,-52.0413 1175.5686,-33.3922"/>
<polygon fill="#191970" stroke="#191970" points="1178.4599,-35.3647 1181.2808,-25.1522 1172.707,-31.3766 1178.4599,-35.3647"/>
</g>
<!-- Node11 -->
<g id="node12" class="node">
<title>Node11</title>
<polygon fill="none" stroke="#bfbfbf" points="327.5,-6 327.5,-25 363.5,-25 363.5,-6 327.5,-6"/>
<text text-anchor="middle" x="345.5" y="-13" font-family="Arial" font-size="10.00" fill="#000000">map</text>
</g>
<!-- Node0&#45;&gt;Node11 -->
<g id="edge11" class="edge">
<title>Node0&#45;&gt;Node11</title>
<path fill="none" stroke="#191970" d="M896.229,-148.8518C777.9038,-146.7115 507.485,-137.5121 425.5,-98 395.7102,-83.643 370.9594,-53.2927 357.2105,-33.6778"/>
<polygon fill="#191970" stroke="#191970" points="360.0292,-31.5978 351.5298,-25.2724 354.2295,-35.5175 360.0292,-31.5978"/>
</g>
<!-- Node12 -->
<g id="node13" class="node">
<title>Node12</title>
<polygon fill="none" stroke="#bfbfbf" points="382,-6 382,-25 469,-25 469,-6 382,-6"/>
<text text-anchor="middle" x="425.5" y="-13" font-family="Arial" font-size="10.00" fill="#000000">unordered_map</text>
</g>
<!-- Node0&#45;&gt;Node12 -->
<g id="edge12" class="edge">
<title>Node0&#45;&gt;Node12</title>
<path fill="none" stroke="#191970" d="M896.1914,-147.363C771.4193,-142.1216 480.0228,-126.9006 446.5,-98 428.6272,-82.5916 424.8798,-54.3119 424.5904,-35.2099"/>
<polygon fill="#191970" stroke="#191970" points="428.0902,-35.2409 424.7389,-25.1901 421.091,-35.1371 428.0902,-35.2409"/>
</g>
<!-- Node13 -->
<g id="node14" class="node">
<title>Node13</title>
<polygon fill="none" stroke="#bfbfbf" points="1711,-73 1711,-92 1750,-92 1750,-73 1711,-73"/>
<text text-anchor="middle" x="1730.5" y="-80" font-family="Arial" font-size="10.00" fill="#000000">utility</text>
</g>
<!-- Node0&#45;&gt;Node13 -->
<g id="edge13" class="edge">
<title>Node0&#45;&gt;Node13</title>
<path fill="none" stroke="#191970" d="M1008.696,-148.6804C1159.6742,-145.9956 1571.4493,-135.3616 1701.5,-98 1702.9746,-97.5764 1704.4592,-97.0709 1705.9354,-96.5053"/>
<polygon fill="#191970" stroke="#191970" points="1707.7622,-99.5163 1715.3619,-92.1342 1704.8174,-93.1658 1707.7622,-99.5163"/>
</g>
<!-- Node14 -->
<g id="node15" class="node">
<title>Node14</title>
<polygon fill="none" stroke="#bfbfbf" points="932.5,-6 932.5,-25 976.5,-25 976.5,-6 932.5,-6"/>
<text text-anchor="middle" x="954.5" y="-13" font-family="Arial" font-size="10.00" fill="#000000">vector</text>
</g>
<!-- Node0&#45;&gt;Node14 -->
<g id="edge14" class="edge">
<title>Node0&#45;&gt;Node14</title>
<path fill="none" stroke="#191970" d="M952.7255,-134.389C953.0885,-110.0735 953.802,-62.2644 954.2049,-35.2698"/>
<polygon fill="#191970" stroke="#191970" points="957.7069,-35.1553 954.3567,-25.1042 950.7077,-35.0508 957.7069,-35.1553"/>
</g>
<!-- Node15 -->
<g id="node16" class="node">
<title>Node15</title>
<g id="a_node16"><a xlink:href="problem__definition_8h.html" target="_top" xlink:title="../common/problem_definition.h">
<polygon fill="none" stroke="#000000" points="768.5,-73 768.5,-92 924.5,-92 924.5,-73 768.5,-73"/>
<text text-anchor="middle" x="846.5" y="-80" font-family="Arial" font-size="10.00" fill="#000000">../common/problem_definition.h</text>
</a>
</g>
</g>
<!-- Node0&#45;&gt;Node15 -->
<g id="edge15" class="edge">
<title>Node0&#45;&gt;Node15</title>
<path fill="none" stroke="#191970" d="M928.7115,-134.4639C911.2465,-123.4247 887.6271,-108.4954 870.1862,-97.4715"/>
<polygon fill="#191970" stroke="#191970" points="872.0173,-94.4883 861.6943,-92.1039 868.2772,-100.4054 872.0173,-94.4883"/>
</g>
<!-- Node19 -->
<g id="node20" class="node">
<title>Node19</title>
<g id="a_node20"><a xlink:href="preconditioner__solver_8h.html" target="_top" xlink:title="../common/preconditioner\l_solver.h">
<polygon fill="none" stroke="#000000" points="1175,-67.5 1175,-97.5 1304,-97.5 1304,-67.5 1175,-67.5"/>
<text text-anchor="start" x="1183" y="-85.5" font-family="Arial" font-size="10.00" fill="#000000">../common/preconditioner</text>
<text text-anchor="middle" x="1239.5" y="-74.5" font-family="Arial" font-size="10.00" fill="#000000">_solver.h</text>
</a>
</g>
</g>
<!-- Node0&#45;&gt;Node19 -->
<g id="edge25" class="edge">
<title>Node0&#45;&gt;Node19</title>
<path fill="none" stroke="#191970" d="M1008.5178,-136.4227C1053.234,-125.9837 1116.277,-111.2664 1165.2059,-99.8439"/>
<polygon fill="#191970" stroke="#191970" points="1166.1645,-103.2143 1175.107,-97.5325 1164.5731,-96.3976 1166.1645,-103.2143"/>
</g>
<!-- Node25 -->
<g id="node26" class="node">
<title>Node25</title>
<g id="a_node26"><a xlink:href="mesh__generator_8h.html" target="_top" xlink:title="../mesh/mesh_generator.h">
<polygon fill="none" stroke="#000000" points="456,-73 456,-92 589,-92 589,-73 456,-73"/>
<text text-anchor="middle" x="522.5" y="-80" font-family="Arial" font-size="10.00" fill="#000000">../mesh/mesh_generator.h</text>
</a>
</g>
</g>
<!-- Node0&#45;&gt;Node25 -->
<g id="edge34" class="edge">
<title>Node0&#45;&gt;Node25</title>
<path fill="none" stroke="#191970" d="M896.2437,-142.3179C826.2805,-133.1554 703.2709,-116.2898 598.5,-98 591.4776,-96.7741 584.1097,-95.3924 576.8394,-93.9718"/>
<polygon fill="#191970" stroke="#191970" points="577.518,-90.5383 567.0275,-92.0214 576.1532,-97.404 577.518,-90.5383"/>
</g>
<!-- Node27 -->
<g id="node28" class="node">
<title>Node27</title>
<g id="a_node28"><a xlink:href="material__properties_8h.html" target="_top" xlink:title="../material/material\l_properties.h">
<polygon fill="none" stroke="#000000" points="981,-67.5 981,-97.5 1080,-97.5 1080,-67.5 981,-67.5"/>
<text text-anchor="start" x="989" y="-85.5" font-family="Arial" font-size="10.00" fill="#000000">../material/material</text>
<text text-anchor="middle" x="1030.5" y="-74.5" font-family="Arial" font-size="10.00" fill="#000000">_properties.h</text>
</a>
</g>
</g>
<!-- Node0&#45;&gt;Node27 -->
<g id="edge40" class="edge">
<title>Node0&#45;&gt;Node27</title>
<path fill="none" stroke="#191970" d="M970.1994,-134.2967C980.4714,-125.4733 993.5872,-114.2072 1004.9616,-104.4368"/>
<polygon fill="#191970" stroke="#191970" points="1007.5655,-106.8141 1012.8706,-97.6432 1003.0043,-101.5041 1007.5655,-106.8141"/>
</g>
<!-- Node29 -->
<g id="node30" class="node">
<title>Node29</title>
<g id="a_node30"><a xlink:href="aq__base_8h.html" target="_top" xlink:title="../aqdata/aq_base.h">
<polygon fill="none" stroke="#000000" points="607,-73 607,-92 712,-92 712,-73 607,-73"/>
<text text-anchor="middle" x="659.5" y="-80" font-family="Arial" font-size="10.00" fill="#000000">../aqdata/aq_base.h</text>
</a>
</g>
</g>
<!-- Node0&#45;&gt;Node29 -->
<g id="edge47" class="edge">
<title>Node0&#45;&gt;Node29</title>
<path fill="none" stroke="#191970" d="M896.2981,-136.747C850.5643,-126.3563 784.3515,-111.2832 726.5,-98 721.2636,-96.7977 715.7979,-95.5391 710.3454,-94.2812"/>
<polygon fill="#191970" stroke="#191970" points="711.1283,-90.87 700.5972,-92.0301 709.5532,-97.6905 711.1283,-90.87"/>
</g>
<!-- Node15&#45;&gt;Node4 -->
<g id="edge16" class="edge">
<title>Node15&#45;&gt;Node4</title>
<path fill="none" stroke="#191970" d="M821.2835,-72.9005C794.8113,-62.8231 752.523,-46.7247 719.4582,-34.1375"/>
<polygon fill="#191970" stroke="#191970" points="720.5511,-30.8086 709.9602,-30.5218 718.0606,-37.3506 720.5511,-30.8086"/>
</g>
<!-- Node15&#45;&gt;Node8 -->
<g id="edge19" class="edge">
<title>Node15&#45;&gt;Node8</title>
<path fill="none" stroke="#191970" d="M906.2714,-72.949C955.1325,-64.3518 1025.6637,-50.1277 1085.5,-31 1087.6065,-30.3266 1089.7584,-29.5744 1091.9101,-28.7742"/>
<polygon fill="#191970" stroke="#191970" points="1093.219,-32.0203 1101.2021,-25.0547 1090.6176,-25.5217 1093.219,-32.0203"/>
</g>
<!-- Node15&#45;&gt;Node10 -->
<g id="edge20" class="edge">
<title>Node15&#45;&gt;Node10</title>
<path fill="none" stroke="#191970" d="M921.5501,-72.9805C999.4615,-62.5874 1115.806,-45.4913 1158.5,-31 1159.919,-30.5183 1161.352,-29.9725 1162.781,-29.3807"/>
<polygon fill="#191970" stroke="#191970" points="1164.4468,-32.464 1171.9674,-25.0014 1161.4345,-26.1453 1164.4468,-32.464"/>
</g>
<!-- Node15&#45;&gt;Node11 -->
<g id="edge21" class="edge">
<title>Node15&#45;&gt;Node11</title>
<path fill="none" stroke="#191970" d="M771.8388,-72.987C755.2723,-70.9473 737.7959,-68.8506 721.5,-67 566.5618,-49.4046 520.9076,-78.8605 372.5,-31 371.2558,-30.5987 370.0056,-30.1349 368.7618,-29.624"/>
<polygon fill="#191970" stroke="#191970" points="370.0654,-26.3633 359.5535,-25.0401 366.9459,-32.6298 370.0654,-26.3633"/>
</g>
<!-- Node15&#45;&gt;Node12 -->
<g id="edge22" class="edge">
<title>Node15&#45;&gt;Node12</title>
<path fill="none" stroke="#191970" d="M774.1091,-72.9951C674.9215,-59.8797 505.7844,-37.1524 477.5,-31 473.3059,-30.0877 468.9576,-29.0092 464.6428,-27.8525"/>
<polygon fill="#191970" stroke="#191970" points="465.2988,-24.401 454.724,-25.0531 463.3974,-31.1378 465.2988,-24.401"/>
</g>
<!-- Node15&#45;&gt;Node14 -->
<g id="edge23" class="edge">
<title>Node15&#45;&gt;Node14</title>
<path fill="none" stroke="#191970" d="M861.9738,-72.9005C879.858,-61.8057 909.5062,-43.4128 930.4138,-30.4424"/>
<polygon fill="#191970" stroke="#191970" points="932.4024,-33.3275 939.0549,-25.0817 928.7122,-27.3792 932.4024,-33.3275"/>
</g>
<!-- Node16 -->
<g id="node17" class="node">
<title>Node16</title>
<polygon fill="none" stroke="#bfbfbf" points="487,-6 487,-25 594,-25 594,-6 487,-6"/>
<text text-anchor="middle" x="540.5" y="-13" font-family="Arial" font-size="10.00" fill="#000000">deal.II/base/tensor.h</text>
</g>
<!-- Node15&#45;&gt;Node16 -->
<g id="edge17" class="edge">
<title>Node15&#45;&gt;Node16</title>
<path fill="none" stroke="#191970" d="M799.3622,-72.9813C750.3319,-62.97 671.39,-46.5414 603.5,-31 598.5489,-29.8666 593.3872,-28.6515 588.2429,-27.4188"/>
<polygon fill="#191970" stroke="#191970" points="588.974,-23.9947 578.4312,-25.0431 587.3267,-30.7982 588.974,-23.9947"/>
</g>
<!-- Node17 -->
<g id="node18" class="node">
<title>Node17</title>
<polygon fill="none" stroke="#bfbfbf" points="747,-.5 747,-30.5 866,-30.5 866,-.5 747,-.5"/>
<text text-anchor="start" x="755" y="-18.5" font-family="Arial" font-size="10.00" fill="#000000">deal.II/base/quadrature</text>
<text text-anchor="middle" x="806.5" y="-7.5" font-family="Arial" font-size="10.00" fill="#000000">_lib.h</text>
</g>
<!-- Node15&#45;&gt;Node17 -->
<g id="edge18" class="edge">
<title>Node15&#45;&gt;Node17</title>
<path fill="none" stroke="#191970" d="M840.769,-72.9005C835.553,-64.1638 827.6354,-50.9018 820.7242,-39.3256"/>
<polygon fill="#191970" stroke="#191970" points="823.5995,-37.3138 815.4682,-30.5218 817.5892,-40.9021 823.5995,-37.3138"/>
</g>
<!-- Node18 -->
<g id="node19" class="node">
<title>Node18</title>
<polygon fill="none" stroke="#bfbfbf" points="884.5,-6 884.5,-25 914.5,-25 914.5,-6 884.5,-6"/>
<text text-anchor="middle" x="899.5" y="-13" font-family="Arial" font-size="10.00" fill="#000000">set</text>
</g>
<!-- Node15&#45;&gt;Node18 -->
<g id="edge24" class="edge">
<title>Node15&#45;&gt;Node18</title>
<path fill="none" stroke="#191970" d="M854.0936,-72.9005C862.2798,-62.552 875.4885,-45.8542 885.5543,-33.1295"/>
<polygon fill="#191970" stroke="#191970" points="888.4614,-35.0959 891.9205,-25.0817 882.9714,-30.7531 888.4614,-35.0959"/>
</g>
<!-- Node19&#45;&gt;Node4 -->
<g id="edge31" class="edge">
<title>Node19&#45;&gt;Node4</title>
<path fill="none" stroke="#191970" d="M1174.8975,-75.8135C1148.4298,-73.0769 1117.4959,-69.8821 1089.5,-67 936.7052,-51.27 894.936,-56.2552 738.965,-30.9446"/>
<polygon fill="#191970" stroke="#191970" points="739.4503,-27.4775 729.016,-29.3145 738.3184,-34.3854 739.4503,-27.4775"/>
</g>
<!-- Node19&#45;&gt;Node10 -->
<g id="edge33" class="edge">
<title>Node19&#45;&gt;Node10</title>
<path fill="none" stroke="#191970" d="M1227.7004,-67.2967C1219.8345,-57.1618 1209.4673,-43.804 1201.2312,-33.1921"/>
<polygon fill="#191970" stroke="#191970" points="1203.812,-30.8089 1194.9158,-25.055 1198.2821,-35.1008 1203.812,-30.8089"/>
</g>
<!-- Node19&#45;&gt;Node14 -->
<g id="edge32" class="edge">
<title>Node19&#45;&gt;Node14</title>
<path fill="none" stroke="#191970" d="M1174.9089,-73.9162C1123.0777,-65.9478 1048.9226,-52.0986 986.5,-31 984.8516,-30.4428 983.1783,-29.8205 981.5054,-29.154"/>
<polygon fill="#191970" stroke="#191970" points="982.6692,-25.8418 972.1077,-25.0016 979.84,-32.2446 982.6692,-25.8418"/>
</g>
<!-- Node20 -->
<g id="node21" class="node">
<title>Node20</title>
<polygon fill="none" stroke="#bfbfbf" points="1544,-.5 1544,-30.5 1639,-30.5 1639,-.5 1544,-.5"/>
<text text-anchor="start" x="1552" y="-18.5" font-family="Arial" font-size="10.00" fill="#000000">deal.II/lac/generic</text>
<text text-anchor="middle" x="1591.5" y="-7.5" font-family="Arial" font-size="10.00" fill="#000000">_linear_algebra.h</text>
</g>
<!-- Node19&#45;&gt;Node20 -->
<g id="edge26" class="edge">
<title>Node19&#45;&gt;Node20</title>
<path fill="none" stroke="#191970" d="M1304.0395,-68.8004C1307.2358,-68.1788 1310.4027,-67.5752 1313.5,-67 1408.6082,-49.3374 1436.0984,-52.1535 1533.9182,-31.2196"/>
<polygon fill="#191970" stroke="#191970" points="1534.8988,-34.5884 1543.9294,-29.0477 1533.4146,-27.7475 1534.8988,-34.5884"/>
</g>
<!-- Node21 -->
<g id="node22" class="node">
<title>Node21</title>
<polygon fill="none" stroke="#bfbfbf" points="1657.5,-.5 1657.5,-30.5 1781.5,-30.5 1781.5,-.5 1657.5,-.5"/>
<text text-anchor="start" x="1665.5" y="-18.5" font-family="Arial" font-size="10.00" fill="#000000">deal.II/lac/petsc_parallel</text>
<text text-anchor="middle" x="1719.5" y="-7.5" font-family="Arial" font-size="10.00" fill="#000000">_sparse_matrix.h</text>
</g>
<!-- Node19&#45;&gt;Node21 -->
<g id="edge27" class="edge">
<title>Node19&#45;&gt;Node21</title>
<path fill="none" stroke="#191970" d="M1304.0042,-68.5949C1307.2098,-68.0277 1310.3884,-67.4918 1313.5,-67 1458.2322,-44.1236 1498.9524,-54.5313 1647.305,-31.0852"/>
<polygon fill="#191970" stroke="#191970" points="1647.9158,-34.532 1657.2346,-29.4911 1646.8062,-27.6205 1647.9158,-34.532"/>
</g>
<!-- Node22 -->
<g id="node23" class="node">
<title>Node22</title>
<polygon fill="none" stroke="#bfbfbf" points="1799.5,-.5 1799.5,-30.5 1923.5,-30.5 1923.5,-.5 1799.5,-.5"/>
<text text-anchor="start" x="1807.5" y="-18.5" font-family="Arial" font-size="10.00" fill="#000000">deal.II/lac/petsc_parallel</text>
<text text-anchor="middle" x="1861.5" y="-7.5" font-family="Arial" font-size="10.00" fill="#000000">_vector.h</text>
</g>
<!-- Node19&#45;&gt;Node22 -->
<g id="edge28" class="edge">
<title>Node19&#45;&gt;Node22</title>
<path fill="none" stroke="#191970" d="M1304.3871,-68.4065C1307.4616,-67.8969 1310.5109,-67.424 1313.5,-67 1520.707,-37.6094 1578.3403,-60.9919 1789.099,-31.0698"/>
<polygon fill="#191970" stroke="#191970" points="1789.8547,-34.497 1799.252,-29.6042 1788.8546,-27.5688 1789.8547,-34.497"/>
</g>
<!-- Node23 -->
<g id="node24" class="node">
<title>Node23</title>
<polygon fill="none" stroke="#bfbfbf" points="1226.5,-6 1226.5,-25 1380.5,-25 1380.5,-6 1226.5,-6"/>
<text text-anchor="middle" x="1303.5" y="-13" font-family="Arial" font-size="10.00" fill="#000000">deal.II/lac/petsc_precondition.h</text>
</g>
<!-- Node19&#45;&gt;Node23 -->
<g id="edge29" class="edge">
<title>Node19&#45;&gt;Node23</title>
<path fill="none" stroke="#191970" d="M1254.0226,-67.2967C1263.8973,-56.9591 1276.9749,-43.2684 1287.2051,-32.5588"/>
<polygon fill="#191970" stroke="#191970" points="1289.9964,-34.7037 1294.3729,-25.055 1284.9346,-29.8685 1289.9964,-34.7037"/>
</g>
<!-- Node24 -->
<g id="node25" class="node">
<title>Node24</title>
<polygon fill="none" stroke="#bfbfbf" points="1399,-6 1399,-25 1526,-25 1526,-6 1399,-6"/>
<text text-anchor="middle" x="1462.5" y="-13" font-family="Arial" font-size="10.00" fill="#000000">deal.II/lac/petsc_solver.h</text>
</g>
<!-- Node19&#45;&gt;Node24 -->
<g id="edge30" class="edge">
<title>Node19&#45;&gt;Node24</title>
<path fill="none" stroke="#191970" d="M1289.5456,-67.4639C1329.102,-55.5792 1383.6652,-39.1858 1420.8597,-28.0108"/>
<polygon fill="#191970" stroke="#191970" points="1422.293,-31.2348 1430.863,-25.0053 1420.2788,-24.5308 1422.293,-31.2348"/>
</g>
<!-- Node25&#45;&gt;Node4 -->
<g id="edge36" class="edge">
<title>Node25&#45;&gt;Node4</title>
<path fill="none" stroke="#191970" d="M543.7048,-72.9005C565.5833,-62.9961 600.3091,-47.2756 627.8919,-34.7888"/>
<polygon fill="#191970" stroke="#191970" points="629.6511,-37.8344 637.3176,-30.5218 626.7641,-31.4574 629.6511,-37.8344"/>
</g>
<!-- Node25&#45;&gt;Node11 -->
<g id="edge38" class="edge">
<title>Node25&#45;&gt;Node11</title>
<path fill="none" stroke="#191970" d="M488.7275,-72.9212C457.8535,-63.6952 411.239,-48.5761 372.5,-31 371.6602,-30.619 370.8123,-30.2199 369.9613,-29.8068"/>
<polygon fill="#191970" stroke="#191970" points="371.4154,-26.6165 360.9395,-25.0337 368.1419,-32.8039 371.4154,-26.6165"/>
</g>
<!-- Node25&#45;&gt;Node12 -->
<g id="edge37" class="edge">
<title>Node25&#45;&gt;Node12</title>
<path fill="none" stroke="#191970" d="M508.6023,-72.9005C492.6836,-61.9052 466.3879,-43.7422 447.6401,-30.7927"/>
<polygon fill="#191970" stroke="#191970" points="449.5892,-27.8852 439.372,-25.0817 445.6108,-33.6448 449.5892,-27.8852"/>
</g>
<!-- Node25&#45;&gt;Node14 -->
<g id="edge39" class="edge">
<title>Node25&#45;&gt;Node14</title>
<path fill="none" stroke="#191970" d="M565.7824,-72.9646C576.4448,-70.8115 587.8576,-68.6711 598.5,-67 742.0687,-44.456 784.1157,-72.1366 923.5,-31 925.1664,-30.5082 926.8513,-29.9301 928.5293,-29.2915"/>
<polygon fill="#191970" stroke="#191970" points="930.1588,-32.3979 937.8876,-25.1512 927.3266,-25.9964 930.1588,-32.3979"/>
</g>
<!-- Node26 -->
<g id="node27" class="node">
<title>Node26</title>
<polygon fill="none" stroke="#bfbfbf" points="216,-.5 216,-30.5 309,-30.5 309,-.5 216,-.5"/>
<text text-anchor="start" x="224" y="-18.5" font-family="Arial" font-size="10.00" fill="#000000">deal.II/distributed</text>
<text text-anchor="middle" x="262.5" y="-7.5" font-family="Arial" font-size="10.00" fill="#000000">/tria.h</text>
</g>
<!-- Node25&#45;&gt;Node26 -->
<g id="edge35" class="edge">
<title>Node25&#45;&gt;Node26</title>
<path fill="none" stroke="#191970" d="M483.7037,-72.9844C444.6201,-63.3364 382.3387,-47.7938 318.9907,-31.0991"/>
<polygon fill="#191970" stroke="#191970" points="319.7917,-27.6907 309.2294,-28.5195 318.0032,-34.4583 319.7917,-27.6907"/>
</g>
<!-- Node27&#45;&gt;Node4 -->
<g id="edge41" class="edge">
<title>Node27&#45;&gt;Node4</title>
<path fill="none" stroke="#191970" d="M980.7595,-74.4983C924.5793,-65.2885 830.1973,-49.2997 739.0179,-31.0472"/>
<polygon fill="#191970" stroke="#191970" points="739.5598,-27.5861 729.0657,-29.0432 738.178,-34.4484 739.5598,-27.5861"/>
</g>
<!-- Node27&#45;&gt;Node8 -->
<g id="edge42" class="edge">
<title>Node27&#45;&gt;Node8</title>
<path fill="none" stroke="#191970" d="M1051.1493,-67.2967C1065.8781,-56.4524 1085.6186,-41.9182 1100.4396,-31.006"/>
<polygon fill="#191970" stroke="#191970" points="1102.5447,-33.8025 1108.5224,-25.055 1098.3944,-28.1655 1102.5447,-33.8025"/>
</g>
<!-- Node27&#45;&gt;Node10 -->
<g id="edge43" class="edge">
<title>Node27&#45;&gt;Node10</title>
<path fill="none" stroke="#191970" d="M1071.0464,-67.4795C1096.4616,-57.7477 1129.7401,-44.4234 1158.5,-31 1159.3374,-30.6092 1160.1848,-30.2058 1161.0377,-29.793"/>
<polygon fill="#191970" stroke="#191970" points="1162.8414,-32.8025 1170.173,-25.1542 1159.672,-26.5611 1162.8414,-32.8025"/>
</g>
<!-- Node27&#45;&gt;Node12 -->
<g id="edge44" class="edge">
<title>Node27&#45;&gt;Node12</title>
<path fill="none" stroke="#191970" d="M980.7613,-73.7721C965.6212,-71.326 948.91,-68.8365 933.5,-67 731.6313,-42.9416 677.3567,-68.2435 477.5,-31 472.9491,-30.1519 468.2294,-29.0583 463.5732,-27.8447"/>
<polygon fill="#191970" stroke="#191970" points="464.1454,-24.3704 453.572,-25.0448 462.2582,-31.1112 464.1454,-24.3704"/>
</g>
<!-- Node27&#45;&gt;Node14 -->
<g id="edge45" class="edge">
<title>Node27&#45;&gt;Node14</title>
<path fill="none" stroke="#191970" d="M1013.2544,-67.2967C1001.2983,-56.7564 985.3881,-42.7303 973.1396,-31.9323"/>
<polygon fill="#191970" stroke="#191970" points="975.1543,-29.0425 965.3385,-25.055 970.5252,-34.2934 975.1543,-29.0425"/>
</g>
<!-- Node28 -->
<g id="node29" class="node">
<title>Node28</title>
<polygon fill="none" stroke="#bfbfbf" points="995,-6 995,-25 1076,-25 1076,-6 995,-6"/>
<text text-anchor="middle" x="1035.5" y="-13" font-family="Arial" font-size="10.00" fill="#000000">unordered_set</text>
</g>
<!-- Node27&#45;&gt;Node28 -->
<g id="edge46" class="edge">
<title>Node27&#45;&gt;Node28</title>
<path fill="none" stroke="#191970" d="M1031.6346,-67.2967C1032.3455,-57.7699 1033.269,-45.3954 1034.035,-35.1306"/>
<polygon fill="#191970" stroke="#191970" points="1037.5329,-35.2877 1034.7869,-25.055 1030.5524,-34.7667 1037.5329,-35.2877"/>
</g>
<!-- Node29&#45;&gt;Node4 -->
<g id="edge49" class="edge">
<title>Node29&#45;&gt;Node4</title>
<path fill="none" stroke="#191970" d="M661.076,-72.9005C662.4536,-64.5099 664.5165,-51.9451 666.3613,-40.7085"/>
<polygon fill="#191970" stroke="#191970" points="669.8673,-40.9567 668.0337,-30.5218 662.9598,-39.8226 669.8673,-40.9567"/>
</g>
<!-- Node29&#45;&gt;Node10 -->
<g id="edge53" class="edge">
<title>Node29&#45;&gt;Node10</title>
<path fill="none" stroke="#191970" d="M712.0894,-73.7042C727.3538,-71.326 744.0673,-68.8903 759.5,-67 936.2329,-45.3527 987.9024,-81.986 1158.5,-31 1159.97,-30.5607 1161.4509,-30.0428 1162.9243,-29.4676"/>
<polygon fill="#191970" stroke="#191970" points="1164.7638,-32.4714 1172.3424,-25.0677 1161.8009,-26.1294 1164.7638,-32.4714"/>
</g>
<!-- Node29&#45;&gt;Node11 -->
<g id="edge51" class="edge">
<title>Node29&#45;&gt;Node11</title>
<path fill="none" stroke="#191970" d="M624.1445,-72.937C615.7708,-70.8331 606.8472,-68.7216 598.5,-67 498.8859,-46.4545 468.4035,-64.8762 372.5,-31 371.296,-30.5747 370.0842,-30.0959 368.8765,-29.5771"/>
<polygon fill="#191970" stroke="#191970" points="370.3937,-26.4223 359.8893,-25.0408 367.2394,-32.6714 370.3937,-26.4223"/>
</g>
<!-- Node29&#45;&gt;Node12 -->
<g id="edge52" class="edge">
<title>Node29&#45;&gt;Node12</title>
<path fill="none" stroke="#191970" d="M625.2445,-72.9603C588.6306,-62.7279 528.9007,-45.9322 477.5,-31 474.1416,-30.0244 470.6636,-29.0057 467.1714,-27.977"/>
<polygon fill="#191970" stroke="#191970" points="467.9616,-24.5609 457.3795,-25.079 465.975,-31.2731 467.9616,-24.5609"/>
</g>
<!-- Node29&#45;&gt;Node14 -->
<g id="edge50" class="edge">
<title>Node29&#45;&gt;Node14</title>
<path fill="none" stroke="#191970" d="M712.1337,-73.9695C777.5218,-63.0702 885.1517,-44.0561 923.5,-31 925.1056,-30.4534 926.7334,-29.8392 928.3592,-29.179"/>
<polygon fill="#191970" stroke="#191970" points="929.8158,-32.3615 937.4776,-25.0439 926.9248,-25.9864 929.8158,-32.3615"/>
</g>
<!-- Node29&#45;&gt;Node16 -->
<g id="edge48" class="edge">
<title>Node29&#45;&gt;Node16</title>
<path fill="none" stroke="#191970" d="M642.4502,-72.9005C622.5677,-61.7062 589.4895,-43.0823 566.422,-30.0947"/>
<polygon fill="#191970" stroke="#191970" points="567.9491,-26.938 557.5182,-25.0817 564.5148,-33.0376 567.9491,-26.938"/>
</g>
</g>
</svg>
