<?xml version="1.0" encoding="UTF-8" standalone="no"?>
<!DOCTYPE svg PUBLIC "-//W3C//DTD SVG 1.1//EN"
 "http://www.w3.org/Graphics/SVG/1.1/DTD/svg11.dtd">
<!-- Generated by graphviz version 2.40.1 (20161225.0304)
 -->
<!-- Title: src/equation/equation_base.cc Pages: 1 -->
<!--zoomable 229 -->
<svg id="main" version="1.1" xmlns="http://www.w3.org/2000/svg" xmlns:xlink="http://www.w3.org/1999/xlink" xml:space="preserve" onload="init(evt)">
<style type="text/css"><![CDATA[
.edge:hover path { stroke: red; }
.edge:hover polygon { stroke: red; fill: red; }
]]></style>
<script type="text/javascript"><![CDATA[
var edges = document.getElementsByTagName('g');
if (edges && edges.length) {
  for (var i=0;i<edges.length;i++) {
    if (edges[i].id.substr(0,4)=='edge') {
      edges[i].setAttribute('class','edge');
    }
  }
}
]]></script>
        <defs>
                <circle id="rim" cx="0" cy="0" r="7"/>
                <circle id="rim2" cx="0" cy="0" r="3.5"/>
                <g id="zoomPlus">
                        <use xlink:href="#rim" fill="#404040">
                                <set attributeName="fill" to="#808080" begin="zoomplus.mouseover" end="zoomplus.mouseout"/>
                        </use>
                        <path d="M-4,0h8M0,-4v8" fill="none" stroke="white" stroke-width="1.5" pointer-events="none"/>
                </g>
                <g id="zoomMin">
                        <use xlink:href="#rim" fill="#404040">
                                <set attributeName="fill" to="#808080" begin="zoomminus.mouseover" end="zoomminus.mouseout"/>
                        </use>
                        <path d="M-4,0h8" fill="none" stroke="white" stroke-width="1.5" pointer-events="none"/>
                </g>
                <g id="dirArrow">
                        <path fill="none" stroke="white" stroke-width="1.5" d="M0,-3.0v7 M-2.5,-0.5L0,-3.0L2.5,-0.5"/>
                </g>
               <g id="resetDef">
                       <use xlink:href="#rim2" fill="#404040">
                               <set attributeName="fill" to="#808080" begin="reset.mouseover" end="reset.mouseout"/>
                       </use>
               </g>
        </defs>

<script type="text/javascript">
var viewWidth = 1893;
var viewHeight = 229;
var sectionId = 'dynsection-0';
</script>
<script xlink:href="svgpan.js"/>
<svg id="graph" class="graph">
<g id="viewport">
<title>src/equation/equation_base.cc</title>
<!-- Node0 -->
<g id="node1" class="node">
<title>Node0</title>
<polygon fill="#bfbfbf" stroke="#000000" points="306.5,-190.5 306.5,-220.5 418.5,-220.5 418.5,-190.5 306.5,-190.5"/>
<text text-anchor="start" x="314.5" y="-208.5" font-family="Arial" font-size="10.00" fill="#000000">src/equation/equation</text>
<text text-anchor="middle" x="362.5" y="-197.5" font-family="Arial" font-size="10.00" fill="#000000">_base.cc</text>
</g>
<!-- Node1 -->
<g id="node2" class="node">
<title>Node1</title>
<polygon fill="none" stroke="#bfbfbf" points="0,-134.5 0,-153.5 117,-153.5 117,-134.5 0,-134.5"/>
<text text-anchor="middle" x="58.5" y="-141.5" font-family="Arial" font-size="10.00" fill="#000000">deal.II/dofs/dof_tools.h</text>
</g>
<!-- Node0&#45;&gt;Node1 -->
<g id="edge1" class="edge">
<title>Node0&#45;&gt;Node1</title>
<path fill="none" stroke="#191970" d="M306.3874,-194.1483C252.1207,-183.17 170.2934,-166.6161 115.6716,-155.566"/>
<polygon fill="#191970" stroke="#191970" points="116.2973,-152.1217 105.8019,-153.5693 114.9093,-158.9827 116.2973,-152.1217"/>
</g>
<!-- Node2 -->
<g id="node3" class="node">
<title>Node2</title>
<polygon fill="none" stroke="#bfbfbf" points="135,-134.5 135,-153.5 238,-153.5 238,-134.5 135,-134.5"/>
<text text-anchor="middle" x="186.5" y="-141.5" font-family="Arial" font-size="10.00" fill="#000000">deal.II/grid/cell_id.h</text>
</g>
<!-- Node0&#45;&gt;Node2 -->
<g id="edge2" class="edge">
<title>Node0&#45;&gt;Node2</title>
<path fill="none" stroke="#191970" d="M319.4456,-190.4554C290.0795,-180.194 251.5855,-166.7429 223.5805,-156.9571"/>
<polygon fill="#191970" stroke="#191970" points="224.3686,-153.525 213.7738,-153.5303 222.0594,-160.1332 224.3686,-153.525"/>
</g>
<!-- Node3 -->
<g id="node4" class="node">
<title>Node3</title>
<polygon fill="none" stroke="#bfbfbf" points="256.5,-134.5 256.5,-153.5 366.5,-153.5 366.5,-134.5 256.5,-134.5"/>
<text text-anchor="middle" x="311.5" y="-141.5" font-family="Arial" font-size="10.00" fill="#000000">deal.II/base/utilities.h</text>
</g>
<!-- Node0&#45;&gt;Node3 -->
<g id="edge3" class="edge">
<title>Node0&#45;&gt;Node3</title>
<path fill="none" stroke="#191970" d="M349.8933,-190.2977C342.7402,-181.672 333.7503,-170.8312 326.2682,-161.8087"/>
<polygon fill="#191970" stroke="#191970" points="328.7433,-159.3103 319.6657,-153.8469 323.355,-163.7787 328.7433,-159.3103"/>
</g>
<!-- Node4 -->
<g id="node5" class="node">
<title>Node4</title>
<polygon fill="none" stroke="#bfbfbf" points="384.5,-134.5 384.5,-153.5 442.5,-153.5 442.5,-134.5 384.5,-134.5"/>
<text text-anchor="middle" x="413.5" y="-141.5" font-family="Arial" font-size="10.00" fill="#000000">algorithm</text>
</g>
<!-- Node0&#45;&gt;Node4 -->
<g id="edge4" class="edge">
<title>Node0&#45;&gt;Node4</title>
<path fill="none" stroke="#191970" d="M375.1067,-190.2977C382.2598,-181.672 391.2497,-170.8312 398.7318,-161.8087"/>
<polygon fill="#191970" stroke="#191970" points="401.645,-163.7787 405.3343,-153.8469 396.2567,-159.3103 401.645,-163.7787"/>
</g>
<!-- Node5 -->
<g id="node6" class="node">
<title>Node5</title>
<polygon fill="none" stroke="#bfbfbf" points="135.5,-73 135.5,-92 185.5,-92 185.5,-73 135.5,-73"/>
<text text-anchor="middle" x="160.5" y="-80" font-family="Arial" font-size="10.00" fill="#000000">fstream</text>
</g>
<!-- Node0&#45;&gt;Node5 -->
<g id="edge5" class="edge">
<title>Node0&#45;&gt;Node5</title>
<path fill="none" stroke="#191970" d="M405.6593,-190.428C437.0755,-177.147 470.9792,-156.4597 451.5,-134 414.4362,-91.2651 254.1659,-112.5479 199.5,-98 196.8839,-97.3038 194.2056,-96.4831 191.5383,-95.5889"/>
<polygon fill="#191970" stroke="#191970" points="192.6512,-92.2692 182.0575,-92.1184 190.245,-98.8427 192.6512,-92.2692"/>
</g>
<!-- Node6 -->
<g id="node7" class="node">
<title>Node6</title>
<g id="a_node7"><a xlink:href="equation__base_8h.html" target="_top" xlink:title="equation_base.h">
<polygon fill="none" stroke="#000000" points="848.5,-134.5 848.5,-153.5 938.5,-153.5 938.5,-134.5 848.5,-134.5"/>
<text text-anchor="middle" x="893.5" y="-141.5" font-family="Arial" font-size="10.00" fill="#000000">equation_base.h</text>
</a>
</g>
</g>
<!-- Node0&#45;&gt;Node6 -->
<g id="edge6" class="edge">
<title>Node0&#45;&gt;Node6</title>
<path fill="none" stroke="#191970" d="M418.5729,-199.0057C520.8966,-187.1546 736.7012,-162.1603 838.3432,-150.3882"/>
<polygon fill="#191970" stroke="#191970" points="838.8713,-153.8505 848.4022,-149.2232 838.0659,-146.897 838.8713,-153.8505"/>
</g>
<!-- Node6&#45;&gt;Node5 -->
<g id="edge13" class="edge">
<title>Node6&#45;&gt;Node5</title>
<path fill="none" stroke="#191970" d="M848.2255,-142.8385C714.6443,-139.121 323.7587,-126.079 199.5,-98 196.6351,-97.3526 193.7053,-96.5247 190.8023,-95.5893"/>
<polygon fill="#191970" stroke="#191970" points="191.7619,-92.2144 181.1676,-92.1004 189.3784,-98.7962 191.7619,-92.2144"/>
</g>
<!-- Node7 -->
<g id="node8" class="node">
<title>Node7</title>
<polygon fill="none" stroke="#bfbfbf" points="1524,-67.5 1524,-97.5 1641,-97.5 1641,-67.5 1524,-67.5"/>
<text text-anchor="start" x="1532" y="-85.5" font-family="Arial" font-size="10.00" fill="#000000">deal.II/numerics/vector</text>
<text text-anchor="middle" x="1582.5" y="-74.5" font-family="Arial" font-size="10.00" fill="#000000">_tools.h</text>
</g>
<!-- Node6&#45;&gt;Node7 -->
<g id="edge7" class="edge">
<title>Node6&#45;&gt;Node7</title>
<path fill="none" stroke="#191970" d="M938.6466,-143.0334C1039.9821,-140.355 1293.2984,-130.8225 1513.637,-98.1465"/>
<polygon fill="#191970" stroke="#191970" points="1514.4035,-101.5707 1523.7723,-96.6234 1513.3632,-94.6484 1514.4035,-101.5707"/>
</g>
<!-- Node8 -->
<g id="node9" class="node">
<title>Node8</title>
<polygon fill="none" stroke="#bfbfbf" points="1659.5,-73 1659.5,-92 1757.5,-92 1757.5,-73 1659.5,-73"/>
<text text-anchor="middle" x="1708.5" y="-80" font-family="Arial" font-size="10.00" fill="#000000">deal.II/fe/fe_poly.h</text>
</g>
<!-- Node6&#45;&gt;Node8 -->
<g id="edge8" class="edge">
<title>Node6&#45;&gt;Node8</title>
<path fill="none" stroke="#191970" d="M938.6827,-142.4441C1079.949,-137.3922 1512.0872,-120.467 1650.5,-98 1656.0299,-97.1024 1661.7945,-95.8984 1667.4515,-94.5563"/>
<polygon fill="#191970" stroke="#191970" points="1668.6082,-97.874 1677.4439,-92.0276 1666.8908,-91.0879 1668.6082,-97.874"/>
</g>
<!-- Node9 -->
<g id="node10" class="node">
<title>Node9</title>
<polygon fill="none" stroke="#bfbfbf" points="1776,-73 1776,-92 1885,-92 1885,-73 1776,-73"/>
<text text-anchor="middle" x="1830.5" y="-80" font-family="Arial" font-size="10.00" fill="#000000">deal.II/fe/fe_values.h</text>
</g>
<!-- Node6&#45;&gt;Node9 -->
<g id="edge9" class="edge">
<title>Node6&#45;&gt;Node9</title>
<path fill="none" stroke="#191970" d="M938.6313,-142.7259C1093.7238,-138.1749 1604.2147,-121.7189 1766.5,-98 1772.8843,-97.0669 1779.5642,-95.7919 1786.099,-94.3711"/>
<polygon fill="#191970" stroke="#191970" points="1787.2269,-97.703 1796.1854,-92.0465 1785.6548,-90.8818 1787.2269,-97.703"/>
</g>
<!-- Node10 -->
<g id="node11" class="node">
<title>Node10</title>
<polygon fill="none" stroke="#bfbfbf" points="436,-.5 436,-30.5 553,-30.5 553,-.5 436,-.5"/>
<text text-anchor="start" x="444" y="-18.5" font-family="Arial" font-size="10.00" fill="#000000">deal.II/base/parameter</text>
<text text-anchor="middle" x="494.5" y="-7.5" font-family="Arial" font-size="10.00" fill="#000000">_handler.h</text>
</g>
<!-- Node6&#45;&gt;Node10 -->
<g id="edge10" class="edge">
<title>Node6&#45;&gt;Node10</title>
<path fill="none" stroke="#191970" d="M848.3722,-140.5975C774.0211,-134.4477 629.4261,-120.0385 583.5,-98 575.6585,-94.2371 540.9028,-61.0028 517.2168,-37.8829"/>
<polygon fill="#191970" stroke="#191970" points="519.5578,-35.2768 509.9636,-30.7821 514.6609,-40.2788 519.5578,-35.2768"/>
</g>
<!-- Node11 -->
<g id="node12" class="node">
<title>Node11</title>
<polygon fill="none" stroke="#bfbfbf" points="1146,-67.5 1146,-97.5 1241,-97.5 1241,-67.5 1146,-67.5"/>
<text text-anchor="start" x="1154" y="-85.5" font-family="Arial" font-size="10.00" fill="#000000">deal.II/base/index</text>
<text text-anchor="middle" x="1193.5" y="-74.5" font-family="Arial" font-size="10.00" fill="#000000">_set.h</text>
</g>
<!-- Node6&#45;&gt;Node11 -->
<g id="edge11" class="edge">
<title>Node6&#45;&gt;Node11</title>
<path fill="none" stroke="#191970" d="M938.7071,-136.6434C985.7543,-128.728 1061.7537,-115.2165 1135.9328,-98.2674"/>
<polygon fill="#191970" stroke="#191970" points="1136.9541,-101.6237 1145.9105,-95.9638 1135.3794,-94.8031 1136.9541,-101.6237"/>
</g>
<!-- Node12 -->
<g id="node13" class="node">
<title>Node12</title>
<polygon fill="none" stroke="#bfbfbf" points="1259,-67.5 1259,-97.5 1378,-97.5 1378,-67.5 1259,-67.5"/>
<text text-anchor="start" x="1267" y="-85.5" font-family="Arial" font-size="10.00" fill="#000000">deal.II/base/conditional</text>
<text text-anchor="middle" x="1318.5" y="-74.5" font-family="Arial" font-size="10.00" fill="#000000">_ostream.h</text>
</g>
<!-- Node6&#45;&gt;Node12 -->
<g id="edge12" class="edge">
<title>Node6&#45;&gt;Node12</title>
<path fill="none" stroke="#191970" d="M938.515,-139.6008C1004.5657,-132.8387 1131.7851,-118.65 1249.0015,-98.176"/>
<polygon fill="#191970" stroke="#191970" points="1249.6231,-101.6205 1258.8619,-96.4345 1248.4056,-94.7272 1249.6231,-101.6205"/>
</g>
<!-- Node13 -->
<g id="node14" class="node">
<title>Node13</title>
<polygon fill="none" stroke="#bfbfbf" points="918,-6 918,-25 973,-25 973,-6 918,-6"/>
<text text-anchor="middle" x="945.5" y="-13" font-family="Arial" font-size="10.00" fill="#000000">iostream</text>
</g>
<!-- Node6&#45;&gt;Node13 -->
<g id="edge14" class="edge">
<title>Node6&#45;&gt;Node13</title>
<path fill="none" stroke="#191970" d="M897.9064,-134.1781C902.0375,-124.8975 908.3343,-110.5645 913.5,-98 922.3173,-76.5539 931.8613,-51.7177 938.21,-34.9443"/>
<polygon fill="#191970" stroke="#191970" points="941.6298,-35.7946 941.8808,-25.2028 935.0794,-33.3263 941.6298,-35.7946"/>
</g>
<!-- Node14 -->
<g id="node15" class="node">
<title>Node14</title>
<polygon fill="none" stroke="#bfbfbf" points="1396.5,-73 1396.5,-92 1448.5,-92 1448.5,-73 1396.5,-73"/>
<text text-anchor="middle" x="1422.5" y="-80" font-family="Arial" font-size="10.00" fill="#000000">sstream</text>
</g>
<!-- Node6&#45;&gt;Node14 -->
<g id="edge15" class="edge">
<title>Node6&#45;&gt;Node14</title>
<path fill="none" stroke="#191970" d="M938.5397,-141.6724C1043.7689,-135.9333 1303.21,-119.9609 1387.5,-98 1389.8332,-97.3921 1392.2081,-96.6452 1394.5659,-95.8109"/>
<polygon fill="#191970" stroke="#191970" points="1396.0345,-98.9929 1404.0124,-92.0213 1393.4282,-92.4962 1396.0345,-98.9929"/>
</g>
<!-- Node15 -->
<g id="node16" class="node">
<title>Node15</title>
<polygon fill="none" stroke="#bfbfbf" points="991,-6 991,-25 1032,-25 1032,-6 991,-6"/>
<text text-anchor="middle" x="1011.5" y="-13" font-family="Arial" font-size="10.00" fill="#000000">string</text>
</g>
<!-- Node6&#45;&gt;Node15 -->
<g id="edge16" class="edge">
<title>Node6&#45;&gt;Node15</title>
<path fill="none" stroke="#191970" d="M902.3692,-134.3416C922.1871,-112.7602 970.2959,-60.3706 995.4985,-32.9254"/>
<polygon fill="#191970" stroke="#191970" points="998.3421,-35.0034 1002.5279,-25.2705 993.1862,-30.2688 998.3421,-35.0034"/>
</g>
<!-- Node16 -->
<g id="node17" class="node">
<title>Node16</title>
<polygon fill="none" stroke="#bfbfbf" points="151.5,-6 151.5,-25 187.5,-25 187.5,-6 151.5,-6"/>
<text text-anchor="middle" x="169.5" y="-13" font-family="Arial" font-size="10.00" fill="#000000">map</text>
</g>
<!-- Node6&#45;&gt;Node16 -->
<g id="edge17" class="edge">
<title>Node6&#45;&gt;Node16</title>
<path fill="none" stroke="#191970" d="M848.226,-142.6298C710.6188,-138.2071 303.4126,-123.121 249.5,-98 219.3692,-83.9603 194.5719,-53.25 180.9287,-33.5156"/>
<polygon fill="#191970" stroke="#191970" points="183.7644,-31.4592 175.3089,-25.0752 177.9377,-35.3387 183.7644,-31.4592"/>
</g>
<!-- Node17 -->
<g id="node18" class="node">
<title>Node17</title>
<polygon fill="none" stroke="#bfbfbf" points="206,-6 206,-25 293,-25 293,-6 206,-6"/>
<text text-anchor="middle" x="249.5" y="-13" font-family="Arial" font-size="10.00" fill="#000000">unordered_map</text>
</g>
<!-- Node6&#45;&gt;Node17 -->
<g id="edge18" class="edge">
<title>Node6&#45;&gt;Node17</title>
<path fill="none" stroke="#191970" d="M848.0373,-143.6578C711.9515,-142.2222 314.4996,-134.882 270.5,-98 252.4153,-82.8408 248.7203,-54.4995 248.5004,-35.3158"/>
<polygon fill="#191970" stroke="#191970" points="252.0009,-35.3119 248.6899,-25.2478 245.0022,-35.1801 252.0009,-35.3119"/>
</g>
<!-- Node18 -->
<g id="node19" class="node">
<title>Node18</title>
<polygon fill="none" stroke="#bfbfbf" points="1467,-73 1467,-92 1506,-92 1506,-73 1467,-73"/>
<text text-anchor="middle" x="1486.5" y="-80" font-family="Arial" font-size="10.00" fill="#000000">utility</text>
</g>
<!-- Node6&#45;&gt;Node18 -->
<g id="edge19" class="edge">
<title>Node6&#45;&gt;Node18</title>
<path fill="none" stroke="#191970" d="M938.531,-142.6894C1054.3775,-138.9416 1360.4246,-126.5584 1457.5,-98 1458.9719,-97.567 1460.4543,-97.0541 1461.9288,-96.4828"/>
<polygon fill="#191970" stroke="#191970" points="1463.7632,-99.4895 1471.3504,-92.0945 1460.8076,-93.1441 1463.7632,-99.4895"/>
</g>
<!-- Node19 -->
<g id="node20" class="node">
<title>Node19</title>
<polygon fill="none" stroke="#bfbfbf" points="756.5,-6 756.5,-25 800.5,-25 800.5,-6 756.5,-6"/>
<text text-anchor="middle" x="778.5" y="-13" font-family="Arial" font-size="10.00" fill="#000000">vector</text>
</g>
<!-- Node6&#45;&gt;Node19 -->
<g id="edge20" class="edge">
<title>Node6&#45;&gt;Node19</title>
<path fill="none" stroke="#191970" d="M854.1945,-134.3548C834.0843,-127.4528 810.8769,-116.0949 796.5,-98 782.2264,-80.0352 778.6779,-53.1991 778.0755,-35.0546"/>
<polygon fill="#191970" stroke="#191970" points="781.5754,-35.0147 778.0116,-25.0372 774.5756,-35.0594 781.5754,-35.0147"/>
</g>
<!-- Node20 -->
<g id="node21" class="node">
<title>Node20</title>
<g id="a_node21"><a xlink:href="problem__definition_8h.html" target="_top" xlink:title="../common/problem_definition.h">
<polygon fill="none" stroke="#000000" points="592.5,-73 592.5,-92 748.5,-92 748.5,-73 592.5,-73"/>
<text text-anchor="middle" x="670.5" y="-80" font-family="Arial" font-size="10.00" fill="#000000">../common/problem_definition.h</text>
</a>
</g>
</g>
<!-- Node6&#45;&gt;Node20 -->
<g id="edge21" class="edge">
<title>Node6&#45;&gt;Node20</title>
<path fill="none" stroke="#191970" d="M858.6563,-134.3906C819.8714,-123.6944 757.1023,-106.3836 714.8441,-94.7294"/>
<polygon fill="#191970" stroke="#191970" points="715.6697,-91.3265 705.0991,-92.0419 713.8087,-98.0746 715.6697,-91.3265"/>
</g>
<!-- Node24 -->
<g id="node25" class="node">
<title>Node24</title>
<g id="a_node25"><a xlink:href="preconditioner__solver_8h.html" target="_top" xlink:title="../common/preconditioner\l_solver.h">
<polygon fill="none" stroke="#000000" points="999,-67.5 999,-97.5 1128,-97.5 1128,-67.5 999,-67.5"/>
<text text-anchor="start" x="1007" y="-85.5" font-family="Arial" font-size="10.00" fill="#000000">../common/preconditioner</text>
<text text-anchor="middle" x="1063.5" y="-74.5" font-family="Arial" font-size="10.00" fill="#000000">_solver.h</text>
</a>
</g>
</g>
<!-- Node6&#45;&gt;Node24 -->
<g id="edge31" class="edge">
<title>Node6&#45;&gt;Node24</title>
<path fill="none" stroke="#191970" d="M920.0625,-134.3906C944.6677,-125.4893 981.9351,-112.0073 1012.3161,-101.0165"/>
<polygon fill="#191970" stroke="#191970" points="1013.7004,-104.2378 1021.9133,-97.5446 1011.3191,-97.6553 1013.7004,-104.2378"/>
</g>
<!-- Node30 -->
<g id="node31" class="node">
<title>Node30</title>
<g id="a_node31"><a xlink:href="mesh__generator_8h.html" target="_top" xlink:title="../mesh/mesh_generator.h">
<polygon fill="none" stroke="#000000" points="280,-73 280,-92 413,-92 413,-73 280,-73"/>
<text text-anchor="middle" x="346.5" y="-80" font-family="Arial" font-size="10.00" fill="#000000">../mesh/mesh_generator.h</text>
</a>
</g>
</g>
<!-- Node6&#45;&gt;Node30 -->
<g id="edge40" class="edge">
<title>Node6&#45;&gt;Node30</title>
<path fill="none" stroke="#191970" d="M848.3972,-141.2123C764.1706,-135.6504 577.3855,-121.6354 421.5,-98 414.0963,-96.8774 406.3202,-95.4986 398.6939,-94.0306"/>
<polygon fill="#191970" stroke="#191970" points="399.2891,-90.5805 388.7985,-92.0634 397.9241,-97.4461 399.2891,-90.5805"/>
</g>
<!-- Node32 -->
<g id="node33" class="node">
<title>Node32</title>
<g id="a_node33"><a xlink:href="material__properties_8h.html" target="_top" xlink:title="../material/material\l_properties.h">
<polygon fill="none" stroke="#000000" points="805,-67.5 805,-97.5 904,-97.5 904,-67.5 805,-67.5"/>
<text text-anchor="start" x="813" y="-85.5" font-family="Arial" font-size="10.00" fill="#000000">../material/material</text>
<text text-anchor="middle" x="854.5" y="-74.5" font-family="Arial" font-size="10.00" fill="#000000">_properties.h</text>
</a>
</g>
</g>
<!-- Node6&#45;&gt;Node32 -->
<g id="edge46" class="edge">
<title>Node6&#45;&gt;Node32</title>
<path fill="none" stroke="#191970" d="M887.4063,-134.3906C882.6168,-126.838 875.736,-115.9876 869.5035,-106.1593"/>
<polygon fill="#191970" stroke="#191970" points="872.3517,-104.1153 864.0405,-97.5446 866.4402,-107.8641 872.3517,-104.1153"/>
</g>
<!-- Node34 -->
<g id="node35" class="node">
<title>Node34</title>
<g id="a_node35"><a xlink:href="aq__base_8h.html" target="_top" xlink:title="../aqdata/aq_base.h">
<polygon fill="none" stroke="#000000" points="431,-73 431,-92 536,-92 536,-73 431,-73"/>
<text text-anchor="middle" x="483.5" y="-80" font-family="Arial" font-size="10.00" fill="#000000">../aqdata/aq_base.h</text>
</a>
</g>
</g>
<!-- Node6&#45;&gt;Node34 -->
<g id="edge53" class="edge">
<title>Node6&#45;&gt;Node34</title>
<path fill="none" stroke="#191970" d="M848.341,-139.3137C782.5433,-132.1758 656.5979,-117.3427 550.5,-98 544.4107,-96.8899 538.0399,-95.5937 531.7514,-94.2323"/>
<polygon fill="#191970" stroke="#191970" points="532.5113,-90.8159 521.9894,-92.0568 530.9886,-97.6483 532.5113,-90.8159"/>
</g>
<!-- Node20&#45;&gt;Node10 -->
<g id="edge22" class="edge">
<title>Node20&#45;&gt;Node10</title>
<path fill="none" stroke="#191970" d="M645.2835,-72.9005C618.8113,-62.8231 576.523,-46.7247 543.4582,-34.1375"/>
<polygon fill="#191970" stroke="#191970" points="544.5511,-30.8086 533.9602,-30.5218 542.0606,-37.3506 544.5511,-30.8086"/>
</g>
<!-- Node20&#45;&gt;Node13 -->
<g id="edge25" class="edge">
<title>Node20&#45;&gt;Node13</title>
<path fill="none" stroke="#191970" d="M730.2714,-72.949C779.1325,-64.3518 849.6637,-50.1277 909.5,-31 911.6065,-30.3266 913.7584,-29.5744 915.9101,-28.7742"/>
<polygon fill="#191970" stroke="#191970" points="917.219,-32.0203 925.2021,-25.0547 914.6176,-25.5217 917.219,-32.0203"/>
</g>
<!-- Node20&#45;&gt;Node15 -->
<g id="edge26" class="edge">
<title>Node20&#45;&gt;Node15</title>
<path fill="none" stroke="#191970" d="M745.5501,-72.9805C823.4615,-62.5874 939.806,-45.4913 982.5,-31 983.919,-30.5183 985.352,-29.9725 986.781,-29.3807"/>
<polygon fill="#191970" stroke="#191970" points="988.4468,-32.464 995.9674,-25.0014 985.4345,-26.1453 988.4468,-32.464"/>
</g>
<!-- Node20&#45;&gt;Node16 -->
<g id="edge27" class="edge">
<title>Node20&#45;&gt;Node16</title>
<path fill="none" stroke="#191970" d="M595.8388,-72.987C579.2723,-70.9473 561.7959,-68.8506 545.5,-67 390.5618,-49.4046 344.9076,-78.8605 196.5,-31 195.2558,-30.5987 194.0056,-30.1349 192.7618,-29.624"/>
<polygon fill="#191970" stroke="#191970" points="194.0654,-26.3633 183.5535,-25.0401 190.9459,-32.6298 194.0654,-26.3633"/>
</g>
<!-- Node20&#45;&gt;Node17 -->
<g id="edge28" class="edge">
<title>Node20&#45;&gt;Node17</title>
<path fill="none" stroke="#191970" d="M598.1091,-72.9951C498.9215,-59.8797 329.7844,-37.1524 301.5,-31 297.3059,-30.0877 292.9576,-29.0092 288.6428,-27.8525"/>
<polygon fill="#191970" stroke="#191970" points="289.2988,-24.401 278.724,-25.0531 287.3974,-31.1378 289.2988,-24.401"/>
</g>
<!-- Node20&#45;&gt;Node19 -->
<g id="edge29" class="edge">
<title>Node20&#45;&gt;Node19</title>
<path fill="none" stroke="#191970" d="M685.9738,-72.9005C703.858,-61.8057 733.5062,-43.4128 754.4138,-30.4424"/>
<polygon fill="#191970" stroke="#191970" points="756.4024,-33.3275 763.0549,-25.0817 752.7122,-27.3792 756.4024,-33.3275"/>
</g>
<!-- Node21 -->
<g id="node22" class="node">
<title>Node21</title>
<polygon fill="none" stroke="#bfbfbf" points="311,-6 311,-25 418,-25 418,-6 311,-6"/>
<text text-anchor="middle" x="364.5" y="-13" font-family="Arial" font-size="10.00" fill="#000000">deal.II/base/tensor.h</text>
</g>
<!-- Node20&#45;&gt;Node21 -->
<g id="edge23" class="edge">
<title>Node20&#45;&gt;Node21</title>
<path fill="none" stroke="#191970" d="M622.6958,-72.9541C573.4197,-62.9869 494.4237,-46.653 426.5,-31 421.7496,-29.9053 416.8034,-28.7297 411.8687,-27.5334"/>
<polygon fill="#191970" stroke="#191970" points="412.368,-24.0521 401.8219,-25.0676 410.6995,-30.8503 412.368,-24.0521"/>
</g>
<!-- Node22 -->
<g id="node23" class="node">
<title>Node22</title>
<polygon fill="none" stroke="#bfbfbf" points="571,-.5 571,-30.5 690,-30.5 690,-.5 571,-.5"/>
<text text-anchor="start" x="579" y="-18.5" font-family="Arial" font-size="10.00" fill="#000000">deal.II/base/quadrature</text>
<text text-anchor="middle" x="630.5" y="-7.5" font-family="Arial" font-size="10.00" fill="#000000">_lib.h</text>
</g>
<!-- Node20&#45;&gt;Node22 -->
<g id="edge24" class="edge">
<title>Node20&#45;&gt;Node22</title>
<path fill="none" stroke="#191970" d="M664.769,-72.9005C659.553,-64.1638 651.6354,-50.9018 644.7242,-39.3256"/>
<polygon fill="#191970" stroke="#191970" points="647.5995,-37.3138 639.4682,-30.5218 641.5892,-40.9021 647.5995,-37.3138"/>
</g>
<!-- Node23 -->
<g id="node24" class="node">
<title>Node23</title>
<polygon fill="none" stroke="#bfbfbf" points="708.5,-6 708.5,-25 738.5,-25 738.5,-6 708.5,-6"/>
<text text-anchor="middle" x="723.5" y="-13" font-family="Arial" font-size="10.00" fill="#000000">set</text>
</g>
<!-- Node20&#45;&gt;Node23 -->
<g id="edge30" class="edge">
<title>Node20&#45;&gt;Node23</title>
<path fill="none" stroke="#191970" d="M678.0936,-72.9005C686.2798,-62.552 699.4885,-45.8542 709.5543,-33.1295"/>
<polygon fill="#191970" stroke="#191970" points="712.4614,-35.0959 715.9205,-25.0817 706.9714,-30.7531 712.4614,-35.0959"/>
</g>
<!-- Node24&#45;&gt;Node10 -->
<g id="edge37" class="edge">
<title>Node24&#45;&gt;Node10</title>
<path fill="none" stroke="#191970" d="M998.8975,-75.8135C972.4298,-73.0769 941.4959,-69.8821 913.5,-67 760.7052,-51.27 718.936,-56.2552 562.965,-30.9446"/>
<polygon fill="#191970" stroke="#191970" points="563.4503,-27.4775 553.016,-29.3145 562.3184,-34.3854 563.4503,-27.4775"/>
</g>
<!-- Node24&#45;&gt;Node15 -->
<g id="edge39" class="edge">
<title>Node24&#45;&gt;Node15</title>
<path fill="none" stroke="#191970" d="M1051.7004,-67.2967C1043.8345,-57.1618 1033.4673,-43.804 1025.2312,-33.1921"/>
<polygon fill="#191970" stroke="#191970" points="1027.812,-30.8089 1018.9158,-25.055 1022.2821,-35.1008 1027.812,-30.8089"/>
</g>
<!-- Node24&#45;&gt;Node19 -->
<g id="edge38" class="edge">
<title>Node24&#45;&gt;Node19</title>
<path fill="none" stroke="#191970" d="M998.9089,-73.9162C947.0777,-65.9478 872.9226,-52.0986 810.5,-31 808.8516,-30.4428 807.1783,-29.8205 805.5054,-29.154"/>
<polygon fill="#191970" stroke="#191970" points="806.6692,-25.8418 796.1077,-25.0016 803.84,-32.2446 806.6692,-25.8418"/>
</g>
<!-- Node25 -->
<g id="node26" class="node">
<title>Node25</title>
<polygon fill="none" stroke="#bfbfbf" points="1368,-.5 1368,-30.5 1463,-30.5 1463,-.5 1368,-.5"/>
<text text-anchor="start" x="1376" y="-18.5" font-family="Arial" font-size="10.00" fill="#000000">deal.II/lac/generic</text>
<text text-anchor="middle" x="1415.5" y="-7.5" font-family="Arial" font-size="10.00" fill="#000000">_linear_algebra.h</text>
</g>
<!-- Node24&#45;&gt;Node25 -->
<g id="edge32" class="edge">
<title>Node24&#45;&gt;Node25</title>
<path fill="none" stroke="#191970" d="M1128.0395,-68.8004C1131.2358,-68.1788 1134.4027,-67.5752 1137.5,-67 1232.6082,-49.3374 1260.0984,-52.1535 1357.9182,-31.2196"/>
<polygon fill="#191970" stroke="#191970" points="1358.8988,-34.5884 1367.9294,-29.0477 1357.4146,-27.7475 1358.8988,-34.5884"/>
</g>
<!-- Node26 -->
<g id="node27" class="node">
<title>Node26</title>
<polygon fill="none" stroke="#bfbfbf" points="1481.5,-.5 1481.5,-30.5 1605.5,-30.5 1605.5,-.5 1481.5,-.5"/>
<text text-anchor="start" x="1489.5" y="-18.5" font-family="Arial" font-size="10.00" fill="#000000">deal.II/lac/petsc_parallel</text>
<text text-anchor="middle" x="1543.5" y="-7.5" font-family="Arial" font-size="10.00" fill="#000000">_sparse_matrix.h</text>
</g>
<!-- Node24&#45;&gt;Node26 -->
<g id="edge33" class="edge">
<title>Node24&#45;&gt;Node26</title>
<path fill="none" stroke="#191970" d="M1128.0042,-68.5949C1131.2098,-68.0277 1134.3884,-67.4918 1137.5,-67 1282.2322,-44.1236 1322.9524,-54.5313 1471.305,-31.0852"/>
<polygon fill="#191970" stroke="#191970" points="1471.9158,-34.532 1481.2346,-29.4911 1470.8062,-27.6205 1471.9158,-34.532"/>
</g>
<!-- Node27 -->
<g id="node28" class="node">
<title>Node27</title>
<polygon fill="none" stroke="#bfbfbf" points="1623.5,-.5 1623.5,-30.5 1747.5,-30.5 1747.5,-.5 1623.5,-.5"/>
<text text-anchor="start" x="1631.5" y="-18.5" font-family="Arial" font-size="10.00" fill="#000000">deal.II/lac/petsc_parallel</text>
<text text-anchor="middle" x="1685.5" y="-7.5" font-family="Arial" font-size="10.00" fill="#000000">_vector.h</text>
</g>
<!-- Node24&#45;&gt;Node27 -->
<g id="edge34" class="edge">
<title>Node24&#45;&gt;Node27</title>
<path fill="none" stroke="#191970" d="M1128.3871,-68.4065C1131.4616,-67.8969 1134.5109,-67.424 1137.5,-67 1344.707,-37.6094 1402.3403,-60.9919 1613.099,-31.0698"/>
<polygon fill="#191970" stroke="#191970" points="1613.8547,-34.497 1623.252,-29.6042 1612.8546,-27.5688 1613.8547,-34.497"/>
</g>
<!-- Node28 -->
<g id="node29" class="node">
<title>Node28</title>
<polygon fill="none" stroke="#bfbfbf" points="1050.5,-6 1050.5,-25 1204.5,-25 1204.5,-6 1050.5,-6"/>
<text text-anchor="middle" x="1127.5" y="-13" font-family="Arial" font-size="10.00" fill="#000000">deal.II/lac/petsc_precondition.h</text>
</g>
<!-- Node24&#45;&gt;Node28 -->
<g id="edge35" class="edge">
<title>Node24&#45;&gt;Node28</title>
<path fill="none" stroke="#191970" d="M1078.0226,-67.2967C1087.8973,-56.9591 1100.9749,-43.2684 1111.2051,-32.5588"/>
<polygon fill="#191970" stroke="#191970" points="1113.9964,-34.7037 1118.3729,-25.055 1108.9346,-29.8685 1113.9964,-34.7037"/>
</g>
<!-- Node29 -->
<g id="node30" class="node">
<title>Node29</title>
<polygon fill="none" stroke="#bfbfbf" points="1223,-6 1223,-25 1350,-25 1350,-6 1223,-6"/>
<text text-anchor="middle" x="1286.5" y="-13" font-family="Arial" font-size="10.00" fill="#000000">deal.II/lac/petsc_solver.h</text>
</g>
<!-- Node24&#45;&gt;Node29 -->
<g id="edge36" class="edge">
<title>Node24&#45;&gt;Node29</title>
<path fill="none" stroke="#191970" d="M1113.5456,-67.4639C1153.102,-55.5792 1207.6652,-39.1858 1244.8597,-28.0108"/>
<polygon fill="#191970" stroke="#191970" points="1246.293,-31.2348 1254.863,-25.0053 1244.2788,-24.5308 1246.293,-31.2348"/>
</g>
<!-- Node30&#45;&gt;Node10 -->
<g id="edge42" class="edge">
<title>Node30&#45;&gt;Node10</title>
<path fill="none" stroke="#191970" d="M367.7048,-72.9005C389.5833,-62.9961 424.3091,-47.2756 451.8919,-34.7888"/>
<polygon fill="#191970" stroke="#191970" points="453.6511,-37.8344 461.3176,-30.5218 450.7641,-31.4574 453.6511,-37.8344"/>
</g>
<!-- Node30&#45;&gt;Node16 -->
<g id="edge44" class="edge">
<title>Node30&#45;&gt;Node16</title>
<path fill="none" stroke="#191970" d="M312.7275,-72.9212C281.8535,-63.6952 235.239,-48.5761 196.5,-31 195.6602,-30.619 194.8123,-30.2199 193.9613,-29.8068"/>
<polygon fill="#191970" stroke="#191970" points="195.4154,-26.6165 184.9395,-25.0337 192.1419,-32.8039 195.4154,-26.6165"/>
</g>
<!-- Node30&#45;&gt;Node17 -->
<g id="edge43" class="edge">
<title>Node30&#45;&gt;Node17</title>
<path fill="none" stroke="#191970" d="M332.6023,-72.9005C316.6836,-61.9052 290.3879,-43.7422 271.6401,-30.7927"/>
<polygon fill="#191970" stroke="#191970" points="273.5892,-27.8852 263.372,-25.0817 269.6108,-33.6448 273.5892,-27.8852"/>
</g>
<!-- Node30&#45;&gt;Node19 -->
<g id="edge45" class="edge">
<title>Node30&#45;&gt;Node19</title>
<path fill="none" stroke="#191970" d="M389.2076,-72.9516C399.7298,-70.7989 410.9938,-68.662 421.5,-67 565.4793,-44.2238 607.6851,-72.2382 747.5,-31 749.1665,-30.5085 750.8514,-29.9306 752.5295,-29.2922"/>
<polygon fill="#191970" stroke="#191970" points="754.1588,-32.3987 761.888,-25.1523 751.3269,-25.9971 754.1588,-32.3987"/>
</g>
<!-- Node31 -->
<g id="node32" class="node">
<title>Node31</title>
<polygon fill="none" stroke="#bfbfbf" points="40,-.5 40,-30.5 133,-30.5 133,-.5 40,-.5"/>
<text text-anchor="start" x="48" y="-18.5" font-family="Arial" font-size="10.00" fill="#000000">deal.II/distributed</text>
<text text-anchor="middle" x="86.5" y="-7.5" font-family="Arial" font-size="10.00" fill="#000000">/tria.h</text>
</g>
<!-- Node30&#45;&gt;Node31 -->
<g id="edge41" class="edge">
<title>Node30&#45;&gt;Node31</title>
<path fill="none" stroke="#191970" d="M307.7037,-72.9844C268.6201,-63.3364 206.3387,-47.7938 142.9907,-31.0991"/>
<polygon fill="#191970" stroke="#191970" points="143.7917,-27.6907 133.2294,-28.5195 142.0032,-34.4583 143.7917,-27.6907"/>
</g>
<!-- Node32&#45;&gt;Node10 -->
<g id="edge47" class="edge">
<title>Node32&#45;&gt;Node10</title>
<path fill="none" stroke="#191970" d="M804.7595,-74.4983C748.5793,-65.2885 654.1973,-49.2997 563.0179,-31.0472"/>
<polygon fill="#191970" stroke="#191970" points="563.5598,-27.5861 553.0657,-29.0432 562.178,-34.4484 563.5598,-27.5861"/>
</g>
<!-- Node32&#45;&gt;Node13 -->
<g id="edge48" class="edge">
<title>Node32&#45;&gt;Node13</title>
<path fill="none" stroke="#191970" d="M875.1493,-67.2967C889.8781,-56.4524 909.6186,-41.9182 924.4396,-31.006"/>
<polygon fill="#191970" stroke="#191970" points="926.5447,-33.8025 932.5224,-25.055 922.3944,-28.1655 926.5447,-33.8025"/>
</g>
<!-- Node32&#45;&gt;Node15 -->
<g id="edge49" class="edge">
<title>Node32&#45;&gt;Node15</title>
<path fill="none" stroke="#191970" d="M895.0464,-67.4795C920.4616,-57.7477 953.7401,-44.4234 982.5,-31 983.3374,-30.6092 984.1848,-30.2058 985.0377,-29.793"/>
<polygon fill="#191970" stroke="#191970" points="986.8414,-32.8025 994.173,-25.1542 983.672,-26.5611 986.8414,-32.8025"/>
</g>
<!-- Node32&#45;&gt;Node17 -->
<g id="edge50" class="edge">
<title>Node32&#45;&gt;Node17</title>
<path fill="none" stroke="#191970" d="M804.7613,-73.7721C789.6212,-71.326 772.91,-68.8365 757.5,-67 555.6313,-42.9416 501.3567,-68.2435 301.5,-31 296.9491,-30.1519 292.2294,-29.0583 287.5732,-27.8447"/>
<polygon fill="#191970" stroke="#191970" points="288.1454,-24.3704 277.572,-25.0448 286.2582,-31.1112 288.1454,-24.3704"/>
</g>
<!-- Node32&#45;&gt;Node19 -->
<g id="edge51" class="edge">
<title>Node32&#45;&gt;Node19</title>
<path fill="none" stroke="#191970" d="M837.2544,-67.2967C825.2983,-56.7564 809.3881,-42.7303 797.1396,-31.9323"/>
<polygon fill="#191970" stroke="#191970" points="799.1543,-29.0425 789.3385,-25.055 794.5252,-34.2934 799.1543,-29.0425"/>
</g>
<!-- Node33 -->
<g id="node34" class="node">
<title>Node33</title>
<polygon fill="none" stroke="#bfbfbf" points="819,-6 819,-25 900,-25 900,-6 819,-6"/>
<text text-anchor="middle" x="859.5" y="-13" font-family="Arial" font-size="10.00" fill="#000000">unordered_set</text>
</g>
<!-- Node32&#45;&gt;Node33 -->
<g id="edge52" class="edge">
<title>Node32&#45;&gt;Node33</title>
<path fill="none" stroke="#191970" d="M855.6346,-67.2967C856.3455,-57.7699 857.269,-45.3954 858.035,-35.1306"/>
<polygon fill="#191970" stroke="#191970" points="861.5329,-35.2877 858.7869,-25.055 854.5524,-34.7667 861.5329,-35.2877"/>
</g>
<!-- Node34&#45;&gt;Node10 -->
<g id="edge55" class="edge">
<title>Node34&#45;&gt;Node10</title>
<path fill="none" stroke="#191970" d="M485.076,-72.9005C486.4536,-64.5099 488.5165,-51.9451 490.3613,-40.7085"/>
<polygon fill="#191970" stroke="#191970" points="493.8673,-40.9567 492.0337,-30.5218 486.9598,-39.8226 493.8673,-40.9567"/>
</g>
<!-- Node34&#45;&gt;Node15 -->
<g id="edge59" class="edge">
<title>Node34&#45;&gt;Node15</title>
<path fill="none" stroke="#191970" d="M536.0894,-73.7042C551.3538,-71.326 568.0673,-68.8903 583.5,-67 760.2329,-45.3527 811.9024,-81.986 982.5,-31 983.97,-30.5607 985.4509,-30.0428 986.9243,-29.4676"/>
<polygon fill="#191970" stroke="#191970" points="988.7638,-32.4714 996.3424,-25.0677 985.8009,-26.1294 988.7638,-32.4714"/>
</g>
<!-- Node34&#45;&gt;Node16 -->
<g id="edge57" class="edge">
<title>Node34&#45;&gt;Node16</title>
<path fill="none" stroke="#191970" d="M447.557,-72.956C439.0463,-70.8513 429.9786,-68.7347 421.5,-67 322.2835,-46.7001 291.9781,-64.763 196.5,-31 195.2961,-30.5743 194.0845,-30.0951 192.8768,-29.576"/>
<polygon fill="#191970" stroke="#191970" points="194.3942,-26.4214 183.89,-25.0388 191.2394,-32.6702 194.3942,-26.4214"/>
</g>
<!-- Node34&#45;&gt;Node17 -->
<g id="edge58" class="edge">
<title>Node34&#45;&gt;Node17</title>
<path fill="none" stroke="#191970" d="M449.2445,-72.9603C412.6306,-62.7279 352.9007,-45.9322 301.5,-31 298.1416,-30.0244 294.6636,-29.0057 291.1714,-27.977"/>
<polygon fill="#191970" stroke="#191970" points="291.9616,-24.5609 281.3795,-25.079 289.975,-31.2731 291.9616,-24.5609"/>
</g>
<!-- Node34&#45;&gt;Node19 -->
<g id="edge56" class="edge">
<title>Node34&#45;&gt;Node19</title>
<path fill="none" stroke="#191970" d="M536.1337,-73.9695C601.5218,-63.0702 709.1517,-44.0561 747.5,-31 749.1056,-30.4534 750.7334,-29.8392 752.3592,-29.179"/>
<polygon fill="#191970" stroke="#191970" points="753.8158,-32.3615 761.4776,-25.0439 750.9248,-25.9864 753.8158,-32.3615"/>
</g>
<!-- Node34&#45;&gt;Node21 -->
<g id="edge54" class="edge">
<title>Node34&#45;&gt;Node21</title>
<path fill="none" stroke="#191970" d="M466.4502,-72.9005C446.5677,-61.7062 413.4895,-43.0823 390.422,-30.0947"/>
<polygon fill="#191970" stroke="#191970" points="391.9491,-26.938 381.5182,-25.0817 388.5148,-33.0376 391.9491,-26.938"/>
</g>
</g>
</svg>
        <g id="navigator" transform="translate(0 0)" fill="#404254">
                <rect fill="#f2f5e9" fill-opacity="0.5" stroke="#606060" stroke-width=".5" x="0" y="0" width="60" height="60"/>
                <use id="zoomplus" xlink:href="#zoomPlus" x="17" y="9" onmousedown="handleZoom(evt,'in')"/>
                <use id="zoomminus" xlink:href="#zoomMin" x="42" y="9" onmousedown="handleZoom(evt,'out')"/>
                <use id="reset" xlink:href="#resetDef" x="30" y="36" onmousedown="handleReset()"/>
                <g id="arrowUp" xlink:href="#dirArrow" transform="translate(30 24)" onmousedown="handlePan(0,-1)">
                  <use xlink:href="#rim" fill="#404040">
                        <set attributeName="fill" to="#808080" begin="arrowUp.mouseover" end="arrowUp.mouseout"/>
                  </use>
                  <path fill="none" stroke="white" stroke-width="1.5" d="M0,-3.0v7 M-2.5,-0.5L0,-3.0L2.5,-0.5"/>
                </g>
                <g id="arrowRight" xlink:href="#dirArrow" transform="rotate(90) translate(36 -43)" onmousedown="handlePan(1,0)">
                  <use xlink:href="#rim" fill="#404040">
                        <set attributeName="fill" to="#808080" begin="arrowRight.mouseover" end="arrowRight.mouseout"/>
                  </use>
                  <path fill="none" stroke="white" stroke-width="1.5" d="M0,-3.0v7 M-2.5,-0.5L0,-3.0L2.5,-0.5"/>
                </g>
                <g id="arrowDown" xlink:href="#dirArrow" transform="rotate(180) translate(-30 -48)" onmousedown="handlePan(0,1)">
                  <use xlink:href="#rim" fill="#404040">
                        <set attributeName="fill" to="#808080" begin="arrowDown.mouseover" end="arrowDown.mouseout"/>
                  </use>
                  <path fill="none" stroke="white" stroke-width="1.5" d="M0,-3.0v7 M-2.5,-0.5L0,-3.0L2.5,-0.5"/>
                </g>
                <g id="arrowLeft" xlink:href="#dirArrow" transform="rotate(270) translate(-36 17)" onmousedown="handlePan(-1,0)">
                  <use xlink:href="#rim" fill="#404040">
                        <set attributeName="fill" to="#808080" begin="arrowLeft.mouseover" end="arrowLeft.mouseout"/>
                  </use>
                  <path fill="none" stroke="white" stroke-width="1.5" d="M0,-3.0v7 M-2.5,-0.5L0,-3.0L2.5,-0.5"/>
                </g>
        </g>
        <svg viewBox="0 0 15 15" width="100%" height="30px" preserveAspectRatio="xMaxYMin meet">
         <g id="arrow_out" transform="scale(0.3 0.3)">
          <a xlink:href="equation__base_8cc__incl_org.svg" target="_base">
           <rect id="button" ry="5" rx="5" y="6" x="6" height="38" width="38"
                fill="#f2f5e9" fill-opacity="0.5" stroke="#606060" stroke-width="1.0"/>
           <path id="arrow"
             d="M 11.500037,31.436501 C 11.940474,20.09759 22.043105,11.32322 32.158766,21.979434 L 37.068811,17.246167 C 37.068811,17.246167 37.088388,32 37.088388,32 L 22.160133,31.978069 C 22.160133,31.978069 26.997745,27.140456 26.997745,27.140456 C 18.528582,18.264221 13.291696,25.230495 11.500037,31.436501 z"
             style="fill:#404040;"/>
          </a>
         </g>
        </svg>
</svg>
