<?xml version="1.0" encoding="UTF-8" standalone="no"?>
<!DOCTYPE svg PUBLIC "-//W3C//DTD SVG 1.1//EN"
 "http://www.w3.org/Graphics/SVG/1.1/DTD/svg11.dtd">
<!-- Generated by graphviz version 2.40.1 (20161225.0304)
 -->
<!-- Title: src/equation/equation_base.h Pages: 1 -->
<!--zoomable 486 -->
<svg id="main" version="1.1" xmlns="http://www.w3.org/2000/svg" xmlns:xlink="http://www.w3.org/1999/xlink" xml:space="preserve" onload="init(evt)">
<style type="text/css"><![CDATA[
.edge:hover path { stroke: red; }
.edge:hover polygon { stroke: red; fill: red; }
]]></style>
<script type="text/javascript"><![CDATA[
var edges = document.getElementsByTagName('g');
if (edges && edges.length) {
  for (var i=0;i<edges.length;i++) {
    if (edges[i].id.substr(0,4)=='edge') {
      edges[i].setAttribute('class','edge');
    }
  }
}
]]></script>
        <defs>
                <circle id="rim" cx="0" cy="0" r="7"/>
                <circle id="rim2" cx="0" cy="0" r="3.5"/>
                <g id="zoomPlus">
                        <use xlink:href="#rim" fill="#404040">
                                <set attributeName="fill" to="#808080" begin="zoomplus.mouseover" end="zoomplus.mouseout"/>
                        </use>
                        <path d="M-4,0h8M0,-4v8" fill="none" stroke="white" stroke-width="1.5" pointer-events="none"/>
                </g>
                <g id="zoomMin">
                        <use xlink:href="#rim" fill="#404040">
                                <set attributeName="fill" to="#808080" begin="zoomminus.mouseover" end="zoomminus.mouseout"/>
                        </use>
                        <path d="M-4,0h8" fill="none" stroke="white" stroke-width="1.5" pointer-events="none"/>
                </g>
                <g id="dirArrow">
                        <path fill="none" stroke="white" stroke-width="1.5" d="M0,-3.0v7 M-2.5,-0.5L0,-3.0L2.5,-0.5"/>
                </g>
               <g id="resetDef">
                       <use xlink:href="#rim2" fill="#404040">
                               <set attributeName="fill" to="#808080" begin="reset.mouseover" end="reset.mouseout"/>
                       </use>
               </g>
        </defs>

<script type="text/javascript">
var viewWidth = 1031;
var viewHeight = 486;
var sectionId = 'dynsection-1';
</script>
<script xlink:href="svgpan.js"/>
<svg id="graph" class="graph">
<g id="viewport">
<title>src/equation/equation_base.h</title>
<!-- Node30 -->
<g id="node1" class="node">
<title>Node30</title>
<polygon fill="#bfbfbf" stroke="#000000" points="265,-447.5 265,-477.5 377,-477.5 377,-447.5 265,-447.5"/>
<text text-anchor="start" x="273" y="-465.5" font-family="Arial" font-size="10.00" fill="#000000">src/equation/equation</text>
<text text-anchor="middle" x="321" y="-454.5" font-family="Arial" font-size="10.00" fill="#000000">_base.h</text>
</g>
<!-- Node31 -->
<g id="node2" class="node">
<title>Node31</title>
<g id="a_node2"><a xlink:href="equation__base_8cc.html" target="_top" xlink:title="src/equation/equation\l_base.cc">
<polygon fill="none" stroke="#000000" points="0,-380.5 0,-410.5 112,-410.5 112,-380.5 0,-380.5"/>
<text text-anchor="start" x="8" y="-398.5" font-family="Arial" font-size="10.00" fill="#000000">src/equation/equation</text>
<text text-anchor="middle" x="56" y="-387.5" font-family="Arial" font-size="10.00" fill="#000000">_base.cc</text>
</a>
</g>
</g>
<!-- Node30&#45;&gt;Node31 -->
<g id="edge1" class="edge">
<title>Node30&#45;&gt;Node31</title>
<path fill="none" stroke="#191970" d="M255.0627,-445.8291C211.0913,-434.7118 153.9081,-420.2541 112.1187,-409.6885"/>
<polygon fill="#191970" stroke="#191970" points="254.2474,-449.233 264.8003,-448.291 255.9633,-442.4465 254.2474,-449.233"/>
</g>
<!-- Node32 -->
<g id="node3" class="node">
<title>Node32</title>
<g id="a_node3"><a xlink:href="even__parity_8h.html" target="_top" xlink:title="src/equation/even_parity.h">
<polygon fill="none" stroke="#000000" points="130,-386 130,-405 264,-405 264,-386 130,-386"/>
<text text-anchor="middle" x="197" y="-393" font-family="Arial" font-size="10.00" fill="#000000">src/equation/even_parity.h</text>
</a>
</g>
</g>
<!-- Node30&#45;&gt;Node32 -->
<g id="edge2" class="edge">
<title>Node30&#45;&gt;Node32</title>
<path fill="none" stroke="#191970" d="M284.3658,-442.7057C261.4144,-430.3045 232.859,-414.8754 214.7744,-405.1039"/>
<polygon fill="#191970" stroke="#191970" points="282.7103,-445.7894 293.172,-447.4639 286.0379,-439.6309 282.7103,-445.7894"/>
</g>
<!-- Node35 -->
<g id="node6" class="node">
<title>Node35</title>
<g id="a_node6"><a xlink:href="bart__driver_8h.html" target="_top" xlink:title="src/common/bart_driver.h">
<polygon fill="none" stroke="#000000" points="562,-62 562,-81 692,-81 692,-62 562,-62"/>
<text text-anchor="middle" x="627" y="-69" font-family="Arial" font-size="10.00" fill="#000000">src/common/bart_driver.h</text>
</a>
</g>
</g>
<!-- Node30&#45;&gt;Node35 -->
<g id="edge5" class="edge">
<title>Node30&#45;&gt;Node35</title>
<path fill="none" stroke="#191970" d="M321,-437.1092C321,-410.1594 321,-366.3265 321,-328.5 321,-328.5 321,-328.5 321,-205.5 321,-167.8735 312.7528,-148.9489 340,-123 371.1135,-93.369 487.1542,-80.3902 561.8139,-75.0081"/>
<polygon fill="#191970" stroke="#191970" points="317.5001,-437.227 321,-447.2271 324.5001,-437.2271 317.5001,-437.227"/>
</g>
<!-- Node37 -->
<g id="node8" class="node">
<title>Node37</title>
<g id="a_node8"><a xlink:href="iteration__base_8h.html" target="_top" xlink:title="src/iteration/iteration\l_base.h">
<polygon fill="none" stroke="#000000" points="432.5,-380.5 432.5,-410.5 539.5,-410.5 539.5,-380.5 432.5,-380.5"/>
<text text-anchor="start" x="440.5" y="-398.5" font-family="Arial" font-size="10.00" fill="#000000">src/iteration/iteration</text>
<text text-anchor="middle" x="486" y="-387.5" font-family="Arial" font-size="10.00" fill="#000000">_base.h</text>
</a>
</g>
</g>
<!-- Node30&#45;&gt;Node37 -->
<g id="edge8" class="edge">
<title>Node30&#45;&gt;Node37</title>
<path fill="none" stroke="#191970" d="M367.5702,-443.5897C393.2755,-433.1518 424.7642,-420.3654 448.8093,-410.6017"/>
<polygon fill="#191970" stroke="#191970" points="365.9777,-440.4587 358.0292,-447.4639 368.6113,-446.9444 365.9777,-440.4587"/>
</g>
<!-- Node40 -->
<g id="node11" class="node">
<title>Node40</title>
<g id="a_node11"><a xlink:href="iterations_8h.html" target="_top" xlink:title="src/iteration/iterations.h">
<polygon fill="none" stroke="#000000" points="812,-129 812,-148 932,-148 932,-129 812,-129"/>
<text text-anchor="middle" x="872" y="-136" font-family="Arial" font-size="10.00" fill="#000000">src/iteration/iterations.h</text>
</a>
</g>
</g>
<!-- Node30&#45;&gt;Node40 -->
<g id="edge32" class="edge">
<title>Node30&#45;&gt;Node40</title>
<path fill="none" stroke="#191970" d="M387.3734,-456.7941C562.3772,-440.8635 1023,-392.8236 1023,-328.5 1023,-328.5 1023,-328.5 1023,-267 1023,-203.4898 944.5686,-164.779 900.7574,-148.1097"/>
<polygon fill="#191970" stroke="#191970" points="386.9054,-453.322 377.2609,-457.7077 387.5354,-460.2936 386.9054,-453.322"/>
</g>
<!-- Node33 -->
<g id="node4" class="node">
<title>Node33</title>
<g id="a_node4"><a xlink:href="even__parity_8cc.html" target="_top" xlink:title="src/equation/even_parity.cc">
<polygon fill="none" stroke="#000000" points="1,-319 1,-338 139,-338 139,-319 1,-319"/>
<text text-anchor="middle" x="70" y="-326" font-family="Arial" font-size="10.00" fill="#000000">src/equation/even_parity.cc</text>
</a>
</g>
</g>
<!-- Node32&#45;&gt;Node33 -->
<g id="edge3" class="edge">
<title>Node32&#45;&gt;Node33</title>
<path fill="none" stroke="#191970" d="M169.9504,-381.2298C145.2953,-368.2227 109.5549,-349.3676 88.1622,-338.0817"/>
<polygon fill="#191970" stroke="#191970" points="168.3262,-384.33 178.804,-385.9005 171.5925,-378.1388 168.3262,-384.33"/>
</g>
<!-- Node34 -->
<g id="node5" class="node">
<title>Node34</title>
<g id="a_node5"><a xlink:href="bart__driver_8cc.html" target="_top" xlink:title="src/common/bart_driver.cc">
<polygon fill="none" stroke="#000000" points="299,-.5 299,-19.5 433,-19.5 433,-.5 299,-.5"/>
<text text-anchor="middle" x="366" y="-7.5" font-family="Arial" font-size="10.00" fill="#000000">src/common/bart_driver.cc</text>
</a>
</g>
</g>
<!-- Node32&#45;&gt;Node34 -->
<g id="edge4" class="edge">
<title>Node32&#45;&gt;Node34</title>
<path fill="none" stroke="#191970" d="M189.5035,-376.0081C180.6176,-351.1118 167,-306.5125 167,-267 167,-267 167,-267 167,-138.5 167,-67.6615 257.0931,-33.9749 316.0408,-19.5154"/>
<polygon fill="#191970" stroke="#191970" points="186.33,-377.518 193.078,-385.6859 192.8964,-375.0926 186.33,-377.518"/>
</g>
<!-- Node35&#45;&gt;Node34 -->
<g id="edge6" class="edge">
<title>Node35&#45;&gt;Node34</title>
<path fill="none" stroke="#191970" d="M576.6433,-59.6343C527.1111,-47.963 452.4424,-30.3686 406.5899,-19.5643"/>
<polygon fill="#191970" stroke="#191970" points="575.9689,-63.0712 586.5051,-61.9581 577.5744,-56.2578 575.9689,-63.0712"/>
</g>
<!-- Node36 -->
<g id="node7" class="node">
<title>Node36</title>
<g id="a_node7"><a xlink:href="main_8cc.html" target="_top" xlink:title="src/common/main.cc">
<polygon fill="none" stroke="#000000" points="573,-.5 573,-19.5 681,-19.5 681,-.5 573,-.5"/>
<text text-anchor="middle" x="627" y="-7.5" font-family="Arial" font-size="10.00" fill="#000000">src/common/main.cc</text>
</a>
</g>
</g>
<!-- Node35&#45;&gt;Node36 -->
<g id="edge7" class="edge">
<title>Node35&#45;&gt;Node36</title>
<path fill="none" stroke="#191970" d="M627,-51.7462C627,-41.0519 627,-28.314 627,-19.7449"/>
<polygon fill="#191970" stroke="#191970" points="623.5001,-51.8906 627,-61.8906 630.5001,-51.8907 623.5001,-51.8906"/>
</g>
<!-- Node38 -->
<g id="node9" class="node">
<title>Node38</title>
<g id="a_node9"><a xlink:href="mg__base_8h.html" target="_top" xlink:title="src/iteration/mg_base.h">
<polygon fill="none" stroke="#000000" points="529,-257.5 529,-276.5 649,-276.5 649,-257.5 529,-257.5"/>
<text text-anchor="middle" x="589" y="-264.5" font-family="Arial" font-size="10.00" fill="#000000">src/iteration/mg_base.h</text>
</a>
</g>
</g>
<!-- Node37&#45;&gt;Node38 -->
<g id="edge9" class="edge">
<title>Node37&#45;&gt;Node38</title>
<path fill="none" stroke="#191970" d="M516.278,-374.2266C527.131,-365.6535 538.9166,-355.1534 548,-344 565.5974,-322.3924 579.0792,-292.0674 585.2707,-276.7188"/>
<polygon fill="#191970" stroke="#191970" points="514.0398,-371.532 508.2207,-380.3857 518.291,-377.0933 514.0398,-371.532"/>
</g>
<!-- Node39 -->
<g id="node10" class="node">
<title>Node39</title>
<g id="a_node10"><a xlink:href="eigen__base_8h.html" target="_top" xlink:title="src/iteration/eigen\l_base.h">
<polygon fill="none" stroke="#000000" points="349.5,-190.5 349.5,-220.5 444.5,-220.5 444.5,-190.5 349.5,-190.5"/>
<text text-anchor="start" x="357.5" y="-208.5" font-family="Arial" font-size="10.00" fill="#000000">src/iteration/eigen</text>
<text text-anchor="middle" x="397" y="-197.5" font-family="Arial" font-size="10.00" fill="#000000">_base.h</text>
</a>
</g>
</g>
<!-- Node37&#45;&gt;Node39 -->
<g id="edge30" class="edge">
<title>Node37&#45;&gt;Node39</title>
<path fill="none" stroke="#191970" d="M451.707,-374.4728C440.9564,-366.247 430.0659,-355.908 423,-344 399.4042,-304.2345 396.4775,-247.6945 396.5618,-220.8232"/>
<polygon fill="#191970" stroke="#191970" points="449.6789,-377.3254 459.8352,-380.3422 453.777,-371.6503 449.6789,-377.3254"/>
</g>
<!-- Node48 -->
<g id="node19" class="node">
<title>Node48</title>
<g id="a_node19"><a xlink:href="ig__base_8h.html" target="_top" xlink:title="src/iteration/ig_base.h">
<polygon fill="none" stroke="#000000" points="752,-319 752,-338 866,-338 866,-319 752,-319"/>
<text text-anchor="middle" x="809" y="-326" font-family="Arial" font-size="10.00" fill="#000000">src/iteration/ig_base.h</text>
</a>
</g>
</g>
<!-- Node37&#45;&gt;Node48 -->
<g id="edge25" class="edge">
<title>Node37&#45;&gt;Node48</title>
<path fill="none" stroke="#191970" d="M549.5049,-382.3271C612.3722,-369.2866 707.094,-349.6384 763.0249,-338.0366"/>
<polygon fill="#191970" stroke="#191970" points="548.7801,-378.9029 539.6995,-384.3611 550.2019,-385.757 548.7801,-378.9029"/>
</g>
<!-- Node50 -->
<g id="node21" class="node">
<title>Node50</title>
<g id="a_node21"><a xlink:href="iteration__base_8cc.html" target="_top" xlink:title="src/iteration/iteration\l_base.cc">
<polygon fill="none" stroke="#000000" points="432.5,-313.5 432.5,-343.5 539.5,-343.5 539.5,-313.5 432.5,-313.5"/>
<text text-anchor="start" x="440.5" y="-331.5" font-family="Arial" font-size="10.00" fill="#000000">src/iteration/iteration</text>
<text text-anchor="middle" x="486" y="-320.5" font-family="Arial" font-size="10.00" fill="#000000">_base.cc</text>
</a>
</g>
</g>
<!-- Node37&#45;&gt;Node50 -->
<g id="edge31" class="edge">
<title>Node37&#45;&gt;Node50</title>
<path fill="none" stroke="#191970" d="M486,-370.0249C486,-361.128 486,-351.4287 486,-343.6432"/>
<polygon fill="#191970" stroke="#191970" points="482.5001,-370.2966 486,-380.2967 489.5001,-370.2967 482.5001,-370.2966"/>
</g>
<!-- Node38&#45;&gt;Node35 -->
<g id="edge10" class="edge">
<title>Node38&#45;&gt;Node35</title>
<path fill="none" stroke="#191970" d="M591.1158,-247.3773C593.5444,-231.1124 598.622,-207.8509 609,-190 620.5317,-170.1647 637.0748,-175.1367 646,-154 656.5774,-128.9506 641.9447,-97.0213 633.0146,-81.2373"/>
<polygon fill="#191970" stroke="#191970" points="587.6354,-247.0012 589.8251,-257.3673 594.5777,-247.8982 587.6354,-247.0012"/>
</g>
<!-- Node38&#45;&gt;Node39 -->
<g id="edge11" class="edge">
<title>Node38&#45;&gt;Node39</title>
<path fill="none" stroke="#191970" d="M549.1045,-254.221C518.5087,-244.4207 476.199,-230.8684 443.9685,-220.5446"/>
<polygon fill="#191970" stroke="#191970" points="548.4089,-257.6733 559,-257.3906 550.5443,-251.0069 548.4089,-257.6733"/>
</g>
<!-- Node38&#45;&gt;Node40 -->
<g id="edge20" class="edge">
<title>Node38&#45;&gt;Node40</title>
<path fill="none" stroke="#191970" d="M648.6293,-255.1228C680.2425,-247.6115 719.2124,-236.3826 752,-221 795.4874,-200.5975 840.5243,-165.0355 860.8559,-148.0549"/>
<polygon fill="#191970" stroke="#191970" points="647.5959,-251.7693 638.6409,-257.4315 649.1723,-258.5895 647.5959,-251.7693"/>
</g>
<!-- Node45 -->
<g id="node16" class="node">
<title>Node45</title>
<g id="a_node16"><a xlink:href="gauss__seidel_8h.html" target="_top" xlink:title="src/iteration/gauss\l_seidel.h">
<polygon fill="none" stroke="#000000" points="463,-190.5 463,-220.5 561,-220.5 561,-190.5 463,-190.5"/>
<text text-anchor="start" x="471" y="-208.5" font-family="Arial" font-size="10.00" fill="#000000">src/iteration/gauss</text>
<text text-anchor="middle" x="512" y="-197.5" font-family="Arial" font-size="10.00" fill="#000000">_seidel.h</text>
</a>
</g>
</g>
<!-- Node38&#45;&gt;Node45 -->
<g id="edge21" class="edge">
<title>Node38&#45;&gt;Node45</title>
<path fill="none" stroke="#191970" d="M569.0156,-251.0385C557.2329,-241.6276 542.4133,-229.7911 530.8363,-220.5446"/>
<polygon fill="#191970" stroke="#191970" points="566.9708,-253.8846 576.9688,-257.3906 571.3394,-248.415 566.9708,-253.8846"/>
</g>
<!-- Node47 -->
<g id="node18" class="node">
<title>Node47</title>
<g id="a_node18"><a xlink:href="mg__base_8cc.html" target="_top" xlink:title="src/iteration/mg_base.cc">
<polygon fill="none" stroke="#000000" points="617.5,-196 617.5,-215 742.5,-215 742.5,-196 617.5,-196"/>
<text text-anchor="middle" x="680" y="-203" font-family="Arial" font-size="10.00" fill="#000000">src/iteration/mg_base.cc</text>
</a>
</g>
</g>
<!-- Node38&#45;&gt;Node47 -->
<g id="edge24" class="edge">
<title>Node38&#45;&gt;Node47</title>
<path fill="none" stroke="#191970" d="M611.5117,-251.786C628.5275,-240.2864 651.3609,-224.855 665.8811,-215.0419"/>
<polygon fill="#191970" stroke="#191970" points="609.5443,-248.8913 603.2188,-257.3906 613.4639,-254.691 609.5443,-248.8913"/>
</g>
<!-- Node39&#45;&gt;Node35 -->
<g id="edge12" class="edge">
<title>Node39&#45;&gt;Node35</title>
<path fill="none" stroke="#191970" d="M428.8096,-184.932C455.5282,-167.8589 494.8656,-143.1936 530,-123 556.7798,-107.6083 588.5102,-91.0734 608.2016,-81.0059"/>
<polygon fill="#191970" stroke="#191970" points="426.7874,-182.0708 420.2566,-190.4135 430.5645,-187.9644 426.7874,-182.0708"/>
</g>
<!-- Node39&#45;&gt;Node40 -->
<g id="edge13" class="edge">
<title>Node39&#45;&gt;Node40</title>
<path fill="none" stroke="#191970" d="M454.7128,-190.037C587.3754,-164.4909 732.057,-150.0208 811.6978,-143.2042"/>
<polygon fill="#191970" stroke="#191970" points="453.9215,-186.6253 444.7769,-191.9758 455.2622,-193.4958 453.9215,-186.6253"/>
</g>
<!-- Node42 -->
<g id="node13" class="node">
<title>Node42</title>
<g id="a_node13"><a xlink:href="power__iteration_8h.html" target="_top" xlink:title="src/iteration/power\l_iteration.h">
<polygon fill="none" stroke="#000000" points="195,-123.5 195,-153.5 293,-153.5 293,-123.5 195,-123.5"/>
<text text-anchor="start" x="203" y="-141.5" font-family="Arial" font-size="10.00" fill="#000000">src/iteration/power</text>
<text text-anchor="middle" x="244" y="-130.5" font-family="Arial" font-size="10.00" fill="#000000">_iteration.h</text>
</a>
</g>
</g>
<!-- Node39&#45;&gt;Node42 -->
<g id="edge16" class="edge">
<title>Node39&#45;&gt;Node42</title>
<path fill="none" stroke="#191970" d="M353.5014,-186.4516C329.7238,-176.0392 300.684,-163.3224 278.4859,-153.6017"/>
<polygon fill="#191970" stroke="#191970" points="352.0996,-189.6586 362.6638,-190.4639 354.9076,-183.2464 352.0996,-189.6586"/>
</g>
<!-- Node44 -->
<g id="node15" class="node">
<title>Node44</title>
<g id="a_node15"><a xlink:href="eigen__base_8cc.html" target="_top" xlink:title="src/iteration/eigen\l_base.cc">
<polygon fill="none" stroke="#000000" points="349.5,-123.5 349.5,-153.5 444.5,-153.5 444.5,-123.5 349.5,-123.5"/>
<text text-anchor="start" x="357.5" y="-141.5" font-family="Arial" font-size="10.00" fill="#000000">src/iteration/eigen</text>
<text text-anchor="middle" x="397" y="-130.5" font-family="Arial" font-size="10.00" fill="#000000">_base.cc</text>
</a>
</g>
</g>
<!-- Node39&#45;&gt;Node44 -->
<g id="edge19" class="edge">
<title>Node39&#45;&gt;Node44</title>
<path fill="none" stroke="#191970" d="M397,-180.0249C397,-171.128 397,-161.4287 397,-153.6432"/>
<polygon fill="#191970" stroke="#191970" points="393.5001,-180.2966 397,-190.2967 400.5001,-180.2967 393.5001,-180.2966"/>
</g>
<!-- Node40&#45;&gt;Node35 -->
<g id="edge14" class="edge">
<title>Node40&#45;&gt;Node35</title>
<path fill="none" stroke="#191970" d="M827.446,-126.3158C779.934,-113.3228 705.6639,-93.0122 662.1188,-81.1039"/>
<polygon fill="#191970" stroke="#191970" points="826.5886,-129.7098 837.1577,-128.9717 828.4351,-122.9577 826.5886,-129.7098"/>
</g>
<!-- Node41 -->
<g id="node12" class="node">
<title>Node41</title>
<g id="a_node12"><a xlink:href="iterations_8cc.html" target="_top" xlink:title="src/iteration/iterations.cc">
<polygon fill="none" stroke="#000000" points="810,-62 810,-81 934,-81 934,-62 810,-62"/>
<text text-anchor="middle" x="872" y="-69" font-family="Arial" font-size="10.00" fill="#000000">src/iteration/iterations.cc</text>
</a>
</g>
</g>
<!-- Node40&#45;&gt;Node41 -->
<g id="edge15" class="edge">
<title>Node40&#45;&gt;Node41</title>
<path fill="none" stroke="#191970" d="M872,-118.6079C872,-106.214 872,-90.8263 872,-81.0817"/>
<polygon fill="#191970" stroke="#191970" points="868.5001,-118.9005 872,-128.9005 875.5001,-118.9006 868.5001,-118.9005"/>
</g>
<!-- Node42&#45;&gt;Node34 -->
<g id="edge17" class="edge">
<title>Node42&#45;&gt;Node34</title>
<path fill="none" stroke="#191970" d="M244.0917,-113.1173C245.4187,-95.3316 249.8518,-71.9774 263,-56 278.1199,-37.6266 302.0889,-26.3319 323.1014,-19.5353"/>
<polygon fill="#191970" stroke="#191970" points="240.584,-113.2046 243.6167,-123.3561 247.5765,-113.5291 240.584,-113.2046"/>
</g>
<!-- Node43 -->
<g id="node14" class="node">
<title>Node43</title>
<g id="a_node14"><a xlink:href="power__iteration_8cc.html" target="_top" xlink:title="src/iteration/power\l_iteration.cc">
<polygon fill="none" stroke="#000000" points="272,-56.5 272,-86.5 370,-86.5 370,-56.5 272,-56.5"/>
<text text-anchor="start" x="280" y="-74.5" font-family="Arial" font-size="10.00" fill="#000000">src/iteration/power</text>
<text text-anchor="middle" x="321" y="-63.5" font-family="Arial" font-size="10.00" fill="#000000">_iteration.cc</text>
</a>
</g>
</g>
<!-- Node42&#45;&gt;Node43 -->
<g id="edge18" class="edge">
<title>Node42&#45;&gt;Node43</title>
<path fill="none" stroke="#191970" d="M269.2876,-116.4965C280.524,-106.7193 293.4692,-95.4554 303.5967,-86.6432"/>
<polygon fill="#191970" stroke="#191970" points="266.719,-114.092 261.4725,-123.2967 271.3139,-119.3728 266.719,-114.092"/>
</g>
<!-- Node45&#45;&gt;Node34 -->
<g id="edge22" class="edge">
<title>Node45&#45;&gt;Node34</title>
<path fill="none" stroke="#191970" d="M495.4893,-181.9487C483.7783,-165.3589 467.61,-142.6854 453,-123 424.2266,-84.2309 388.809,-38.9598 373.5639,-19.5865"/>
<polygon fill="#191970" stroke="#191970" points="492.8791,-184.321 501.4986,-190.4817 498.6023,-180.2904 492.8791,-184.321"/>
</g>
<!-- Node46 -->
<g id="node17" class="node">
<title>Node46</title>
<g id="a_node17"><a xlink:href="gauss__seidel_8cc.html" target="_top" xlink:title="src/iteration/gauss\l_seidel.cc">
<polygon fill="none" stroke="#000000" points="539,-123.5 539,-153.5 637,-153.5 637,-123.5 539,-123.5"/>
<text text-anchor="start" x="547" y="-141.5" font-family="Arial" font-size="10.00" fill="#000000">src/iteration/gauss</text>
<text text-anchor="middle" x="588" y="-130.5" font-family="Arial" font-size="10.00" fill="#000000">_seidel.cc</text>
</a>
</g>
</g>
<!-- Node45&#45;&gt;Node46 -->
<g id="edge23" class="edge">
<title>Node45&#45;&gt;Node46</title>
<path fill="none" stroke="#191970" d="M536.9592,-183.4965C548.0497,-173.7193 560.8267,-162.4554 570.8227,-153.6432"/>
<polygon fill="#191970" stroke="#191970" points="534.4323,-181.0582 529.2456,-190.2967 539.0614,-186.3091 534.4323,-181.0582"/>
</g>
<!-- Node48&#45;&gt;Node35 -->
<g id="edge27" class="edge">
<title>Node48&#45;&gt;Node35</title>
<path fill="none" stroke="#191970" d="M803.8061,-308.9635C795.7469,-280.9256 778.3596,-228.4261 752,-190 719.5222,-142.655 665.4486,-99.6712 640.4417,-81.1384"/>
<polygon fill="#191970" stroke="#191970" points="800.4743,-310.0464 806.5216,-318.7458 807.2192,-308.174 800.4743,-310.0464"/>
</g>
<!-- Node48&#45;&gt;Node38 -->
<g id="edge26" class="edge">
<title>Node48&#45;&gt;Node38</title>
<path fill="none" stroke="#191970" d="M764.9889,-316.1969C723.2141,-304.5189 661.2968,-287.2103 623.1336,-276.5419"/>
<polygon fill="#191970" stroke="#191970" points="764.0519,-319.5691 774.625,-318.8906 765.9365,-312.8275 764.0519,-319.5691"/>
</g>
<!-- Node48&#45;&gt;Node40 -->
<g id="edge28" class="edge">
<title>Node48&#45;&gt;Node40</title>
<path fill="none" stroke="#191970" d="M815.4081,-309.1741C828.6764,-269.1584 858.7501,-178.46 868.7201,-148.3917"/>
<polygon fill="#191970" stroke="#191970" points="812.036,-308.2233 812.2108,-318.8167 818.6803,-310.4264 812.036,-308.2233"/>
</g>
<!-- Node49 -->
<g id="node20" class="node">
<title>Node49</title>
<g id="a_node20"><a xlink:href="ig__base_8cc.html" target="_top" xlink:title="src/iteration/ig_base.cc">
<polygon fill="none" stroke="#000000" points="875.5,-257.5 875.5,-276.5 994.5,-276.5 994.5,-257.5 875.5,-257.5"/>
<text text-anchor="middle" x="935" y="-264.5" font-family="Arial" font-size="10.00" fill="#000000">src/iteration/ig_base.cc</text>
</a>
</g>
</g>
<!-- Node48&#45;&gt;Node49 -->
<g id="edge29" class="edge">
<title>Node48&#45;&gt;Node49</title>
<path fill="none" stroke="#191970" d="M837.9261,-314.3813C861.6881,-302.7832 894.7003,-286.6701 915.4507,-276.5419"/>
<polygon fill="#191970" stroke="#191970" points="836.1389,-311.3589 828.6875,-318.8906 839.2094,-317.6496 836.1389,-311.3589"/>
</g>
</g>
</svg>
        <g id="navigator" transform="translate(0 0)" fill="#404254">
                <rect fill="#f2f5e9" fill-opacity="0.5" stroke="#606060" stroke-width=".5" x="0" y="0" width="60" height="60"/>
                <use id="zoomplus" xlink:href="#zoomPlus" x="17" y="9" onmousedown="handleZoom(evt,'in')"/>
                <use id="zoomminus" xlink:href="#zoomMin" x="42" y="9" onmousedown="handleZoom(evt,'out')"/>
                <use id="reset" xlink:href="#resetDef" x="30" y="36" onmousedown="handleReset()"/>
                <g id="arrowUp" xlink:href="#dirArrow" transform="translate(30 24)" onmousedown="handlePan(0,-1)">
                  <use xlink:href="#rim" fill="#404040">
                        <set attributeName="fill" to="#808080" begin="arrowUp.mouseover" end="arrowUp.mouseout"/>
                  </use>
                  <path fill="none" stroke="white" stroke-width="1.5" d="M0,-3.0v7 M-2.5,-0.5L0,-3.0L2.5,-0.5"/>
                </g>
                <g id="arrowRight" xlink:href="#dirArrow" transform="rotate(90) translate(36 -43)" onmousedown="handlePan(1,0)">
                  <use xlink:href="#rim" fill="#404040">
                        <set attributeName="fill" to="#808080" begin="arrowRight.mouseover" end="arrowRight.mouseout"/>
                  </use>
                  <path fill="none" stroke="white" stroke-width="1.5" d="M0,-3.0v7 M-2.5,-0.5L0,-3.0L2.5,-0.5"/>
                </g>
                <g id="arrowDown" xlink:href="#dirArrow" transform="rotate(180) translate(-30 -48)" onmousedown="handlePan(0,1)">
                  <use xlink:href="#rim" fill="#404040">
                        <set attributeName="fill" to="#808080" begin="arrowDown.mouseover" end="arrowDown.mouseout"/>
                  </use>
                  <path fill="none" stroke="white" stroke-width="1.5" d="M0,-3.0v7 M-2.5,-0.5L0,-3.0L2.5,-0.5"/>
                </g>
                <g id="arrowLeft" xlink:href="#dirArrow" transform="rotate(270) translate(-36 17)" onmousedown="handlePan(-1,0)">
                  <use xlink:href="#rim" fill="#404040">
                        <set attributeName="fill" to="#808080" begin="arrowLeft.mouseover" end="arrowLeft.mouseout"/>
                  </use>
                  <path fill="none" stroke="white" stroke-width="1.5" d="M0,-3.0v7 M-2.5,-0.5L0,-3.0L2.5,-0.5"/>
                </g>
        </g>
        <svg viewBox="0 0 15 15" width="100%" height="30px" preserveAspectRatio="xMaxYMin meet">
         <g id="arrow_out" transform="scale(0.3 0.3)">
          <a xlink:href="equation__base_8h__dep__incl_org.svg" target="_base">
           <rect id="button" ry="5" rx="5" y="6" x="6" height="38" width="38"
                fill="#f2f5e9" fill-opacity="0.5" stroke="#606060" stroke-width="1.0"/>
           <path id="arrow"
             d="M 11.500037,31.436501 C 11.940474,20.09759 22.043105,11.32322 32.158766,21.979434 L 37.068811,17.246167 C 37.068811,17.246167 37.088388,32 37.088388,32 L 22.160133,31.978069 C 22.160133,31.978069 26.997745,27.140456 26.997745,27.140456 C 18.528582,18.264221 13.291696,25.230495 11.500037,31.436501 z"
             style="fill:#404040;"/>
          </a>
         </g>
        </svg>
</svg>
