<?xml version="1.0" encoding="UTF-8" standalone="no"?>
<!DOCTYPE svg PUBLIC "-//W3C//DTD SVG 1.1//EN"
 "http://www.w3.org/Graphics/SVG/1.1/DTD/svg11.dtd">
<!-- Generated by graphviz version 2.40.1 (20161225.0304)
 -->
<!-- Title: src/equation/even_parity.h Pages: 1 -->
<svg width="634pt" height="114pt"
 viewBox="0.00 0.00 634.00 114.00" xmlns="http://www.w3.org/2000/svg" xmlns:xlink="http://www.w3.org/1999/xlink">
<g id="graph0" class="graph" transform="scale(1 1) rotate(0) translate(4 110)">
<title>src/equation/even_parity.h</title>
<!-- Node31 -->
<g id="node1" class="node">
<title>Node31</title>
<polygon fill="#bfbfbf" stroke="#000000" points="166.5,-71.5 166.5,-105.5 464.5,-105.5 464.5,-71.5 166.5,-71.5"/>
<text text-anchor="middle" x="315.5" y="-82.3" font-family="Arial" font-size="24.00" fill="#000000">src/equation/even_parity.h</text>
</g>
<!-- Node32 -->
<g id="node2" class="node">
<title>Node32</title>
<g id="a_node2"><a xlink:href="even__parity_8cc.html" target="_top" xlink:title="src/equation/even_parity.cc">
<polygon fill="none" stroke="#000000" points="0,-.5 0,-34.5 309,-34.5 309,-.5 0,-.5"/>
<text text-anchor="middle" x="154.5" y="-11.3" font-family="Arial" font-size="24.00" fill="#000000">src/equation/even_parity.cc</text>
</a>
</g>
</g>
<!-- Node31&#45;&gt;Node32 -->
<g id="edge1" class="edge">
<title>Node31&#45;&gt;Node32</title>
<path fill="none" stroke="#191970" d="M267.7493,-67.4422C244.0094,-56.9731 215.6885,-44.4837 193.3068,-34.6136"/>
<polygon fill="#191970" stroke="#191970" points="266.3744,-70.6611 276.9365,-71.4937 269.199,-64.2562 266.3744,-70.6611"/>
</g>
<!-- Node33 -->
<g id="node3" class="node">
<title>Node33</title>
<g id="a_node3"><a xlink:href="bart__driver_8cc.html" target="_top" xlink:title="src/common/bart_driver.cc">
<polygon fill="none" stroke="#000000" points="327,-.5 327,-34.5 626,-34.5 626,-.5 327,-.5"/>
<text text-anchor="middle" x="476.5" y="-11.3" font-family="Arial" font-size="24.00" fill="#000000">src/common/bart_driver.cc</text>
</a>
</g>
</g>
<!-- Node31&#45;&gt;Node33 -->
<g id="edge2" class="edge">
<title>Node31&#45;&gt;Node33</title>
<path fill="none" stroke="#191970" d="M363.2507,-67.4422C386.9906,-56.9731 415.3115,-44.4837 437.6932,-34.6136"/>
<polygon fill="#191970" stroke="#191970" points="361.801,-64.2562 354.0635,-71.4937 364.6256,-70.6611 361.801,-64.2562"/>
</g>
</g>
</svg>
