<?xml version="1.0" encoding="UTF-8" standalone="no"?>
<!DOCTYPE svg PUBLIC "-//W3C//DTD SVG 1.1//EN"
 "http://www.w3.org/Graphics/SVG/1.1/DTD/svg11.dtd">
<!-- Generated by graphviz version 2.40.1 (20161225.0304)
 -->
<!-- Title: src/equation/even_parity.h Pages: 1 -->
<svg width="298pt" height="84pt"
 viewBox="0.00 0.00 298.00 84.00" xmlns="http://www.w3.org/2000/svg" xmlns:xlink="http://www.w3.org/1999/xlink">
<g id="graph0" class="graph" transform="scale(1 1) rotate(0) translate(4 80)">
<title>src/equation/even_parity.h</title>
<!-- Node31 -->
<g id="node1" class="node">
<title>Node31</title>
<polygon fill="#bfbfbf" stroke="#000000" points="79,-56.5 79,-75.5 213,-75.5 213,-56.5 79,-56.5"/>
<text text-anchor="middle" x="146" y="-63.5" font-family="Arial" font-size="10.00" fill="#000000">src/equation/even_parity.h</text>
</g>
<!-- Node32 -->
<g id="node2" class="node">
<title>Node32</title>
<g id="a_node2"><a xlink:href="even__parity_8cc.html" target="_top" xlink:title="src/equation/even_parity.cc">
<polygon fill="none" stroke="#000000" points="0,-.5 0,-19.5 138,-19.5 138,-.5 0,-.5"/>
<text text-anchor="middle" x="69" y="-7.5" font-family="Arial" font-size="10.00" fill="#000000">src/equation/even_parity.cc</text>
</a>
</g>
</g>
<!-- Node31&#45;&gt;Node32 -->
<g id="edge1" class="edge">
<title>Node31&#45;&gt;Node32</title>
<path fill="none" stroke="#191970" d="M124.2884,-50.2097C110.7647,-40.3743 93.8042,-28.0394 82.2587,-19.6427"/>
<polygon fill="#191970" stroke="#191970" points="122.4416,-53.1944 132.5876,-56.2455 126.5589,-47.5332 122.4416,-53.1944"/>
</g>
<!-- Node33 -->
<g id="node3" class="node">
<title>Node33</title>
<g id="a_node3"><a xlink:href="bart__driver_8cc.html" target="_top" xlink:title="src/common/bart_driver.cc">
<polygon fill="none" stroke="#000000" points="156,-.5 156,-19.5 290,-19.5 290,-.5 156,-.5"/>
<text text-anchor="middle" x="223" y="-7.5" font-family="Arial" font-size="10.00" fill="#000000">src/common/bart_driver.cc</text>
</a>
</g>
</g>
<!-- Node31&#45;&gt;Node33 -->
<g id="edge2" class="edge">
<title>Node31&#45;&gt;Node33</title>
<path fill="none" stroke="#191970" d="M167.7116,-50.2097C181.2353,-40.3743 198.1958,-28.0394 209.7413,-19.6427"/>
<polygon fill="#191970" stroke="#191970" points="165.4411,-47.5332 159.4124,-56.2455 169.5584,-53.1944 165.4411,-47.5332"/>
</g>
</g>
</svg>
