<?xml version="1.0" encoding="UTF-8" standalone="no"?>
<!DOCTYPE svg PUBLIC "-//W3C//DTD SVG 1.1//EN"
 "http://www.w3.org/Graphics/SVG/1.1/DTD/svg11.dtd">
<!-- Generated by graphviz version 2.40.1 (20161225.0304)
 -->
<!-- Title: src/iteration/gauss_seidel.h Pages: 1 -->
<svg width="258pt" height="106pt"
 viewBox="0.00 0.00 258.00 106.00" xmlns="http://www.w3.org/2000/svg" xmlns:xlink="http://www.w3.org/1999/xlink">
<g id="graph0" class="graph" transform="scale(1 1) rotate(0) translate(4 102)">
<title>src/iteration/gauss_seidel.h</title>
<!-- Node34 -->
<g id="node1" class="node">
<title>Node34</title>
<polygon fill="#bfbfbf" stroke="#000000" points="85,-67.5 85,-97.5 183,-97.5 183,-67.5 85,-67.5"/>
<text text-anchor="start" x="93" y="-85.5" font-family="Arial" font-size="10.00" fill="#000000">src/iteration/gauss</text>
<text text-anchor="middle" x="134" y="-74.5" font-family="Arial" font-size="10.00" fill="#000000">_seidel.h</text>
</g>
<!-- Node35 -->
<g id="node2" class="node">
<title>Node35</title>
<g id="a_node2"><a xlink:href="bart__driver_8cc.html" target="_top" xlink:title="src/common/bart_driver.cc">
<polygon fill="none" stroke="#000000" points="0,-6 0,-25 134,-25 134,-6 0,-6"/>
<text text-anchor="middle" x="67" y="-13" font-family="Arial" font-size="10.00" fill="#000000">src/common/bart_driver.cc</text>
</a>
</g>
</g>
<!-- Node34&#45;&gt;Node35 -->
<g id="edge1" class="edge">
<title>Node34&#45;&gt;Node35</title>
<path fill="none" stroke="#191970" d="M111.7032,-60.2032C99.7634,-48.2634 85.6776,-34.1776 76.555,-25.055"/>
<polygon fill="#191970" stroke="#191970" points="109.2507,-62.7004 118.7967,-67.2967 114.2004,-57.7507 109.2507,-62.7004"/>
</g>
<!-- Node36 -->
<g id="node3" class="node">
<title>Node36</title>
<g id="a_node3"><a xlink:href="gauss__seidel_8cc.html" target="_top" xlink:title="src/iteration/gauss\l_seidel.cc">
<polygon fill="none" stroke="#000000" points="152,-.5 152,-30.5 250,-30.5 250,-.5 152,-.5"/>
<text text-anchor="start" x="160" y="-18.5" font-family="Arial" font-size="10.00" fill="#000000">src/iteration/gauss</text>
<text text-anchor="middle" x="201" y="-7.5" font-family="Arial" font-size="10.00" fill="#000000">_seidel.cc</text>
</a>
</g>
</g>
<!-- Node34&#45;&gt;Node36 -->
<g id="edge2" class="edge">
<title>Node34&#45;&gt;Node36</title>
<path fill="none" stroke="#191970" d="M156.2887,-60.2113C165.9991,-50.5009 177.1302,-39.3698 185.8568,-30.6432"/>
<polygon fill="#191970" stroke="#191970" points="153.7996,-57.7507 149.2033,-67.2967 158.7493,-62.7004 153.7996,-57.7507"/>
</g>
</g>
</svg>
