<?xml version="1.0" encoding="UTF-8" standalone="no"?>
<!DOCTYPE svg PUBLIC "-//W3C//DTD SVG 1.1//EN"
 "http://www.w3.org/Graphics/SVG/1.1/DTD/svg11.dtd">
<!-- Generated by graphviz version 2.40.1 (20161225.0304)
 -->
<!-- Title: src/iteration/ig_base.h Pages: 1 -->
<!--zoomable 341 -->
<svg id="main" version="1.1" xmlns="http://www.w3.org/2000/svg" xmlns:xlink="http://www.w3.org/1999/xlink" xml:space="preserve" onload="init(evt)">
<style type="text/css"><![CDATA[
.edge:hover path { stroke: red; }
.edge:hover polygon { stroke: red; fill: red; }
]]></style>
<script type="text/javascript"><![CDATA[
var edges = document.getElementsByTagName('g');
if (edges && edges.length) {
  for (var i=0;i<edges.length;i++) {
    if (edges[i].id.substr(0,4)=='edge') {
      edges[i].setAttribute('class','edge');
    }
  }
}
]]></script>
        <defs>
                <circle id="rim" cx="0" cy="0" r="7"/>
                <circle id="rim2" cx="0" cy="0" r="3.5"/>
                <g id="zoomPlus">
                        <use xlink:href="#rim" fill="#404040">
                                <set attributeName="fill" to="#808080" begin="zoomplus.mouseover" end="zoomplus.mouseout"/>
                        </use>
                        <path d="M-4,0h8M0,-4v8" fill="none" stroke="white" stroke-width="1.5" pointer-events="none"/>
                </g>
                <g id="zoomMin">
                        <use xlink:href="#rim" fill="#404040">
                                <set attributeName="fill" to="#808080" begin="zoomminus.mouseover" end="zoomminus.mouseout"/>
                        </use>
                        <path d="M-4,0h8" fill="none" stroke="white" stroke-width="1.5" pointer-events="none"/>
                </g>
                <g id="dirArrow">
                        <path fill="none" stroke="white" stroke-width="1.5" d="M0,-3.0v7 M-2.5,-0.5L0,-3.0L2.5,-0.5"/>
                </g>
               <g id="resetDef">
                       <use xlink:href="#rim2" fill="#404040">
                               <set attributeName="fill" to="#808080" begin="reset.mouseover" end="reset.mouseout"/>
                       </use>
               </g>
        </defs>

<script type="text/javascript">
var viewWidth = 662;
var viewHeight = 341;
var sectionId = 'dynsection-1';
</script>
<script xlink:href="svgpan.js"/>
<svg id="graph" class="graph">
<g id="viewport">
<title>src/iteration/ig_base.h</title>
<!-- Node32 -->
<g id="node1" class="node">
<title>Node32</title>
<polygon fill="#bfbfbf" stroke="#000000" points="98,-313.5 98,-332.5 212,-332.5 212,-313.5 98,-313.5"/>
<text text-anchor="middle" x="155" y="-320.5" font-family="Arial" font-size="10.00" fill="#000000">src/iteration/ig_base.h</text>
</g>
<!-- Node33 -->
<g id="node2" class="node">
<title>Node33</title>
<g id="a_node2"><a xlink:href="mg__base_8h.html" target="_top" xlink:title="src/iteration/mg_base.h">
<polygon fill="none" stroke="#000000" points="183,-257.5 183,-276.5 303,-276.5 303,-257.5 183,-257.5"/>
<text text-anchor="middle" x="243" y="-264.5" font-family="Arial" font-size="10.00" fill="#000000">src/iteration/mg_base.h</text>
</a>
</g>
</g>
<!-- Node32&#45;&gt;Node33 -->
<g id="edge1" class="edge">
<title>Node32&#45;&gt;Node33</title>
<path fill="none" stroke="#191970" d="M178.9345,-307.769C194.5283,-297.8456 214.401,-285.1994 227.8472,-276.6427"/>
<polygon fill="#191970" stroke="#191970" points="176.886,-304.9239 170.3284,-313.2455 180.6441,-310.8296 176.886,-304.9239"/>
</g>
<!-- Node34 -->
<g id="node3" class="node">
<title>Node34</title>
<g id="a_node3"><a xlink:href="bart__driver_8h.html" target="_top" xlink:title="src/common/bart_driver.h">
<polygon fill="none" stroke="#000000" points="142,-62 142,-81 272,-81 272,-62 142,-62"/>
<text text-anchor="middle" x="207" y="-69" font-family="Arial" font-size="10.00" fill="#000000">src/common/bart_driver.h</text>
</a>
</g>
</g>
<!-- Node32&#45;&gt;Node34 -->
<g id="edge19" class="edge">
<title>Node32&#45;&gt;Node34</title>
<path fill="none" stroke="#191970" d="M130.3447,-307.8524C78.2588,-273.983 -34.1423,-189.8499 17,-123 25.8515,-111.4299 107.1921,-92.4273 160.5378,-81.0248"/>
<polygon fill="#191970" stroke="#191970" points="128.7137,-310.9637 139.0258,-313.3949 132.4806,-305.0636 128.7137,-310.9637"/>
</g>
<!-- Node38 -->
<g id="node7" class="node">
<title>Node38</title>
<g id="a_node7"><a xlink:href="iterations_8h.html" target="_top" xlink:title="src/iteration/iterations.h">
<polygon fill="none" stroke="#000000" points="26,-129 26,-148 146,-148 146,-129 26,-129"/>
<text text-anchor="middle" x="86" y="-136" font-family="Arial" font-size="10.00" fill="#000000">src/iteration/iterations.h</text>
</a>
</g>
</g>
<!-- Node32&#45;&gt;Node38 -->
<g id="edge20" class="edge">
<title>Node32&#45;&gt;Node38</title>
<path fill="none" stroke="#191970" d="M147.7684,-303.6634C133.123,-264.5029 100.4278,-177.0787 89.5768,-148.0641"/>
<polygon fill="#191970" stroke="#191970" points="144.6062,-305.1999 151.3874,-313.3402 151.1627,-302.7478 144.6062,-305.1999"/>
</g>
<!-- Node46 -->
<g id="node15" class="node">
<title>Node46</title>
<g id="a_node15"><a xlink:href="ig__base_8cc.html" target="_top" xlink:title="src/iteration/ig_base.cc">
<polygon fill="none" stroke="#000000" points="321.5,-257.5 321.5,-276.5 440.5,-276.5 440.5,-257.5 321.5,-257.5"/>
<text text-anchor="middle" x="381" y="-264.5" font-family="Arial" font-size="10.00" fill="#000000">src/iteration/ig_base.cc</text>
</a>
</g>
</g>
<!-- Node32&#45;&gt;Node46 -->
<g id="edge21" class="edge">
<title>Node32&#45;&gt;Node46</title>
<path fill="none" stroke="#191970" d="M203.5012,-310.982C245.0847,-300.6781 304.188,-286.0331 342.5652,-276.5237"/>
<polygon fill="#191970" stroke="#191970" points="202.4586,-307.6344 193.594,-313.4369 204.1423,-314.4289 202.4586,-307.6344"/>
</g>
<!-- Node33&#45;&gt;Node34 -->
<g id="edge2" class="edge">
<title>Node33&#45;&gt;Node34</title>
<path fill="none" stroke="#191970" d="M269.3257,-251.7771C280.3307,-244.0094 292.1338,-233.5392 299,-221 319.9888,-182.6699 329.7526,-160.3102 307,-123 293.8842,-101.4924 268.5945,-88.5834 246.7303,-81.0686"/>
<polygon fill="#191970" stroke="#191970" points="267.2,-248.9864 260.7807,-257.4151 271.0551,-254.8292 267.2,-248.9864"/>
</g>
<!-- Node37 -->
<g id="node6" class="node">
<title>Node37</title>
<g id="a_node6"><a xlink:href="eigen__base_8h.html" target="_top" xlink:title="src/iteration/eigen\l_base.h">
<polygon fill="none" stroke="#000000" points="195.5,-190.5 195.5,-220.5 290.5,-220.5 290.5,-190.5 195.5,-190.5"/>
<text text-anchor="start" x="203.5" y="-208.5" font-family="Arial" font-size="10.00" fill="#000000">src/iteration/eigen</text>
<text text-anchor="middle" x="243" y="-197.5" font-family="Arial" font-size="10.00" fill="#000000">_base.h</text>
</a>
</g>
</g>
<!-- Node33&#45;&gt;Node37 -->
<g id="edge5" class="edge">
<title>Node33&#45;&gt;Node37</title>
<path fill="none" stroke="#191970" d="M243,-247.3693C243,-238.681 243,-228.6241 243,-220.5446"/>
<polygon fill="#191970" stroke="#191970" points="239.5001,-247.3906 243,-257.3906 246.5001,-247.3907 239.5001,-247.3906"/>
</g>
<!-- Node33&#45;&gt;Node38 -->
<g id="edge14" class="edge">
<title>Node33&#45;&gt;Node38</title>
<path fill="none" stroke="#191970" d="M222.6688,-250.6801C211.7713,-241.9106 198.1279,-230.896 186,-221 153.9138,-194.8186 116.2913,-163.6534 97.6668,-148.1939"/>
<polygon fill="#191970" stroke="#191970" points="220.7516,-253.6296 230.7382,-257.1675 225.1375,-248.174 220.7516,-253.6296"/>
</g>
<!-- Node43 -->
<g id="node12" class="node">
<title>Node43</title>
<g id="a_node12"><a xlink:href="gauss__seidel_8h.html" target="_top" xlink:title="src/iteration/gauss\l_seidel.h">
<polygon fill="none" stroke="#000000" points="412,-190.5 412,-220.5 510,-220.5 510,-190.5 412,-190.5"/>
<text text-anchor="start" x="420" y="-208.5" font-family="Arial" font-size="10.00" fill="#000000">src/iteration/gauss</text>
<text text-anchor="middle" x="461" y="-197.5" font-family="Arial" font-size="10.00" fill="#000000">_seidel.h</text>
</a>
</g>
</g>
<!-- Node33&#45;&gt;Node43 -->
<g id="edge15" class="edge">
<title>Node33&#45;&gt;Node43</title>
<path fill="none" stroke="#191970" d="M286.8349,-254.6337C322.9883,-244.4345 374.2541,-229.9719 411.8047,-219.3785"/>
<polygon fill="#191970" stroke="#191970" points="285.7365,-251.3069 277.0625,-257.3906 287.6372,-258.044 285.7365,-251.3069"/>
</g>
<!-- Node45 -->
<g id="node14" class="node">
<title>Node45</title>
<g id="a_node14"><a xlink:href="mg__base_8cc.html" target="_top" xlink:title="src/iteration/mg_base.cc">
<polygon fill="none" stroke="#000000" points="528.5,-196 528.5,-215 653.5,-215 653.5,-196 528.5,-196"/>
<text text-anchor="middle" x="591" y="-203" font-family="Arial" font-size="10.00" fill="#000000">src/iteration/mg_base.cc</text>
</a>
</g>
</g>
<!-- Node33&#45;&gt;Node45 -->
<g id="edge18" class="edge">
<title>Node33&#45;&gt;Node45</title>
<path fill="none" stroke="#191970" d="M313.3191,-256.2122C369.1923,-247.4161 449.2611,-234.3106 519,-221 528.5453,-219.1781 538.7688,-217.0719 548.4266,-215.0108"/>
<polygon fill="#191970" stroke="#191970" points="312.5126,-252.7959 303.1759,-257.8036 313.5976,-259.7113 312.5126,-252.7959"/>
</g>
<!-- Node35 -->
<g id="node4" class="node">
<title>Node35</title>
<g id="a_node4"><a xlink:href="bart__driver_8cc.html" target="_top" xlink:title="src/common/bart_driver.cc">
<polygon fill="none" stroke="#000000" points="359,-.5 359,-19.5 493,-19.5 493,-.5 359,-.5"/>
<text text-anchor="middle" x="426" y="-7.5" font-family="Arial" font-size="10.00" fill="#000000">src/common/bart_driver.cc</text>
</a>
</g>
</g>
<!-- Node34&#45;&gt;Node35 -->
<g id="edge3" class="edge">
<title>Node34&#45;&gt;Node35</title>
<path fill="none" stroke="#191970" d="M251.0745,-59.1229C292.6559,-47.4459 354.1119,-30.1877 392.0215,-19.5419"/>
<polygon fill="#191970" stroke="#191970" points="249.9,-55.8173 241.2188,-61.8906 251.7926,-62.5566 249.9,-55.8173"/>
</g>
<!-- Node36 -->
<g id="node5" class="node">
<title>Node36</title>
<g id="a_node5"><a xlink:href="main_8cc.html" target="_top" xlink:title="src/common/main.cc">
<polygon fill="none" stroke="#000000" points="153,-.5 153,-19.5 261,-19.5 261,-.5 153,-.5"/>
<text text-anchor="middle" x="207" y="-7.5" font-family="Arial" font-size="10.00" fill="#000000">src/common/main.cc</text>
</a>
</g>
</g>
<!-- Node34&#45;&gt;Node36 -->
<g id="edge4" class="edge">
<title>Node34&#45;&gt;Node36</title>
<path fill="none" stroke="#191970" d="M207,-51.7462C207,-41.0519 207,-28.314 207,-19.7449"/>
<polygon fill="#191970" stroke="#191970" points="203.5001,-51.8906 207,-61.8906 210.5001,-51.8907 203.5001,-51.8906"/>
</g>
<!-- Node37&#45;&gt;Node34 -->
<g id="edge6" class="edge">
<title>Node37&#45;&gt;Node34</title>
<path fill="none" stroke="#191970" d="M214.4728,-183.6569C205.8994,-175.4027 197.5644,-165.2539 193,-154 182.8441,-128.9597 194.8365,-96.7549 202.1542,-81.0151"/>
<polygon fill="#191970" stroke="#191970" points="212.2022,-186.3221 221.9796,-190.4031 216.8812,-181.1156 212.2022,-186.3221"/>
</g>
<!-- Node37&#45;&gt;Node38 -->
<g id="edge7" class="edge">
<title>Node37&#45;&gt;Node38</title>
<path fill="none" stroke="#191970" d="M198.5345,-186.5243C169.1631,-173.99 131.9087,-158.0916 108.5047,-148.1039"/>
<polygon fill="#191970" stroke="#191970" points="197.1948,-189.7579 207.7661,-190.4639 199.9424,-183.3197 197.1948,-189.7579"/>
</g>
<!-- Node40 -->
<g id="node9" class="node">
<title>Node40</title>
<g id="a_node9"><a xlink:href="power__iteration_8h.html" target="_top" xlink:title="src/iteration/power\l_iteration.h">
<polygon fill="none" stroke="#000000" points="354,-123.5 354,-153.5 452,-153.5 452,-123.5 354,-123.5"/>
<text text-anchor="start" x="362" y="-141.5" font-family="Arial" font-size="10.00" fill="#000000">src/iteration/power</text>
<text text-anchor="middle" x="403" y="-130.5" font-family="Arial" font-size="10.00" fill="#000000">_iteration.h</text>
</a>
</g>
</g>
<!-- Node37&#45;&gt;Node40 -->
<g id="edge10" class="edge">
<title>Node37&#45;&gt;Node40</title>
<path fill="none" stroke="#191970" d="M288.159,-186.5897C313.0853,-176.1518 343.6199,-163.3654 366.9363,-153.6017"/>
<polygon fill="#191970" stroke="#191970" points="286.7792,-183.3729 278.9071,-190.4639 289.483,-189.8297 286.7792,-183.3729"/>
</g>
<!-- Node42 -->
<g id="node11" class="node">
<title>Node42</title>
<g id="a_node11"><a xlink:href="eigen__base_8cc.html" target="_top" xlink:title="src/iteration/eigen\l_base.cc">
<polygon fill="none" stroke="#000000" points="202.5,-123.5 202.5,-153.5 297.5,-153.5 297.5,-123.5 202.5,-123.5"/>
<text text-anchor="start" x="210.5" y="-141.5" font-family="Arial" font-size="10.00" fill="#000000">src/iteration/eigen</text>
<text text-anchor="middle" x="250" y="-130.5" font-family="Arial" font-size="10.00" fill="#000000">_base.cc</text>
</a>
</g>
</g>
<!-- Node37&#45;&gt;Node42 -->
<g id="edge13" class="edge">
<title>Node37&#45;&gt;Node42</title>
<path fill="none" stroke="#191970" d="M245.631,-180.3179C246.5688,-171.3414 247.5955,-161.5143 248.4179,-153.6432"/>
<polygon fill="#191970" stroke="#191970" points="242.1466,-179.9871 244.5884,-190.2967 249.1087,-180.7145 242.1466,-179.9871"/>
</g>
<!-- Node38&#45;&gt;Node34 -->
<g id="edge8" class="edge">
<title>Node38&#45;&gt;Node34</title>
<path fill="none" stroke="#191970" d="M112.395,-123.8846C135.861,-110.891 169.4934,-92.2681 189.6958,-81.0817"/>
<polygon fill="#191970" stroke="#191970" points="110.3893,-120.9944 103.3363,-128.9005 113.7802,-127.1183 110.3893,-120.9944"/>
</g>
<!-- Node39 -->
<g id="node8" class="node">
<title>Node39</title>
<g id="a_node8"><a xlink:href="iterations_8cc.html" target="_top" xlink:title="src/iteration/iterations.cc">
<polygon fill="none" stroke="#000000" points="0,-62 0,-81 124,-81 124,-62 0,-62"/>
<text text-anchor="middle" x="62" y="-69" font-family="Arial" font-size="10.00" fill="#000000">src/iteration/iterations.cc</text>
</a>
</g>
</g>
<!-- Node38&#45;&gt;Node39 -->
<g id="edge9" class="edge">
<title>Node38&#45;&gt;Node39</title>
<path fill="none" stroke="#191970" d="M79.1449,-119.3628C74.6607,-106.8444 68.9941,-91.0252 65.4322,-81.0817"/>
<polygon fill="#191970" stroke="#191970" points="75.8941,-120.6666 82.5614,-128.9005 82.484,-118.306 75.8941,-120.6666"/>
</g>
<!-- Node40&#45;&gt;Node35 -->
<g id="edge11" class="edge">
<title>Node40&#45;&gt;Node35</title>
<path fill="none" stroke="#191970" d="M407.5306,-113.1876C412.6511,-84.5797 420.7313,-39.4362 424.2574,-19.7358"/>
<polygon fill="#191970" stroke="#191970" points="404.0454,-112.7945 405.7287,-123.2548 410.9359,-114.0279 404.0454,-112.7945"/>
</g>
<!-- Node41 -->
<g id="node10" class="node">
<title>Node41</title>
<g id="a_node10"><a xlink:href="power__iteration_8cc.html" target="_top" xlink:title="src/iteration/power\l_iteration.cc">
<polygon fill="none" stroke="#000000" points="300,-56.5 300,-86.5 398,-86.5 398,-56.5 300,-56.5"/>
<text text-anchor="start" x="308" y="-74.5" font-family="Arial" font-size="10.00" fill="#000000">src/iteration/power</text>
<text text-anchor="middle" x="349" y="-63.5" font-family="Arial" font-size="10.00" fill="#000000">_iteration.cc</text>
</a>
</g>
</g>
<!-- Node40&#45;&gt;Node41 -->
<g id="edge12" class="edge">
<title>Node40&#45;&gt;Node41</title>
<path fill="none" stroke="#191970" d="M384.3425,-115.3509C376.6836,-105.8482 368.0315,-95.1132 361.2049,-86.6432"/>
<polygon fill="#191970" stroke="#191970" points="381.7462,-117.707 390.7466,-123.2967 387.1964,-113.3143 381.7462,-117.707"/>
</g>
<!-- Node43&#45;&gt;Node35 -->
<g id="edge16" class="edge">
<title>Node43&#45;&gt;Node35</title>
<path fill="none" stroke="#191970" d="M517.6112,-186.9939C543.367,-177.3179 569.7261,-165.1879 577,-154 584.51,-142.4489 583.1681,-135.32 577,-123 550.3212,-69.7131 485.2561,-35.0797 449.8695,-19.5097"/>
<polygon fill="#191970" stroke="#191970" points="516.3751,-183.7192 508.1859,-190.4414 518.7797,-190.2932 516.3751,-183.7192"/>
</g>
<!-- Node44 -->
<g id="node13" class="node">
<title>Node44</title>
<g id="a_node13"><a xlink:href="gauss__seidel_8cc.html" target="_top" xlink:title="src/iteration/gauss\l_seidel.cc">
<polygon fill="none" stroke="#000000" points="470,-123.5 470,-153.5 568,-153.5 568,-123.5 470,-123.5"/>
<text text-anchor="start" x="478" y="-141.5" font-family="Arial" font-size="10.00" fill="#000000">src/iteration/gauss</text>
<text text-anchor="middle" x="519" y="-130.5" font-family="Arial" font-size="10.00" fill="#000000">_seidel.cc</text>
</a>
</g>
</g>
<!-- Node43&#45;&gt;Node44 -->
<g id="edge17" class="edge">
<title>Node43&#45;&gt;Node44</title>
<path fill="none" stroke="#191970" d="M480.7906,-182.6385C489.0778,-173.0653 498.4847,-162.1987 505.891,-153.6432"/>
<polygon fill="#191970" stroke="#191970" points="478.0599,-180.4453 474.1611,-190.2967 483.3524,-185.0268 478.0599,-180.4453"/>
</g>
</g>
</svg>
        <g id="navigator" transform="translate(0 0)" fill="#404254">
                <rect fill="#f2f5e9" fill-opacity="0.5" stroke="#606060" stroke-width=".5" x="0" y="0" width="60" height="60"/>
                <use id="zoomplus" xlink:href="#zoomPlus" x="17" y="9" onmousedown="handleZoom(evt,'in')"/>
                <use id="zoomminus" xlink:href="#zoomMin" x="42" y="9" onmousedown="handleZoom(evt,'out')"/>
                <use id="reset" xlink:href="#resetDef" x="30" y="36" onmousedown="handleReset()"/>
                <g id="arrowUp" xlink:href="#dirArrow" transform="translate(30 24)" onmousedown="handlePan(0,-1)">
                  <use xlink:href="#rim" fill="#404040">
                        <set attributeName="fill" to="#808080" begin="arrowUp.mouseover" end="arrowUp.mouseout"/>
                  </use>
                  <path fill="none" stroke="white" stroke-width="1.5" d="M0,-3.0v7 M-2.5,-0.5L0,-3.0L2.5,-0.5"/>
                </g>
                <g id="arrowRight" xlink:href="#dirArrow" transform="rotate(90) translate(36 -43)" onmousedown="handlePan(1,0)">
                  <use xlink:href="#rim" fill="#404040">
                        <set attributeName="fill" to="#808080" begin="arrowRight.mouseover" end="arrowRight.mouseout"/>
                  </use>
                  <path fill="none" stroke="white" stroke-width="1.5" d="M0,-3.0v7 M-2.5,-0.5L0,-3.0L2.5,-0.5"/>
                </g>
                <g id="arrowDown" xlink:href="#dirArrow" transform="rotate(180) translate(-30 -48)" onmousedown="handlePan(0,1)">
                  <use xlink:href="#rim" fill="#404040">
                        <set attributeName="fill" to="#808080" begin="arrowDown.mouseover" end="arrowDown.mouseout"/>
                  </use>
                  <path fill="none" stroke="white" stroke-width="1.5" d="M0,-3.0v7 M-2.5,-0.5L0,-3.0L2.5,-0.5"/>
                </g>
                <g id="arrowLeft" xlink:href="#dirArrow" transform="rotate(270) translate(-36 17)" onmousedown="handlePan(-1,0)">
                  <use xlink:href="#rim" fill="#404040">
                        <set attributeName="fill" to="#808080" begin="arrowLeft.mouseover" end="arrowLeft.mouseout"/>
                  </use>
                  <path fill="none" stroke="white" stroke-width="1.5" d="M0,-3.0v7 M-2.5,-0.5L0,-3.0L2.5,-0.5"/>
                </g>
        </g>
        <svg viewBox="0 0 15 15" width="100%" height="30px" preserveAspectRatio="xMaxYMin meet">
         <g id="arrow_out" transform="scale(0.3 0.3)">
          <a xlink:href="ig__base_8h__dep__incl_org.svg" target="_base">
           <rect id="button" ry="5" rx="5" y="6" x="6" height="38" width="38"
                fill="#f2f5e9" fill-opacity="0.5" stroke="#606060" stroke-width="1.0"/>
           <path id="arrow"
             d="M 11.500037,31.436501 C 11.940474,20.09759 22.043105,11.32322 32.158766,21.979434 L 37.068811,17.246167 C 37.068811,17.246167 37.088388,32 37.088388,32 L 22.160133,31.978069 C 22.160133,31.978069 26.997745,27.140456 26.997745,27.140456 C 18.528582,18.264221 13.291696,25.230495 11.500037,31.436501 z"
             style="fill:#404040;"/>
          </a>
         </g>
        </svg>
</svg>
