<?xml version="1.0" encoding="UTF-8" standalone="no"?>
<!DOCTYPE svg PUBLIC "-//W3C//DTD SVG 1.1//EN"
 "http://www.w3.org/Graphics/SVG/1.1/DTD/svg11.dtd">
<!-- Generated by graphviz version 2.40.1 (20161225.0304)
 -->
<!-- Title: Graphical Class Hierarchy Pages: 1 -->
<svg width="405pt" height="104pt"
 viewBox="0.00 0.00 405.00 104.00" xmlns="http://www.w3.org/2000/svg" xmlns:xlink="http://www.w3.org/1999/xlink">
<g id="graph0" class="graph" transform="scale(1 1) rotate(0) translate(4 100)">
<title>Graphical Class Hierarchy</title>
<!-- Node0 -->
<g id="node1" class="node">
<title>Node0</title>
<g id="a_node1"><a xlink:href="class_iteration_base.html" target="_top" xlink:title="This class provides common functionalities for iteration related classes. ">
<polygon fill="none" stroke="#000000" points="0,-38.5 0,-57.5 109,-57.5 109,-38.5 0,-38.5"/>
<text text-anchor="middle" x="54.5" y="-45.5" font-family="Arial" font-size="10.00" fill="#000000">IterationBase&lt; dim &gt;</text>
</a>
</g>
</g>
<!-- Node1 -->
<g id="node2" class="node">
<title>Node1</title>
<g id="a_node2"><a xlink:href="class_eigen_base.html" target="_top" xlink:title="This class provides eigenvalue calculations foundations. ">
<polygon fill="none" stroke="#000000" points="145,-76.5 145,-95.5 243,-95.5 243,-76.5 145,-76.5"/>
<text text-anchor="middle" x="194" y="-83.5" font-family="Arial" font-size="10.00" fill="#000000">EigenBase&lt; dim &gt;</text>
</a>
</g>
</g>
<!-- Node0&#45;&gt;Node1 -->
<g id="edge1" class="edge">
<title>Node0&#45;&gt;Node1</title>
<path fill="none" stroke="#191970" d="M99.4564,-60.2462C118.6848,-65.484 140.8031,-71.5091 158.8095,-76.4141"/>
<polygon fill="#191970" stroke="#191970" points="100.2701,-56.8404 89.7017,-57.589 98.4303,-63.5943 100.2701,-56.8404"/>
</g>
<!-- Node3 -->
<g id="node4" class="node">
<title>Node3</title>
<g id="a_node4"><a xlink:href="class_i_g_base.html" target="_top" xlink:title="This class provides in&#45;group solving scheme. ">
<polygon fill="none" stroke="#000000" points="152.5,-38.5 152.5,-57.5 235.5,-57.5 235.5,-38.5 152.5,-38.5"/>
<text text-anchor="middle" x="194" y="-45.5" font-family="Arial" font-size="10.00" fill="#000000">IGBase&lt; dim &gt;</text>
</a>
</g>
</g>
<!-- Node0&#45;&gt;Node3 -->
<g id="edge3" class="edge">
<title>Node0&#45;&gt;Node3</title>
<path fill="none" stroke="#191970" d="M119.4372,-48C130.6348,-48 141.9985,-48 152.3668,-48"/>
<polygon fill="#191970" stroke="#191970" points="119.2337,-44.5001 109.2337,-48 119.2337,-51.5001 119.2337,-44.5001"/>
</g>
<!-- Node5 -->
<g id="node6" class="node">
<title>Node5</title>
<g id="a_node6"><a xlink:href="class_m_g_base.html" target="_top" xlink:title="This class provides abstract functionalities for MG calculations. ">
<polygon fill="none" stroke="#000000" points="149.5,-.5 149.5,-19.5 238.5,-19.5 238.5,-.5 149.5,-.5"/>
<text text-anchor="middle" x="194" y="-7.5" font-family="Arial" font-size="10.00" fill="#000000">MGBase&lt; dim &gt;</text>
</a>
</g>
</g>
<!-- Node0&#45;&gt;Node5 -->
<g id="edge5" class="edge">
<title>Node0&#45;&gt;Node5</title>
<path fill="none" stroke="#191970" d="M99.4564,-35.7538C118.6848,-30.516 140.8031,-24.4909 158.8095,-19.5859"/>
<polygon fill="#191970" stroke="#191970" points="98.4303,-32.4057 89.7017,-38.411 100.2701,-39.1596 98.4303,-32.4057"/>
</g>
<!-- Node2 -->
<g id="node3" class="node">
<title>Node2</title>
<g id="a_node3"><a xlink:href="class_power_iteration.html" target="_top" xlink:title="This class provides power iteration scheme. ">
<polygon fill="none" stroke="#000000" points="281,-76.5 281,-95.5 395,-95.5 395,-76.5 281,-76.5"/>
<text text-anchor="middle" x="338" y="-83.5" font-family="Arial" font-size="10.00" fill="#000000">PowerIteration&lt; dim &gt;</text>
</a>
</g>
</g>
<!-- Node1&#45;&gt;Node2 -->
<g id="edge2" class="edge">
<title>Node1&#45;&gt;Node2</title>
<path fill="none" stroke="#191970" d="M253.2967,-86C262.4148,-86 271.8136,-86 280.883,-86"/>
<polygon fill="#191970" stroke="#191970" points="253.1539,-82.5001 243.1539,-86 253.1538,-89.5001 253.1539,-82.5001"/>
</g>
<!-- Node4 -->
<g id="node5" class="node">
<title>Node4</title>
<g id="a_node5"><a xlink:href="class_source_iteration.html" target="_top" xlink:title="This class provides source iteration scheme for in group solve. ">
<polygon fill="none" stroke="#000000" points="279,-38.5 279,-57.5 397,-57.5 397,-38.5 279,-38.5"/>
<text text-anchor="middle" x="338" y="-45.5" font-family="Arial" font-size="10.00" fill="#000000">SourceIteration&lt; dim &gt;</text>
</a>
</g>
</g>
<!-- Node3&#45;&gt;Node4 -->
<g id="edge4" class="edge">
<title>Node3&#45;&gt;Node4</title>
<path fill="none" stroke="#191970" d="M245.6976,-48C256.4218,-48 267.8005,-48 278.7706,-48"/>
<polygon fill="#191970" stroke="#191970" points="245.6508,-44.5001 235.6508,-48 245.6507,-51.5001 245.6508,-44.5001"/>
</g>
<!-- Node6 -->
<g id="node7" class="node">
<title>Node6</title>
<g id="a_node7"><a xlink:href="class_gauss_seidel.html" target="_top" xlink:title="This class provides Gauss&#45;Seidel scheme for MG calculations. ">
<polygon fill="none" stroke="#000000" points="284.5,-.5 284.5,-19.5 391.5,-19.5 391.5,-.5 284.5,-.5"/>
<text text-anchor="middle" x="338" y="-7.5" font-family="Arial" font-size="10.00" fill="#000000">GaussSeidel&lt; dim &gt;</text>
</a>
</g>
</g>
<!-- Node5&#45;&gt;Node6 -->
<g id="edge6" class="edge">
<title>Node5&#45;&gt;Node6</title>
<path fill="none" stroke="#191970" d="M248.8244,-10C260.4868,-10 272.7878,-10 284.4037,-10"/>
<polygon fill="#191970" stroke="#191970" points="248.7732,-6.5001 238.7731,-10 248.7731,-13.5001 248.7732,-6.5001"/>
</g>
</g>
</svg>
