<?xml version="1.0" encoding="UTF-8" standalone="no"?>
<!DOCTYPE svg PUBLIC "-//W3C//DTD SVG 1.1//EN"
 "http://www.w3.org/Graphics/SVG/1.1/DTD/svg11.dtd">
<!-- Generated by graphviz version 2.40.1 (20161225.0304)
 -->
<!-- Title: src/iteration/iteration_base.h Pages: 1 -->
<svg width="701pt" height="419pt"
 viewBox="0.00 0.00 701.34 419.00" xmlns="http://www.w3.org/2000/svg" xmlns:xlink="http://www.w3.org/1999/xlink">
<g id="graph0" class="graph" transform="scale(1 1) rotate(0) translate(4 415)">
<title>src/iteration/iteration_base.h</title>
<!-- Node31 -->
<g id="node1" class="node">
<title>Node31</title>
<polygon fill="#bfbfbf" stroke="#000000" points="406.3382,-380.5 406.3382,-410.5 513.3382,-410.5 513.3382,-380.5 406.3382,-380.5"/>
<text text-anchor="start" x="414.3382" y="-398.5" font-family="Arial" font-size="10.00" fill="#000000">src/iteration/iteration</text>
<text text-anchor="middle" x="459.8382" y="-387.5" font-family="Arial" font-size="10.00" fill="#000000">_base.h</text>
</g>
<!-- Node32 -->
<g id="node2" class="node">
<title>Node32</title>
<g id="a_node2"><a xlink:href="mg__base_8h.html" target="_top" xlink:title="src/iteration/mg_base.h">
<polygon fill="none" stroke="#000000" points="356.8382,-257.5 356.8382,-276.5 476.8382,-276.5 476.8382,-257.5 356.8382,-257.5"/>
<text text-anchor="middle" x="416.8382" y="-264.5" font-family="Arial" font-size="10.00" fill="#000000">src/iteration/mg_base.h</text>
</a>
</g>
</g>
<!-- Node31&#45;&gt;Node32 -->
<g id="edge1" class="edge">
<title>Node31&#45;&gt;Node32</title>
<path fill="none" stroke="#191970" d="M449.8456,-370.9588C446.514,-362.4734 442.8794,-352.8688 439.8382,-344 431.6018,-319.9809 423.4516,-291.1957 419.4279,-276.5612"/>
<polygon fill="#191970" stroke="#191970" points="446.612,-372.2992 453.5636,-380.2946 453.1153,-369.7093 446.612,-372.2992"/>
</g>
<!-- Node36 -->
<g id="node6" class="node">
<title>Node36</title>
<g id="a_node6"><a xlink:href="eigen__base_8h.html" target="_top" xlink:title="src/iteration/eigen\l_base.h">
<polygon fill="none" stroke="#000000" points="202.3382,-190.5 202.3382,-220.5 297.3382,-220.5 297.3382,-190.5 202.3382,-190.5"/>
<text text-anchor="start" x="210.3382" y="-208.5" font-family="Arial" font-size="10.00" fill="#000000">src/iteration/eigen</text>
<text text-anchor="middle" x="249.8382" y="-197.5" font-family="Arial" font-size="10.00" fill="#000000">_base.h</text>
</a>
</g>
</g>
<!-- Node31&#45;&gt;Node36 -->
<g id="edge24" class="edge">
<title>Node31&#45;&gt;Node36</title>
<path fill="none" stroke="#191970" d="M435.5,-373.4797C392.3159,-334.4084 303.3677,-253.9314 266.457,-220.5361"/>
<polygon fill="#191970" stroke="#191970" points="433.2444,-376.1589 443.008,-380.2727 437.9408,-370.9681 433.2444,-376.1589"/>
</g>
<!-- Node45 -->
<g id="node15" class="node">
<title>Node45</title>
<g id="a_node15"><a xlink:href="ig__base_8h.html" target="_top" xlink:title="src/iteration/ig_base.h">
<polygon fill="none" stroke="#000000" points="448.8382,-319 448.8382,-338 562.8382,-338 562.8382,-319 448.8382,-319"/>
<text text-anchor="middle" x="505.8382" y="-326" font-family="Arial" font-size="10.00" fill="#000000">src/iteration/ig_base.h</text>
</a>
</g>
</g>
<!-- Node31&#45;&gt;Node45 -->
<g id="edge19" class="edge">
<title>Node31&#45;&gt;Node45</title>
<path fill="none" stroke="#191970" d="M476.0804,-371.8428C484.0689,-360.2073 493.2511,-346.8334 499.278,-338.055"/>
<polygon fill="#191970" stroke="#191970" points="473.051,-370.0716 470.2763,-380.2967 478.8218,-374.0337 473.051,-370.0716"/>
</g>
<!-- Node47 -->
<g id="node17" class="node">
<title>Node47</title>
<g id="a_node17"><a xlink:href="iteration__base_8cc.html" target="_top" xlink:title="src/iteration/iteration\l_base.cc">
<polygon fill="none" stroke="#000000" points="581.3382,-313.5 581.3382,-343.5 688.3382,-343.5 688.3382,-313.5 581.3382,-313.5"/>
<text text-anchor="start" x="589.3382" y="-331.5" font-family="Arial" font-size="10.00" fill="#000000">src/iteration/iteration</text>
<text text-anchor="middle" x="634.8382" y="-320.5" font-family="Arial" font-size="10.00" fill="#000000">_base.cc</text>
</a>
</g>
</g>
<!-- Node31&#45;&gt;Node47 -->
<g id="edge25" class="edge">
<title>Node31&#45;&gt;Node47</title>
<path fill="none" stroke="#191970" d="M508.5117,-376.865C535.9049,-366.3773 569.6665,-353.4515 595.3935,-343.6017"/>
<polygon fill="#191970" stroke="#191970" points="507.1991,-373.6197 499.1116,-380.4639 509.702,-380.157 507.1991,-373.6197"/>
</g>
<!-- Node33 -->
<g id="node3" class="node">
<title>Node33</title>
<g id="a_node3"><a xlink:href="bart__driver_8h.html" target="_top" xlink:title="src/common/bart_driver.h">
<polygon fill="none" stroke="#000000" points="475.8382,-62 475.8382,-81 605.8382,-81 605.8382,-62 475.8382,-62"/>
<text text-anchor="middle" x="540.8382" y="-69" font-family="Arial" font-size="10.00" fill="#000000">src/common/bart_driver.h</text>
</a>
</g>
</g>
<!-- Node32&#45;&gt;Node33 -->
<g id="edge2" class="edge">
<title>Node32&#45;&gt;Node33</title>
<path fill="none" stroke="#191970" d="M446.21,-252.5695C460.2922,-244.6356 476.6947,-233.7996 488.8382,-221 512.4002,-196.1649 515.3568,-186.251 526.8382,-154 535.8032,-128.8173 539.1134,-97.2151 540.2663,-81.4308"/>
<polygon fill="#191970" stroke="#191970" points="444.4906,-249.5202 437.3591,-257.3556 447.8203,-255.6776 444.4906,-249.5202"/>
</g>
<!-- Node32&#45;&gt;Node36 -->
<g id="edge5" class="edge">
<title>Node32&#45;&gt;Node36</title>
<path fill="none" stroke="#191970" d="M381.0909,-253.8356C354.5669,-244.0678 318.3591,-230.7338 290.691,-220.5446"/>
<polygon fill="#191970" stroke="#191970" points="380.151,-257.2192 390.7444,-257.3906 382.57,-250.6504 380.151,-257.2192"/>
</g>
<!-- Node37 -->
<g id="node7" class="node">
<title>Node37</title>
<g id="a_node7"><a xlink:href="iterations_8h.html" target="_top" xlink:title="src/iteration/iterations.h">
<polygon fill="none" stroke="#000000" points="397.8382,-129 397.8382,-148 517.8382,-148 517.8382,-129 397.8382,-129"/>
<text text-anchor="middle" x="457.8382" y="-136" font-family="Arial" font-size="10.00" fill="#000000">src/iteration/iterations.h</text>
</a>
</g>
</g>
<!-- Node32&#45;&gt;Node37 -->
<g id="edge14" class="edge">
<title>Node32&#45;&gt;Node37</title>
<path fill="none" stroke="#191970" d="M381.009,-252.8042C367.4591,-245.4683 353.4759,-235.0489 345.8382,-221 339.2575,-208.8954 338.4044,-201.6002 345.8382,-190 359.868,-168.1068 385.8089,-155.3944 409.1944,-148.0798"/>
<polygon fill="#191970" stroke="#191970" points="379.7251,-256.0747 390.2371,-257.397 382.8441,-249.8079 379.7251,-256.0747"/>
</g>
<!-- Node42 -->
<g id="node12" class="node">
<title>Node42</title>
<g id="a_node12"><a xlink:href="gauss__seidel_8h.html" target="_top" xlink:title="src/iteration/gauss\l_seidel.h">
<polygon fill="none" stroke="#000000" points="13.8382,-190.5 13.8382,-220.5 111.8382,-220.5 111.8382,-190.5 13.8382,-190.5"/>
<text text-anchor="start" x="21.8382" y="-208.5" font-family="Arial" font-size="10.00" fill="#000000">src/iteration/gauss</text>
<text text-anchor="middle" x="62.8382" y="-197.5" font-family="Arial" font-size="10.00" fill="#000000">_seidel.h</text>
</a>
</g>
</g>
<!-- Node32&#45;&gt;Node42 -->
<g id="edge15" class="edge">
<title>Node32&#45;&gt;Node42</title>
<path fill="none" stroke="#191970" d="M351.9843,-255.733C282.6971,-243.6958 174.4253,-224.8859 111.8973,-214.023"/>
<polygon fill="#191970" stroke="#191970" points="351.4625,-259.1947 361.9141,-257.4581 352.6608,-252.298 351.4625,-259.1947"/>
</g>
<!-- Node44 -->
<g id="node14" class="node">
<title>Node44</title>
<g id="a_node14"><a xlink:href="mg__base_8cc.html" target="_top" xlink:title="src/iteration/mg_base.cc">
<polygon fill="none" stroke="#000000" points="354.3382,-196 354.3382,-215 479.3382,-215 479.3382,-196 354.3382,-196"/>
<text text-anchor="middle" x="416.8382" y="-203" font-family="Arial" font-size="10.00" fill="#000000">src/iteration/mg_base.cc</text>
</a>
</g>
</g>
<!-- Node32&#45;&gt;Node44 -->
<g id="edge18" class="edge">
<title>Node32&#45;&gt;Node44</title>
<path fill="none" stroke="#191970" d="M416.8382,-247.2462C416.8382,-236.5519 416.8382,-223.814 416.8382,-215.2449"/>
<polygon fill="#191970" stroke="#191970" points="413.3383,-247.3906 416.8382,-257.3906 420.3383,-247.3907 413.3383,-247.3906"/>
</g>
<!-- Node34 -->
<g id="node4" class="node">
<title>Node34</title>
<g id="a_node4"><a xlink:href="bart__driver_8cc.html" target="_top" xlink:title="src/common/bart_driver.cc">
<polygon fill="none" stroke="#000000" points="229.8382,-.5 229.8382,-19.5 363.8382,-19.5 363.8382,-.5 229.8382,-.5"/>
<text text-anchor="middle" x="296.8382" y="-7.5" font-family="Arial" font-size="10.00" fill="#000000">src/common/bart_driver.cc</text>
</a>
</g>
</g>
<!-- Node33&#45;&gt;Node34 -->
<g id="edge3" class="edge">
<title>Node33&#45;&gt;Node34</title>
<path fill="none" stroke="#191970" d="M493.1802,-59.4878C446.873,-47.8162 377.4712,-30.3235 334.7843,-19.5643"/>
<polygon fill="#191970" stroke="#191970" points="492.4287,-62.9078 502.9809,-61.9581 494.1396,-56.1201 492.4287,-62.9078"/>
</g>
<!-- Node35 -->
<g id="node5" class="node">
<title>Node35</title>
<g id="a_node5"><a xlink:href="main_8cc.html" target="_top" xlink:title="src/common/main.cc">
<polygon fill="none" stroke="#000000" points="486.8382,-.5 486.8382,-19.5 594.8382,-19.5 594.8382,-.5 486.8382,-.5"/>
<text text-anchor="middle" x="540.8382" y="-7.5" font-family="Arial" font-size="10.00" fill="#000000">src/common/main.cc</text>
</a>
</g>
</g>
<!-- Node33&#45;&gt;Node35 -->
<g id="edge4" class="edge">
<title>Node33&#45;&gt;Node35</title>
<path fill="none" stroke="#191970" d="M540.8382,-51.7462C540.8382,-41.0519 540.8382,-28.314 540.8382,-19.7449"/>
<polygon fill="#191970" stroke="#191970" points="537.3383,-51.8906 540.8382,-61.8906 544.3383,-51.8907 537.3383,-51.8906"/>
</g>
<!-- Node36&#45;&gt;Node33 -->
<g id="edge6" class="edge">
<title>Node36&#45;&gt;Node33</title>
<path fill="none" stroke="#191970" d="M293.2989,-185.859C311.5625,-176.9691 332.7278,-165.8115 350.8382,-154 369.0945,-142.0933 369.7681,-133.5543 388.8382,-123 424.3081,-103.3693 468.5596,-89.417 500.1526,-81.0297"/>
<polygon fill="#191970" stroke="#191970" points="291.5505,-182.8156 284.0442,-190.2926 294.5749,-189.1286 291.5505,-182.8156"/>
</g>
<!-- Node36&#45;&gt;Node37 -->
<g id="edge7" class="edge">
<title>Node36&#45;&gt;Node37</title>
<path fill="none" stroke="#191970" d="M306.2658,-187.3238C345.6675,-174.6319 396.6816,-158.1995 428.3292,-148.0053"/>
<polygon fill="#191970" stroke="#191970" points="304.9627,-184.0664 296.5174,-190.4639 307.1089,-190.7292 304.9627,-184.0664"/>
</g>
<!-- Node39 -->
<g id="node9" class="node">
<title>Node39</title>
<g id="a_node9"><a xlink:href="power__iteration_8h.html" target="_top" xlink:title="src/iteration/power\l_iteration.h">
<polygon fill="none" stroke="#000000" points="243.8382,-123.5 243.8382,-153.5 341.8382,-153.5 341.8382,-123.5 243.8382,-123.5"/>
<text text-anchor="start" x="251.8382" y="-141.5" font-family="Arial" font-size="10.00" fill="#000000">src/iteration/power</text>
<text text-anchor="middle" x="292.8382" y="-130.5" font-family="Arial" font-size="10.00" fill="#000000">_iteration.h</text>
</a>
</g>
</g>
<!-- Node36&#45;&gt;Node39 -->
<g id="edge10" class="edge">
<title>Node36&#45;&gt;Node39</title>
<path fill="none" stroke="#191970" d="M265.0656,-181.7735C271.0716,-172.4154 277.7933,-161.9421 283.1194,-153.6432"/>
<polygon fill="#191970" stroke="#191970" points="262.0512,-179.9903 259.5955,-190.2967 267.9424,-183.7712 262.0512,-179.9903"/>
</g>
<!-- Node41 -->
<g id="node11" class="node">
<title>Node41</title>
<g id="a_node11"><a xlink:href="eigen__base_8cc.html" target="_top" xlink:title="src/iteration/eigen\l_base.cc">
<polygon fill="none" stroke="#000000" points="130.3382,-123.5 130.3382,-153.5 225.3382,-153.5 225.3382,-123.5 130.3382,-123.5"/>
<text text-anchor="start" x="138.3382" y="-141.5" font-family="Arial" font-size="10.00" fill="#000000">src/iteration/eigen</text>
<text text-anchor="middle" x="177.8382" y="-130.5" font-family="Arial" font-size="10.00" fill="#000000">_base.cc</text>
</a>
</g>
</g>
<!-- Node36&#45;&gt;Node41 -->
<g id="edge13" class="edge">
<title>Node36&#45;&gt;Node41</title>
<path fill="none" stroke="#191970" d="M225.8861,-183.2113C215.451,-173.5009 203.4893,-162.3698 194.1114,-153.6432"/>
<polygon fill="#191970" stroke="#191970" points="223.7952,-186.0466 233.5003,-190.2967 228.5639,-180.9221 223.7952,-186.0466"/>
</g>
<!-- Node37&#45;&gt;Node33 -->
<g id="edge8" class="edge">
<title>Node37&#45;&gt;Node33</title>
<path fill="none" stroke="#191970" d="M477.9078,-122.2992C493.8712,-109.4131 515.6648,-91.8207 528.9684,-81.0817"/>
<polygon fill="#191970" stroke="#191970" points="475.3128,-119.8959 469.73,-128.9005 479.7097,-125.3427 475.3128,-119.8959"/>
</g>
<!-- Node38 -->
<g id="node8" class="node">
<title>Node38</title>
<g id="a_node8"><a xlink:href="iterations_8cc.html" target="_top" xlink:title="src/iteration/iterations.cc">
<polygon fill="none" stroke="#000000" points="333.8382,-62 333.8382,-81 457.8382,-81 457.8382,-62 333.8382,-62"/>
<text text-anchor="middle" x="395.8382" y="-69" font-family="Arial" font-size="10.00" fill="#000000">src/iteration/iterations.cc</text>
</a>
</g>
</g>
<!-- Node37&#45;&gt;Node38 -->
<g id="edge9" class="edge">
<title>Node37&#45;&gt;Node38</title>
<path fill="none" stroke="#191970" d="M441.8428,-121.2147C430.0224,-108.441 414.3663,-91.5224 404.7048,-81.0817"/>
<polygon fill="#191970" stroke="#191970" points="439.5943,-123.9381 448.9551,-128.9005 444.732,-119.1837 439.5943,-123.9381"/>
</g>
<!-- Node39&#45;&gt;Node34 -->
<g id="edge11" class="edge">
<title>Node39&#45;&gt;Node34</title>
<path fill="none" stroke="#191970" d="M293.6261,-113.1876C294.5166,-84.5797 295.9219,-39.4362 296.5351,-19.7358"/>
<polygon fill="#191970" stroke="#191970" points="290.1257,-113.1507 293.3127,-123.2548 297.1223,-113.3685 290.1257,-113.1507"/>
</g>
<!-- Node40 -->
<g id="node10" class="node">
<title>Node40</title>
<g id="a_node10"><a xlink:href="power__iteration_8cc.html" target="_top" xlink:title="src/iteration/power\l_iteration.cc">
<polygon fill="none" stroke="#000000" points="170.8382,-56.5 170.8382,-86.5 268.8382,-86.5 268.8382,-56.5 170.8382,-56.5"/>
<text text-anchor="start" x="178.8382" y="-74.5" font-family="Arial" font-size="10.00" fill="#000000">src/iteration/power</text>
<text text-anchor="middle" x="219.8382" y="-63.5" font-family="Arial" font-size="10.00" fill="#000000">_iteration.cc</text>
</a>
</g>
</g>
<!-- Node39&#45;&gt;Node40 -->
<g id="edge12" class="edge">
<title>Node39&#45;&gt;Node40</title>
<path fill="none" stroke="#191970" d="M268.8642,-116.4965C258.2115,-106.7193 245.9388,-95.4554 236.3374,-86.6432"/>
<polygon fill="#191970" stroke="#191970" points="266.5393,-119.1134 276.2733,-123.2967 271.2726,-113.9562 266.5393,-119.1134"/>
</g>
<!-- Node42&#45;&gt;Node34 -->
<g id="edge16" class="edge">
<title>Node42&#45;&gt;Node34</title>
<path fill="none" stroke="#191970" d="M31.5979,-184.2922C11.2505,-167.7659 -9.1323,-144.1514 4.8382,-123 33.5609,-79.5137 183.0782,-37.7748 256.3196,-19.5631"/>
<polygon fill="#191970" stroke="#191970" points="29.5621,-187.1421 39.6185,-190.4765 33.8364,-181.5986 29.5621,-187.1421"/>
</g>
<!-- Node43 -->
<g id="node13" class="node">
<title>Node43</title>
<g id="a_node13"><a xlink:href="gauss__seidel_8cc.html" target="_top" xlink:title="src/iteration/gauss\l_seidel.cc">
<polygon fill="none" stroke="#000000" points="13.8382,-123.5 13.8382,-153.5 111.8382,-153.5 111.8382,-123.5 13.8382,-123.5"/>
<text text-anchor="start" x="21.8382" y="-141.5" font-family="Arial" font-size="10.00" fill="#000000">src/iteration/gauss</text>
<text text-anchor="middle" x="62.8382" y="-130.5" font-family="Arial" font-size="10.00" fill="#000000">_seidel.cc</text>
</a>
</g>
</g>
<!-- Node42&#45;&gt;Node43 -->
<g id="edge17" class="edge">
<title>Node42&#45;&gt;Node43</title>
<path fill="none" stroke="#191970" d="M62.8382,-180.0249C62.8382,-171.128 62.8382,-161.4287 62.8382,-153.6432"/>
<polygon fill="#191970" stroke="#191970" points="59.3383,-180.2966 62.8382,-190.2967 66.3383,-180.2967 59.3383,-180.2966"/>
</g>
<!-- Node45&#45;&gt;Node32 -->
<g id="edge20" class="edge">
<title>Node45&#45;&gt;Node32</title>
<path fill="none" stroke="#191970" d="M483.3617,-312.9685C466.7704,-301.5037 444.7175,-286.265 430.6468,-276.5419"/>
<polygon fill="#191970" stroke="#191970" points="481.7153,-316.0851 491.9319,-318.8906 485.6947,-310.3263 481.7153,-316.0851"/>
</g>
<!-- Node45&#45;&gt;Node33 -->
<g id="edge21" class="edge">
<title>Node45&#45;&gt;Node33</title>
<path fill="none" stroke="#191970" d="M510.5378,-308.6358C512.675,-299.1066 515.107,-287.5038 516.8382,-277 529.1632,-202.2186 537.4753,-111.106 540.0166,-81.3849"/>
<polygon fill="#191970" stroke="#191970" points="507.0584,-308.149 508.2241,-318.6795 513.8797,-309.7205 507.0584,-308.149"/>
</g>
<!-- Node45&#45;&gt;Node37 -->
<g id="edge22" class="edge">
<title>Node45&#45;&gt;Node37</title>
<path fill="none" stroke="#191970" d="M505.9716,-308.5371C505.5825,-281.0852 502.7938,-230.4807 488.8382,-190 483.3961,-174.2144 472.6472,-158.0436 465.3509,-148.1354"/>
<polygon fill="#191970" stroke="#191970" points="502.4727,-308.8034 506.017,-318.7877 509.4726,-308.7723 502.4727,-308.8034"/>
</g>
<!-- Node46 -->
<g id="node16" class="node">
<title>Node46</title>
<g id="a_node16"><a xlink:href="ig__base_8cc.html" target="_top" xlink:title="src/iteration/ig_base.cc">
<polygon fill="none" stroke="#000000" points="574.3382,-257.5 574.3382,-276.5 693.3382,-276.5 693.3382,-257.5 574.3382,-257.5"/>
<text text-anchor="middle" x="633.8382" y="-264.5" font-family="Arial" font-size="10.00" fill="#000000">src/iteration/ig_base.cc</text>
</a>
</g>
</g>
<!-- Node45&#45;&gt;Node46 -->
<g id="edge23" class="edge">
<title>Node45&#45;&gt;Node46</title>
<path fill="none" stroke="#191970" d="M534.9021,-314.5357C559.0642,-302.9265 592.8051,-286.7151 613.9786,-276.5419"/>
<polygon fill="#191970" stroke="#191970" points="533.336,-311.4051 525.8382,-318.8906 536.3675,-317.7146 533.336,-311.4051"/>
</g>
</g>
</svg>
