<?xml version="1.0" encoding="UTF-8" standalone="no"?>
<!DOCTYPE svg PUBLIC "-//W3C//DTD SVG 1.1//EN"
 "http://www.w3.org/Graphics/SVG/1.1/DTD/svg11.dtd">
<!-- Generated by graphviz version 2.40.1 (20161225.0304)
 -->
<!-- Title: src/iteration/iterations.cc Pages: 1 -->
<!--zoomable 509 -->
<svg id="main" version="1.1" xmlns="http://www.w3.org/2000/svg" xmlns:xlink="http://www.w3.org/1999/xlink" xml:space="preserve" onload="init(evt)">
<style type="text/css"><![CDATA[
.edge:hover path { stroke: red; }
.edge:hover polygon { stroke: red; fill: red; }
]]></style>
<script type="text/javascript"><![CDATA[
var edges = document.getElementsByTagName('g');
if (edges && edges.length) {
  for (var i=0;i<edges.length;i++) {
    if (edges[i].id.substr(0,4)=='edge') {
      edges[i].setAttribute('class','edge');
    }
  }
}
]]></script>
        <defs>
                <circle id="rim" cx="0" cy="0" r="7"/>
                <circle id="rim2" cx="0" cy="0" r="3.5"/>
                <g id="zoomPlus">
                        <use xlink:href="#rim" fill="#404040">
                                <set attributeName="fill" to="#808080" begin="zoomplus.mouseover" end="zoomplus.mouseout"/>
                        </use>
                        <path d="M-4,0h8M0,-4v8" fill="none" stroke="white" stroke-width="1.5" pointer-events="none"/>
                </g>
                <g id="zoomMin">
                        <use xlink:href="#rim" fill="#404040">
                                <set attributeName="fill" to="#808080" begin="zoomminus.mouseover" end="zoomminus.mouseout"/>
                        </use>
                        <path d="M-4,0h8" fill="none" stroke="white" stroke-width="1.5" pointer-events="none"/>
                </g>
                <g id="dirArrow">
                        <path fill="none" stroke="white" stroke-width="1.5" d="M0,-3.0v7 M-2.5,-0.5L0,-3.0L2.5,-0.5"/>
                </g>
               <g id="resetDef">
                       <use xlink:href="#rim2" fill="#404040">
                               <set attributeName="fill" to="#808080" begin="reset.mouseover" end="reset.mouseout"/>
                       </use>
               </g>
        </defs>

<script type="text/javascript">
var viewWidth = 2137;
var viewHeight = 509;
var sectionId = 'dynsection-0';
</script>
<script xlink:href="svgpan.js"/>
<svg id="graph" class="graph">
<g id="viewport">
<title>src/iteration/iterations.cc</title>
<!-- Node0 -->
<g id="node1" class="node">
<title>Node0</title>
<polygon fill="#bfbfbf" stroke="#000000" points="1359.2455,-481.5 1359.2455,-500.5 1483.2455,-500.5 1483.2455,-481.5 1359.2455,-481.5"/>
<text text-anchor="middle" x="1421.2455" y="-488.5" font-family="Arial" font-size="10.00" fill="#000000">src/iteration/iterations.cc</text>
</g>
<!-- Node1 -->
<g id="node2" class="node">
<title>Node1</title>
<g id="a_node2"><a xlink:href="iterations_8h.html" target="_top" xlink:title="iterations.h">
<polygon fill="none" stroke="#000000" points="1388.7455,-425.5 1388.7455,-444.5 1453.7455,-444.5 1453.7455,-425.5 1388.7455,-425.5"/>
<text text-anchor="middle" x="1421.2455" y="-432.5" font-family="Arial" font-size="10.00" fill="#000000">iterations.h</text>
</a>
</g>
</g>
<!-- Node0&#45;&gt;Node1 -->
<g id="edge1" class="edge">
<title>Node0&#45;&gt;Node1</title>
<path fill="none" stroke="#191970" d="M1421.2455,-481.2455C1421.2455,-473.9382 1421.2455,-463.6944 1421.2455,-454.7046"/>
<polygon fill="#191970" stroke="#191970" points="1424.7456,-454.6426 1421.2455,-444.6427 1417.7456,-454.6427 1424.7456,-454.6426"/>
</g>
<!-- Node2 -->
<g id="node3" class="node">
<title>Node2</title>
<polygon fill="none" stroke="#bfbfbf" points="420.7455,-6 420.7455,-25 475.7455,-25 475.7455,-6 420.7455,-6"/>
<text text-anchor="middle" x="448.2455" y="-13" font-family="Arial" font-size="10.00" fill="#000000">iostream</text>
</g>
<!-- Node1&#45;&gt;Node2 -->
<g id="edge2" class="edge">
<title>Node1&#45;&gt;Node2</title>
<path fill="none" stroke="#191970" d="M1388.6008,-434.1843C1176.4621,-428.6756 2.2455,-394.9352 2.2455,-323 2.2455,-323 2.2455,-323 2.2455,-149.5 2.2455,-111.8735 -6.7366,-92.1546 21.2455,-67 49.9767,-41.1721 311.3256,-23.4459 410.4025,-17.6022"/>
<polygon fill="#191970" stroke="#191970" points="410.7875,-21.0858 420.5674,-17.011 410.381,-14.0977 410.7875,-21.0858"/>
</g>
<!-- Node3 -->
<g id="node4" class="node">
<title>Node3</title>
<polygon fill="none" stroke="#bfbfbf" points="1817.7455,-73 1817.7455,-92 1856.7455,-92 1856.7455,-73 1817.7455,-73"/>
<text text-anchor="middle" x="1837.2455" y="-80" font-family="Arial" font-size="10.00" fill="#000000">utility</text>
</g>
<!-- Node1&#45;&gt;Node3 -->
<g id="edge3" class="edge">
<title>Node1&#45;&gt;Node3</title>
<path fill="none" stroke="#191970" d="M1453.8647,-431.2358C1538.4388,-420.5743 1758.2455,-386.7343 1758.2455,-323 1758.2455,-323 1758.2455,-323 1758.2455,-211 1758.2455,-165.1202 1795.2447,-121.8545 1818.6018,-99.1124"/>
<polygon fill="#191970" stroke="#191970" points="1821.0474,-101.617 1825.9268,-92.2126 1816.2477,-96.5216 1821.0474,-101.617"/>
</g>
<!-- Node4 -->
<g id="node5" class="node">
<title>Node4</title>
<polygon fill="none" stroke="#bfbfbf" points="1258.2455,-6 1258.2455,-25 1302.2455,-25 1302.2455,-6 1258.2455,-6"/>
<text text-anchor="middle" x="1280.2455" y="-13" font-family="Arial" font-size="10.00" fill="#000000">vector</text>
</g>
<!-- Node1&#45;&gt;Node4 -->
<g id="edge4" class="edge">
<title>Node1&#45;&gt;Node4</title>
<path fill="none" stroke="#191970" d="M1453.8549,-433.1577C1515.3297,-427.7389 1642.2455,-406.4469 1642.2455,-323 1642.2455,-323 1642.2455,-323 1642.2455,-149.5 1642.2455,-99.0399 1609.0577,-90.1967 1564.2455,-67 1463.7717,-14.9904 1420.4464,-64.054 1312.2455,-31 1310.3859,-30.4319 1308.4994,-29.7689 1306.6208,-29.043"/>
<polygon fill="#191970" stroke="#191970" points="1308.0196,-25.8347 1297.4548,-25.0371 1305.2163,-32.2489 1308.0196,-25.8347"/>
</g>
<!-- Node5 -->
<g id="node6" class="node">
<title>Node5</title>
<g id="a_node6"><a xlink:href="eigen__base_8h.html" target="_top" xlink:title="eigen_base.h">
<polygon fill="none" stroke="#000000" points="1382.7455,-369.5 1382.7455,-388.5 1459.7455,-388.5 1459.7455,-369.5 1382.7455,-369.5"/>
<text text-anchor="middle" x="1421.2455" y="-376.5" font-family="Arial" font-size="10.00" fill="#000000">eigen_base.h</text>
</a>
</g>
</g>
<!-- Node1&#45;&gt;Node5 -->
<g id="edge5" class="edge">
<title>Node1&#45;&gt;Node5</title>
<path fill="none" stroke="#191970" d="M1421.2455,-425.2455C1421.2455,-417.9382 1421.2455,-407.6944 1421.2455,-398.7046"/>
<polygon fill="#191970" stroke="#191970" points="1424.7456,-398.6426 1421.2455,-388.6427 1417.7456,-398.6427 1424.7456,-398.6426"/>
</g>
<!-- Node8 -->
<g id="node9" class="node">
<title>Node8</title>
<g id="a_node9"><a xlink:href="equation__base_8h.html" target="_top" xlink:title="../equation/equation\l_base.h">
<polygon fill="none" stroke="#000000" points="953.2455,-134.5 953.2455,-164.5 1057.2455,-164.5 1057.2455,-134.5 953.2455,-134.5"/>
<text text-anchor="start" x="961.2455" y="-152.5" font-family="Arial" font-size="10.00" fill="#000000">../equation/equation</text>
<text text-anchor="middle" x="1005.2455" y="-141.5" font-family="Arial" font-size="10.00" fill="#000000">_base.h</text>
</a>
</g>
</g>
<!-- Node1&#45;&gt;Node8 -->
<g id="edge68" class="edge">
<title>Node1&#45;&gt;Node8</title>
<path fill="none" stroke="#191970" d="M1388.6182,-430.5393C1307.8807,-418.5909 1105.2455,-382.6602 1105.2455,-323 1105.2455,-323 1105.2455,-323 1105.2455,-267 1105.2455,-225.3097 1068.2845,-190.8819 1039.3038,-170.2952"/>
<polygon fill="#191970" stroke="#191970" points="1041.2269,-167.3702 1030.998,-164.6097 1037.2728,-173.1465 1041.2269,-167.3702"/>
</g>
<!-- Node34 -->
<g id="node35" class="node">
<title>Node34</title>
<g id="a_node35"><a xlink:href="mg__base_8h.html" target="_top" xlink:title="mg_base.h">
<polygon fill="none" stroke="#000000" points="1332.2455,-313.5 1332.2455,-332.5 1398.2455,-332.5 1398.2455,-313.5 1332.2455,-313.5"/>
<text text-anchor="middle" x="1365.2455" y="-320.5" font-family="Arial" font-size="10.00" fill="#000000">mg_base.h</text>
</a>
</g>
</g>
<!-- Node1&#45;&gt;Node34 -->
<g id="edge66" class="edge">
<title>Node1&#45;&gt;Node34</title>
<path fill="none" stroke="#191970" d="M1407.2611,-425.4078C1396.3584,-417.1129 1381.8356,-404.0973 1374.2455,-389 1367.0221,-374.6319 1364.9906,-356.3984 1364.642,-342.7387"/>
<polygon fill="#191970" stroke="#191970" points="1368.1424,-342.5344 1364.6679,-332.5255 1361.1424,-342.5166 1368.1424,-342.5344"/>
</g>
<!-- Node35 -->
<g id="node36" class="node">
<title>Node35</title>
<g id="a_node36"><a xlink:href="ig__base_8h.html" target="_top" xlink:title="ig_base.h">
<polygon fill="none" stroke="#000000" points="1454.2455,-257.5 1454.2455,-276.5 1514.2455,-276.5 1514.2455,-257.5 1454.2455,-257.5"/>
<text text-anchor="middle" x="1484.2455" y="-264.5" font-family="Arial" font-size="10.00" fill="#000000">ig_base.h</text>
</a>
</g>
</g>
<!-- Node1&#45;&gt;Node35 -->
<g id="edge67" class="edge">
<title>Node1&#45;&gt;Node35</title>
<path fill="none" stroke="#191970" d="M1436.035,-425.1646C1447.1457,-416.9092 1461.6964,-404.0661 1469.2455,-389 1485.7431,-356.0754 1486.8148,-312.1014 1485.7611,-286.9362"/>
<polygon fill="#191970" stroke="#191970" points="1489.2468,-286.5859 1485.1752,-276.8046 1482.2585,-286.9901 1489.2468,-286.5859"/>
</g>
<!-- Node6 -->
<g id="node7" class="node">
<title>Node6</title>
<g id="a_node7"><a xlink:href="iteration__base_8h.html" target="_top" xlink:title="iteration_base.h">
<polygon fill="none" stroke="#000000" points="1382.2455,-201.5 1382.2455,-220.5 1470.2455,-220.5 1470.2455,-201.5 1382.2455,-201.5"/>
<text text-anchor="middle" x="1426.2455" y="-208.5" font-family="Arial" font-size="10.00" fill="#000000">iteration_base.h</text>
</a>
</g>
</g>
<!-- Node5&#45;&gt;Node6 -->
<g id="edge6" class="edge">
<title>Node5&#45;&gt;Node6</title>
<path fill="none" stroke="#191970" d="M1421.5287,-369.4862C1422.3191,-342.9293 1424.5621,-267.5651 1425.6454,-231.1655"/>
<polygon fill="#191970" stroke="#191970" points="1429.1539,-230.9276 1425.953,-220.8279 1422.157,-230.7193 1429.1539,-230.9276"/>
</g>
<!-- Node5&#45;&gt;Node34 -->
<g id="edge62" class="edge">
<title>Node5&#45;&gt;Node34</title>
<path fill="none" stroke="#191970" d="M1411.4911,-369.2455C1403.3808,-361.1352 1391.6531,-349.4075 1382.0375,-339.7919"/>
<polygon fill="#191970" stroke="#191970" points="1384.4342,-337.2389 1374.8882,-332.6427 1379.4844,-342.1887 1384.4342,-337.2389"/>
</g>
<!-- Node7 -->
<g id="node8" class="node">
<title>Node7</title>
<polygon fill="none" stroke="#bfbfbf" points="1122.7455,-.5 1122.7455,-30.5 1239.7455,-30.5 1239.7455,-.5 1122.7455,-.5"/>
<text text-anchor="start" x="1130.7455" y="-18.5" font-family="Arial" font-size="10.00" fill="#000000">deal.II/base/parameter</text>
<text text-anchor="middle" x="1181.2455" y="-7.5" font-family="Arial" font-size="10.00" fill="#000000">_handler.h</text>
</g>
<!-- Node6&#45;&gt;Node7 -->
<g id="edge7" class="edge">
<title>Node6&#45;&gt;Node7</title>
<path fill="none" stroke="#191970" d="M1445.3112,-201.4176C1489.368,-178.0862 1591.2176,-116.6038 1547.2455,-67 1504.8989,-19.2298 1330.8568,-40.3886 1250.0701,-30.7415"/>
<polygon fill="#191970" stroke="#191970" points="1250.172,-27.2197 1239.773,-29.2468 1249.1664,-34.1471 1250.172,-27.2197"/>
</g>
<!-- Node6&#45;&gt;Node8 -->
<g id="edge8" class="edge">
<title>Node6&#45;&gt;Node8</title>
<path fill="none" stroke="#191970" d="M1381.9869,-204.5347C1306.7232,-193.5401 1153.6132,-171.1737 1067.5572,-158.6025"/>
<polygon fill="#191970" stroke="#191970" points="1067.8056,-155.1018 1057.4047,-157.1194 1066.7937,-162.0282 1067.8056,-155.1018"/>
</g>
<!-- Node8&#45;&gt;Node2 -->
<g id="edge16" class="edge">
<title>Node8&#45;&gt;Node2</title>
<path fill="none" stroke="#191970" d="M953.0407,-145.1687C859.5355,-137.0209 667.2737,-118.3878 603.2455,-98 576.9145,-89.6157 510.1392,-51.7294 473.4109,-30.3328"/>
<polygon fill="#191970" stroke="#191970" points="474.7338,-27.0519 464.3348,-25.0245 471.1998,-33.0943 474.7338,-27.0519"/>
</g>
<!-- Node8&#45;&gt;Node3 -->
<g id="edge21" class="edge">
<title>Node8&#45;&gt;Node3</title>
<path fill="none" stroke="#191970" d="M1057.3616,-149.134C1212.1939,-147.5794 1667.4586,-139.5054 1809.2455,-98 1810.6786,-97.5805 1812.1194,-97.0782 1813.5505,-96.5152"/>
<polygon fill="#191970" stroke="#191970" points="1815.1596,-99.6254 1822.6691,-92.1516 1812.1379,-93.3112 1815.1596,-99.6254"/>
</g>
<!-- Node8&#45;&gt;Node4 -->
<g id="edge22" class="edge">
<title>Node8&#45;&gt;Node4</title>
<path fill="none" stroke="#191970" d="M1057.3269,-148.4495C1186.7013,-145.3033 1514.6522,-133.8372 1547.2455,-98 1556.5157,-87.8073 1556.22,-77.454 1547.2455,-67 1512.8325,-26.9138 1362.6932,-46.6904 1312.2455,-31 1310.3888,-30.4225 1308.5045,-29.7525 1306.6275,-29.0214"/>
<polygon fill="#191970" stroke="#191970" points="1308.029,-25.8143 1297.4653,-25.0032 1305.2175,-32.2249 1308.029,-25.8143"/>
</g>
<!-- Node8&#45;&gt;Node7 -->
<g id="edge12" class="edge">
<title>Node8&#45;&gt;Node7</title>
<path fill="none" stroke="#191970" d="M1057.2613,-146.408C1123.5395,-141.2571 1232.5021,-128.3115 1257.2455,-98 1275.3583,-75.8112 1247.5708,-51.8862 1220.6472,-35.5445"/>
<polygon fill="#191970" stroke="#191970" points="1222.4001,-32.5151 1211.9954,-30.517 1218.8831,-38.5675 1222.4001,-32.5151"/>
</g>
<!-- Node9 -->
<g id="node10" class="node">
<title>Node9</title>
<polygon fill="none" stroke="#bfbfbf" points="1304.7455,-67.5 1304.7455,-97.5 1421.7455,-97.5 1421.7455,-67.5 1304.7455,-67.5"/>
<text text-anchor="start" x="1312.7455" y="-85.5" font-family="Arial" font-size="10.00" fill="#000000">deal.II/numerics/vector</text>
<text text-anchor="middle" x="1363.2455" y="-74.5" font-family="Arial" font-size="10.00" fill="#000000">_tools.h</text>
</g>
<!-- Node8&#45;&gt;Node9 -->
<g id="edge9" class="edge">
<title>Node8&#45;&gt;Node9</title>
<path fill="none" stroke="#191970" d="M1057.3409,-140.5767C1114.5505,-130.6631 1209.0857,-113.9453 1290.2455,-98 1291.7155,-97.7112 1293.2016,-97.4169 1294.6993,-97.1181"/>
<polygon fill="#191970" stroke="#191970" points="1295.5994,-100.507 1304.7067,-95.0933 1294.2112,-93.646 1295.5994,-100.507"/>
</g>
<!-- Node10 -->
<g id="node11" class="node">
<title>Node10</title>
<polygon fill="none" stroke="#bfbfbf" points="1440.2455,-73 1440.2455,-92 1538.2455,-92 1538.2455,-73 1440.2455,-73"/>
<text text-anchor="middle" x="1489.2455" y="-80" font-family="Arial" font-size="10.00" fill="#000000">deal.II/fe/fe_poly.h</text>
</g>
<!-- Node8&#45;&gt;Node10 -->
<g id="edge10" class="edge">
<title>Node8&#45;&gt;Node10</title>
<path fill="none" stroke="#191970" d="M1057.4173,-145.5756C1138.0935,-138.9724 1297.7541,-123.7732 1431.2455,-98 1436.3593,-97.0127 1441.6864,-95.8203 1446.9489,-94.5404"/>
<polygon fill="#191970" stroke="#191970" points="1448.089,-97.8619 1456.916,-92.0024 1446.3616,-91.0784 1448.089,-97.8619"/>
</g>
<!-- Node11 -->
<g id="node12" class="node">
<title>Node11</title>
<polygon fill="none" stroke="#bfbfbf" points="30.7455,-73 30.7455,-92 139.7455,-92 139.7455,-73 30.7455,-73"/>
<text text-anchor="middle" x="85.2455" y="-80" font-family="Arial" font-size="10.00" fill="#000000">deal.II/fe/fe_values.h</text>
</g>
<!-- Node8&#45;&gt;Node11 -->
<g id="edge11" class="edge">
<title>Node8&#45;&gt;Node11</title>
<path fill="none" stroke="#191970" d="M952.9838,-147.6029C791.9553,-141.5615 304.8212,-121.7651 148.2455,-98 141.9606,-97.0461 135.3848,-95.7594 128.952,-94.3331"/>
<polygon fill="#191970" stroke="#191970" points="129.5582,-90.8804 119.0232,-92.0045 127.9598,-97.6954 129.5582,-90.8804"/>
</g>
<!-- Node12 -->
<g id="node13" class="node">
<title>Node12</title>
<polygon fill="none" stroke="#bfbfbf" points="157.7455,-67.5 157.7455,-97.5 252.7455,-97.5 252.7455,-67.5 157.7455,-67.5"/>
<text text-anchor="start" x="165.7455" y="-85.5" font-family="Arial" font-size="10.00" fill="#000000">deal.II/base/index</text>
<text text-anchor="middle" x="205.2455" y="-74.5" font-family="Arial" font-size="10.00" fill="#000000">_set.h</text>
</g>
<!-- Node8&#45;&gt;Node12 -->
<g id="edge13" class="edge">
<title>Node8&#45;&gt;Node12</title>
<path fill="none" stroke="#191970" d="M953.231,-147.262C810.3718,-140.9034 413.1547,-121.7475 262.7293,-97.9945"/>
<polygon fill="#191970" stroke="#191970" points="263.1935,-94.5239 252.7573,-96.35 262.0545,-101.4306 263.1935,-94.5239"/>
</g>
<!-- Node13 -->
<g id="node14" class="node">
<title>Node13</title>
<polygon fill="none" stroke="#bfbfbf" points="270.7455,-67.5 270.7455,-97.5 389.7455,-97.5 389.7455,-67.5 270.7455,-67.5"/>
<text text-anchor="start" x="278.7455" y="-85.5" font-family="Arial" font-size="10.00" fill="#000000">deal.II/base/conditional</text>
<text text-anchor="middle" x="330.2455" y="-74.5" font-family="Arial" font-size="10.00" fill="#000000">_ostream.h</text>
</g>
<!-- Node8&#45;&gt;Node13 -->
<g id="edge14" class="edge">
<title>Node8&#45;&gt;Node13</title>
<path fill="none" stroke="#191970" d="M953.0825,-147.4619C849.4785,-142.8956 610.3651,-129.7725 399.9855,-97.9721"/>
<polygon fill="#191970" stroke="#191970" points="400.404,-94.4955 389.9898,-96.4437 399.3458,-101.4151 400.404,-94.4955"/>
</g>
<!-- Node14 -->
<g id="node15" class="node">
<title>Node14</title>
<polygon fill="none" stroke="#bfbfbf" points="408.2455,-73 408.2455,-92 458.2455,-92 458.2455,-73 408.2455,-73"/>
<text text-anchor="middle" x="433.2455" y="-80" font-family="Arial" font-size="10.00" fill="#000000">fstream</text>
</g>
<!-- Node8&#45;&gt;Node14 -->
<g id="edge15" class="edge">
<title>Node8&#45;&gt;Node14</title>
<path fill="none" stroke="#191970" d="M953.1623,-146.7179C836.6568,-140.1381 558.1099,-122.3261 467.2455,-98 465.0562,-97.4139 462.8311,-96.699 460.6209,-95.9015"/>
<polygon fill="#191970" stroke="#191970" points="461.7625,-92.5866 451.1828,-92.0188 459.0993,-99.0602 461.7625,-92.5866"/>
</g>
<!-- Node15 -->
<g id="node16" class="node">
<title>Node15</title>
<polygon fill="none" stroke="#bfbfbf" points="476.2455,-73 476.2455,-92 528.2455,-92 528.2455,-73 476.2455,-73"/>
<text text-anchor="middle" x="502.2455" y="-80" font-family="Arial" font-size="10.00" fill="#000000">sstream</text>
</g>
<!-- Node8&#45;&gt;Node15 -->
<g id="edge17" class="edge">
<title>Node8&#45;&gt;Node15</title>
<path fill="none" stroke="#191970" d="M953.0979,-148.0824C866.5653,-144.7601 688.3581,-133.7918 542.2455,-98 539.3973,-97.3023 536.4789,-96.4525 533.5793,-95.514"/>
<polygon fill="#191970" stroke="#191970" points="534.5177,-92.1328 523.923,-92.073 532.1679,-98.7267 534.5177,-92.1328"/>
</g>
<!-- Node16 -->
<g id="node17" class="node">
<title>Node16</title>
<polygon fill="none" stroke="#bfbfbf" points="778.7455,-6 778.7455,-25 819.7455,-25 819.7455,-6 778.7455,-6"/>
<text text-anchor="middle" x="799.2455" y="-13" font-family="Arial" font-size="10.00" fill="#000000">string</text>
</g>
<!-- Node8&#45;&gt;Node16 -->
<g id="edge18" class="edge">
<title>Node8&#45;&gt;Node16</title>
<path fill="none" stroke="#191970" d="M953.2305,-146.4312C851.76,-139.912 635.3404,-123.1875 613.2455,-98 604.1598,-87.6425 604.6682,-77.7822 613.2455,-67 657.5435,-11.3152 702.4491,-55.5224 769.2455,-31 770.4838,-30.5454 771.7361,-30.051 772.9905,-29.5273"/>
<polygon fill="#191970" stroke="#191970" points="774.8655,-32.5146 782.4463,-25.1132 771.9045,-26.1717 774.8655,-32.5146"/>
</g>
<!-- Node17 -->
<g id="node18" class="node">
<title>Node17</title>
<polygon fill="none" stroke="#bfbfbf" points="1068.2455,-6 1068.2455,-25 1104.2455,-25 1104.2455,-6 1068.2455,-6"/>
<text text-anchor="middle" x="1086.2455" y="-13" font-family="Arial" font-size="10.00" fill="#000000">map</text>
</g>
<!-- Node8&#45;&gt;Node17 -->
<g id="edge19" class="edge">
<title>Node8&#45;&gt;Node17</title>
<path fill="none" stroke="#191970" d="M1029.6606,-134.4209C1042.3779,-125.3598 1057.1349,-112.7358 1066.2455,-98 1078.1908,-78.6793 1083.0021,-52.7184 1084.9396,-35.1164"/>
<polygon fill="#191970" stroke="#191970" points="1088.4271,-35.4117 1085.8285,-25.1405 1081.4547,-34.7904 1088.4271,-35.4117"/>
</g>
<!-- Node18 -->
<g id="node19" class="node">
<title>Node18</title>
<polygon fill="none" stroke="#bfbfbf" points="962.7455,-6 962.7455,-25 1049.7455,-25 1049.7455,-6 962.7455,-6"/>
<text text-anchor="middle" x="1006.2455" y="-13" font-family="Arial" font-size="10.00" fill="#000000">unordered_map</text>
</g>
<!-- Node8&#45;&gt;Node18 -->
<g id="edge20" class="edge">
<title>Node8&#45;&gt;Node18</title>
<path fill="none" stroke="#191970" d="M977.7067,-134.4269C964.6837,-125.6707 950.4393,-113.3272 943.2455,-98 937.3917,-85.5276 937.3428,-79.4493 943.2455,-67 950.5726,-51.5467 965.0588,-39.1919 978.2943,-30.461"/>
<polygon fill="#191970" stroke="#191970" points="980.4765,-33.2275 987.1542,-25.0019 976.8045,-27.2679 980.4765,-33.2275"/>
</g>
<!-- Node19 -->
<g id="node20" class="node">
<title>Node19</title>
<g id="a_node20"><a xlink:href="problem__definition_8h.html" target="_top" xlink:title="../common/problem_definition.h">
<polygon fill="none" stroke="#000000" points="740.2455,-73 740.2455,-92 896.2455,-92 896.2455,-73 740.2455,-73"/>
<text text-anchor="middle" x="818.2455" y="-80" font-family="Arial" font-size="10.00" fill="#000000">../common/problem_definition.h</text>
</a>
</g>
</g>
<!-- Node8&#45;&gt;Node19 -->
<g id="edge23" class="edge">
<title>Node8&#45;&gt;Node19</title>
<path fill="none" stroke="#191970" d="M963.2791,-134.4639C930.5337,-122.7316 885.5247,-106.6054 854.3704,-95.4431"/>
<polygon fill="#191970" stroke="#191970" points="855.3698,-92.0834 844.7752,-92.0053 853.0087,-98.6732 855.3698,-92.0834"/>
</g>
<!-- Node23 -->
<g id="node24" class="node">
<title>Node23</title>
<g id="a_node24"><a xlink:href="preconditioner__solver_8h.html" target="_top" xlink:title="../common/preconditioner\l_solver.h">
<polygon fill="none" stroke="#000000" points="1670.7455,-67.5 1670.7455,-97.5 1799.7455,-97.5 1799.7455,-67.5 1670.7455,-67.5"/>
<text text-anchor="start" x="1678.7455" y="-85.5" font-family="Arial" font-size="10.00" fill="#000000">../common/preconditioner</text>
<text text-anchor="middle" x="1735.2455" y="-74.5" font-family="Arial" font-size="10.00" fill="#000000">_solver.h</text>
</a>
</g>
</g>
<!-- Node8&#45;&gt;Node23 -->
<g id="edge33" class="edge">
<title>Node8&#45;&gt;Node23</title>
<path fill="none" stroke="#191970" d="M1057.3987,-145.965C1163.2675,-138.6023 1410.931,-120.4279 1618.2455,-98 1631.9332,-96.5192 1646.4957,-94.748 1660.5309,-92.9408"/>
<polygon fill="#191970" stroke="#191970" points="1661.1744,-96.3866 1670.6375,-91.6221 1660.2687,-89.4454 1661.1744,-96.3866"/>
</g>
<!-- Node29 -->
<g id="node30" class="node">
<title>Node29</title>
<g id="a_node30"><a xlink:href="mesh__generator_8h.html" target="_top" xlink:title="../mesh/mesh_generator.h">
<polygon fill="none" stroke="#000000" points="1114.7455,-73 1114.7455,-92 1247.7455,-92 1247.7455,-73 1114.7455,-73"/>
<text text-anchor="middle" x="1181.2455" y="-80" font-family="Arial" font-size="10.00" fill="#000000">../mesh/mesh_generator.h</text>
</a>
</g>
</g>
<!-- Node8&#45;&gt;Node29 -->
<g id="edge42" class="edge">
<title>Node8&#45;&gt;Node29</title>
<path fill="none" stroke="#191970" d="M1044.7434,-134.4639C1075.4291,-122.7824 1117.5574,-106.7449 1146.8642,-95.5884"/>
<polygon fill="#191970" stroke="#191970" points="1148.1759,-98.8341 1156.2764,-92.0053 1145.6855,-92.2921 1148.1759,-98.8341"/>
</g>
<!-- Node31 -->
<g id="node32" class="node">
<title>Node31</title>
<g id="a_node32"><a xlink:href="material__properties_8h.html" target="_top" xlink:title="../material/material\l_properties.h">
<polygon fill="none" stroke="#000000" points="622.7455,-67.5 622.7455,-97.5 721.7455,-97.5 721.7455,-67.5 622.7455,-67.5"/>
<text text-anchor="start" x="630.7455" y="-85.5" font-family="Arial" font-size="10.00" fill="#000000">../material/material</text>
<text text-anchor="middle" x="672.2455" y="-74.5" font-family="Arial" font-size="10.00" fill="#000000">_properties.h</text>
</a>
</g>
</g>
<!-- Node8&#45;&gt;Node31 -->
<g id="edge48" class="edge">
<title>Node8&#45;&gt;Node31</title>
<path fill="none" stroke="#191970" d="M953.0014,-140.819C899.8063,-131.7246 814.7647,-116.4845 731.6222,-97.9921"/>
<polygon fill="#191970" stroke="#191970" points="732.2809,-94.553 721.7574,-95.7804 730.7495,-101.3834 732.2809,-94.553"/>
</g>
<!-- Node33 -->
<g id="node34" class="node">
<title>Node33</title>
<g id="a_node34"><a xlink:href="aq__base_8h.html" target="_top" xlink:title="../aqdata/aq_base.h">
<polygon fill="none" stroke="#000000" points="952.7455,-73 952.7455,-92 1057.7455,-92 1057.7455,-73 952.7455,-73"/>
<text text-anchor="middle" x="1005.2455" y="-80" font-family="Arial" font-size="10.00" fill="#000000">../aqdata/aq_base.h</text>
</a>
</g>
</g>
<!-- Node8&#45;&gt;Node33 -->
<g id="edge55" class="edge">
<title>Node8&#45;&gt;Node33</title>
<path fill="none" stroke="#191970" d="M1005.2455,-134.2967C1005.2455,-124.7699 1005.2455,-112.3954 1005.2455,-102.1306"/>
<polygon fill="#191970" stroke="#191970" points="1008.7456,-102.0549 1005.2455,-92.055 1001.7456,-102.055 1008.7456,-102.0549"/>
</g>
<!-- Node19&#45;&gt;Node2 -->
<g id="edge27" class="edge">
<title>Node19&#45;&gt;Node2</title>
<path fill="none" stroke="#191970" d="M765.7052,-72.9885C754.0412,-70.9487 741.732,-68.8517 730.2455,-67 621.156,-49.4143 590.5633,-61.1051 484.2455,-31 482.0645,-30.3824 479.8415,-29.6631 477.6243,-28.879"/>
<polygon fill="#191970" stroke="#191970" points="478.6778,-25.5327 468.0902,-25.141 476.1227,-32.0497 478.6778,-25.5327"/>
</g>
<!-- Node19&#45;&gt;Node4 -->
<g id="edge31" class="edge">
<title>Node19&#45;&gt;Node4</title>
<path fill="none" stroke="#191970" d="M894.2544,-72.9977C910.4235,-70.9979 927.3975,-68.9148 943.2455,-67 1079.1948,-50.5743 1118.0404,-70.2073 1249.2455,-31 1250.9103,-30.5025 1252.5938,-29.9201 1254.2708,-29.2782"/>
<polygon fill="#191970" stroke="#191970" points="1255.9042,-32.3826 1263.6266,-25.1289 1253.0663,-25.9837 1255.9042,-32.3826"/>
</g>
<!-- Node19&#45;&gt;Node7 -->
<g id="edge24" class="edge">
<title>Node19&#45;&gt;Node7</title>
<path fill="none" stroke="#191970" d="M878.0225,-72.9876C935.5793,-63.6194 1025.3047,-48.4687 1112.847,-31.0213"/>
<polygon fill="#191970" stroke="#191970" points="1113.5644,-34.4473 1122.6812,-29.0497 1112.1882,-27.5838 1113.5644,-34.4473"/>
</g>
<!-- Node19&#45;&gt;Node16 -->
<g id="edge28" class="edge">
<title>Node19&#45;&gt;Node16</title>
<path fill="none" stroke="#191970" d="M815.5233,-72.9005C812.7297,-63.0495 808.3046,-47.4451 804.7729,-34.9912"/>
<polygon fill="#191970" stroke="#191970" points="808.0583,-33.7474 801.9627,-25.0817 801.3238,-35.6572 808.0583,-33.7474"/>
</g>
<!-- Node19&#45;&gt;Node17 -->
<g id="edge29" class="edge">
<title>Node19&#45;&gt;Node17</title>
<path fill="none" stroke="#191970" d="M888.5824,-72.9988C937.2619,-65.0832 1002.9755,-51.7079 1058.2455,-31 1059.4455,-30.5504 1060.6565,-30.056 1061.8668,-29.5286"/>
<polygon fill="#191970" stroke="#191970" points="1063.5316,-32.6098 1070.9366,-25.0325 1060.4225,-26.3381 1063.5316,-32.6098"/>
</g>
<!-- Node19&#45;&gt;Node18 -->
<g id="edge30" class="edge">
<title>Node19&#45;&gt;Node18</title>
<path fill="none" stroke="#191970" d="M845.1814,-72.9005C877.8488,-61.2584 933.0644,-41.5805 969.5881,-28.5641"/>
<polygon fill="#191970" stroke="#191970" points="971.115,-31.7356 979.3597,-25.0817 968.765,-25.1418 971.115,-31.7356"/>
</g>
<!-- Node20 -->
<g id="node21" class="node">
<title>Node20</title>
<polygon fill="none" stroke="#bfbfbf" points="837.7455,-6 837.7455,-25 944.7455,-25 944.7455,-6 837.7455,-6"/>
<text text-anchor="middle" x="891.2455" y="-13" font-family="Arial" font-size="10.00" fill="#000000">deal.II/base/tensor.h</text>
</g>
<!-- Node19&#45;&gt;Node20 -->
<g id="edge25" class="edge">
<title>Node19&#45;&gt;Node20</title>
<path fill="none" stroke="#191970" d="M828.7047,-72.9005C840.3052,-62.2535 859.2284,-44.8856 873.226,-32.0385"/>
<polygon fill="#191970" stroke="#191970" points="875.8051,-34.4221 880.8058,-25.0817 871.0718,-29.2649 875.8051,-34.4221"/>
</g>
<!-- Node21 -->
<g id="node22" class="node">
<title>Node21</title>
<polygon fill="none" stroke="#bfbfbf" points="592.7455,-.5 592.7455,-30.5 711.7455,-30.5 711.7455,-.5 592.7455,-.5"/>
<text text-anchor="start" x="600.7455" y="-18.5" font-family="Arial" font-size="10.00" fill="#000000">deal.II/base/quadrature</text>
<text text-anchor="middle" x="652.2455" y="-7.5" font-family="Arial" font-size="10.00" fill="#000000">_lib.h</text>
</g>
<!-- Node19&#45;&gt;Node21 -->
<g id="edge26" class="edge">
<title>Node19&#45;&gt;Node21</title>
<path fill="none" stroke="#191970" d="M794.4618,-72.9005C769.6009,-62.8663 729.9502,-46.8627 698.824,-34.2997"/>
<polygon fill="#191970" stroke="#191970" points="700.0468,-31.019 689.4636,-30.5218 697.4268,-37.5102 700.0468,-31.019"/>
</g>
<!-- Node22 -->
<g id="node23" class="node">
<title>Node22</title>
<polygon fill="none" stroke="#bfbfbf" points="730.2455,-6 730.2455,-25 760.2455,-25 760.2455,-6 730.2455,-6"/>
<text text-anchor="middle" x="745.2455" y="-13" font-family="Arial" font-size="10.00" fill="#000000">set</text>
</g>
<!-- Node19&#45;&gt;Node22 -->
<g id="edge32" class="edge">
<title>Node19&#45;&gt;Node22</title>
<path fill="none" stroke="#191970" d="M807.7864,-72.9005C796.1859,-62.2535 777.2626,-44.8856 763.2651,-32.0385"/>
<polygon fill="#191970" stroke="#191970" points="765.4193,-29.2649 755.6853,-25.0817 760.686,-34.4221 765.4193,-29.2649"/>
</g>
<!-- Node23&#45;&gt;Node4 -->
<g id="edge40" class="edge">
<title>Node23&#45;&gt;Node4</title>
<path fill="none" stroke="#191970" d="M1670.658,-69.3392C1665.7896,-68.497 1660.945,-67.7055 1656.2455,-67 1504.2251,-44.1788 1460.0812,-73.1382 1312.2455,-31 1310.331,-30.4543 1308.391,-29.8001 1306.4623,-29.0734"/>
<polygon fill="#191970" stroke="#191970" points="1307.6505,-25.7737 1297.0838,-25.0024 1304.8632,-32.1948 1307.6505,-25.7737"/>
</g>
<!-- Node23&#45;&gt;Node7 -->
<g id="edge39" class="edge">
<title>Node23&#45;&gt;Node7</title>
<path fill="none" stroke="#191970" d="M1670.5607,-75.851C1552.2585,-63.6643 1308.4668,-38.419 1249.925,-30.7576"/>
<polygon fill="#191970" stroke="#191970" points="1250.1589,-27.2555 1239.7636,-29.3018 1249.1661,-34.1847 1250.1589,-27.2555"/>
</g>
<!-- Node23&#45;&gt;Node16 -->
<g id="edge41" class="edge">
<title>Node23&#45;&gt;Node16</title>
<path fill="none" stroke="#191970" d="M1670.4634,-76.6408C1634.2394,-73.4948 1588.2565,-69.7166 1547.2455,-67 1387.6174,-56.4261 982.4088,-73.7389 828.2455,-31 826.5814,-30.5387 824.9056,-29.9699 823.2442,-29.3256"/>
<polygon fill="#191970" stroke="#191970" points="824.6073,-26.0992 814.0665,-25.0306 821.6402,-32.4393 824.6073,-26.0992"/>
</g>
<!-- Node24 -->
<g id="node25" class="node">
<title>Node24</title>
<polygon fill="none" stroke="#bfbfbf" points="2033.7455,-.5 2033.7455,-30.5 2128.7455,-30.5 2128.7455,-.5 2033.7455,-.5"/>
<text text-anchor="start" x="2041.7455" y="-18.5" font-family="Arial" font-size="10.00" fill="#000000">deal.II/lac/generic</text>
<text text-anchor="middle" x="2081.2455" y="-7.5" font-family="Arial" font-size="10.00" fill="#000000">_linear_algebra.h</text>
</g>
<!-- Node23&#45;&gt;Node24 -->
<g id="edge34" class="edge">
<title>Node23&#45;&gt;Node24</title>
<path fill="none" stroke="#191970" d="M1799.7881,-68.8171C1802.9836,-68.1911 1806.1495,-67.582 1809.2455,-67 1901.7186,-49.6169 1928.4571,-51.8344 2023.6196,-31.2378"/>
<polygon fill="#191970" stroke="#191970" points="2024.6537,-34.5943 2033.6717,-29.0333 2023.1541,-27.7568 2024.6537,-34.5943"/>
</g>
<!-- Node25 -->
<g id="node26" class="node">
<title>Node25</title>
<polygon fill="none" stroke="#bfbfbf" points="1432.2455,-.5 1432.2455,-30.5 1556.2455,-30.5 1556.2455,-.5 1432.2455,-.5"/>
<text text-anchor="start" x="1440.2455" y="-18.5" font-family="Arial" font-size="10.00" fill="#000000">deal.II/lac/petsc_parallel</text>
<text text-anchor="middle" x="1494.2455" y="-7.5" font-family="Arial" font-size="10.00" fill="#000000">_sparse_matrix.h</text>
</g>
<!-- Node23&#45;&gt;Node25 -->
<g id="edge35" class="edge">
<title>Node23&#45;&gt;Node25</title>
<path fill="none" stroke="#191970" d="M1681.1604,-67.4639C1644.8529,-57.3701 1596.8468,-44.024 1558.5774,-33.3848"/>
<polygon fill="#191970" stroke="#191970" points="1559.1386,-29.9081 1548.5665,-30.6017 1557.2636,-36.6524 1559.1386,-29.9081"/>
</g>
<!-- Node26 -->
<g id="node27" class="node">
<title>Node26</title>
<polygon fill="none" stroke="#bfbfbf" points="1574.2455,-.5 1574.2455,-30.5 1698.2455,-30.5 1698.2455,-.5 1574.2455,-.5"/>
<text text-anchor="start" x="1582.2455" y="-18.5" font-family="Arial" font-size="10.00" fill="#000000">deal.II/lac/petsc_parallel</text>
<text text-anchor="middle" x="1636.2455" y="-7.5" font-family="Arial" font-size="10.00" fill="#000000">_vector.h</text>
</g>
<!-- Node23&#45;&gt;Node26 -->
<g id="edge36" class="edge">
<title>Node23&#45;&gt;Node26</title>
<path fill="none" stroke="#191970" d="M1712.7809,-67.2967C1699.2371,-58.1306 1681.798,-46.3285 1666.9881,-36.3055"/>
<polygon fill="#191970" stroke="#191970" points="1668.8647,-33.3494 1658.6213,-30.6432 1664.9413,-39.1466 1668.8647,-33.3494"/>
</g>
<!-- Node27 -->
<g id="node28" class="node">
<title>Node27</title>
<polygon fill="none" stroke="#bfbfbf" points="1716.2455,-6 1716.2455,-25 1870.2455,-25 1870.2455,-6 1716.2455,-6"/>
<text text-anchor="middle" x="1793.2455" y="-13" font-family="Arial" font-size="10.00" fill="#000000">deal.II/lac/petsc_precondition.h</text>
</g>
<!-- Node23&#45;&gt;Node27 -->
<g id="edge37" class="edge">
<title>Node23&#45;&gt;Node27</title>
<path fill="none" stroke="#191970" d="M1748.4066,-67.2967C1757.2678,-57.0605 1768.9751,-43.5366 1778.2048,-32.8746"/>
<polygon fill="#191970" stroke="#191970" points="1781.0753,-34.9064 1784.9741,-25.055 1775.7828,-30.3248 1781.0753,-34.9064"/>
</g>
<!-- Node28 -->
<g id="node29" class="node">
<title>Node28</title>
<polygon fill="none" stroke="#bfbfbf" points="1888.7455,-6 1888.7455,-25 2015.7455,-25 2015.7455,-6 1888.7455,-6"/>
<text text-anchor="middle" x="1952.2455" y="-13" font-family="Arial" font-size="10.00" fill="#000000">deal.II/lac/petsc_solver.h</text>
</g>
<!-- Node23&#45;&gt;Node28 -->
<g id="edge38" class="edge">
<title>Node23&#45;&gt;Node28</title>
<path fill="none" stroke="#191970" d="M1783.9446,-67.4639C1822.4367,-55.5792 1875.5319,-39.1858 1911.7256,-28.0108"/>
<polygon fill="#191970" stroke="#191970" points="1912.9374,-31.2997 1921.4598,-25.0053 1910.8723,-24.6113 1912.9374,-31.2997"/>
</g>
<!-- Node29&#45;&gt;Node4 -->
<g id="edge47" class="edge">
<title>Node29&#45;&gt;Node4</title>
<path fill="none" stroke="#191970" d="M1195.4298,-72.9005C1211.6767,-61.9052 1238.5146,-43.7422 1257.6489,-30.7927"/>
<polygon fill="#191970" stroke="#191970" points="1259.7675,-33.5851 1266.0876,-25.0817 1255.8442,-27.7879 1259.7675,-33.5851"/>
</g>
<!-- Node29&#45;&gt;Node7 -->
<g id="edge44" class="edge">
<title>Node29&#45;&gt;Node7</title>
<path fill="none" stroke="#191970" d="M1181.2455,-72.9005C1181.2455,-64.5099 1181.2455,-51.9451 1181.2455,-40.7085"/>
<polygon fill="#191970" stroke="#191970" points="1184.7456,-40.5217 1181.2455,-30.5218 1177.7456,-40.5218 1184.7456,-40.5217"/>
</g>
<!-- Node29&#45;&gt;Node17 -->
<g id="edge46" class="edge">
<title>Node29&#45;&gt;Node17</title>
<path fill="none" stroke="#191970" d="M1167.6344,-72.9005C1152.1145,-61.9549 1126.5232,-43.9064 1108.1789,-30.9688"/>
<polygon fill="#191970" stroke="#191970" points="1110.0208,-27.9849 1099.8315,-25.0817 1105.9863,-33.7054 1110.0208,-27.9849"/>
</g>
<!-- Node29&#45;&gt;Node18 -->
<g id="edge45" class="edge">
<title>Node29&#45;&gt;Node18</title>
<path fill="none" stroke="#191970" d="M1156.1723,-72.9005C1125.8937,-61.3082 1074.8052,-41.7486 1040.805,-28.7313"/>
<polygon fill="#191970" stroke="#191970" points="1041.8627,-25.3886 1031.2723,-25.0817 1039.3598,-31.9258 1041.8627,-25.3886"/>
</g>
<!-- Node30 -->
<g id="node31" class="node">
<title>Node30</title>
<polygon fill="none" stroke="#bfbfbf" points="1320.7455,-.5 1320.7455,-30.5 1413.7455,-30.5 1413.7455,-.5 1320.7455,-.5"/>
<text text-anchor="start" x="1328.7455" y="-18.5" font-family="Arial" font-size="10.00" fill="#000000">deal.II/distributed</text>
<text text-anchor="middle" x="1367.2455" y="-7.5" font-family="Arial" font-size="10.00" fill="#000000">/tria.h</text>
</g>
<!-- Node29&#45;&gt;Node30 -->
<g id="edge43" class="edge">
<title>Node29&#45;&gt;Node30</title>
<path fill="none" stroke="#191970" d="M1207.8948,-72.9005C1235.9911,-62.7798 1280.9461,-46.5864 1315.955,-33.9756"/>
<polygon fill="#191970" stroke="#191970" points="1317.3213,-37.2037 1325.5433,-30.5218 1314.9489,-30.6179 1317.3213,-37.2037"/>
</g>
<!-- Node31&#45;&gt;Node2 -->
<g id="edge50" class="edge">
<title>Node31&#45;&gt;Node2</title>
<path fill="none" stroke="#191970" d="M622.5851,-70.9027C584.3452,-61.4922 530.3961,-47.1681 484.2455,-31 482.3671,-30.3419 480.4479,-29.6319 478.5219,-28.8903"/>
<polygon fill="#191970" stroke="#191970" points="479.5726,-25.5393 468.9908,-25.0148 476.9359,-32.0238 479.5726,-25.5393"/>
</g>
<!-- Node31&#45;&gt;Node4 -->
<g id="edge53" class="edge">
<title>Node31&#45;&gt;Node4</title>
<path fill="none" stroke="#191970" d="M721.9973,-68.7283C725.114,-68.0836 728.215,-67.4988 731.2455,-67 958.9586,-29.5162 1026.6158,-91.7806 1249.2455,-31 1250.9616,-30.5315 1252.6947,-29.9645 1254.418,-29.328"/>
<polygon fill="#191970" stroke="#191970" points="1256.2446,-32.3486 1263.9946,-25.1245 1253.4311,-25.9389 1256.2446,-32.3486"/>
</g>
<!-- Node31&#45;&gt;Node7 -->
<g id="edge49" class="edge">
<title>Node31&#45;&gt;Node7</title>
<path fill="none" stroke="#191970" d="M722.0123,-68.8161C725.1253,-68.1496 728.2214,-67.5361 731.2455,-67 895.9605,-37.8031 943.0824,-57.2338 1112.7153,-30.9298"/>
<polygon fill="#191970" stroke="#191970" points="1113.404,-34.3645 1122.7346,-29.3455 1112.3107,-27.4504 1113.404,-34.3645"/>
</g>
<!-- Node31&#45;&gt;Node16 -->
<g id="edge51" class="edge">
<title>Node31&#45;&gt;Node16</title>
<path fill="none" stroke="#191970" d="M700.7468,-67.4639C722.0558,-56.2222 751.0116,-40.9463 772.0095,-29.8686"/>
<polygon fill="#191970" stroke="#191970" points="773.8296,-32.8657 781.0411,-25.1039 770.5633,-26.6744 773.8296,-32.8657"/>
</g>
<!-- Node31&#45;&gt;Node18 -->
<g id="edge52" class="edge">
<title>Node31&#45;&gt;Node18</title>
<path fill="none" stroke="#191970" d="M722.0585,-69.0536C725.16,-68.3281 728.241,-67.6367 731.2455,-67 829.0294,-46.2772 855.7571,-53.0708 953.2455,-31 957.4531,-30.0474 961.8191,-28.9508 966.1578,-27.7902"/>
<polygon fill="#191970" stroke="#191970" points="967.4532,-31.0626 976.1446,-25.0038 965.5719,-24.3201 967.4532,-31.0626"/>
</g>
<!-- Node32 -->
<g id="node33" class="node">
<title>Node32</title>
<polygon fill="none" stroke="#bfbfbf" points="493.7455,-6 493.7455,-25 574.7455,-25 574.7455,-6 493.7455,-6"/>
<text text-anchor="middle" x="534.2455" y="-13" font-family="Arial" font-size="10.00" fill="#000000">unordered_set</text>
</g>
<!-- Node31&#45;&gt;Node32 -->
<g id="edge54" class="edge">
<title>Node31&#45;&gt;Node32</title>
<path fill="none" stroke="#191970" d="M641.2756,-67.4639C617.9124,-56.1209 586.0897,-40.6707 563.2261,-29.5703"/>
<polygon fill="#191970" stroke="#191970" points="564.5512,-26.323 554.0267,-25.1039 561.4939,-32.62 564.5512,-26.323"/>
</g>
<!-- Node33&#45;&gt;Node4 -->
<g id="edge58" class="edge">
<title>Node33&#45;&gt;Node4</title>
<path fill="none" stroke="#191970" d="M1057.8586,-73.0254C1118.5855,-61.8036 1214.5522,-43.1098 1249.2455,-31 1250.6658,-30.5043 1252.1043,-29.9575 1253.544,-29.3745"/>
<polygon fill="#191970" stroke="#191970" points="1255.2085,-32.4631 1262.8799,-25.1556 1252.3259,-26.0842 1255.2085,-32.4631"/>
</g>
<!-- Node33&#45;&gt;Node7 -->
<g id="edge57" class="edge">
<title>Node33&#45;&gt;Node7</title>
<path fill="none" stroke="#191970" d="M1030.462,-72.9005C1056.9342,-62.8231 1099.2225,-46.7247 1132.2874,-34.1375"/>
<polygon fill="#191970" stroke="#191970" points="1133.6849,-37.3506 1141.7854,-30.5218 1131.1944,-30.8086 1133.6849,-37.3506"/>
</g>
<!-- Node33&#45;&gt;Node16 -->
<g id="edge61" class="edge">
<title>Node33&#45;&gt;Node16</title>
<path fill="none" stroke="#191970" d="M963.6484,-72.9973C927.2463,-64.0726 873.2933,-49.3592 828.2455,-31 827.2147,-30.5799 826.1726,-30.1338 825.1269,-29.6682"/>
<polygon fill="#191970" stroke="#191970" points="826.35,-26.3703 815.8288,-25.1226 823.2756,-32.659 826.35,-26.3703"/>
</g>
<!-- Node33&#45;&gt;Node17 -->
<g id="edge59" class="edge">
<title>Node33&#45;&gt;Node17</title>
<path fill="none" stroke="#191970" d="M1016.8509,-72.9005C1029.843,-62.1539 1051.1129,-44.5603 1066.6853,-31.6794"/>
<polygon fill="#191970" stroke="#191970" points="1069.187,-34.1524 1074.6617,-25.0817 1064.7253,-28.7585 1069.187,-34.1524"/>
</g>
<!-- Node33&#45;&gt;Node18 -->
<g id="edge60" class="edge">
<title>Node33&#45;&gt;Node18</title>
<path fill="none" stroke="#191970" d="M1005.3888,-72.9005C1005.5344,-63.149 1005.7641,-47.7597 1005.949,-35.3695"/>
<polygon fill="#191970" stroke="#191970" points="1009.4528,-35.1328 1006.1025,-25.0817 1002.4536,-35.0283 1009.4528,-35.1328"/>
</g>
<!-- Node33&#45;&gt;Node20 -->
<g id="edge56" class="edge">
<title>Node33&#45;&gt;Node20</title>
<path fill="none" stroke="#191970" d="M988.9121,-72.9005C969.9497,-61.7559 938.4581,-43.2477 916.3736,-30.2682"/>
<polygon fill="#191970" stroke="#191970" points="917.9434,-27.1311 907.5487,-25.0817 914.3965,-33.1661 917.9434,-27.1311"/>
</g>
<!-- Node34&#45;&gt;Node6 -->
<g id="edge63" class="edge">
<title>Node34&#45;&gt;Node6</title>
<path fill="none" stroke="#191970" d="M1370.4464,-313.4509C1380.5754,-294.8533 1403.1026,-253.4919 1416.2261,-229.3964"/>
<polygon fill="#191970" stroke="#191970" points="1419.3485,-230.9809 1421.0579,-220.5249 1413.2011,-227.6328 1419.3485,-230.9809"/>
</g>
<!-- Node34&#45;&gt;Node35 -->
<g id="edge64" class="edge">
<title>Node34&#45;&gt;Node35</title>
<path fill="none" stroke="#191970" d="M1385.7024,-313.3733C1404.7193,-304.4241 1433.2631,-290.9917 1454.7431,-280.8835"/>
<polygon fill="#191970" stroke="#191970" points="1456.4978,-283.926 1464.0557,-276.5011 1453.5171,-277.5923 1456.4978,-283.926"/>
</g>
<!-- Node35&#45;&gt;Node6 -->
<g id="edge65" class="edge">
<title>Node35&#45;&gt;Node6</title>
<path fill="none" stroke="#191970" d="M1474.1427,-257.2455C1465.7427,-249.1352 1453.5962,-237.4075 1443.6372,-227.7919"/>
<polygon fill="#191970" stroke="#191970" points="1445.8577,-225.0707 1436.2326,-220.6427 1440.9955,-230.1066 1445.8577,-225.0707"/>
</g>
</g>
</svg>
        <g id="navigator" transform="translate(0 0)" fill="#404254">
                <rect fill="#f2f5e9" fill-opacity="0.5" stroke="#606060" stroke-width=".5" x="0" y="0" width="60" height="60"/>
                <use id="zoomplus" xlink:href="#zoomPlus" x="17" y="9" onmousedown="handleZoom(evt,'in')"/>
                <use id="zoomminus" xlink:href="#zoomMin" x="42" y="9" onmousedown="handleZoom(evt,'out')"/>
                <use id="reset" xlink:href="#resetDef" x="30" y="36" onmousedown="handleReset()"/>
                <g id="arrowUp" xlink:href="#dirArrow" transform="translate(30 24)" onmousedown="handlePan(0,-1)">
                  <use xlink:href="#rim" fill="#404040">
                        <set attributeName="fill" to="#808080" begin="arrowUp.mouseover" end="arrowUp.mouseout"/>
                  </use>
                  <path fill="none" stroke="white" stroke-width="1.5" d="M0,-3.0v7 M-2.5,-0.5L0,-3.0L2.5,-0.5"/>
                </g>
                <g id="arrowRight" xlink:href="#dirArrow" transform="rotate(90) translate(36 -43)" onmousedown="handlePan(1,0)">
                  <use xlink:href="#rim" fill="#404040">
                        <set attributeName="fill" to="#808080" begin="arrowRight.mouseover" end="arrowRight.mouseout"/>
                  </use>
                  <path fill="none" stroke="white" stroke-width="1.5" d="M0,-3.0v7 M-2.5,-0.5L0,-3.0L2.5,-0.5"/>
                </g>
                <g id="arrowDown" xlink:href="#dirArrow" transform="rotate(180) translate(-30 -48)" onmousedown="handlePan(0,1)">
                  <use xlink:href="#rim" fill="#404040">
                        <set attributeName="fill" to="#808080" begin="arrowDown.mouseover" end="arrowDown.mouseout"/>
                  </use>
                  <path fill="none" stroke="white" stroke-width="1.5" d="M0,-3.0v7 M-2.5,-0.5L0,-3.0L2.5,-0.5"/>
                </g>
                <g id="arrowLeft" xlink:href="#dirArrow" transform="rotate(270) translate(-36 17)" onmousedown="handlePan(-1,0)">
                  <use xlink:href="#rim" fill="#404040">
                        <set attributeName="fill" to="#808080" begin="arrowLeft.mouseover" end="arrowLeft.mouseout"/>
                  </use>
                  <path fill="none" stroke="white" stroke-width="1.5" d="M0,-3.0v7 M-2.5,-0.5L0,-3.0L2.5,-0.5"/>
                </g>
        </g>
        <svg viewBox="0 0 15 15" width="100%" height="30px" preserveAspectRatio="xMaxYMin meet">
         <g id="arrow_out" transform="scale(0.3 0.3)">
          <a xlink:href="iterations_8cc__incl_org.svg" target="_base">
           <rect id="button" ry="5" rx="5" y="6" x="6" height="38" width="38"
                fill="#f2f5e9" fill-opacity="0.5" stroke="#606060" stroke-width="1.0"/>
           <path id="arrow"
             d="M 11.500037,31.436501 C 11.940474,20.09759 22.043105,11.32322 32.158766,21.979434 L 37.068811,17.246167 C 37.068811,17.246167 37.088388,32 37.088388,32 L 22.160133,31.978069 C 22.160133,31.978069 26.997745,27.140456 26.997745,27.140456 C 18.528582,18.264221 13.291696,25.230495 11.500037,31.436501 z"
             style="fill:#404040;"/>
          </a>
         </g>
        </svg>
</svg>
