<?xml version="1.0" encoding="UTF-8" standalone="no"?>
<!DOCTYPE svg PUBLIC "-//W3C//DTD SVG 1.1//EN"
 "http://www.w3.org/Graphics/SVG/1.1/DTD/svg11.dtd">
<!-- Generated by graphviz version 2.40.1 (20161225.0304)
 -->
<!-- Title: src/iteration/iterations.h Pages: 1 -->
<svg width="351pt" height="140pt"
 viewBox="0.00 0.00 351.00 140.00" xmlns="http://www.w3.org/2000/svg" xmlns:xlink="http://www.w3.org/1999/xlink">
<g id="graph0" class="graph" transform="scale(1 1) rotate(0) translate(4 136)">
<title>src/iteration/iterations.h</title>
<!-- Node35 -->
<g id="node1" class="node">
<title>Node35</title>
<polygon fill="#bfbfbf" stroke="#000000" points="148,-112.5 148,-131.5 268,-131.5 268,-112.5 148,-112.5"/>
<text text-anchor="middle" x="208" y="-119.5" font-family="Arial" font-size="10.00" fill="#000000">src/iteration/iterations.h</text>
</g>
<!-- Node36 -->
<g id="node2" class="node">
<title>Node36</title>
<g id="a_node2"><a xlink:href="bart__driver_8h.html" target="_top" xlink:title="src/common/bart_driver.h">
<polygon fill="none" stroke="#000000" points="71,-56.5 71,-75.5 201,-75.5 201,-56.5 71,-56.5"/>
<text text-anchor="middle" x="136" y="-63.5" font-family="Arial" font-size="10.00" fill="#000000">src/common/bart_driver.h</text>
</a>
</g>
</g>
<!-- Node35&#45;&gt;Node36 -->
<g id="edge1" class="edge">
<title>Node35&#45;&gt;Node36</title>
<path fill="none" stroke="#191970" d="M187.336,-105.928C174.7511,-96.1397 159.0908,-83.9595 148.3977,-75.6427"/>
<polygon fill="#191970" stroke="#191970" points="185.4162,-108.8688 195.4586,-112.2455 189.7138,-103.3434 185.4162,-108.8688"/>
</g>
<!-- Node39 -->
<g id="node5" class="node">
<title>Node39</title>
<g id="a_node5"><a xlink:href="iterations_8cc.html" target="_top" xlink:title="src/iteration/iterations.cc">
<polygon fill="none" stroke="#000000" points="219,-56.5 219,-75.5 343,-75.5 343,-56.5 219,-56.5"/>
<text text-anchor="middle" x="281" y="-63.5" font-family="Arial" font-size="10.00" fill="#000000">src/iteration/iterations.cc</text>
</a>
</g>
</g>
<!-- Node35&#45;&gt;Node39 -->
<g id="edge4" class="edge">
<title>Node35&#45;&gt;Node39</title>
<path fill="none" stroke="#191970" d="M228.951,-105.928C241.7107,-96.1397 257.5885,-83.9595 268.4301,-75.6427"/>
<polygon fill="#191970" stroke="#191970" points="226.5196,-103.3819 220.7156,-112.2455 230.7803,-108.9359 226.5196,-103.3819"/>
</g>
<!-- Node37 -->
<g id="node3" class="node">
<title>Node37</title>
<g id="a_node3"><a xlink:href="bart__driver_8cc.html" target="_top" xlink:title="src/common/bart_driver.cc">
<polygon fill="none" stroke="#000000" points="0,-.5 0,-19.5 134,-19.5 134,-.5 0,-.5"/>
<text text-anchor="middle" x="67" y="-7.5" font-family="Arial" font-size="10.00" fill="#000000">src/common/bart_driver.cc</text>
</a>
</g>
</g>
<!-- Node36&#45;&gt;Node37 -->
<g id="edge2" class="edge">
<title>Node36&#45;&gt;Node37</title>
<path fill="none" stroke="#191970" d="M116.197,-49.928C104.1364,-40.1397 89.1286,-27.9595 78.8812,-19.6427"/>
<polygon fill="#191970" stroke="#191970" points="114.0109,-52.6614 123.9811,-56.2455 118.4221,-47.2262 114.0109,-52.6614"/>
</g>
<!-- Node38 -->
<g id="node4" class="node">
<title>Node38</title>
<g id="a_node4"><a xlink:href="main_8cc.html" target="_top" xlink:title="src/common/main.cc">
<polygon fill="none" stroke="#000000" points="152,-.5 152,-19.5 260,-19.5 260,-.5 152,-.5"/>
<text text-anchor="middle" x="206" y="-7.5" font-family="Arial" font-size="10.00" fill="#000000">src/common/main.cc</text>
</a>
</g>
</g>
<!-- Node36&#45;&gt;Node38 -->
<g id="edge3" class="edge">
<title>Node36&#45;&gt;Node38</title>
<path fill="none" stroke="#191970" d="M156.09,-49.928C168.3253,-40.1397 183.5507,-27.9595 193.9467,-19.6427"/>
<polygon fill="#191970" stroke="#191970" points="153.8153,-47.2655 148.1931,-56.2455 158.1882,-52.7316 153.8153,-47.2655"/>
</g>
</g>
</svg>
