<?xml version="1.0" encoding="UTF-8" standalone="no"?>
<!DOCTYPE svg PUBLIC "-//W3C//DTD SVG 1.1//EN"
 "http://www.w3.org/Graphics/SVG/1.1/DTD/svg11.dtd">
<!-- Generated by graphviz version 2.40.1 (20161225.0304)
 -->
<!-- Title: src/iteration/iteration_base.h Pages: 1 -->
<svg width="2262pt" height="240pt"
 viewBox="0.00 0.00 2262.00 240.00" xmlns="http://www.w3.org/2000/svg" xmlns:xlink="http://www.w3.org/1999/xlink">
<g id="graph0" class="graph" transform="scale(1 1) rotate(0) translate(4 236)">
<title>src/iteration/iteration_base.h</title>
<!-- Node0 -->
<g id="node1" class="node">
<title>Node0</title>
<polygon fill="#bfbfbf" stroke="#000000" points="1207.5,-201.5 1207.5,-231.5 1314.5,-231.5 1314.5,-201.5 1207.5,-201.5"/>
<text text-anchor="start" x="1215.5" y="-219.5" font-family="Arial" font-size="10.00" fill="#000000">src/iteration/iteration</text>
<text text-anchor="middle" x="1261" y="-208.5" font-family="Arial" font-size="10.00" fill="#000000">_base.h</text>
</g>
<!-- Node1 -->
<g id="node2" class="node">
<title>Node1</title>
<polygon fill="none" stroke="#bfbfbf" points="1310.5,-.5 1310.5,-30.5 1427.5,-30.5 1427.5,-.5 1310.5,-.5"/>
<text text-anchor="start" x="1318.5" y="-18.5" font-family="Arial" font-size="10.00" fill="#000000">deal.II/base/parameter</text>
<text text-anchor="middle" x="1369" y="-7.5" font-family="Arial" font-size="10.00" fill="#000000">_handler.h</text>
</g>
<!-- Node0&#45;&gt;Node1 -->
<g id="edge1" class="edge">
<title>Node0&#45;&gt;Node1</title>
<path fill="none" stroke="#191970" d="M1314.5263,-206.2314C1403.5721,-187.9408 1575.8554,-147.0032 1611,-98 1684.6418,4.6811 1623.1253,-68.3947 1437.3895,-30.9863"/>
<polygon fill="#191970" stroke="#191970" points="1438.0939,-27.558 1427.5887,-28.9333 1436.6587,-34.4093 1438.0939,-27.558"/>
</g>
<!-- Node2 -->
<g id="node3" class="node">
<title>Node2</title>
<g id="a_node3"><a xlink:href="equation__base_8h.html" target="_top" xlink:title="../equation/equation\l_base.h">
<polygon fill="none" stroke="#000000" points="864,-134.5 864,-164.5 968,-164.5 968,-134.5 864,-134.5"/>
<text text-anchor="start" x="872" y="-152.5" font-family="Arial" font-size="10.00" fill="#000000">../equation/equation</text>
<text text-anchor="middle" x="916" y="-141.5" font-family="Arial" font-size="10.00" fill="#000000">_base.h</text>
</a>
</g>
</g>
<!-- Node0&#45;&gt;Node2 -->
<g id="edge2" class="edge">
<title>Node0&#45;&gt;Node2</title>
<path fill="none" stroke="#191970" d="M1207.4723,-206.1048C1145.5813,-194.0853 1043.8514,-174.3291 978.4179,-161.6217"/>
<polygon fill="#191970" stroke="#191970" points="978.7234,-158.1158 968.2396,-159.6451 977.3889,-164.9874 978.7234,-158.1158"/>
</g>
<!-- Node2&#45;&gt;Node1 -->
<g id="edge6" class="edge">
<title>Node2&#45;&gt;Node1</title>
<path fill="none" stroke="#191970" d="M968.0547,-148.0049C1090.0471,-143.9655 1386.3686,-130.8402 1416,-98 1432.2329,-80.0092 1414.3262,-55.4772 1396.1346,-37.8483"/>
<polygon fill="#191970" stroke="#191970" points="1398.1498,-34.9466 1388.4195,-30.7548 1393.412,-40.0996 1398.1498,-34.9466"/>
</g>
<!-- Node3 -->
<g id="node4" class="node">
<title>Node3</title>
<polygon fill="none" stroke="#bfbfbf" points="1484.5,-67.5 1484.5,-97.5 1601.5,-97.5 1601.5,-67.5 1484.5,-67.5"/>
<text text-anchor="start" x="1492.5" y="-85.5" font-family="Arial" font-size="10.00" fill="#000000">deal.II/numerics/vector</text>
<text text-anchor="middle" x="1543" y="-74.5" font-family="Arial" font-size="10.00" fill="#000000">_tools.h</text>
</g>
<!-- Node2&#45;&gt;Node3 -->
<g id="edge3" class="edge">
<title>Node2&#45;&gt;Node3</title>
<path fill="none" stroke="#191970" d="M968.1837,-146.6827C1066.6982,-140.9142 1286.6463,-125.8908 1470,-98 1471.2969,-97.8027 1472.6054,-97.5968 1473.9225,-97.3832"/>
<polygon fill="#191970" stroke="#191970" points="1474.8856,-100.7686 1484.1412,-95.6126 1473.6904,-93.8714 1474.8856,-100.7686"/>
</g>
<!-- Node4 -->
<g id="node5" class="node">
<title>Node4</title>
<polygon fill="none" stroke="#bfbfbf" points="0,-73 0,-92 98,-92 98,-73 0,-73"/>
<text text-anchor="middle" x="49" y="-80" font-family="Arial" font-size="10.00" fill="#000000">deal.II/fe/fe_poly.h</text>
</g>
<!-- Node2&#45;&gt;Node4 -->
<g id="edge4" class="edge">
<title>Node2&#45;&gt;Node4</title>
<path fill="none" stroke="#191970" d="M863.9291,-147.5319C709.1731,-141.4694 253.6972,-122.0287 107,-98 101.4714,-97.0944 95.7076,-95.8858 90.0509,-94.5414"/>
<polygon fill="#191970" stroke="#191970" points="90.6121,-91.0731 80.0588,-92.0107 88.8934,-97.8588 90.6121,-91.0731"/>
</g>
<!-- Node5 -->
<g id="node6" class="node">
<title>Node5</title>
<polygon fill="none" stroke="#bfbfbf" points="116.5,-73 116.5,-92 225.5,-92 225.5,-73 116.5,-73"/>
<text text-anchor="middle" x="171" y="-80" font-family="Arial" font-size="10.00" fill="#000000">deal.II/fe/fe_values.h</text>
</g>
<!-- Node2&#45;&gt;Node5 -->
<g id="edge5" class="edge">
<title>Node2&#45;&gt;Node5</title>
<path fill="none" stroke="#191970" d="M863.8963,-148.507C749.3056,-145.6813 467.0446,-135.2035 234,-98 228.0145,-97.0445 221.7617,-95.8058 215.6183,-94.4452"/>
<polygon fill="#191970" stroke="#191970" points="215.9836,-90.9363 205.4495,-92.0688 214.3906,-97.7526 215.9836,-90.9363"/>
</g>
<!-- Node6 -->
<g id="node7" class="node">
<title>Node6</title>
<polygon fill="none" stroke="#bfbfbf" points="243.5,-67.5 243.5,-97.5 338.5,-97.5 338.5,-67.5 243.5,-67.5"/>
<text text-anchor="start" x="251.5" y="-85.5" font-family="Arial" font-size="10.00" fill="#000000">deal.II/base/index</text>
<text text-anchor="middle" x="291" y="-74.5" font-family="Arial" font-size="10.00" fill="#000000">_set.h</text>
</g>
<!-- Node2&#45;&gt;Node6 -->
<g id="edge7" class="edge">
<title>Node2&#45;&gt;Node6</title>
<path fill="none" stroke="#191970" d="M863.7992,-147.91C764.8227,-144.2173 543.0839,-132.7024 348.6409,-98.1056"/>
<polygon fill="#191970" stroke="#191970" points="348.9867,-94.6116 338.5241,-96.28 347.7436,-101.5003 348.9867,-94.6116"/>
</g>
<!-- Node7 -->
<g id="node8" class="node">
<title>Node7</title>
<polygon fill="none" stroke="#bfbfbf" points="356.5,-67.5 356.5,-97.5 475.5,-97.5 475.5,-67.5 356.5,-67.5"/>
<text text-anchor="start" x="364.5" y="-85.5" font-family="Arial" font-size="10.00" fill="#000000">deal.II/base/conditional</text>
<text text-anchor="middle" x="416" y="-74.5" font-family="Arial" font-size="10.00" fill="#000000">_ostream.h</text>
</g>
<!-- Node2&#45;&gt;Node7 -->
<g id="edge8" class="edge">
<title>Node2&#45;&gt;Node7</title>
<path fill="none" stroke="#191970" d="M863.6714,-144.9847C784.223,-137.7478 628.2641,-122.0507 485.9841,-98.0591"/>
<polygon fill="#191970" stroke="#191970" points="486.2108,-94.5473 475.7648,-96.3173 485.0346,-101.4478 486.2108,-94.5473"/>
</g>
<!-- Node8 -->
<g id="node9" class="node">
<title>Node8</title>
<polygon fill="none" stroke="#bfbfbf" points="494,-73 494,-92 544,-92 544,-73 494,-73"/>
<text text-anchor="middle" x="519" y="-80" font-family="Arial" font-size="10.00" fill="#000000">fstream</text>
</g>
<!-- Node2&#45;&gt;Node8 -->
<g id="edge9" class="edge">
<title>Node2&#45;&gt;Node8</title>
<path fill="none" stroke="#191970" d="M863.9522,-145.8727C793.584,-140.099 664.6322,-126.4332 558,-98 555.3842,-97.3025 552.7061,-96.481 550.039,-95.5861"/>
<polygon fill="#191970" stroke="#191970" points="551.1523,-92.2665 540.5585,-92.1145 548.7453,-98.8397 551.1523,-92.2665"/>
</g>
<!-- Node9 -->
<g id="node10" class="node">
<title>Node9</title>
<polygon fill="none" stroke="#bfbfbf" points="683.5,-6 683.5,-25 738.5,-25 738.5,-6 683.5,-6"/>
<text text-anchor="middle" x="711" y="-13" font-family="Arial" font-size="10.00" fill="#000000">iostream</text>
</g>
<!-- Node2&#45;&gt;Node9 -->
<g id="edge10" class="edge">
<title>Node2&#45;&gt;Node9</title>
<path fill="none" stroke="#191970" d="M863.777,-144.9166C776.4279,-136.7179 608.4833,-118.4718 591,-98 582.0524,-87.523 583.4183,-78.5042 591,-67 591.6575,-66.0024 643.5257,-43.9695 678.8474,-29.0489"/>
<polygon fill="#191970" stroke="#191970" points="680.4631,-32.166 688.3148,-25.0526 677.7408,-25.717 680.4631,-32.166"/>
</g>
<!-- Node10 -->
<g id="node11" class="node">
<title>Node10</title>
<polygon fill="none" stroke="#bfbfbf" points="600,-73 600,-92 652,-92 652,-73 600,-73"/>
<text text-anchor="middle" x="626" y="-80" font-family="Arial" font-size="10.00" fill="#000000">sstream</text>
</g>
<!-- Node2&#45;&gt;Node10 -->
<g id="edge11" class="edge">
<title>Node2&#45;&gt;Node10</title>
<path fill="none" stroke="#191970" d="M863.6684,-141.3335C812.6525,-132.7623 733.1639,-117.7811 666,-98 663.4102,-97.2373 660.7519,-96.3797 658.0962,-95.4696"/>
<polygon fill="#191970" stroke="#191970" points="659.2125,-92.1513 648.6185,-92.0182 656.8172,-98.7287 659.2125,-92.1513"/>
</g>
<!-- Node11 -->
<g id="node12" class="node">
<title>Node11</title>
<polygon fill="none" stroke="#bfbfbf" points="984.5,-6 984.5,-25 1025.5,-25 1025.5,-6 984.5,-6"/>
<text text-anchor="middle" x="1005" y="-13" font-family="Arial" font-size="10.00" fill="#000000">string</text>
</g>
<!-- Node2&#45;&gt;Node11 -->
<g id="edge12" class="edge">
<title>Node2&#45;&gt;Node11</title>
<path fill="none" stroke="#191970" d="M910.2783,-134.3089C904.7065,-116.789 898.7137,-87.7407 911,-67 912.93,-63.7419 950.4226,-43.7991 977.4647,-29.7109"/>
<polygon fill="#191970" stroke="#191970" points="979.2571,-32.7239 986.5185,-25.0088 976.0308,-26.5117 979.2571,-32.7239"/>
</g>
<!-- Node12 -->
<g id="node13" class="node">
<title>Node12</title>
<polygon fill="none" stroke="#bfbfbf" points="805,-6 805,-25 841,-25 841,-6 805,-6"/>
<text text-anchor="middle" x="823" y="-13" font-family="Arial" font-size="10.00" fill="#000000">map</text>
</g>
<!-- Node2&#45;&gt;Node12 -->
<g id="edge13" class="edge">
<title>Node2&#45;&gt;Node12</title>
<path fill="none" stroke="#191970" d="M863.8536,-144.4726C806.3204,-137.7215 719.1692,-123.5161 699,-98 690.4562,-87.1912 691.133,-78.311 699,-67 725.2566,-29.2487 754.3614,-50.5141 796,-31 796.6974,-30.6732 797.4009,-30.3347 798.1075,-29.9868"/>
<polygon fill="#191970" stroke="#191970" points="800.0578,-32.9138 807.2427,-25.1274 796.7704,-26.7338 800.0578,-32.9138"/>
</g>
<!-- Node13 -->
<g id="node14" class="node">
<title>Node13</title>
<polygon fill="none" stroke="#bfbfbf" points="1043.5,-6 1043.5,-25 1130.5,-25 1130.5,-6 1043.5,-6"/>
<text text-anchor="middle" x="1087" y="-13" font-family="Arial" font-size="10.00" fill="#000000">unordered_map</text>
</g>
<!-- Node2&#45;&gt;Node13 -->
<g id="edge14" class="edge">
<title>Node2&#45;&gt;Node13</title>
<path fill="none" stroke="#191970" d="M968.0315,-141.201C1014.0588,-132.6719 1076.1547,-117.8435 1091,-98 1104.5715,-79.8591 1099.868,-52.6869 1094.2774,-34.5405"/>
<polygon fill="#191970" stroke="#191970" points="1097.5719,-33.3575 1091.0147,-25.0356 1090.9511,-35.6302 1097.5719,-33.3575"/>
</g>
<!-- Node14 -->
<g id="node15" class="node">
<title>Node14</title>
<polygon fill="none" stroke="#bfbfbf" points="920.5,-73 920.5,-92 959.5,-92 959.5,-73 920.5,-73"/>
<text text-anchor="middle" x="940" y="-80" font-family="Arial" font-size="10.00" fill="#000000">utility</text>
</g>
<!-- Node2&#45;&gt;Node14 -->
<g id="edge15" class="edge">
<title>Node2&#45;&gt;Node14</title>
<path fill="none" stroke="#191970" d="M921.446,-134.2967C924.9312,-124.5672 929.4803,-111.8675 933.2018,-101.4784"/>
<polygon fill="#191970" stroke="#191970" points="936.5,-102.6495 936.5773,-92.055 929.91,-100.2889 936.5,-102.6495"/>
</g>
<!-- Node15 -->
<g id="node16" class="node">
<title>Node15</title>
<polygon fill="none" stroke="#bfbfbf" points="1248,-6 1248,-25 1292,-25 1292,-6 1248,-6"/>
<text text-anchor="middle" x="1270" y="-13" font-family="Arial" font-size="10.00" fill="#000000">vector</text>
</g>
<!-- Node2&#45;&gt;Node15 -->
<g id="edge16" class="edge">
<title>Node2&#45;&gt;Node15</title>
<path fill="none" stroke="#191970" d="M968.047,-147.8033C1086.9663,-143.3913 1370.5632,-129.6301 1399,-98 1408.2114,-87.7542 1406.867,-78.311 1399,-67 1372.7434,-29.2487 1344.2965,-49.0436 1302,-31 1300.8183,-30.4959 1299.6172,-29.9713 1298.4077,-29.4329"/>
<polygon fill="#191970" stroke="#191970" points="1299.6982,-26.1734 1289.1534,-25.1455 1296.7557,-32.5249 1299.6982,-26.1734"/>
</g>
<!-- Node16 -->
<g id="node17" class="node">
<title>Node16</title>
<g id="a_node17"><a xlink:href="problem__definition_8h.html" target="_top" xlink:title="../common/problem_definition.h">
<polygon fill="none" stroke="#000000" points="708,-73 708,-92 864,-92 864,-73 708,-73"/>
<text text-anchor="middle" x="786" y="-80" font-family="Arial" font-size="10.00" fill="#000000">../common/problem_definition.h</text>
</a>
</g>
</g>
<!-- Node2&#45;&gt;Node16 -->
<g id="edge17" class="edge">
<title>Node2&#45;&gt;Node16</title>
<path fill="none" stroke="#191970" d="M886.8255,-134.4639C864.9149,-123.1715 835.1062,-107.8086 813.5895,-96.7192"/>
<polygon fill="#191970" stroke="#191970" points="815.1268,-93.5741 804.6345,-92.1039 811.9199,-99.7963 815.1268,-93.5741"/>
</g>
<!-- Node20 -->
<g id="node21" class="node">
<title>Node20</title>
<g id="a_node21"><a xlink:href="preconditioner__solver_8h.html" target="_top" xlink:title="../common/preconditioner\l_solver.h">
<polygon fill="none" stroke="#000000" points="1658.5,-67.5 1658.5,-97.5 1787.5,-97.5 1787.5,-67.5 1658.5,-67.5"/>
<text text-anchor="start" x="1666.5" y="-85.5" font-family="Arial" font-size="10.00" fill="#000000">../common/preconditioner</text>
<text text-anchor="middle" x="1723" y="-74.5" font-family="Arial" font-size="10.00" fill="#000000">_solver.h</text>
</a>
</g>
</g>
<!-- Node2&#45;&gt;Node20 -->
<g id="edge27" class="edge">
<title>Node2&#45;&gt;Node20</title>
<path fill="none" stroke="#191970" d="M968.413,-146.757C1084.4175,-140.436 1371.5737,-123.4123 1611,-98 1622.9713,-96.7294 1635.6346,-95.178 1647.9713,-93.5533"/>
<polygon fill="#191970" stroke="#191970" points="1648.7893,-96.975 1658.2349,-92.1759 1647.8582,-90.0372 1648.7893,-96.975"/>
</g>
<!-- Node26 -->
<g id="node27" class="node">
<title>Node26</title>
<g id="a_node27"><a xlink:href="mesh__generator_8h.html" target="_top" xlink:title="../mesh/mesh_generator.h">
<polygon fill="none" stroke="#000000" points="1256.5,-73 1256.5,-92 1389.5,-92 1389.5,-73 1256.5,-73"/>
<text text-anchor="middle" x="1323" y="-80" font-family="Arial" font-size="10.00" fill="#000000">../mesh/mesh_generator.h</text>
</a>
</g>
</g>
<!-- Node2&#45;&gt;Node26 -->
<g id="edge36" class="edge">
<title>Node2&#45;&gt;Node26</title>
<path fill="none" stroke="#191970" d="M968.1756,-142.2283C1033.679,-132.9103 1149.4191,-115.8212 1248,-98 1254.681,-96.7922 1261.6806,-95.4496 1268.6061,-94.074"/>
<polygon fill="#191970" stroke="#191970" points="1269.5435,-97.4554 1278.6537,-92.0467 1268.159,-90.5937 1269.5435,-97.4554"/>
</g>
<!-- Node28 -->
<g id="node29" class="node">
<title>Node28</title>
<g id="a_node29"><a xlink:href="material__properties_8h.html" target="_top" xlink:title="../material/material\l_properties.h">
<polygon fill="none" stroke="#000000" points="1139.5,-67.5 1139.5,-97.5 1238.5,-97.5 1238.5,-67.5 1139.5,-67.5"/>
<text text-anchor="start" x="1147.5" y="-85.5" font-family="Arial" font-size="10.00" fill="#000000">../material/material</text>
<text text-anchor="middle" x="1189" y="-74.5" font-family="Arial" font-size="10.00" fill="#000000">_properties.h</text>
</a>
</g>
</g>
<!-- Node2&#45;&gt;Node28 -->
<g id="edge42" class="edge">
<title>Node2&#45;&gt;Node28</title>
<path fill="none" stroke="#191970" d="M968.3141,-136.661C1014.2789,-125.3803 1081.1385,-108.9715 1129.2068,-97.1745"/>
<polygon fill="#191970" stroke="#191970" points="1130.2869,-100.5134 1139.1645,-94.7307 1128.6185,-93.7151 1130.2869,-100.5134"/>
</g>
<!-- Node30 -->
<g id="node31" class="node">
<title>Node30</title>
<g id="a_node31"><a xlink:href="aq__base_8h.html" target="_top" xlink:title="../aqdata/aq_base.h">
<polygon fill="none" stroke="#000000" points="977.5,-73 977.5,-92 1082.5,-92 1082.5,-73 977.5,-73"/>
<text text-anchor="middle" x="1030" y="-80" font-family="Arial" font-size="10.00" fill="#000000">../aqdata/aq_base.h</text>
</a>
</g>
</g>
<!-- Node2&#45;&gt;Node30 -->
<g id="edge49" class="edge">
<title>Node2&#45;&gt;Node30</title>
<path fill="none" stroke="#191970" d="M941.5838,-134.4639C960.4531,-123.3741 986.0021,-108.3584 1004.7839,-97.32"/>
<polygon fill="#191970" stroke="#191970" points="1006.8111,-100.1883 1013.659,-92.1039 1003.2643,-94.1534 1006.8111,-100.1883"/>
</g>
<!-- Node16&#45;&gt;Node1 -->
<g id="edge18" class="edge">
<title>Node16&#45;&gt;Node1</title>
<path fill="none" stroke="#191970" d="M859.6537,-72.9776C876.5143,-70.906 894.3682,-68.7983 911,-67 1080.8504,-48.6346 1127.3847,-58.037 1300.5325,-30.9297"/>
<polygon fill="#191970" stroke="#191970" points="1301.1608,-34.3739 1310.4902,-29.3527 1300.0658,-27.4601 1301.1608,-34.3739"/>
</g>
<!-- Node16&#45;&gt;Node9 -->
<g id="edge21" class="edge">
<title>Node16&#45;&gt;Node9</title>
<path fill="none" stroke="#191970" d="M775.2543,-72.9005C763.336,-62.2535 743.8943,-44.8856 729.5132,-32.0385"/>
<polygon fill="#191970" stroke="#191970" points="731.5151,-29.1337 721.7257,-25.0817 726.8516,-34.354 731.5151,-29.1337"/>
</g>
<!-- Node16&#45;&gt;Node11 -->
<g id="edge22" class="edge">
<title>Node16&#45;&gt;Node11</title>
<path fill="none" stroke="#191970" d="M831.5402,-72.9353C870.3696,-64.1118 927.3075,-49.5783 975,-31 976.1984,-30.5332 977.4116,-30.0326 978.6285,-29.5073"/>
<polygon fill="#191970" stroke="#191970" points="980.2936,-32.5916 987.8378,-25.1527 977.3013,-26.2634 980.2936,-32.5916"/>
</g>
<!-- Node16&#45;&gt;Node12 -->
<g id="edge23" class="edge">
<title>Node16&#45;&gt;Node12</title>
<path fill="none" stroke="#191970" d="M791.3012,-72.9005C796.9062,-62.751 805.8839,-46.4941 812.8565,-33.8679"/>
<polygon fill="#191970" stroke="#191970" points="815.9382,-35.5275 817.7086,-25.0817 809.8105,-32.1435 815.9382,-35.5275"/>
</g>
<!-- Node16&#45;&gt;Node13 -->
<g id="edge24" class="edge">
<title>Node16&#45;&gt;Node13</title>
<path fill="none" stroke="#191970" d="M838.0473,-72.9445C888.4184,-63.4021 966.8029,-47.7747 1034,-31 1038.0287,-29.9943 1042.2112,-28.8852 1046.3803,-27.7365"/>
<polygon fill="#191970" stroke="#191970" points="1047.335,-31.1039 1056.0049,-25.0144 1045.4298,-24.3681 1047.335,-31.1039"/>
</g>
<!-- Node16&#45;&gt;Node15 -->
<g id="edge25" class="edge">
<title>Node16&#45;&gt;Node15</title>
<path fill="none" stroke="#191970" d="M861.3335,-72.9849C877.7021,-70.966 894.9274,-68.8784 911,-67 1056.6618,-49.9762 1098.3239,-72.4413 1239,-31 1240.6667,-30.509 1242.3517,-29.9316 1244.0298,-29.2935"/>
<polygon fill="#191970" stroke="#191970" points="1245.6588,-32.4002 1253.3886,-25.1544 1242.8274,-25.9983 1245.6588,-32.4002"/>
</g>
<!-- Node17 -->
<g id="node18" class="node">
<title>Node17</title>
<polygon fill="none" stroke="#bfbfbf" points="859.5,-6 859.5,-25 966.5,-25 966.5,-6 859.5,-6"/>
<text text-anchor="middle" x="913" y="-13" font-family="Arial" font-size="10.00" fill="#000000">deal.II/base/tensor.h</text>
</g>
<!-- Node16&#45;&gt;Node17 -->
<g id="edge19" class="edge">
<title>Node16&#45;&gt;Node17</title>
<path fill="none" stroke="#191970" d="M804.196,-72.9005C825.6038,-61.6067 861.3458,-42.7506 885.9893,-29.7497"/>
<polygon fill="#191970" stroke="#191970" points="887.6262,-32.8434 894.8378,-25.0817 884.3599,-26.6522 887.6262,-32.8434"/>
</g>
<!-- Node18 -->
<g id="node19" class="node">
<title>Node18</title>
<polygon fill="none" stroke="#bfbfbf" points="546.5,-.5 546.5,-30.5 665.5,-30.5 665.5,-.5 546.5,-.5"/>
<text text-anchor="start" x="554.5" y="-18.5" font-family="Arial" font-size="10.00" fill="#000000">deal.II/base/quadrature</text>
<text text-anchor="middle" x="606" y="-7.5" font-family="Arial" font-size="10.00" fill="#000000">_lib.h</text>
</g>
<!-- Node16&#45;&gt;Node18 -->
<g id="edge20" class="edge">
<title>Node16&#45;&gt;Node18</title>
<path fill="none" stroke="#191970" d="M760.2104,-72.9005C733.1366,-62.8231 689.8872,-46.7247 656.0709,-34.1375"/>
<polygon fill="#191970" stroke="#191970" points="656.9498,-30.7301 646.357,-30.5218 654.5078,-37.2904 656.9498,-30.7301"/>
</g>
<!-- Node19 -->
<g id="node20" class="node">
<title>Node19</title>
<polygon fill="none" stroke="#bfbfbf" points="757,-6 757,-25 787,-25 787,-6 757,-6"/>
<text text-anchor="middle" x="772" y="-13" font-family="Arial" font-size="10.00" fill="#000000">set</text>
</g>
<!-- Node16&#45;&gt;Node19 -->
<g id="edge26" class="edge">
<title>Node16&#45;&gt;Node19</title>
<path fill="none" stroke="#191970" d="M783.9941,-72.9005C781.9357,-63.0495 778.6751,-47.4451 776.0728,-34.9912"/>
<polygon fill="#191970" stroke="#191970" points="779.4736,-34.1543 774.0021,-25.0817 772.6216,-35.5862 779.4736,-34.1543"/>
</g>
<!-- Node20&#45;&gt;Node1 -->
<g id="edge33" class="edge">
<title>Node20&#45;&gt;Node1</title>
<path fill="none" stroke="#191970" d="M1658.3523,-69.6982C1653.4979,-68.773 1648.6728,-67.8646 1644,-67 1555.2265,-50.5738 1530.1976,-49.4424 1437.3729,-31.0134"/>
<polygon fill="#191970" stroke="#191970" points="1438.056,-27.5808 1427.5639,-29.0521 1436.6835,-34.4449 1438.056,-27.5808"/>
</g>
<!-- Node20&#45;&gt;Node11 -->
<g id="edge35" class="edge">
<title>Node20&#45;&gt;Node11</title>
<path fill="none" stroke="#191970" d="M1658.2482,-72.6953C1642.7931,-70.5889 1626.3325,-68.5371 1611,-67 1355.3384,-41.3702 1281.1779,-101.1631 1034,-31 1032.5241,-30.5811 1031.0384,-30.0792 1029.5614,-29.5166"/>
<polygon fill="#191970" stroke="#191970" points="1030.6778,-26.1767 1020.1325,-25.154 1027.7384,-32.5297 1030.6778,-26.1767"/>
</g>
<!-- Node20&#45;&gt;Node15 -->
<g id="edge34" class="edge">
<title>Node20&#45;&gt;Node15</title>
<path fill="none" stroke="#191970" d="M1658.4759,-73.3286C1642.9377,-71.1868 1626.3831,-68.9603 1611,-67 1473.8469,-49.5221 1434.7421,-69.6778 1302,-31 1300.2887,-30.5014 1298.5564,-29.918 1296.8295,-29.2754"/>
<polygon fill="#191970" stroke="#191970" points="1297.7523,-25.8623 1287.1832,-25.1243 1294.9853,-32.2922 1297.7523,-25.8623"/>
</g>
<!-- Node21 -->
<g id="node22" class="node">
<title>Node21</title>
<polygon fill="none" stroke="#bfbfbf" points="1874.5,-.5 1874.5,-30.5 1969.5,-30.5 1969.5,-.5 1874.5,-.5"/>
<text text-anchor="start" x="1882.5" y="-18.5" font-family="Arial" font-size="10.00" fill="#000000">deal.II/lac/generic</text>
<text text-anchor="middle" x="1922" y="-7.5" font-family="Arial" font-size="10.00" fill="#000000">_linear_algebra.h</text>
</g>
<!-- Node20&#45;&gt;Node21 -->
<g id="edge28" class="edge">
<title>Node20&#45;&gt;Node21</title>
<path fill="none" stroke="#191970" d="M1767.6595,-67.4639C1797.2568,-57.499 1836.2689,-44.3642 1867.6654,-33.7936"/>
<polygon fill="#191970" stroke="#191970" points="1868.7853,-37.1096 1877.1457,-30.6017 1866.5516,-30.4755 1868.7853,-37.1096"/>
</g>
<!-- Node22 -->
<g id="node23" class="node">
<title>Node22</title>
<polygon fill="none" stroke="#bfbfbf" points="1988,-.5 1988,-30.5 2112,-30.5 2112,-.5 1988,-.5"/>
<text text-anchor="start" x="1996" y="-18.5" font-family="Arial" font-size="10.00" fill="#000000">deal.II/lac/petsc_parallel</text>
<text text-anchor="middle" x="2050" y="-7.5" font-family="Arial" font-size="10.00" fill="#000000">_sparse_matrix.h</text>
</g>
<!-- Node20&#45;&gt;Node22 -->
<g id="edge29" class="edge">
<title>Node20&#45;&gt;Node22</title>
<path fill="none" stroke="#191970" d="M1787.501,-69.8285C1836.9753,-60.0391 1907.2326,-45.9871 1977.7277,-31.2505"/>
<polygon fill="#191970" stroke="#191970" points="1978.6044,-34.6429 1987.6743,-29.1669 1977.1691,-27.7916 1978.6044,-34.6429"/>
</g>
<!-- Node23 -->
<g id="node24" class="node">
<title>Node23</title>
<polygon fill="none" stroke="#bfbfbf" points="2130,-.5 2130,-30.5 2254,-30.5 2254,-.5 2130,-.5"/>
<text text-anchor="start" x="2138" y="-18.5" font-family="Arial" font-size="10.00" fill="#000000">deal.II/lac/petsc_parallel</text>
<text text-anchor="middle" x="2192" y="-7.5" font-family="Arial" font-size="10.00" fill="#000000">_vector.h</text>
</g>
<!-- Node20&#45;&gt;Node23 -->
<g id="edge30" class="edge">
<title>Node20&#45;&gt;Node23</title>
<path fill="none" stroke="#191970" d="M1787.7111,-75.8623C1864.5963,-67.5872 1996.92,-52.1226 2119.7636,-31.1317"/>
<polygon fill="#191970" stroke="#191970" points="2120.4621,-34.563 2129.7217,-29.4142 2119.2723,-27.6649 2120.4621,-34.563"/>
</g>
<!-- Node24 -->
<g id="node25" class="node">
<title>Node24</title>
<polygon fill="none" stroke="#bfbfbf" points="1557,-6 1557,-25 1711,-25 1711,-6 1557,-6"/>
<text text-anchor="middle" x="1634" y="-13" font-family="Arial" font-size="10.00" fill="#000000">deal.II/lac/petsc_precondition.h</text>
</g>
<!-- Node20&#45;&gt;Node24 -->
<g id="edge31" class="edge">
<title>Node20&#45;&gt;Node24</title>
<path fill="none" stroke="#191970" d="M1702.8045,-67.2967C1688.534,-56.5537 1669.4532,-42.1895 1655.0052,-31.3129"/>
<polygon fill="#191970" stroke="#191970" points="1656.7867,-28.2731 1646.6924,-25.055 1652.5766,-33.8656 1656.7867,-28.2731"/>
</g>
<!-- Node25 -->
<g id="node26" class="node">
<title>Node25</title>
<polygon fill="none" stroke="#bfbfbf" points="1729.5,-6 1729.5,-25 1856.5,-25 1856.5,-6 1729.5,-6"/>
<text text-anchor="middle" x="1793" y="-13" font-family="Arial" font-size="10.00" fill="#000000">deal.II/lac/petsc_solver.h</text>
</g>
<!-- Node20&#45;&gt;Node25 -->
<g id="edge32" class="edge">
<title>Node20&#45;&gt;Node25</title>
<path fill="none" stroke="#191970" d="M1738.8841,-67.2967C1749.7904,-56.8578 1764.269,-42.9997 1775.5056,-32.2446"/>
<polygon fill="#191970" stroke="#191970" points="1778.2131,-34.498 1783.0172,-25.055 1773.3729,-29.4411 1778.2131,-34.498"/>
</g>
<!-- Node26&#45;&gt;Node1 -->
<g id="edge38" class="edge">
<title>Node26&#45;&gt;Node1</title>
<path fill="none" stroke="#191970" d="M1329.5907,-72.9005C1335.6484,-64.0773 1344.8749,-50.6387 1352.8779,-38.9822"/>
<polygon fill="#191970" stroke="#191970" points="1355.9119,-40.7468 1358.6866,-30.5218 1350.141,-36.7848 1355.9119,-40.7468"/>
</g>
<!-- Node26&#45;&gt;Node12 -->
<g id="edge40" class="edge">
<title>Node26&#45;&gt;Node12</title>
<path fill="none" stroke="#191970" d="M1281.1028,-72.9654C1270.356,-70.7612 1258.7851,-68.597 1248,-67 1072.3046,-40.9847 1019.3778,-84.4493 850,-31 848.7533,-30.6066 847.5011,-30.1491 846.2556,-29.6433"/>
<polygon fill="#191970" stroke="#191970" points="847.556,-26.3815 837.0417,-25.077 844.4476,-32.6535 847.556,-26.3815"/>
</g>
<!-- Node26&#45;&gt;Node13 -->
<g id="edge39" class="edge">
<title>Node26&#45;&gt;Node13</title>
<path fill="none" stroke="#191970" d="M1288.3601,-72.9911C1251.3371,-62.7845 1190.9453,-46.0102 1139,-31 1135.4903,-29.9858 1131.8506,-28.9232 1128.2008,-27.8501"/>
<polygon fill="#191970" stroke="#191970" points="1129.1806,-24.4901 1118.5986,-25.0111 1127.1959,-31.2028 1129.1806,-24.4901"/>
</g>
<!-- Node26&#45;&gt;Node15 -->
<g id="edge41" class="edge">
<title>Node26&#45;&gt;Node15</title>
<path fill="none" stroke="#191970" d="M1315.4064,-72.9005C1307.2202,-62.552 1294.0115,-45.8542 1283.9457,-33.1295"/>
<polygon fill="#191970" stroke="#191970" points="1286.5286,-30.7531 1277.5795,-25.0817 1281.0386,-35.0959 1286.5286,-30.7531"/>
</g>
<!-- Node27 -->
<g id="node28" class="node">
<title>Node27</title>
<polygon fill="none" stroke="#bfbfbf" points="1445.5,-.5 1445.5,-30.5 1538.5,-30.5 1538.5,-.5 1445.5,-.5"/>
<text text-anchor="start" x="1453.5" y="-18.5" font-family="Arial" font-size="10.00" fill="#000000">deal.II/distributed</text>
<text text-anchor="middle" x="1492" y="-7.5" font-family="Arial" font-size="10.00" fill="#000000">/tria.h</text>
</g>
<!-- Node26&#45;&gt;Node27 -->
<g id="edge37" class="edge">
<title>Node26&#45;&gt;Node27</title>
<path fill="none" stroke="#191970" d="M1347.2136,-72.9005C1372.5238,-62.8663 1412.891,-46.8627 1444.5797,-34.2997"/>
<polygon fill="#191970" stroke="#191970" points="1446.1031,-37.4609 1454.1093,-30.5218 1443.5232,-30.9536 1446.1031,-37.4609"/>
</g>
<!-- Node28&#45;&gt;Node1 -->
<g id="edge43" class="edge">
<title>Node28&#45;&gt;Node1</title>
<path fill="none" stroke="#191970" d="M1229.3955,-67.4639C1255.8208,-57.6278 1290.5431,-44.7034 1318.748,-34.2049"/>
<polygon fill="#191970" stroke="#191970" points="1320.2774,-37.3703 1328.4283,-30.6017 1317.8355,-30.81 1320.2774,-37.3703"/>
</g>
<!-- Node28&#45;&gt;Node9 -->
<g id="edge44" class="edge">
<title>Node28&#45;&gt;Node9</title>
<path fill="none" stroke="#191970" d="M1139.4694,-74.15C1123.9736,-71.6765 1106.7975,-69.0769 1091,-67 939.0259,-47.0202 896.4923,-69.0177 748,-31 745.5205,-30.3652 742.9904,-29.5932 740.4754,-28.7365"/>
<polygon fill="#191970" stroke="#191970" points="741.5792,-25.4118 730.9883,-25.1237 739.088,-31.9535 741.5792,-25.4118"/>
</g>
<!-- Node28&#45;&gt;Node11 -->
<g id="edge45" class="edge">
<title>Node28&#45;&gt;Node11</title>
<path fill="none" stroke="#191970" d="M1139.3374,-68.357C1108.5251,-59.0068 1068.3901,-45.7763 1034,-31 1032.9772,-30.5605 1031.942,-30.0981 1030.9021,-29.6187"/>
<polygon fill="#191970" stroke="#191970" points="1032.143,-26.327 1021.6302,-25.0105 1029.0274,-32.5955 1032.143,-26.327"/>
</g>
<!-- Node28&#45;&gt;Node13 -->
<g id="edge46" class="edge">
<title>Node28&#45;&gt;Node13</title>
<path fill="none" stroke="#191970" d="M1166.1092,-67.4639C1149.4575,-56.526 1126.9917,-41.769 1110.2558,-30.7759"/>
<polygon fill="#191970" stroke="#191970" points="1111.9006,-27.6688 1101.6209,-25.1039 1108.0575,-33.5195 1111.9006,-27.6688"/>
</g>
<!-- Node28&#45;&gt;Node15 -->
<g id="edge47" class="edge">
<title>Node28&#45;&gt;Node15</title>
<path fill="none" stroke="#191970" d="M1207.3802,-67.2967C1220.2454,-56.6551 1237.4063,-42.4602 1250.5096,-31.6217"/>
<polygon fill="#191970" stroke="#191970" points="1252.9737,-34.1257 1258.4485,-25.055 1248.5121,-28.7318 1252.9737,-34.1257"/>
</g>
<!-- Node29 -->
<g id="node30" class="node">
<title>Node29</title>
<polygon fill="none" stroke="#bfbfbf" points="1148.5,-6 1148.5,-25 1229.5,-25 1229.5,-6 1148.5,-6"/>
<text text-anchor="middle" x="1189" y="-13" font-family="Arial" font-size="10.00" fill="#000000">unordered_set</text>
</g>
<!-- Node28&#45;&gt;Node29 -->
<g id="edge48" class="edge">
<title>Node28&#45;&gt;Node29</title>
<path fill="none" stroke="#191970" d="M1189,-67.2967C1189,-57.7699 1189,-45.3954 1189,-35.1306"/>
<polygon fill="#191970" stroke="#191970" points="1192.5001,-35.0549 1189,-25.055 1185.5001,-35.055 1192.5001,-35.0549"/>
</g>
<!-- Node30&#45;&gt;Node1 -->
<g id="edge51" class="edge">
<title>Node30&#45;&gt;Node1</title>
<path fill="none" stroke="#191970" d="M1082.5709,-73.0939C1135.1161,-63.561 1218.464,-48.0849 1300.4365,-31.0754"/>
<polygon fill="#191970" stroke="#191970" points="1301.3487,-34.4606 1310.4242,-28.9938 1299.9204,-27.6079 1301.3487,-34.4606"/>
</g>
<!-- Node30&#45;&gt;Node11 -->
<g id="edge55" class="edge">
<title>Node30&#45;&gt;Node11</title>
<path fill="none" stroke="#191970" d="M1026.4181,-72.9005C1022.7052,-62.95 1016.802,-47.1292 1012.1324,-34.6147"/>
<polygon fill="#191970" stroke="#191970" points="1015.3504,-33.2271 1008.5752,-25.0817 1008.7921,-35.6743 1015.3504,-33.2271"/>
</g>
<!-- Node30&#45;&gt;Node12 -->
<g id="edge53" class="edge">
<title>Node30&#45;&gt;Node12</title>
<path fill="none" stroke="#191970" d="M992.504,-72.918C947.7313,-61.2766 875.673,-41.8514 850,-31 849.0043,-30.5791 847.9994,-30.1294 846.9927,-29.658"/>
<polygon fill="#191970" stroke="#191970" points="848.5758,-26.5362 838.0903,-25.0179 845.3404,-32.7437 848.5758,-26.5362"/>
</g>
<!-- Node30&#45;&gt;Node13 -->
<g id="edge54" class="edge">
<title>Node30&#45;&gt;Node13</title>
<path fill="none" stroke="#191970" d="M1038.1667,-72.9005C1047.0554,-62.4525 1061.45,-45.5325 1072.3131,-32.7635"/>
<polygon fill="#191970" stroke="#191970" points="1075.0344,-34.9662 1078.8484,-25.0817 1069.7028,-30.4303 1075.0344,-34.9662"/>
</g>
<!-- Node30&#45;&gt;Node15 -->
<g id="edge52" class="edge">
<title>Node30&#45;&gt;Node15</title>
<path fill="none" stroke="#191970" d="M1082.4934,-72.9348C1125.3517,-64.3293 1187.0954,-50.1011 1239,-31 1240.4117,-30.4805 1241.8434,-29.9146 1243.2776,-29.3164"/>
<polygon fill="#191970" stroke="#191970" points="1244.962,-32.3946 1252.5957,-25.0477 1242.0466,-26.0306 1244.962,-32.3946"/>
</g>
<!-- Node30&#45;&gt;Node17 -->
<g id="edge50" class="edge">
<title>Node30&#45;&gt;Node17</title>
<path fill="none" stroke="#191970" d="M1013.2368,-72.9005C993.6884,-61.7062 961.1661,-43.0823 938.4863,-30.0947"/>
<polygon fill="#191970" stroke="#191970" points="940.1493,-27.0138 929.7322,-25.0817 936.6707,-33.0883 940.1493,-27.0138"/>
</g>
</g>
</svg>
