<?xml version="1.0" encoding="UTF-8" standalone="no"?>
<!DOCTYPE svg PUBLIC "-//W3C//DTD SVG 1.1//EN"
 "http://www.w3.org/Graphics/SVG/1.1/DTD/svg11.dtd">
<!-- Generated by graphviz version 2.40.1 (20161225.0304)
 -->
<!-- Title: src/iteration/iterations.h Pages: 1 -->
<svg width="738pt" height="185pt"
 viewBox="0.00 0.00 738.00 185.00" xmlns="http://www.w3.org/2000/svg" xmlns:xlink="http://www.w3.org/1999/xlink">
<g id="graph0" class="graph" transform="scale(1 1) rotate(0) translate(4 181)">
<title>src/iteration/iterations.h</title>
<!-- Node42 -->
<g id="node1" class="node">
<title>Node42</title>
<polygon fill="#bfbfbf" stroke="#000000" points="310,-142.5 310,-176.5 575,-176.5 575,-142.5 310,-142.5"/>
<text text-anchor="middle" x="442.5" y="-153.3" font-family="Arial" font-size="24.00" fill="#000000">src/iteration/iterations.h</text>
</g>
<!-- Node43 -->
<g id="node2" class="node">
<title>Node43</title>
<g id="a_node2"><a xlink:href="bart__driver_8h.html" target="_top" xlink:title="src/common/bart_driver.h">
<polygon fill="none" stroke="#000000" points="148,-71.5 148,-105.5 437,-105.5 437,-71.5 148,-71.5"/>
<text text-anchor="middle" x="292.5" y="-82.3" font-family="Arial" font-size="24.00" fill="#000000">src/common/bart_driver.h</text>
</a>
</g>
</g>
<!-- Node42&#45;&gt;Node43 -->
<g id="edge1" class="edge">
<title>Node42&#45;&gt;Node43</title>
<path fill="none" stroke="#191970" d="M397.4236,-138.1638C375.4272,-127.7522 349.3234,-115.3964 328.6554,-105.6136"/>
<polygon fill="#191970" stroke="#191970" points="396.0352,-141.3789 406.5713,-142.4937 399.0301,-135.0519 396.0352,-141.3789"/>
</g>
<!-- Node46 -->
<g id="node5" class="node">
<title>Node46</title>
<g id="a_node5"><a xlink:href="iterations_8cc.html" target="_top" xlink:title="src/iteration/iterations.cc">
<polygon fill="none" stroke="#000000" points="455,-71.5 455,-105.5 730,-105.5 730,-71.5 455,-71.5"/>
<text text-anchor="middle" x="592.5" y="-82.3" font-family="Arial" font-size="24.00" fill="#000000">src/iteration/iterations.cc</text>
</a>
</g>
</g>
<!-- Node42&#45;&gt;Node46 -->
<g id="edge4" class="edge">
<title>Node42&#45;&gt;Node46</title>
<path fill="none" stroke="#191970" d="M487.5764,-138.1638C509.5728,-127.7522 535.6766,-115.3964 556.3446,-105.6136"/>
<polygon fill="#191970" stroke="#191970" points="485.9699,-135.0519 478.4287,-142.4937 488.9648,-141.3789 485.9699,-135.0519"/>
</g>
<!-- Node44 -->
<g id="node3" class="node">
<title>Node44</title>
<g id="a_node3"><a xlink:href="bart__driver_8cc.html" target="_top" xlink:title="src/common/bart_driver.cc">
<polygon fill="none" stroke="#000000" points="0,-.5 0,-34.5 299,-34.5 299,-.5 0,-.5"/>
<text text-anchor="middle" x="149.5" y="-11.3" font-family="Arial" font-size="24.00" fill="#000000">src/common/bart_driver.cc</text>
</a>
</g>
</g>
<!-- Node43&#45;&gt;Node44 -->
<g id="edge2" class="edge">
<title>Node43&#45;&gt;Node44</title>
<path fill="none" stroke="#191970" d="M249.2461,-67.0243C228.3352,-56.642 203.5836,-44.3527 183.9682,-34.6136"/>
<polygon fill="#191970" stroke="#191970" points="247.7347,-70.1815 258.2479,-71.4937 250.8477,-63.9117 247.7347,-70.1815"/>
</g>
<!-- Node45 -->
<g id="node4" class="node">
<title>Node45</title>
<g id="a_node4"><a xlink:href="main_8cc.html" target="_top" xlink:title="src/common/main.cc">
<polygon fill="none" stroke="#000000" points="317,-.5 317,-34.5 554,-34.5 554,-.5 317,-.5"/>
<text text-anchor="middle" x="435.5" y="-11.3" font-family="Arial" font-size="24.00" fill="#000000">src/common/main.cc</text>
</a>
</g>
</g>
<!-- Node43&#45;&gt;Node45 -->
<g id="edge3" class="edge">
<title>Node43&#45;&gt;Node45</title>
<path fill="none" stroke="#191970" d="M335.7539,-67.0243C356.6648,-56.642 381.4164,-44.3527 401.0318,-34.6136"/>
<polygon fill="#191970" stroke="#191970" points="334.1523,-63.9117 326.7521,-71.4937 337.2653,-70.1815 334.1523,-63.9117"/>
</g>
</g>
</svg>
