<?xml version="1.0" encoding="UTF-8" standalone="no"?>
<!DOCTYPE svg PUBLIC "-//W3C//DTD SVG 1.1//EN"
 "http://www.w3.org/Graphics/SVG/1.1/DTD/svg11.dtd">
<!-- Generated by graphviz version 2.40.1 (20161225.0304)
 -->
<!-- Title: src/aqdata/lsgc.cc Pages: 1 -->
<!--zoomable 218 -->
<svg id="main" version="1.1" xmlns="http://www.w3.org/2000/svg" xmlns:xlink="http://www.w3.org/1999/xlink" xml:space="preserve" onload="init(evt)">
<style type="text/css"><![CDATA[
.edge:hover path { stroke: red; }
.edge:hover polygon { stroke: red; fill: red; }
]]></style>
<script type="text/javascript"><![CDATA[
var edges = document.getElementsByTagName('g');
if (edges && edges.length) {
  for (var i=0;i<edges.length;i++) {
    if (edges[i].id.substr(0,4)=='edge') {
      edges[i].setAttribute('class','edge');
    }
  }
}
]]></script>
        <defs>
                <circle id="rim" cx="0" cy="0" r="7"/>
                <circle id="rim2" cx="0" cy="0" r="3.5"/>
                <g id="zoomPlus">
                        <use xlink:href="#rim" fill="#404040">
                                <set attributeName="fill" to="#808080" begin="zoomplus.mouseover" end="zoomplus.mouseout"/>
                        </use>
                        <path d="M-4,0h8M0,-4v8" fill="none" stroke="white" stroke-width="1.5" pointer-events="none"/>
                </g>
                <g id="zoomMin">
                        <use xlink:href="#rim" fill="#404040">
                                <set attributeName="fill" to="#808080" begin="zoomminus.mouseover" end="zoomminus.mouseout"/>
                        </use>
                        <path d="M-4,0h8" fill="none" stroke="white" stroke-width="1.5" pointer-events="none"/>
                </g>
                <g id="dirArrow">
                        <path fill="none" stroke="white" stroke-width="1.5" d="M0,-3.0v7 M-2.5,-0.5L0,-3.0L2.5,-0.5"/>
                </g>
               <g id="resetDef">
                       <use xlink:href="#rim2" fill="#404040">
                               <set attributeName="fill" to="#808080" begin="reset.mouseover" end="reset.mouseout"/>
                       </use>
               </g>
        </defs>

<script type="text/javascript">
var viewWidth = 531;
var viewHeight = 218;
var sectionId = 'dynsection-0';
</script>
<script xlink:href="svgpan.js"/>
<svg id="graph" class="graph">
<g id="viewport">
<title>src/aqdata/lsgc.cc</title>
<!-- Node0 -->
<g id="node1" class="node">
<title>Node0</title>
<polygon fill="#bfbfbf" stroke="#000000" points="196,-190.5 196,-209.5 293,-209.5 293,-190.5 196,-190.5"/>
<text text-anchor="middle" x="244.5" y="-197.5" font-family="Arial" font-size="10.00" fill="#000000">src/aqdata/lsgc.cc</text>
</g>
<!-- Node1 -->
<g id="node2" class="node">
<title>Node1</title>
<polygon fill="none" stroke="#bfbfbf" points="80,-123.5 80,-153.5 199,-153.5 199,-123.5 80,-123.5"/>
<text text-anchor="start" x="88" y="-141.5" font-family="Arial" font-size="10.00" fill="#000000">deal.II/base/quadrature</text>
<text text-anchor="middle" x="139.5" y="-130.5" font-family="Arial" font-size="10.00" fill="#000000">_lib.h</text>
</g>
<!-- Node0&#45;&gt;Node1 -->
<g id="edge1" class="edge">
<title>Node0&#45;&gt;Node1</title>
<path fill="none" stroke="#191970" d="M228.0938,-190.3906C213.6201,-181.9132 192.0528,-169.2809 173.8219,-158.6028"/>
<polygon fill="#191970" stroke="#191970" points="175.5837,-155.5786 165.1859,-153.5446 172.0458,-161.6188 175.5837,-155.5786"/>
</g>
<!-- Node2 -->
<g id="node3" class="node">
<title>Node2</title>
<polygon fill="none" stroke="#bfbfbf" points="217,-129 217,-148 272,-148 272,-129 217,-129"/>
<text text-anchor="middle" x="244.5" y="-136" font-family="Arial" font-size="10.00" fill="#000000">iostream</text>
</g>
<!-- Node0&#45;&gt;Node2 -->
<g id="edge2" class="edge">
<title>Node0&#45;&gt;Node2</title>
<path fill="none" stroke="#191970" d="M244.5,-190.3906C244.5,-181.8657 244.5,-169.1392 244.5,-158.4235"/>
<polygon fill="#191970" stroke="#191970" points="248.0001,-158.2448 244.5,-148.2449 241.0001,-158.2449 248.0001,-158.2448"/>
</g>
<!-- Node3 -->
<g id="node4" class="node">
<title>Node3</title>
<g id="a_node4"><a xlink:href="lsgc_8h.html" target="_top" xlink:title="lsgc.h">
<polygon fill="none" stroke="#000000" points="290,-129 290,-148 333,-148 333,-129 290,-129"/>
<text text-anchor="middle" x="311.5" y="-136" font-family="Arial" font-size="10.00" fill="#000000">lsgc.h</text>
</a>
</g>
</g>
<!-- Node0&#45;&gt;Node3 -->
<g id="edge3" class="edge">
<title>Node0&#45;&gt;Node3</title>
<path fill="none" stroke="#191970" d="M254.9688,-190.3906C265.2337,-180.9683 281.0903,-166.4134 293.4006,-155.1137"/>
<polygon fill="#191970" stroke="#191970" points="295.8834,-157.5856 300.8837,-148.2449 291.1499,-152.4287 295.8834,-157.5856"/>
</g>
<!-- Node4 -->
<g id="node5" class="node">
<title>Node4</title>
<g id="a_node5"><a xlink:href="aq__base_8h.html" target="_top" xlink:title="aq_base.h">
<polygon fill="none" stroke="#000000" points="280,-67.5 280,-86.5 343,-86.5 343,-67.5 280,-67.5"/>
<text text-anchor="middle" x="311.5" y="-74.5" font-family="Arial" font-size="10.00" fill="#000000">aq_base.h</text>
</a>
</g>
</g>
<!-- Node3&#45;&gt;Node4 -->
<g id="edge4" class="edge">
<title>Node3&#45;&gt;Node4</title>
<path fill="none" stroke="#191970" d="M311.5,-128.8906C311.5,-120.3657 311.5,-107.6392 311.5,-96.9235"/>
<polygon fill="#191970" stroke="#191970" points="315.0001,-96.7448 311.5,-86.7449 308.0001,-96.7449 315.0001,-96.7448"/>
</g>
<!-- Node5 -->
<g id="node6" class="node">
<title>Node5</title>
<polygon fill="none" stroke="#bfbfbf" points="0,-6 0,-25 107,-25 107,-6 0,-6"/>
<text text-anchor="middle" x="53.5" y="-13" font-family="Arial" font-size="10.00" fill="#000000">deal.II/base/tensor.h</text>
</g>
<!-- Node4&#45;&gt;Node5 -->
<g id="edge5" class="edge">
<title>Node4&#45;&gt;Node5</title>
<path fill="none" stroke="#191970" d="M279.8963,-69.7309C241.1281,-60.7797 173.4174,-45.0353 115.5,-31 110.8262,-29.8674 105.9578,-28.674 101.0946,-27.4728"/>
<polygon fill="#191970" stroke="#191970" points="101.7322,-24.025 91.1835,-25.0134 100.0462,-30.8189 101.7322,-24.025"/>
</g>
<!-- Node6 -->
<g id="node7" class="node">
<title>Node6</title>
<polygon fill="none" stroke="#bfbfbf" points="125,-.5 125,-30.5 242,-30.5 242,-.5 125,-.5"/>
<text text-anchor="start" x="133" y="-18.5" font-family="Arial" font-size="10.00" fill="#000000">deal.II/base/parameter</text>
<text text-anchor="middle" x="183.5" y="-7.5" font-family="Arial" font-size="10.00" fill="#000000">_handler.h</text>
</g>
<!-- Node4&#45;&gt;Node6 -->
<g id="edge6" class="edge">
<title>Node4&#45;&gt;Node6</title>
<path fill="none" stroke="#191970" d="M291.5,-67.3906C273.455,-58.7205 246.3648,-45.7046 223.8312,-34.8779"/>
<polygon fill="#191970" stroke="#191970" points="225.3417,-31.7206 214.8123,-30.5446 222.3101,-38.0302 225.3417,-31.7206"/>
</g>
<!-- Node7 -->
<g id="node8" class="node">
<title>Node7</title>
<polygon fill="none" stroke="#bfbfbf" points="260.5,-6 260.5,-25 304.5,-25 304.5,-6 260.5,-6"/>
<text text-anchor="middle" x="282.5" y="-13" font-family="Arial" font-size="10.00" fill="#000000">vector</text>
</g>
<!-- Node4&#45;&gt;Node7 -->
<g id="edge7" class="edge">
<title>Node4&#45;&gt;Node7</title>
<path fill="none" stroke="#191970" d="M306.9688,-67.3906C302.8219,-58.5965 296.5668,-45.3312 291.419,-34.4145"/>
<polygon fill="#191970" stroke="#191970" points="294.5259,-32.7969 287.0951,-25.2449 288.1945,-35.7825 294.5259,-32.7969"/>
</g>
<!-- Node8 -->
<g id="node9" class="node">
<title>Node8</title>
<polygon fill="none" stroke="#bfbfbf" points="322.5,-6 322.5,-25 358.5,-25 358.5,-6 322.5,-6"/>
<text text-anchor="middle" x="340.5" y="-13" font-family="Arial" font-size="10.00" fill="#000000">map</text>
</g>
<!-- Node4&#45;&gt;Node8 -->
<g id="edge8" class="edge">
<title>Node4&#45;&gt;Node8</title>
<path fill="none" stroke="#191970" d="M316.0313,-67.3906C320.1781,-58.5965 326.4332,-45.3312 331.581,-34.4145"/>
<polygon fill="#191970" stroke="#191970" points="334.8055,-35.7825 335.9049,-25.2449 328.4741,-32.7969 334.8055,-35.7825"/>
</g>
<!-- Node9 -->
<g id="node10" class="node">
<title>Node9</title>
<polygon fill="none" stroke="#bfbfbf" points="377,-6 377,-25 464,-25 464,-6 377,-6"/>
<text text-anchor="middle" x="420.5" y="-13" font-family="Arial" font-size="10.00" fill="#000000">unordered_map</text>
</g>
<!-- Node4&#45;&gt;Node9 -->
<g id="edge9" class="edge">
<title>Node4&#45;&gt;Node9</title>
<path fill="none" stroke="#191970" d="M328.5313,-67.3906C346.289,-57.3713 374.333,-41.5483 394.7882,-30.0071"/>
<polygon fill="#191970" stroke="#191970" points="396.5989,-33.0042 403.5883,-25.0419 393.1591,-26.9077 396.5989,-33.0042"/>
</g>
<!-- Node10 -->
<g id="node11" class="node">
<title>Node10</title>
<polygon fill="none" stroke="#bfbfbf" points="482,-6 482,-25 523,-25 523,-6 482,-6"/>
<text text-anchor="middle" x="502.5" y="-13" font-family="Arial" font-size="10.00" fill="#000000">string</text>
</g>
<!-- Node4&#45;&gt;Node10 -->
<g id="edge10" class="edge">
<title>Node4&#45;&gt;Node10</title>
<path fill="none" stroke="#191970" d="M343.2214,-70.1214C376.3741,-62.4438 429.5814,-48.7334 473.5,-31 474.5322,-30.5832 475.5755,-30.14 476.6221,-29.6767"/>
<polygon fill="#191970" stroke="#191970" points="478.4694,-32.67 485.9246,-25.142 475.402,-26.3778 478.4694,-32.67"/>
</g>
</g>
</svg>
        <g id="navigator" transform="translate(0 0)" fill="#404254">
                <rect fill="#f2f5e9" fill-opacity="0.5" stroke="#606060" stroke-width=".5" x="0" y="0" width="60" height="60"/>
                <use id="zoomplus" xlink:href="#zoomPlus" x="17" y="9" onmousedown="handleZoom(evt,'in')"/>
                <use id="zoomminus" xlink:href="#zoomMin" x="42" y="9" onmousedown="handleZoom(evt,'out')"/>
                <use id="reset" xlink:href="#resetDef" x="30" y="36" onmousedown="handleReset()"/>
                <g id="arrowUp" xlink:href="#dirArrow" transform="translate(30 24)" onmousedown="handlePan(0,-1)">
                  <use xlink:href="#rim" fill="#404040">
                        <set attributeName="fill" to="#808080" begin="arrowUp.mouseover" end="arrowUp.mouseout"/>
                  </use>
                  <path fill="none" stroke="white" stroke-width="1.5" d="M0,-3.0v7 M-2.5,-0.5L0,-3.0L2.5,-0.5"/>
                </g>
                <g id="arrowRight" xlink:href="#dirArrow" transform="rotate(90) translate(36 -43)" onmousedown="handlePan(1,0)">
                  <use xlink:href="#rim" fill="#404040">
                        <set attributeName="fill" to="#808080" begin="arrowRight.mouseover" end="arrowRight.mouseout"/>
                  </use>
                  <path fill="none" stroke="white" stroke-width="1.5" d="M0,-3.0v7 M-2.5,-0.5L0,-3.0L2.5,-0.5"/>
                </g>
                <g id="arrowDown" xlink:href="#dirArrow" transform="rotate(180) translate(-30 -48)" onmousedown="handlePan(0,1)">
                  <use xlink:href="#rim" fill="#404040">
                        <set attributeName="fill" to="#808080" begin="arrowDown.mouseover" end="arrowDown.mouseout"/>
                  </use>
                  <path fill="none" stroke="white" stroke-width="1.5" d="M0,-3.0v7 M-2.5,-0.5L0,-3.0L2.5,-0.5"/>
                </g>
                <g id="arrowLeft" xlink:href="#dirArrow" transform="rotate(270) translate(-36 17)" onmousedown="handlePan(-1,0)">
                  <use xlink:href="#rim" fill="#404040">
                        <set attributeName="fill" to="#808080" begin="arrowLeft.mouseover" end="arrowLeft.mouseout"/>
                  </use>
                  <path fill="none" stroke="white" stroke-width="1.5" d="M0,-3.0v7 M-2.5,-0.5L0,-3.0L2.5,-0.5"/>
                </g>
        </g>
        <svg viewBox="0 0 15 15" width="100%" height="30px" preserveAspectRatio="xMaxYMin meet">
         <g id="arrow_out" transform="scale(0.3 0.3)">
          <a xlink:href="lsgc_8cc__incl_org.svg" target="_base">
           <rect id="button" ry="5" rx="5" y="6" x="6" height="38" width="38"
                fill="#f2f5e9" fill-opacity="0.5" stroke="#606060" stroke-width="1.0"/>
           <path id="arrow"
             d="M 11.500037,31.436501 C 11.940474,20.09759 22.043105,11.32322 32.158766,21.979434 L 37.068811,17.246167 C 37.068811,17.246167 37.088388,32 37.088388,32 L 22.160133,31.978069 C 22.160133,31.978069 26.997745,27.140456 26.997745,27.140456 C 18.528582,18.264221 13.291696,25.230495 11.500037,31.436501 z"
             style="fill:#404040;"/>
          </a>
         </g>
        </svg>
</svg>
