<?xml version="1.0" encoding="UTF-8" standalone="no"?>
<!DOCTYPE svg PUBLIC "-//W3C//DTD SVG 1.1//EN"
 "http://www.w3.org/Graphics/SVG/1.1/DTD/svg11.dtd">
<!-- Generated by graphviz version 2.40.1 (20161225.0304)
 -->
<!-- Title: src/aqdata/lsgc.h Pages: 1 -->
<svg width="534pt" height="114pt"
 viewBox="0.00 0.00 534.00 114.00" xmlns="http://www.w3.org/2000/svg" xmlns:xlink="http://www.w3.org/1999/xlink">
<g id="graph0" class="graph" transform="scale(1 1) rotate(0) translate(4 110)">
<title>src/aqdata/lsgc.h</title>
<!-- Node8 -->
<g id="node1" class="node">
<title>Node8</title>
<polygon fill="#bfbfbf" stroke="#000000" points="141.5,-71.5 141.5,-105.5 339.5,-105.5 339.5,-71.5 141.5,-71.5"/>
<text text-anchor="middle" x="240.5" y="-82.3" font-family="Arial" font-size="24.00" fill="#000000">src/aqdata/lsgc.h</text>
</g>
<!-- Node9 -->
<g id="node2" class="node">
<title>Node9</title>
<g id="a_node2"><a xlink:href="lsgc_8cc.html" target="_top" xlink:title="src/aqdata/lsgc.cc">
<polygon fill="none" stroke="#000000" points="0,-.5 0,-34.5 209,-34.5 209,-.5 0,-.5"/>
<text text-anchor="middle" x="104.5" y="-11.3" font-family="Arial" font-size="24.00" fill="#000000">src/aqdata/lsgc.cc</text>
</a>
</g>
</g>
<!-- Node8&#45;&gt;Node9 -->
<g id="edge1" class="edge">
<title>Node8&#45;&gt;Node9</title>
<path fill="none" stroke="#191970" d="M198.8274,-66.7445C179.0543,-56.4217 155.7689,-44.2654 137.2809,-34.6136"/>
<polygon fill="#191970" stroke="#191970" points="197.4401,-69.9684 207.9246,-71.4937 200.6797,-63.7631 197.4401,-69.9684"/>
</g>
<!-- Node10 -->
<g id="node3" class="node">
<title>Node10</title>
<g id="a_node3"><a xlink:href="bart__driver_8cc.html" target="_top" xlink:title="src/common/bart_driver.cc">
<polygon fill="none" stroke="#000000" points="227,-.5 227,-34.5 526,-34.5 526,-.5 227,-.5"/>
<text text-anchor="middle" x="376.5" y="-11.3" font-family="Arial" font-size="24.00" fill="#000000">src/common/bart_driver.cc</text>
</a>
</g>
</g>
<!-- Node8&#45;&gt;Node10 -->
<g id="edge2" class="edge">
<title>Node8&#45;&gt;Node10</title>
<path fill="none" stroke="#191970" d="M282.1726,-66.7445C301.9457,-56.4217 325.2311,-44.2654 343.7191,-34.6136"/>
<polygon fill="#191970" stroke="#191970" points="280.3203,-63.7631 273.0754,-71.4937 283.5599,-69.9684 280.3203,-63.7631"/>
</g>
</g>
</svg>
