<?xml version="1.0" encoding="UTF-8" standalone="no"?>
<!DOCTYPE svg PUBLIC "-//W3C//DTD SVG 1.1//EN"
 "http://www.w3.org/Graphics/SVG/1.1/DTD/svg11.dtd">
<!-- Generated by graphviz version 2.40.1 (20161225.0304)
 -->
<!-- Title: src/aqdata/lsgc.h Pages: 1 -->
<svg width="258pt" height="84pt"
 viewBox="0.00 0.00 257.50 84.00" xmlns="http://www.w3.org/2000/svg" xmlns:xlink="http://www.w3.org/1999/xlink">
<g id="graph0" class="graph" transform="scale(1 1) rotate(0) translate(4 80)">
<title>src/aqdata/lsgc.h</title>
<!-- Node8 -->
<g id="node1" class="node">
<title>Node8</title>
<polygon fill="#bfbfbf" stroke="#000000" points="69.5,-56.5 69.5,-75.5 161.5,-75.5 161.5,-56.5 69.5,-56.5"/>
<text text-anchor="middle" x="115.5" y="-63.5" font-family="Arial" font-size="10.00" fill="#000000">src/aqdata/lsgc.h</text>
</g>
<!-- Node9 -->
<g id="node2" class="node">
<title>Node9</title>
<g id="a_node2"><a xlink:href="lsgc_8cc.html" target="_top" xlink:title="src/aqdata/lsgc.cc">
<polygon fill="none" stroke="#000000" points="0,-.5 0,-19.5 97,-19.5 97,-.5 0,-.5"/>
<text text-anchor="middle" x="48.5" y="-7.5" font-family="Arial" font-size="10.00" fill="#000000">src/aqdata/lsgc.cc</text>
</a>
</g>
</g>
<!-- Node8&#45;&gt;Node9 -->
<g id="edge1" class="edge">
<title>Node8&#45;&gt;Node9</title>
<path fill="none" stroke="#191970" d="M95.9324,-49.645C84.2802,-39.9058 69.8916,-27.8795 60.0368,-19.6427"/>
<polygon fill="#191970" stroke="#191970" points="93.9121,-52.5179 103.8295,-56.2455 98.4012,-47.1469 93.9121,-52.5179"/>
</g>
<!-- Node10 -->
<g id="node3" class="node">
<title>Node10</title>
<g id="a_node3"><a xlink:href="bart__driver_8cc.html" target="_top" xlink:title="src/common/bart_driver.cc">
<polygon fill="none" stroke="#000000" points="115.5,-.5 115.5,-19.5 249.5,-19.5 249.5,-.5 115.5,-.5"/>
<text text-anchor="middle" x="182.5" y="-7.5" font-family="Arial" font-size="10.00" fill="#000000">src/common/bart_driver.cc</text>
</a>
</g>
</g>
<!-- Node8&#45;&gt;Node10 -->
<g id="edge2" class="edge">
<title>Node8&#45;&gt;Node10</title>
<path fill="none" stroke="#191970" d="M135.0676,-49.645C146.7198,-39.9058 161.1084,-27.8795 170.9632,-19.6427"/>
<polygon fill="#191970" stroke="#191970" points="132.5988,-47.1469 127.1705,-56.2455 137.0879,-52.5179 132.5988,-47.1469"/>
</g>
</g>
</svg>
