<?xml version="1.0" encoding="UTF-8" standalone="no"?>
<!DOCTYPE svg PUBLIC "-//W3C//DTD SVG 1.1//EN"
 "http://www.w3.org/Graphics/SVG/1.1/DTD/svg11.dtd">
<!-- Generated by graphviz version 2.40.1 (20161225.0304)
 -->
<!-- Title: main Pages: 1 -->
<svg width="187pt" height="78pt"
 viewBox="0.00 0.00 187.00 77.50" xmlns="http://www.w3.org/2000/svg" xmlns:xlink="http://www.w3.org/1999/xlink">
<g id="graph0" class="graph" transform="scale(1 1) rotate(0) translate(4 73.5)">
<title>main</title>
<!-- Node0 -->
<g id="node1" class="node">
<title>Node0</title>
<polygon fill="#bfbfbf" stroke="#000000" points="0,-22.5 0,-41.5 38,-41.5 38,-22.5 0,-22.5"/>
<text text-anchor="middle" x="19" y="-29.5" font-family="Arial" font-size="10.00" fill="#000000">main</text>
</g>
<!-- Node1 -->
<g id="node2" class="node">
<title>Node1</title>
<g id="a_node2"><a xlink:href="class_problem_definition.html#a0a68b3c08b69729642dcfd37f23e7494" target="_top" xlink:title="ProblemDefinition::\ldeclare_parameters">
<polygon fill="none" stroke="#000000" points="74,-39 74,-69 179,-69 179,-39 74,-39"/>
<text text-anchor="start" x="82" y="-57" font-family="Arial" font-size="10.00" fill="#000000">ProblemDefinition::</text>
<text text-anchor="middle" x="126.5" y="-46" font-family="Arial" font-size="10.00" fill="#000000">declare_parameters</text>
</a>
</g>
</g>
<!-- Node0&#45;&gt;Node1 -->
<g id="edge1" class="edge">
<title>Node0&#45;&gt;Node1</title>
<path fill="none" stroke="#191970" d="M38.2188,-35.9332C45.6594,-37.4559 54.6308,-39.2919 63.9656,-41.2023"/>
<polygon fill="#191970" stroke="#191970" points="63.2773,-44.6339 73.776,-43.21 64.6808,-37.776 63.2773,-44.6339"/>
</g>
<!-- Node2 -->
<g id="node3" class="node">
<title>Node2</title>
<g id="a_node3"><a xlink:href="class_bart_driver.html#a20c70ef3733fc4406353e6fdfee6c684" target="_top" xlink:title="Public function used to run all the functions inside it. ">
<polygon fill="none" stroke="#000000" points="85.5,-.5 85.5,-19.5 167.5,-19.5 167.5,-.5 85.5,-.5"/>
<text text-anchor="middle" x="126.5" y="-7.5" font-family="Arial" font-size="10.00" fill="#000000">BartDriver::run</text>
</a>
</g>
</g>
<!-- Node0&#45;&gt;Node2 -->
<g id="edge2" class="edge">
<title>Node0&#45;&gt;Node2</title>
<path fill="none" stroke="#191970" d="M38.2188,-28.0668C48.6139,-25.9395 61.997,-23.2006 75.1844,-20.5018"/>
<polygon fill="#191970" stroke="#191970" points="76.0827,-23.8906 85.1779,-18.4566 74.6792,-17.0327 76.0827,-23.8906"/>
</g>
</g>
</svg>
