<?xml version="1.0" encoding="UTF-8" standalone="no"?>
<!DOCTYPE svg PUBLIC "-//W3C//DTD SVG 1.1//EN"
 "http://www.w3.org/Graphics/SVG/1.1/DTD/svg11.dtd">
<!-- Generated by graphviz version 2.40.1 (20161225.0304)
 -->
<!-- Title: src/material/material_properties.cc Pages: 1 -->
<!--zoomable 162 -->
<svg id="main" version="1.1" xmlns="http://www.w3.org/2000/svg" xmlns:xlink="http://www.w3.org/1999/xlink" xml:space="preserve" onload="init(evt)">
<style type="text/css"><![CDATA[
.edge:hover path { stroke: red; }
.edge:hover polygon { stroke: red; fill: red; }
]]></style>
<script type="text/javascript"><![CDATA[
var edges = document.getElementsByTagName('g');
if (edges && edges.length) {
  for (var i=0;i<edges.length;i++) {
    if (edges[i].id.substr(0,4)=='edge') {
      edges[i].setAttribute('class','edge');
    }
  }
}
]]></script>
        <defs>
                <circle id="rim" cx="0" cy="0" r="7"/>
                <circle id="rim2" cx="0" cy="0" r="3.5"/>
                <g id="zoomPlus">
                        <use xlink:href="#rim" fill="#404040">
                                <set attributeName="fill" to="#808080" begin="zoomplus.mouseover" end="zoomplus.mouseout"/>
                        </use>
                        <path d="M-4,0h8M0,-4v8" fill="none" stroke="white" stroke-width="1.5" pointer-events="none"/>
                </g>
                <g id="zoomMin">
                        <use xlink:href="#rim" fill="#404040">
                                <set attributeName="fill" to="#808080" begin="zoomminus.mouseover" end="zoomminus.mouseout"/>
                        </use>
                        <path d="M-4,0h8" fill="none" stroke="white" stroke-width="1.5" pointer-events="none"/>
                </g>
                <g id="dirArrow">
                        <path fill="none" stroke="white" stroke-width="1.5" d="M0,-3.0v7 M-2.5,-0.5L0,-3.0L2.5,-0.5"/>
                </g>
               <g id="resetDef">
                       <use xlink:href="#rim2" fill="#404040">
                               <set attributeName="fill" to="#808080" begin="reset.mouseover" end="reset.mouseout"/>
                       </use>
               </g>
        </defs>

<script type="text/javascript">
var viewWidth = 574;
var viewHeight = 162;
var sectionId = 'dynsection-0';
</script>
<script xlink:href="svgpan.js"/>
<svg id="graph" class="graph">
<g id="viewport">
<title>src/material/material_properties.cc</title>
<!-- Node0 -->
<g id="node1" class="node">
<title>Node0</title>
<polygon fill="#bfbfbf" stroke="#000000" points="137.5,-123.5 137.5,-153.5 244.5,-153.5 244.5,-123.5 137.5,-123.5"/>
<text text-anchor="start" x="145.5" y="-141.5" font-family="Arial" font-size="10.00" fill="#000000">src/material/material</text>
<text text-anchor="middle" x="191" y="-130.5" font-family="Arial" font-size="10.00" fill="#000000">_properties.cc</text>
</g>
<!-- Node1 -->
<g id="node2" class="node">
<title>Node1</title>
<polygon fill="none" stroke="#bfbfbf" points="0,-67.5 0,-86.5 118,-86.5 118,-67.5 0,-67.5"/>
<text text-anchor="middle" x="59" y="-74.5" font-family="Arial" font-size="10.00" fill="#000000">deal.II/base/numbers.h</text>
</g>
<!-- Node0&#45;&gt;Node1 -->
<g id="edge1" class="edge">
<title>Node0&#45;&gt;Node1</title>
<path fill="none" stroke="#191970" d="M158.7092,-123.4554C137.3608,-113.509 109.5804,-100.5659 88.7667,-90.8686"/>
<polygon fill="#191970" stroke="#191970" points="89.9979,-87.581 79.4553,-86.5303 87.0416,-93.9262 89.9979,-87.581"/>
</g>
<!-- Node2 -->
<g id="node3" class="node">
<title>Node2</title>
<polygon fill="none" stroke="#bfbfbf" points="136,-67.5 136,-86.5 246,-86.5 246,-67.5 136,-67.5"/>
<text text-anchor="middle" x="191" y="-74.5" font-family="Arial" font-size="10.00" fill="#000000">deal.II/base/utilities.h</text>
</g>
<!-- Node0&#45;&gt;Node2 -->
<g id="edge2" class="edge">
<title>Node0&#45;&gt;Node2</title>
<path fill="none" stroke="#191970" d="M191,-123.2977C191,-115.3834 191,-105.6043 191,-97.0759"/>
<polygon fill="#191970" stroke="#191970" points="194.5001,-96.8469 191,-86.8469 187.5001,-96.847 194.5001,-96.8469"/>
</g>
<!-- Node3 -->
<g id="node4" class="node">
<title>Node3</title>
<g id="a_node4"><a xlink:href="material__properties_8h.html" target="_top" xlink:title="material_properties.h">
<polygon fill="none" stroke="#000000" points="264,-67.5 264,-86.5 374,-86.5 374,-67.5 264,-67.5"/>
<text text-anchor="middle" x="319" y="-74.5" font-family="Arial" font-size="10.00" fill="#000000">material_properties.h</text>
</a>
</g>
</g>
<!-- Node0&#45;&gt;Node3 -->
<g id="edge3" class="edge">
<title>Node0&#45;&gt;Node3</title>
<path fill="none" stroke="#191970" d="M222.3123,-123.4554C243.0138,-113.509 269.9523,-100.5659 290.1353,-90.8686"/>
<polygon fill="#191970" stroke="#191970" points="291.6667,-94.0159 299.1645,-86.5303 288.6352,-87.7064 291.6667,-94.0159"/>
</g>
<!-- Node4 -->
<g id="node5" class="node">
<title>Node4</title>
<polygon fill="none" stroke="#bfbfbf" points="49.5,-.5 49.5,-30.5 166.5,-30.5 166.5,-.5 49.5,-.5"/>
<text text-anchor="start" x="57.5" y="-18.5" font-family="Arial" font-size="10.00" fill="#000000">deal.II/base/parameter</text>
<text text-anchor="middle" x="108" y="-7.5" font-family="Arial" font-size="10.00" fill="#000000">_handler.h</text>
</g>
<!-- Node3&#45;&gt;Node4 -->
<g id="edge4" class="edge">
<title>Node3&#45;&gt;Node4</title>
<path fill="none" stroke="#191970" d="M286.0313,-67.3906C254.9631,-58.3352 207.6298,-44.539 169.5772,-33.4479"/>
<polygon fill="#191970" stroke="#191970" points="170.1963,-29.9827 159.6164,-30.5446 168.2375,-36.7031 170.1963,-29.9827"/>
</g>
<!-- Node5 -->
<g id="node6" class="node">
<title>Node5</title>
<polygon fill="none" stroke="#bfbfbf" points="184.5,-6 184.5,-25 239.5,-25 239.5,-6 184.5,-6"/>
<text text-anchor="middle" x="212" y="-13" font-family="Arial" font-size="10.00" fill="#000000">iostream</text>
</g>
<!-- Node3&#45;&gt;Node5 -->
<g id="edge5" class="edge">
<title>Node3&#45;&gt;Node5</title>
<path fill="none" stroke="#191970" d="M302.2813,-67.3906C284.9278,-57.4165 257.5677,-41.6908 237.5118,-30.1633"/>
<polygon fill="#191970" stroke="#191970" points="239.0154,-26.9907 228.6013,-25.0419 235.5272,-33.0596 239.0154,-26.9907"/>
</g>
<!-- Node6 -->
<g id="node7" class="node">
<title>Node6</title>
<polygon fill="none" stroke="#bfbfbf" points="257.5,-6 257.5,-25 298.5,-25 298.5,-6 257.5,-6"/>
<text text-anchor="middle" x="278" y="-13" font-family="Arial" font-size="10.00" fill="#000000">string</text>
</g>
<!-- Node3&#45;&gt;Node6 -->
<g id="edge6" class="edge">
<title>Node3&#45;&gt;Node6</title>
<path fill="none" stroke="#191970" d="M312.5938,-67.3906C306.6114,-58.417 297.5253,-44.7879 290.1661,-33.7491"/>
<polygon fill="#191970" stroke="#191970" points="292.9558,-31.6239 284.4966,-25.2449 287.1314,-35.5068 292.9558,-31.6239"/>
</g>
<!-- Node7 -->
<g id="node8" class="node">
<title>Node7</title>
<polygon fill="none" stroke="#bfbfbf" points="316.5,-6 316.5,-25 403.5,-25 403.5,-6 316.5,-6"/>
<text text-anchor="middle" x="360" y="-13" font-family="Arial" font-size="10.00" fill="#000000">unordered_map</text>
</g>
<!-- Node3&#45;&gt;Node7 -->
<g id="edge7" class="edge">
<title>Node3&#45;&gt;Node7</title>
<path fill="none" stroke="#191970" d="M325.4063,-67.3906C331.3886,-58.417 340.4747,-44.7879 347.8339,-33.7491"/>
<polygon fill="#191970" stroke="#191970" points="350.8686,-35.5068 353.5034,-25.2449 345.0442,-31.6239 350.8686,-35.5068"/>
</g>
<!-- Node8 -->
<g id="node9" class="node">
<title>Node8</title>
<polygon fill="none" stroke="#bfbfbf" points="422,-6 422,-25 466,-25 466,-6 422,-6"/>
<text text-anchor="middle" x="444" y="-13" font-family="Arial" font-size="10.00" fill="#000000">vector</text>
</g>
<!-- Node3&#45;&gt;Node8 -->
<g id="edge8" class="edge">
<title>Node3&#45;&gt;Node8</title>
<path fill="none" stroke="#191970" d="M338.8296,-67.3571C357.8703,-58.0833 387.4323,-43.6476 413,-31 413.9708,-30.5198 414.9584,-30.0304 415.9555,-29.5357"/>
<polygon fill="#191970" stroke="#191970" points="417.6038,-32.6249 424.9954,-25.0344 414.4836,-26.3587 417.6038,-32.6249"/>
</g>
<!-- Node9 -->
<g id="node10" class="node">
<title>Node9</title>
<polygon fill="none" stroke="#bfbfbf" points="484.5,-6 484.5,-25 565.5,-25 565.5,-6 484.5,-6"/>
<text text-anchor="middle" x="525" y="-13" font-family="Arial" font-size="10.00" fill="#000000">unordered_set</text>
</g>
<!-- Node3&#45;&gt;Node9 -->
<g id="edge9" class="edge">
<title>Node3&#45;&gt;Node9</title>
<path fill="none" stroke="#191970" d="M351.908,-67.4401C383.507,-58.2264 432.5671,-43.8326 475,-31 478.1316,-30.0529 481.3713,-29.0657 484.6266,-28.0683"/>
<polygon fill="#191970" stroke="#191970" points="485.8197,-31.3632 494.3474,-25.0759 483.7602,-24.673 485.8197,-31.3632"/>
</g>
</g>
</svg>
        <g id="navigator" transform="translate(0 0)" fill="#404254">
                <rect fill="#f2f5e9" fill-opacity="0.5" stroke="#606060" stroke-width=".5" x="0" y="0" width="60" height="60"/>
                <use id="zoomplus" xlink:href="#zoomPlus" x="17" y="9" onmousedown="handleZoom(evt,'in')"/>
                <use id="zoomminus" xlink:href="#zoomMin" x="42" y="9" onmousedown="handleZoom(evt,'out')"/>
                <use id="reset" xlink:href="#resetDef" x="30" y="36" onmousedown="handleReset()"/>
                <g id="arrowUp" xlink:href="#dirArrow" transform="translate(30 24)" onmousedown="handlePan(0,-1)">
                  <use xlink:href="#rim" fill="#404040">
                        <set attributeName="fill" to="#808080" begin="arrowUp.mouseover" end="arrowUp.mouseout"/>
                  </use>
                  <path fill="none" stroke="white" stroke-width="1.5" d="M0,-3.0v7 M-2.5,-0.5L0,-3.0L2.5,-0.5"/>
                </g>
                <g id="arrowRight" xlink:href="#dirArrow" transform="rotate(90) translate(36 -43)" onmousedown="handlePan(1,0)">
                  <use xlink:href="#rim" fill="#404040">
                        <set attributeName="fill" to="#808080" begin="arrowRight.mouseover" end="arrowRight.mouseout"/>
                  </use>
                  <path fill="none" stroke="white" stroke-width="1.5" d="M0,-3.0v7 M-2.5,-0.5L0,-3.0L2.5,-0.5"/>
                </g>
                <g id="arrowDown" xlink:href="#dirArrow" transform="rotate(180) translate(-30 -48)" onmousedown="handlePan(0,1)">
                  <use xlink:href="#rim" fill="#404040">
                        <set attributeName="fill" to="#808080" begin="arrowDown.mouseover" end="arrowDown.mouseout"/>
                  </use>
                  <path fill="none" stroke="white" stroke-width="1.5" d="M0,-3.0v7 M-2.5,-0.5L0,-3.0L2.5,-0.5"/>
                </g>
                <g id="arrowLeft" xlink:href="#dirArrow" transform="rotate(270) translate(-36 17)" onmousedown="handlePan(-1,0)">
                  <use xlink:href="#rim" fill="#404040">
                        <set attributeName="fill" to="#808080" begin="arrowLeft.mouseover" end="arrowLeft.mouseout"/>
                  </use>
                  <path fill="none" stroke="white" stroke-width="1.5" d="M0,-3.0v7 M-2.5,-0.5L0,-3.0L2.5,-0.5"/>
                </g>
        </g>
        <svg viewBox="0 0 15 15" width="100%" height="30px" preserveAspectRatio="xMaxYMin meet">
         <g id="arrow_out" transform="scale(0.3 0.3)">
          <a xlink:href="material__properties_8cc__incl_org.svg" target="_base">
           <rect id="button" ry="5" rx="5" y="6" x="6" height="38" width="38"
                fill="#f2f5e9" fill-opacity="0.5" stroke="#606060" stroke-width="1.0"/>
           <path id="arrow"
             d="M 11.500037,31.436501 C 11.940474,20.09759 22.043105,11.32322 32.158766,21.979434 L 37.068811,17.246167 C 37.068811,17.246167 37.088388,32 37.088388,32 L 22.160133,31.978069 C 22.160133,31.978069 26.997745,27.140456 26.997745,27.140456 C 18.528582,18.264221 13.291696,25.230495 11.500037,31.436501 z"
             style="fill:#404040;"/>
          </a>
         </g>
        </svg>
</svg>
