<?xml version="1.0" encoding="UTF-8" standalone="no"?>
<!DOCTYPE svg PUBLIC "-//W3C//DTD SVG 1.1//EN"
 "http://www.w3.org/Graphics/SVG/1.1/DTD/svg11.dtd">
<!-- Generated by graphviz version 2.40.1 (20161225.0304)
 -->
<!-- Title: src/material/material_properties.h Pages: 1 -->
<svg width="524pt" height="106pt"
 viewBox="0.00 0.00 524.00 106.00" xmlns="http://www.w3.org/2000/svg" xmlns:xlink="http://www.w3.org/1999/xlink">
<g id="graph0" class="graph" transform="scale(1 1) rotate(0) translate(4 102)">
<title>src/material/material_properties.h</title>
<!-- Node0 -->
<g id="node1" class="node">
<title>Node0</title>
<polygon fill="#bfbfbf" stroke="#000000" points="216,-67.5 216,-97.5 323,-97.5 323,-67.5 216,-67.5"/>
<text text-anchor="start" x="224" y="-85.5" font-family="Arial" font-size="10.00" fill="#000000">src/material/material</text>
<text text-anchor="middle" x="269.5" y="-74.5" font-family="Arial" font-size="10.00" fill="#000000">_properties.h</text>
</g>
<!-- Node1 -->
<g id="node2" class="node">
<title>Node1</title>
<polygon fill="none" stroke="#bfbfbf" points="0,-.5 0,-30.5 117,-30.5 117,-.5 0,-.5"/>
<text text-anchor="start" x="8" y="-18.5" font-family="Arial" font-size="10.00" fill="#000000">deal.II/base/parameter</text>
<text text-anchor="middle" x="58.5" y="-7.5" font-family="Arial" font-size="10.00" fill="#000000">_handler.h</text>
</g>
<!-- Node0&#45;&gt;Node1 -->
<g id="edge1" class="edge">
<title>Node0&#45;&gt;Node1</title>
<path fill="none" stroke="#191970" d="M222.1475,-67.4639C190.6301,-57.456 149.044,-44.2509 115.6811,-33.657"/>
<polygon fill="#191970" stroke="#191970" points="116.6494,-30.2923 106.059,-30.6017 114.5308,-36.9641 116.6494,-30.2923"/>
</g>
<!-- Node2 -->
<g id="node3" class="node">
<title>Node2</title>
<polygon fill="none" stroke="#bfbfbf" points="135,-6 135,-25 190,-25 190,-6 135,-6"/>
<text text-anchor="middle" x="162.5" y="-13" font-family="Arial" font-size="10.00" fill="#000000">iostream</text>
</g>
<!-- Node0&#45;&gt;Node2 -->
<g id="edge2" class="edge">
<title>Node0&#45;&gt;Node2</title>
<path fill="none" stroke="#191970" d="M245.4871,-67.4639C227.8574,-56.4247 204.0151,-41.4954 186.4097,-30.4715"/>
<polygon fill="#191970" stroke="#191970" points="188.1707,-27.4446 177.8376,-25.1039 184.4556,-33.3775 188.1707,-27.4446"/>
</g>
<!-- Node3 -->
<g id="node4" class="node">
<title>Node3</title>
<polygon fill="none" stroke="#bfbfbf" points="208,-6 208,-25 249,-25 249,-6 208,-6"/>
<text text-anchor="middle" x="228.5" y="-13" font-family="Arial" font-size="10.00" fill="#000000">string</text>
</g>
<!-- Node0&#45;&gt;Node3 -->
<g id="edge3" class="edge">
<title>Node0&#45;&gt;Node3</title>
<path fill="none" stroke="#191970" d="M260.1965,-67.2967C254.1186,-57.3645 246.1466,-44.3371 239.7181,-33.8321"/>
<polygon fill="#191970" stroke="#191970" points="242.5522,-31.7578 234.3471,-25.055 236.5814,-35.4115 242.5522,-31.7578"/>
</g>
<!-- Node4 -->
<g id="node5" class="node">
<title>Node4</title>
<polygon fill="none" stroke="#bfbfbf" points="267,-6 267,-25 354,-25 354,-6 267,-6"/>
<text text-anchor="middle" x="310.5" y="-13" font-family="Arial" font-size="10.00" fill="#000000">unordered_map</text>
</g>
<!-- Node0&#45;&gt;Node4 -->
<g id="edge4" class="edge">
<title>Node0&#45;&gt;Node4</title>
<path fill="none" stroke="#191970" d="M278.8035,-67.2967C284.8814,-57.3645 292.8534,-44.3371 299.2819,-33.8321"/>
<polygon fill="#191970" stroke="#191970" points="302.4186,-35.4115 304.6529,-25.055 296.4478,-31.7578 302.4186,-35.4115"/>
</g>
<!-- Node5 -->
<g id="node6" class="node">
<title>Node5</title>
<polygon fill="none" stroke="#bfbfbf" points="372.5,-6 372.5,-25 416.5,-25 416.5,-6 372.5,-6"/>
<text text-anchor="middle" x="394.5" y="-13" font-family="Arial" font-size="10.00" fill="#000000">vector</text>
</g>
<!-- Node0&#45;&gt;Node5 -->
<g id="edge5" class="edge">
<title>Node0&#45;&gt;Node5</title>
<path fill="none" stroke="#191970" d="M297.5524,-67.4639C318.5258,-56.2222 347.0256,-40.9463 367.6928,-29.8686"/>
<polygon fill="#191970" stroke="#191970" points="369.422,-32.913 376.5822,-25.1039 366.115,-26.7433 369.422,-32.913"/>
</g>
<!-- Node6 -->
<g id="node7" class="node">
<title>Node6</title>
<polygon fill="none" stroke="#bfbfbf" points="435,-6 435,-25 516,-25 516,-6 435,-6"/>
<text text-anchor="middle" x="475.5" y="-13" font-family="Arial" font-size="10.00" fill="#000000">unordered_set</text>
</g>
<!-- Node0&#45;&gt;Node6 -->
<g id="edge6" class="edge">
<title>Node0&#45;&gt;Node6</title>
<path fill="none" stroke="#191970" d="M315.7304,-67.4639C352.1152,-55.63 402.2445,-39.3258 436.5927,-28.1543"/>
<polygon fill="#191970" stroke="#191970" points="437.8477,-31.4267 446.2748,-25.0053 435.6826,-24.7699 437.8477,-31.4267"/>
</g>
</g>
</svg>
