<?xml version="1.0" encoding="UTF-8" standalone="no"?>
<!DOCTYPE svg PUBLIC "-//W3C//DTD SVG 1.1//EN"
 "http://www.w3.org/Graphics/SVG/1.1/DTD/svg11.dtd">
<!-- Generated by graphviz version 2.40.1 (20161225.0304)
 -->
<!-- Title: src/material/material_properties.h Pages: 1 -->
<svg width="781pt" height="553pt"
 viewBox="0.00 0.00 781.00 553.00" xmlns="http://www.w3.org/2000/svg" xmlns:xlink="http://www.w3.org/1999/xlink">
<g id="graph0" class="graph" transform="scale(1 1) rotate(0) translate(4 549)">
<title>src/material/material_properties.h</title>
<!-- Node7 -->
<g id="node1" class="node">
<title>Node7</title>
<polygon fill="#bfbfbf" stroke="#000000" points="244.5,-514.5 244.5,-544.5 351.5,-544.5 351.5,-514.5 244.5,-514.5"/>
<text text-anchor="start" x="252.5" y="-532.5" font-family="Arial" font-size="10.00" fill="#000000">src/material/material</text>
<text text-anchor="middle" x="298" y="-521.5" font-family="Arial" font-size="10.00" fill="#000000">_properties.h</text>
</g>
<!-- Node8 -->
<g id="node2" class="node">
<title>Node8</title>
<g id="a_node2"><a xlink:href="equation__base_8h.html" target="_top" xlink:title="src/equation/equation\l_base.h">
<polygon fill="none" stroke="#000000" points="242,-447.5 242,-477.5 354,-477.5 354,-447.5 242,-447.5"/>
<text text-anchor="start" x="250" y="-465.5" font-family="Arial" font-size="10.00" fill="#000000">src/equation/equation</text>
<text text-anchor="middle" x="298" y="-454.5" font-family="Arial" font-size="10.00" fill="#000000">_base.h</text>
</a>
</g>
</g>
<!-- Node7&#45;&gt;Node8 -->
<g id="edge1" class="edge">
<title>Node7&#45;&gt;Node8</title>
<path fill="none" stroke="#191970" d="M298,-504.0249C298,-495.128 298,-485.4287 298,-477.6432"/>
<polygon fill="#191970" stroke="#191970" points="294.5001,-504.2966 298,-514.2967 301.5001,-504.2967 294.5001,-504.2966"/>
</g>
<!-- Node13 -->
<g id="node7" class="node">
<title>Node13</title>
<g id="a_node7"><a xlink:href="bart__driver_8h.html" target="_top" xlink:title="src/common/bart_driver.h">
<polygon fill="none" stroke="#000000" points="49,-62 49,-81 179,-81 179,-62 49,-62"/>
<text text-anchor="middle" x="114" y="-69" font-family="Arial" font-size="10.00" fill="#000000">src/common/bart_driver.h</text>
</a>
</g>
</g>
<!-- Node7&#45;&gt;Node13 -->
<g id="edge34" class="edge">
<title>Node7&#45;&gt;Node13</title>
<path fill="none" stroke="#191970" d="M234.539,-514.5131C147.0319,-491.9694 0,-446.5023 0,-395.5 0,-395.5 0,-395.5 0,-205.5 0,-146.5506 64.7947,-100.3237 96.6859,-81.1414"/>
<polygon fill="#191970" stroke="#191970" points="233.8252,-517.9429 244.3794,-517.0164 235.551,-511.159 233.8252,-517.9429"/>
</g>
<!-- Node29 -->
<g id="node23" class="node">
<title>Node29</title>
<g id="a_node23"><a xlink:href="material__properties_8cc.html" target="_top" xlink:title="src/material/material\l_properties.cc">
<polygon fill="none" stroke="#000000" points="372.5,-447.5 372.5,-477.5 479.5,-477.5 479.5,-447.5 372.5,-447.5"/>
<text text-anchor="start" x="380.5" y="-465.5" font-family="Arial" font-size="10.00" fill="#000000">src/material/material</text>
<text text-anchor="middle" x="426" y="-454.5" font-family="Arial" font-size="10.00" fill="#000000">_properties.cc</text>
</a>
</g>
</g>
<!-- Node7&#45;&gt;Node29 -->
<g id="edge35" class="edge">
<title>Node7&#45;&gt;Node29</title>
<path fill="none" stroke="#191970" d="M335.6849,-509.7743C355.2495,-499.5335 378.7868,-487.2132 396.9273,-477.7177"/>
<polygon fill="#191970" stroke="#191970" points="333.9622,-506.7255 326.7257,-514.4639 337.2085,-512.9272 333.9622,-506.7255"/>
</g>
<!-- Node9 -->
<g id="node3" class="node">
<title>Node9</title>
<g id="a_node3"><a xlink:href="equation__base_8cc.html" target="_top" xlink:title="src/equation/equation\l_base.cc">
<polygon fill="none" stroke="#000000" points="178,-380.5 178,-410.5 290,-410.5 290,-380.5 178,-380.5"/>
<text text-anchor="start" x="186" y="-398.5" font-family="Arial" font-size="10.00" fill="#000000">src/equation/equation</text>
<text text-anchor="middle" x="234" y="-387.5" font-family="Arial" font-size="10.00" fill="#000000">_base.cc</text>
</a>
</g>
</g>
<!-- Node8&#45;&gt;Node9 -->
<g id="edge2" class="edge">
<title>Node8&#45;&gt;Node9</title>
<path fill="none" stroke="#191970" d="M276.4361,-439.9253C267.2254,-430.2828 256.7193,-419.2843 248.4651,-410.6432"/>
<polygon fill="#191970" stroke="#191970" points="274.0392,-442.4831 283.4774,-447.2967 279.101,-437.648 274.0392,-442.4831"/>
</g>
<!-- Node10 -->
<g id="node4" class="node">
<title>Node10</title>
<g id="a_node4"><a xlink:href="even__parity_8h.html" target="_top" xlink:title="src/equation/even_parity.h">
<polygon fill="none" stroke="#000000" points="604,-386 604,-405 738,-405 738,-386 604,-386"/>
<text text-anchor="middle" x="671" y="-393" font-family="Arial" font-size="10.00" fill="#000000">src/equation/even_parity.h</text>
</a>
</g>
</g>
<!-- Node8&#45;&gt;Node10 -->
<g id="edge3" class="edge">
<title>Node8&#45;&gt;Node10</title>
<path fill="none" stroke="#191970" d="M363.6969,-447.061C363.798,-447.0406 363.899,-447.0203 364,-447 447.5804,-430.1934 544.7272,-414.5443 606.9842,-405.0078"/>
<polygon fill="#191970" stroke="#191970" points="363.189,-443.5915 354.1156,-449.0617 364.6199,-450.4437 363.189,-443.5915"/>
</g>
<!-- Node8&#45;&gt;Node13 -->
<g id="edge6" class="edge">
<title>Node8&#45;&gt;Node13</title>
<path fill="none" stroke="#191970" d="M231.7828,-456.814C154.7519,-446.1484 38,-415.614 38,-328.5 38,-328.5 38,-328.5 38,-205.5 38,-152.8121 83.0056,-101.8623 103.7503,-81.1761"/>
<polygon fill="#191970" stroke="#191970" points="231.5353,-460.3113 241.904,-458.1338 232.4405,-453.3701 231.5353,-460.3113"/>
</g>
<!-- Node15 -->
<g id="node9" class="node">
<title>Node15</title>
<g id="a_node9"><a xlink:href="iteration__base_8h.html" target="_top" xlink:title="src/iteration/iteration\l_base.h">
<polygon fill="none" stroke="#000000" points="308.5,-380.5 308.5,-410.5 415.5,-410.5 415.5,-380.5 308.5,-380.5"/>
<text text-anchor="start" x="316.5" y="-398.5" font-family="Arial" font-size="10.00" fill="#000000">src/iteration/iteration</text>
<text text-anchor="middle" x="362" y="-387.5" font-family="Arial" font-size="10.00" fill="#000000">_base.h</text>
</a>
</g>
</g>
<!-- Node8&#45;&gt;Node15 -->
<g id="edge9" class="edge">
<title>Node8&#45;&gt;Node15</title>
<path fill="none" stroke="#191970" d="M319.5639,-439.9253C328.7746,-430.2828 339.2807,-419.2843 347.5349,-410.6432"/>
<polygon fill="#191970" stroke="#191970" points="316.899,-437.648 312.5226,-447.2967 321.9608,-442.4831 316.899,-437.648"/>
</g>
<!-- Node18 -->
<g id="node12" class="node">
<title>Node18</title>
<g id="a_node12"><a xlink:href="iterations_8h.html" target="_top" xlink:title="src/iteration/iterations.h">
<polygon fill="none" stroke="#000000" points="357,-129 357,-148 477,-148 477,-129 357,-129"/>
<text text-anchor="middle" x="417" y="-136" font-family="Arial" font-size="10.00" fill="#000000">src/iteration/iterations.h</text>
</a>
</g>
</g>
<!-- Node8&#45;&gt;Node18 -->
<g id="edge33" class="edge">
<title>Node8&#45;&gt;Node18</title>
<path fill="none" stroke="#191970" d="M363.8536,-444.3449C410.6486,-427.2661 468.7988,-396.3013 490,-344 504.5261,-308.1656 500.5394,-294.2026 490,-257 477.2228,-211.8981 441.8886,-167.1016 425.5231,-148.0488"/>
<polygon fill="#191970" stroke="#191970" points="362.6346,-441.0633 354.3594,-447.6794 364.9543,-447.6678 362.6346,-441.0633"/>
</g>
<!-- Node11 -->
<g id="node5" class="node">
<title>Node11</title>
<g id="a_node5"><a xlink:href="even__parity_8cc.html" target="_top" xlink:title="src/equation/even_parity.cc">
<polygon fill="none" stroke="#000000" points="602,-319 602,-338 740,-338 740,-319 602,-319"/>
<text text-anchor="middle" x="671" y="-326" font-family="Arial" font-size="10.00" fill="#000000">src/equation/even_parity.cc</text>
</a>
</g>
</g>
<!-- Node10&#45;&gt;Node11 -->
<g id="edge4" class="edge">
<title>Node10&#45;&gt;Node11</title>
<path fill="none" stroke="#191970" d="M671,-375.6079C671,-363.214 671,-347.8263 671,-338.0817"/>
<polygon fill="#191970" stroke="#191970" points="667.5001,-375.9005 671,-385.9005 674.5001,-375.9006 667.5001,-375.9005"/>
</g>
<!-- Node12 -->
<g id="node6" class="node">
<title>Node12</title>
<g id="a_node6"><a xlink:href="bart__driver_8cc.html" target="_top" xlink:title="src/common/bart_driver.cc">
<polygon fill="none" stroke="#000000" points="445,-.5 445,-19.5 579,-19.5 579,-.5 445,-.5"/>
<text text-anchor="middle" x="512" y="-7.5" font-family="Arial" font-size="10.00" fill="#000000">src/common/bart_driver.cc</text>
</a>
</g>
</g>
<!-- Node10&#45;&gt;Node12 -->
<g id="edge5" class="edge">
<title>Node10&#45;&gt;Node12</title>
<path fill="none" stroke="#191970" d="M702.292,-381.3119C718.3144,-372.6112 736.9353,-360.0463 749,-344 770.5418,-315.3489 773,-302.846 773,-267 773,-267 773,-267 773,-138.5 773,-88.9464 740.5606,-81.38 698,-56 662.0014,-34.5331 616.3807,-23.0542 579.3303,-16.9318"/>
<polygon fill="#191970" stroke="#191970" points="700.512,-378.2917 693.2277,-385.9853 703.7198,-384.5135 700.512,-378.2917"/>
</g>
<!-- Node13&#45;&gt;Node12 -->
<g id="edge7" class="edge">
<title>Node13&#45;&gt;Node12</title>
<path fill="none" stroke="#191970" d="M185.6619,-60.4266C261.1988,-48.7545 378.9418,-30.5605 450.4318,-19.5137"/>
<polygon fill="#191970" stroke="#191970" points="185.099,-56.972 175.7508,-61.9581 186.168,-63.8899 185.099,-56.972"/>
</g>
<!-- Node14 -->
<g id="node8" class="node">
<title>Node14</title>
<g id="a_node8"><a xlink:href="main_8cc.html" target="_top" xlink:title="src/common/main.cc">
<polygon fill="none" stroke="#000000" points="60,-.5 60,-19.5 168,-19.5 168,-.5 60,-.5"/>
<text text-anchor="middle" x="114" y="-7.5" font-family="Arial" font-size="10.00" fill="#000000">src/common/main.cc</text>
</a>
</g>
</g>
<!-- Node13&#45;&gt;Node14 -->
<g id="edge8" class="edge">
<title>Node13&#45;&gt;Node14</title>
<path fill="none" stroke="#191970" d="M114,-51.7462C114,-41.0519 114,-28.314 114,-19.7449"/>
<polygon fill="#191970" stroke="#191970" points="110.5001,-51.8906 114,-61.8906 117.5001,-51.8907 110.5001,-51.8906"/>
</g>
<!-- Node16 -->
<g id="node10" class="node">
<title>Node16</title>
<g id="a_node10"><a xlink:href="mg__base_8h.html" target="_top" xlink:title="src/iteration/mg_base.h">
<polygon fill="none" stroke="#000000" points="185,-257.5 185,-276.5 305,-276.5 305,-257.5 185,-257.5"/>
<text text-anchor="middle" x="245" y="-264.5" font-family="Arial" font-size="10.00" fill="#000000">src/iteration/mg_base.h</text>
</a>
</g>
</g>
<!-- Node15&#45;&gt;Node16 -->
<g id="edge10" class="edge">
<title>Node15&#45;&gt;Node16</title>
<path fill="none" stroke="#191970" d="M298.7659,-377.8424C269.889,-368.3759 240.2738,-356.1771 232,-344 217.9807,-323.3668 230.8299,-292.6155 239.1666,-276.95"/>
<polygon fill="#191970" stroke="#191970" points="297.9081,-381.2424 308.4988,-380.944 300.0336,-374.5728 297.9081,-381.2424"/>
</g>
<!-- Node17 -->
<g id="node11" class="node">
<title>Node17</title>
<g id="a_node11"><a xlink:href="eigen__base_8h.html" target="_top" xlink:title="src/iteration/eigen\l_base.h">
<polygon fill="none" stroke="#000000" points="533.5,-190.5 533.5,-220.5 628.5,-220.5 628.5,-190.5 533.5,-190.5"/>
<text text-anchor="start" x="541.5" y="-208.5" font-family="Arial" font-size="10.00" fill="#000000">src/iteration/eigen</text>
<text text-anchor="middle" x="581" y="-197.5" font-family="Arial" font-size="10.00" fill="#000000">_base.h</text>
</a>
</g>
</g>
<!-- Node15&#45;&gt;Node17 -->
<g id="edge31" class="edge">
<title>Node15&#45;&gt;Node17</title>
<path fill="none" stroke="#191970" d="M425.331,-378.5887C447.3851,-370.5844 471.2712,-359.3322 490,-344 532.7438,-309.008 562.5594,-248.5978 574.7957,-220.5796"/>
<polygon fill="#191970" stroke="#191970" points="423.9862,-375.3505 415.6832,-381.9315 426.278,-381.9647 423.9862,-375.3505"/>
</g>
<!-- Node26 -->
<g id="node20" class="node">
<title>Node26</title>
<g id="a_node20"><a xlink:href="ig__base_8h.html" target="_top" xlink:title="src/iteration/ig_base.h">
<polygon fill="none" stroke="#000000" points="241,-319 241,-338 355,-338 355,-319 241,-319"/>
<text text-anchor="middle" x="298" y="-326" font-family="Arial" font-size="10.00" fill="#000000">src/iteration/ig_base.h</text>
</a>
</g>
</g>
<!-- Node15&#45;&gt;Node26 -->
<g id="edge26" class="edge">
<title>Node15&#45;&gt;Node26</title>
<path fill="none" stroke="#191970" d="M340.3783,-372.8648C329.0429,-360.998 315.7591,-347.0916 307.1271,-338.055"/>
<polygon fill="#191970" stroke="#191970" points="338.0392,-375.4831 347.4774,-380.2967 343.101,-370.648 338.0392,-375.4831"/>
</g>
<!-- Node28 -->
<g id="node22" class="node">
<title>Node28</title>
<g id="a_node22"><a xlink:href="iteration__base_8cc.html" target="_top" xlink:title="src/iteration/iteration\l_base.cc">
<polygon fill="none" stroke="#000000" points="373.5,-313.5 373.5,-343.5 480.5,-343.5 480.5,-313.5 373.5,-313.5"/>
<text text-anchor="start" x="381.5" y="-331.5" font-family="Arial" font-size="10.00" fill="#000000">src/iteration/iteration</text>
<text text-anchor="middle" x="427" y="-320.5" font-family="Arial" font-size="10.00" fill="#000000">_base.cc</text>
</a>
</g>
</g>
<!-- Node15&#45;&gt;Node28 -->
<g id="edge32" class="edge">
<title>Node15&#45;&gt;Node28</title>
<path fill="none" stroke="#191970" d="M383.9008,-372.9253C393.2555,-363.2828 403.9257,-352.2843 412.3089,-343.6432"/>
<polygon fill="#191970" stroke="#191970" points="381.2006,-370.6821 376.7495,-380.2967 386.2248,-375.5564 381.2006,-370.6821"/>
</g>
<!-- Node16&#45;&gt;Node13 -->
<g id="edge11" class="edge">
<title>Node16&#45;&gt;Node13</title>
<path fill="none" stroke="#191970" d="M182.4537,-254.1928C163.8461,-247.3557 145.1928,-236.9146 133,-221 100.0624,-178.0083 107.9684,-106.7956 112.2017,-81.1095"/>
<polygon fill="#191970" stroke="#191970" points="181.5517,-257.582 192.1457,-257.4496 183.7814,-250.9466 181.5517,-257.582"/>
</g>
<!-- Node16&#45;&gt;Node17 -->
<g id="edge12" class="edge">
<title>Node16&#45;&gt;Node17</title>
<path fill="none" stroke="#191970" d="M307.3067,-255.5956C372.7068,-243.6251 474.0919,-225.068 533.371,-214.2178"/>
<polygon fill="#191970" stroke="#191970" points="306.3377,-252.2148 297.1313,-257.4581 307.5981,-259.1004 306.3377,-252.2148"/>
</g>
<!-- Node16&#45;&gt;Node18 -->
<g id="edge21" class="edge">
<title>Node16&#45;&gt;Node18</title>
<path fill="none" stroke="#191970" d="M302.0365,-255.1378C337.9872,-246.5835 379.9901,-234.2495 393,-221 412.8569,-200.7774 416.4589,-165.1282 416.9964,-148.0908"/>
<polygon fill="#191970" stroke="#191970" points="301.0355,-251.7771 292.0862,-257.448 302.6187,-258.5957 301.0355,-251.7771"/>
</g>
<!-- Node23 -->
<g id="node17" class="node">
<title>Node23</title>
<g id="a_node17"><a xlink:href="gauss__seidel_8h.html" target="_top" xlink:title="src/iteration/gauss\l_seidel.h">
<polygon fill="none" stroke="#000000" points="286,-190.5 286,-220.5 384,-220.5 384,-190.5 286,-190.5"/>
<text text-anchor="start" x="294" y="-208.5" font-family="Arial" font-size="10.00" fill="#000000">src/iteration/gauss</text>
<text text-anchor="middle" x="335" y="-197.5" font-family="Arial" font-size="10.00" fill="#000000">_seidel.h</text>
</a>
</g>
</g>
<!-- Node16&#45;&gt;Node23 -->
<g id="edge22" class="edge">
<title>Node16&#45;&gt;Node23</title>
<path fill="none" stroke="#191970" d="M267.5602,-251.5839C281.4563,-242.0882 299.1892,-229.9707 312.9835,-220.5446"/>
<polygon fill="#191970" stroke="#191970" points="265.3443,-248.8589 259.0625,-257.3906 269.2936,-254.6384 265.3443,-248.8589"/>
</g>
<!-- Node25 -->
<g id="node19" class="node">
<title>Node25</title>
<g id="a_node19"><a xlink:href="mg__base_8cc.html" target="_top" xlink:title="src/iteration/mg_base.cc">
<polygon fill="none" stroke="#000000" points="142.5,-196 142.5,-215 267.5,-215 267.5,-196 142.5,-196"/>
<text text-anchor="middle" x="205" y="-203" font-family="Arial" font-size="10.00" fill="#000000">src/iteration/mg_base.cc</text>
</a>
</g>
</g>
<!-- Node16&#45;&gt;Node25 -->
<g id="edge25" class="edge">
<title>Node16&#45;&gt;Node25</title>
<path fill="none" stroke="#191970" d="M233.2386,-248.9169C226.076,-237.9043 217.2049,-224.265 211.3381,-215.2449"/>
<polygon fill="#191970" stroke="#191970" points="230.3637,-250.916 238.75,-257.3906 236.2317,-247.0994 230.3637,-250.916"/>
</g>
<!-- Node17&#45;&gt;Node13 -->
<g id="edge13" class="edge">
<title>Node17&#45;&gt;Node13</title>
<path fill="none" stroke="#191970" d="M557.0198,-183.4041C531.6777,-160.2616 494.2461,-126.7453 486,-123 432.6472,-98.768 270.817,-83.1748 179.1474,-76.0356"/>
<polygon fill="#191970" stroke="#191970" points="554.712,-186.0366 564.4507,-190.2088 559.4394,-180.874 554.712,-186.0366"/>
</g>
<!-- Node17&#45;&gt;Node18 -->
<g id="edge14" class="edge">
<title>Node17&#45;&gt;Node18</title>
<path fill="none" stroke="#191970" d="M534.552,-186.5243C503.8711,-173.99 464.9556,-158.0916 440.5081,-148.1039"/>
<polygon fill="#191970" stroke="#191970" points="533.6142,-189.9219 544.1952,-190.4639 536.2616,-183.4419 533.6142,-189.9219"/>
</g>
<!-- Node20 -->
<g id="node14" class="node">
<title>Node20</title>
<g id="a_node14"><a xlink:href="power__iteration_8h.html" target="_top" xlink:title="src/iteration/power\l_iteration.h">
<polygon fill="none" stroke="#000000" points="647,-123.5 647,-153.5 745,-153.5 745,-123.5 647,-123.5"/>
<text text-anchor="start" x="655" y="-141.5" font-family="Arial" font-size="10.00" fill="#000000">src/iteration/power</text>
<text text-anchor="middle" x="696" y="-130.5" font-family="Arial" font-size="10.00" fill="#000000">_iteration.h</text>
</a>
</g>
</g>
<!-- Node17&#45;&gt;Node20 -->
<g id="edge17" class="edge">
<title>Node17&#45;&gt;Node20</title>
<path fill="none" stroke="#191970" d="M615.5753,-185.3561C633.0083,-175.1995 653.8031,-163.0843 669.88,-153.7177"/>
<polygon fill="#191970" stroke="#191970" points="613.6868,-182.4056 606.8082,-190.4639 617.2107,-188.454 613.6868,-182.4056"/>
</g>
<!-- Node22 -->
<g id="node16" class="node">
<title>Node22</title>
<g id="a_node16"><a xlink:href="eigen__base_8cc.html" target="_top" xlink:title="src/iteration/eigen\l_base.cc">
<polygon fill="none" stroke="#000000" points="533.5,-123.5 533.5,-153.5 628.5,-153.5 628.5,-123.5 533.5,-123.5"/>
<text text-anchor="start" x="541.5" y="-141.5" font-family="Arial" font-size="10.00" fill="#000000">src/iteration/eigen</text>
<text text-anchor="middle" x="581" y="-130.5" font-family="Arial" font-size="10.00" fill="#000000">_base.cc</text>
</a>
</g>
</g>
<!-- Node17&#45;&gt;Node22 -->
<g id="edge20" class="edge">
<title>Node17&#45;&gt;Node22</title>
<path fill="none" stroke="#191970" d="M581,-180.0249C581,-171.128 581,-161.4287 581,-153.6432"/>
<polygon fill="#191970" stroke="#191970" points="577.5001,-180.2966 581,-190.2967 584.5001,-180.2967 577.5001,-180.2966"/>
</g>
<!-- Node18&#45;&gt;Node13 -->
<g id="edge15" class="edge">
<title>Node18&#45;&gt;Node13</title>
<path fill="none" stroke="#191970" d="M364.0954,-126.8016C305.4507,-113.834 211.9623,-93.1616 157.4327,-81.1039"/>
<polygon fill="#191970" stroke="#191970" points="363.3894,-130.23 373.9093,-128.9717 364.9008,-123.3951 363.3894,-130.23"/>
</g>
<!-- Node19 -->
<g id="node13" class="node">
<title>Node19</title>
<g id="a_node13"><a xlink:href="iterations_8cc.html" target="_top" xlink:title="src/iteration/iterations.cc">
<polygon fill="none" stroke="#000000" points="357,-62 357,-81 481,-81 481,-62 357,-62"/>
<text text-anchor="middle" x="419" y="-69" font-family="Arial" font-size="10.00" fill="#000000">src/iteration/iterations.cc</text>
</a>
</g>
</g>
<!-- Node18&#45;&gt;Node19 -->
<g id="edge16" class="edge">
<title>Node18&#45;&gt;Node19</title>
<path fill="none" stroke="#191970" d="M417.5938,-118.6079C417.9638,-106.214 418.4231,-90.8263 418.714,-81.0817"/>
<polygon fill="#191970" stroke="#191970" points="414.0866,-118.8005 417.2866,-128.9005 421.0835,-119.0094 414.0866,-118.8005"/>
</g>
<!-- Node20&#45;&gt;Node12 -->
<g id="edge18" class="edge">
<title>Node20&#45;&gt;Node12</title>
<path fill="none" stroke="#191970" d="M696.6354,-113.0741C695.7038,-94.9158 691.4464,-71.1196 677,-56 662.0542,-40.3578 610.7973,-27.6369 569.3327,-19.5695"/>
<polygon fill="#191970" stroke="#191970" points="693.1401,-113.34 696.8495,-123.2643 700.1386,-113.1929 693.1401,-113.34"/>
</g>
<!-- Node21 -->
<g id="node15" class="node">
<title>Node21</title>
<g id="a_node15"><a xlink:href="power__iteration_8cc.html" target="_top" xlink:title="src/iteration/power\l_iteration.cc">
<polygon fill="none" stroke="#000000" points="570,-56.5 570,-86.5 668,-86.5 668,-56.5 570,-56.5"/>
<text text-anchor="start" x="578" y="-74.5" font-family="Arial" font-size="10.00" fill="#000000">src/iteration/power</text>
<text text-anchor="middle" x="619" y="-63.5" font-family="Arial" font-size="10.00" fill="#000000">_iteration.cc</text>
</a>
</g>
</g>
<!-- Node20&#45;&gt;Node21 -->
<g id="edge19" class="edge">
<title>Node20&#45;&gt;Node21</title>
<path fill="none" stroke="#191970" d="M670.7124,-116.4965C659.476,-106.7193 646.5308,-95.4554 636.4033,-86.6432"/>
<polygon fill="#191970" stroke="#191970" points="668.6861,-119.3728 678.5275,-123.2967 673.281,-114.092 668.6861,-119.3728"/>
</g>
<!-- Node23&#45;&gt;Node12 -->
<g id="edge23" class="edge">
<title>Node23&#45;&gt;Node12</title>
<path fill="none" stroke="#191970" d="M329.2729,-180.2202C323.4783,-147.6181 319.0241,-90.9627 348,-56 361.4445,-39.7777 410.7367,-27.3623 451.8022,-19.5422"/>
<polygon fill="#191970" stroke="#191970" points="325.8878,-181.1467 331.2431,-190.2884 332.7575,-179.8024 325.8878,-181.1467"/>
</g>
<!-- Node24 -->
<g id="node18" class="node">
<title>Node24</title>
<g id="a_node18"><a xlink:href="gauss__seidel_8cc.html" target="_top" xlink:title="src/iteration/gauss\l_seidel.cc">
<polygon fill="none" stroke="#000000" points="203,-123.5 203,-153.5 301,-153.5 301,-123.5 203,-123.5"/>
<text text-anchor="start" x="211" y="-141.5" font-family="Arial" font-size="10.00" fill="#000000">src/iteration/gauss</text>
<text text-anchor="middle" x="252" y="-130.5" font-family="Arial" font-size="10.00" fill="#000000">_seidel.cc</text>
</a>
</g>
</g>
<!-- Node23&#45;&gt;Node24 -->
<g id="edge24" class="edge">
<title>Node23&#45;&gt;Node24</title>
<path fill="none" stroke="#191970" d="M308.0942,-183.7808C295.9012,-173.9383 281.7821,-162.541 270.7595,-153.6432"/>
<polygon fill="#191970" stroke="#191970" points="306.1864,-186.7389 316.166,-190.2967 310.5832,-181.292 306.1864,-186.7389"/>
</g>
<!-- Node26&#45;&gt;Node13 -->
<g id="edge28" class="edge">
<title>Node26&#45;&gt;Node13</title>
<path fill="none" stroke="#191970" d="M249.3737,-315.922C204.6122,-301.3923 141.1731,-272.5805 114,-221 89.2006,-173.9254 104.119,-106.3767 111.0473,-81.3311"/>
<polygon fill="#191970" stroke="#191970" points="248.597,-319.3458 259.1854,-318.9772 250.6782,-312.6623 248.597,-319.3458"/>
</g>
<!-- Node26&#45;&gt;Node16 -->
<g id="edge27" class="edge">
<title>Node26&#45;&gt;Node16</title>
<path fill="none" stroke="#191970" d="M282.9828,-311.0744C273.3974,-299.9517 261.3269,-285.9454 253.398,-276.7449"/>
<polygon fill="#191970" stroke="#191970" points="280.5392,-313.6003 289.7188,-318.8906 285.8418,-309.0306 280.5392,-313.6003"/>
</g>
<!-- Node26&#45;&gt;Node18 -->
<g id="edge29" class="edge">
<title>Node26&#45;&gt;Node18</title>
<path fill="none" stroke="#191970" d="M309.2561,-310.0703C319.3474,-294.5935 335.2635,-272.5744 353,-257 376.9432,-235.9755 398.7686,-248.4199 415,-221 428.6476,-197.9449 423.4241,-164.5511 419.6168,-148.2247"/>
<polygon fill="#191970" stroke="#191970" points="306.1555,-308.4245 303.7613,-318.7452 312.0691,-312.1702 306.1555,-308.4245"/>
</g>
<!-- Node27 -->
<g id="node21" class="node">
<title>Node27</title>
<g id="a_node21"><a xlink:href="ig__base_8cc.html" target="_top" xlink:title="src/iteration/ig_base.cc">
<polygon fill="none" stroke="#000000" points="361.5,-257.5 361.5,-276.5 480.5,-276.5 480.5,-257.5 361.5,-257.5"/>
<text text-anchor="middle" x="421" y="-264.5" font-family="Arial" font-size="10.00" fill="#000000">src/iteration/ig_base.cc</text>
</a>
</g>
</g>
<!-- Node26&#45;&gt;Node27 -->
<g id="edge30" class="edge">
<title>Node26&#45;&gt;Node27</title>
<path fill="none" stroke="#191970" d="M326.2374,-314.3813C349.4336,-302.7832 381.6598,-286.6701 401.9162,-276.5419"/>
<polygon fill="#191970" stroke="#191970" points="324.5978,-311.2879 317.2188,-318.8906 327.7283,-317.5489 324.5978,-311.2879"/>
</g>
</g>
</svg>
