<?xml version="1.0" encoding="UTF-8" standalone="no"?>
<!DOCTYPE svg PUBLIC "-//W3C//DTD SVG 1.1//EN"
 "http://www.w3.org/Graphics/SVG/1.1/DTD/svg11.dtd">
<!-- Generated by graphviz version 2.40.1 (20161225.0304)
 -->
<!-- Title: src/mesh/mesh_generator.h Pages: 1 -->
<svg width="458pt" height="95pt"
 viewBox="0.00 0.00 457.50 95.00" xmlns="http://www.w3.org/2000/svg" xmlns:xlink="http://www.w3.org/1999/xlink">
<g id="graph0" class="graph" transform="scale(1 1) rotate(0) translate(4 91)">
<title>src/mesh/mesh_generator.h</title>
<!-- Node0 -->
<g id="node1" class="node">
<title>Node0</title>
<polygon fill="#bfbfbf" stroke="#000000" points="219,-67.5 219,-86.5 360,-86.5 360,-67.5 219,-67.5"/>
<text text-anchor="middle" x="289.5" y="-74.5" font-family="Arial" font-size="10.00" fill="#000000">src/mesh/mesh_generator.h</text>
</g>
<!-- Node1 -->
<g id="node2" class="node">
<title>Node1</title>
<polygon fill="none" stroke="#bfbfbf" points="0,-.5 0,-30.5 93,-30.5 93,-.5 0,-.5"/>
<text text-anchor="start" x="8" y="-18.5" font-family="Arial" font-size="10.00" fill="#000000">deal.II/distributed</text>
<text text-anchor="middle" x="46.5" y="-7.5" font-family="Arial" font-size="10.00" fill="#000000">/tria.h</text>
</g>
<!-- Node0&#45;&gt;Node1 -->
<g id="edge1" class="edge">
<title>Node0&#45;&gt;Node1</title>
<path fill="none" stroke="#191970" d="M248.6897,-67.4463C212.6997,-58.9247 158.5928,-45.8805 103.255,-31.4211"/>
<polygon fill="#191970" stroke="#191970" points="103.8386,-27.9558 93.2777,-28.802 102.0613,-34.7264 103.8386,-27.9558"/>
</g>
<!-- Node2 -->
<g id="node3" class="node">
<title>Node2</title>
<polygon fill="none" stroke="#bfbfbf" points="111,-.5 111,-30.5 228,-30.5 228,-.5 111,-.5"/>
<text text-anchor="start" x="119" y="-18.5" font-family="Arial" font-size="10.00" fill="#000000">deal.II/base/parameter</text>
<text text-anchor="middle" x="169.5" y="-7.5" font-family="Arial" font-size="10.00" fill="#000000">_handler.h</text>
</g>
<!-- Node0&#45;&gt;Node2 -->
<g id="edge2" class="edge">
<title>Node0&#45;&gt;Node2</title>
<path fill="none" stroke="#191970" d="M270.75,-67.3906C253.9831,-58.7976 228.8866,-45.9356 207.8748,-35.1671"/>
<polygon fill="#191970" stroke="#191970" points="209.351,-31.9908 198.8553,-30.5446 206.1583,-38.2203 209.351,-31.9908"/>
</g>
<!-- Node3 -->
<g id="node4" class="node">
<title>Node3</title>
<polygon fill="none" stroke="#bfbfbf" points="246,-6 246,-25 333,-25 333,-6 246,-6"/>
<text text-anchor="middle" x="289.5" y="-13" font-family="Arial" font-size="10.00" fill="#000000">unordered_map</text>
</g>
<!-- Node0&#45;&gt;Node3 -->
<g id="edge3" class="edge">
<title>Node0&#45;&gt;Node3</title>
<path fill="none" stroke="#191970" d="M289.5,-67.3906C289.5,-58.8657 289.5,-46.1392 289.5,-35.4235"/>
<polygon fill="#191970" stroke="#191970" points="293.0001,-35.2448 289.5,-25.2449 286.0001,-35.2449 293.0001,-35.2448"/>
</g>
<!-- Node4 -->
<g id="node5" class="node">
<title>Node4</title>
<polygon fill="none" stroke="#bfbfbf" points="351.5,-6 351.5,-25 387.5,-25 387.5,-6 351.5,-6"/>
<text text-anchor="middle" x="369.5" y="-13" font-family="Arial" font-size="10.00" fill="#000000">map</text>
</g>
<!-- Node0&#45;&gt;Node4 -->
<g id="edge4" class="edge">
<title>Node0&#45;&gt;Node4</title>
<path fill="none" stroke="#191970" d="M302,-67.3906C314.5636,-57.7324 334.1423,-42.6812 348.9849,-31.271"/>
<polygon fill="#191970" stroke="#191970" points="351.2928,-33.9115 357.0878,-25.0419 347.0265,-28.3618 351.2928,-33.9115"/>
</g>
<!-- Node5 -->
<g id="node6" class="node">
<title>Node5</title>
<polygon fill="none" stroke="#bfbfbf" points="405.5,-6 405.5,-25 449.5,-25 449.5,-6 405.5,-6"/>
<text text-anchor="middle" x="427.5" y="-13" font-family="Arial" font-size="10.00" fill="#000000">vector</text>
</g>
<!-- Node0&#45;&gt;Node5 -->
<g id="edge5" class="edge">
<title>Node0&#45;&gt;Node5</title>
<path fill="none" stroke="#191970" d="M313.0499,-67.3347C334.8456,-58.2811 368.0752,-44.2029 396.5,-31 397.5096,-30.5311 398.5352,-30.049 399.5691,-29.558"/>
<polygon fill="#191970" stroke="#191970" points="401.4362,-32.5419 408.8967,-25.0191 398.3733,-26.2476 401.4362,-32.5419"/>
</g>
</g>
</svg>
