<?xml version="1.0" encoding="UTF-8" standalone="no"?>
<!DOCTYPE svg PUBLIC "-//W3C//DTD SVG 1.1//EN"
 "http://www.w3.org/Graphics/SVG/1.1/DTD/svg11.dtd">
<!-- Generated by graphviz version 2.40.1 (20161225.0304)
 -->
<!-- Title: src/mesh/mesh_generator.h Pages: 1 -->
<svg width="517pt" height="101pt"
 viewBox="0.00 0.00 516.50 101.00" xmlns="http://www.w3.org/2000/svg" xmlns:xlink="http://www.w3.org/1999/xlink">
<g id="graph0" class="graph" transform="scale(1 1) rotate(0) translate(4 97)">
<title>src/mesh/mesh_generator.h</title>
<!-- Node0 -->
<g id="node1" class="node">
<title>Node0</title>
<polygon fill="#bfbfbf" stroke="#000000" points="249,-71.5 249,-92.5 415,-92.5 415,-71.5 249,-71.5"/>
<text text-anchor="middle" x="332" y="-78.9" font-family="Arial" font-size="12.00" fill="#000000">src/mesh/mesh_generator.h</text>
</g>
<!-- Node1 -->
<g id="node2" class="node">
<title>Node1</title>
<polygon fill="none" stroke="#bfbfbf" points="0,-.5 0,-34.5 108,-34.5 108,-.5 0,-.5"/>
<text text-anchor="start" x="8" y="-20.9" font-family="Arial" font-size="12.00" fill="#000000">deal.II/distributed</text>
<text text-anchor="middle" x="54" y="-7.9" font-family="Arial" font-size="12.00" fill="#000000">/tria.h</text>
</g>
<!-- Node0&#45;&gt;Node1 -->
<g id="edge1" class="edge">
<title>Node0&#45;&gt;Node1</title>
<path fill="none" stroke="#191970" d="M279.677,-71.4128C238.2408,-62.8353 178.6806,-50.0795 117.9926,-35.1836"/>
<polygon fill="#191970" stroke="#191970" points="118.7932,-31.7762 108.2455,-32.7749 117.1138,-38.5718 118.7932,-31.7762"/>
</g>
<!-- Node2 -->
<g id="node3" class="node">
<title>Node2</title>
<polygon fill="none" stroke="#bfbfbf" points="126.5,-.5 126.5,-34.5 263.5,-34.5 263.5,-.5 126.5,-.5"/>
<text text-anchor="start" x="134.5" y="-20.9" font-family="Arial" font-size="12.00" fill="#000000">deal.II/base/parameter</text>
<text text-anchor="middle" x="195" y="-7.9" font-family="Arial" font-size="12.00" fill="#000000">_handler.h</text>
</g>
<!-- Node0&#45;&gt;Node2 -->
<g id="edge2" class="edge">
<title>Node0&#45;&gt;Node2</title>
<path fill="none" stroke="#191970" d="M309.6837,-71.4934C291.0245,-62.7086 263.8075,-49.8948 240.5701,-38.9546"/>
<polygon fill="#191970" stroke="#191970" points="241.7631,-35.6477 231.2248,-34.5547 238.7814,-41.981 241.7631,-35.6477"/>
</g>
<!-- Node3 -->
<g id="node4" class="node">
<title>Node3</title>
<polygon fill="none" stroke="#bfbfbf" points="281.5,-7 281.5,-28 382.5,-28 382.5,-7 281.5,-7"/>
<text text-anchor="middle" x="332" y="-14.4" font-family="Arial" font-size="12.00" fill="#000000">unordered_map</text>
</g>
<!-- Node0&#45;&gt;Node3 -->
<g id="edge3" class="edge">
<title>Node0&#45;&gt;Node3</title>
<path fill="none" stroke="#191970" d="M332,-71.3491C332,-62.4397 332,-49.4599 332,-38.4761"/>
<polygon fill="#191970" stroke="#191970" points="335.5001,-38.3822 332,-28.3823 328.5001,-38.3823 335.5001,-38.3822"/>
</g>
<!-- Node4 -->
<g id="node5" class="node">
<title>Node4</title>
<polygon fill="none" stroke="#bfbfbf" points="401,-7 401,-28 441,-28 441,-7 401,-7"/>
<text text-anchor="middle" x="421" y="-14.4" font-family="Arial" font-size="12.00" fill="#000000">map</text>
</g>
<!-- Node0&#45;&gt;Node4 -->
<g id="edge4" class="edge">
<title>Node0&#45;&gt;Node4</title>
<path fill="none" stroke="#191970" d="M346.6965,-71.3491C360.6102,-61.2656 381.718,-45.9684 397.8852,-34.2517"/>
<polygon fill="#191970" stroke="#191970" points="400.2383,-36.8689 406.2816,-28.1667 396.1305,-31.2009 400.2383,-36.8689"/>
</g>
<!-- Node5 -->
<g id="node6" class="node">
<title>Node5</title>
<polygon fill="none" stroke="#bfbfbf" points="459.5,-7 459.5,-28 508.5,-28 508.5,-7 459.5,-7"/>
<text text-anchor="middle" x="484" y="-14.4" font-family="Arial" font-size="12.00" fill="#000000">vector</text>
</g>
<!-- Node0&#45;&gt;Node5 -->
<g id="edge5" class="edge">
<title>Node0&#45;&gt;Node5</title>
<path fill="none" stroke="#191970" d="M360.9384,-71.3658C385.0286,-62.3014 420.0962,-48.6131 450,-35 451.7673,-34.1955 453.5747,-33.3463 455.3898,-32.4732"/>
<polygon fill="#191970" stroke="#191970" points="456.9839,-35.5894 464.3812,-28.0045 453.8684,-29.321 456.9839,-35.5894"/>
</g>
</g>
</svg>
