<?xml version="1.0" encoding="UTF-8" standalone="no"?>
<!DOCTYPE svg PUBLIC "-//W3C//DTD SVG 1.1//EN"
 "http://www.w3.org/Graphics/SVG/1.1/DTD/svg11.dtd">
<!-- Generated by graphviz version 2.40.1 (20161225.0304)
 -->
<!-- Title: src/mesh/mesh_generator.cc Pages: 1 -->
<svg width="997pt" height="151pt"
 viewBox="0.00 0.00 996.50 151.00" xmlns="http://www.w3.org/2000/svg" xmlns:xlink="http://www.w3.org/1999/xlink">
<g id="graph0" class="graph" transform="scale(1 1) rotate(0) translate(4 147)">
<title>src/mesh/mesh_generator.cc</title>
<!-- Node0 -->
<g id="node1" class="node">
<title>Node0</title>
<polygon fill="#bfbfbf" stroke="#000000" points="436,-123.5 436,-142.5 581,-142.5 581,-123.5 436,-123.5"/>
<text text-anchor="middle" x="508.5" y="-130.5" font-family="Arial" font-size="10.00" fill="#000000">src/mesh/mesh_generator.cc</text>
</g>
<!-- Node1 -->
<g id="node2" class="node">
<title>Node1</title>
<polygon fill="none" stroke="#bfbfbf" points="0,-67.5 0,-86.5 139,-86.5 139,-67.5 0,-67.5"/>
<text text-anchor="middle" x="69.5" y="-74.5" font-family="Arial" font-size="10.00" fill="#000000">deal.II/grid/grid_generator.h</text>
</g>
<!-- Node0&#45;&gt;Node1 -->
<g id="edge1" class="edge">
<title>Node0&#45;&gt;Node1</title>
<path fill="none" stroke="#191970" d="M435.5153,-123.6899C356.487,-113.6088 230.826,-97.5792 149.2504,-87.1732"/>
<polygon fill="#191970" stroke="#191970" points="149.395,-83.6633 139.0325,-85.8697 148.5092,-90.6071 149.395,-83.6633"/>
</g>
<!-- Node2 -->
<g id="node3" class="node">
<title>Node2</title>
<polygon fill="none" stroke="#bfbfbf" points="157.5,-67.5 157.5,-86.5 275.5,-86.5 275.5,-67.5 157.5,-67.5"/>
<text text-anchor="middle" x="216.5" y="-74.5" font-family="Arial" font-size="10.00" fill="#000000">deal.II/grid/grid_tools.h</text>
</g>
<!-- Node0&#45;&gt;Node2 -->
<g id="edge2" class="edge">
<title>Node0&#45;&gt;Node2</title>
<path fill="none" stroke="#191970" d="M458.6352,-123.4369C408.1367,-113.7522 330.0165,-98.7703 276.2395,-88.4569"/>
<polygon fill="#191970" stroke="#191970" points="276.6394,-84.9699 266.1591,-86.5237 275.3209,-91.8446 276.6394,-84.9699"/>
</g>
<!-- Node3 -->
<g id="node4" class="node">
<title>Node3</title>
<polygon fill="none" stroke="#bfbfbf" points="293.5,-67.5 293.5,-86.5 427.5,-86.5 427.5,-67.5 293.5,-67.5"/>
<text text-anchor="middle" x="360.5" y="-74.5" font-family="Arial" font-size="10.00" fill="#000000">deal.II/grid/tria_accessor.h</text>
</g>
<!-- Node0&#45;&gt;Node3 -->
<g id="edge3" class="edge">
<title>Node0&#45;&gt;Node3</title>
<path fill="none" stroke="#191970" d="M483.0579,-123.3733C458.7674,-114.1822 421.9792,-100.2624 395.0457,-90.0713"/>
<polygon fill="#191970" stroke="#191970" points="396.2016,-86.7666 385.6101,-86.5011 393.7243,-93.3136 396.2016,-86.7666"/>
</g>
<!-- Node4 -->
<g id="node5" class="node">
<title>Node4</title>
<polygon fill="none" stroke="#bfbfbf" points="446,-67.5 446,-86.5 571,-86.5 571,-67.5 446,-67.5"/>
<text text-anchor="middle" x="508.5" y="-74.5" font-family="Arial" font-size="10.00" fill="#000000">deal.II/grid/tria_iterator.h</text>
</g>
<!-- Node0&#45;&gt;Node4 -->
<g id="edge4" class="edge">
<title>Node0&#45;&gt;Node4</title>
<path fill="none" stroke="#191970" d="M508.5,-123.2455C508.5,-115.9382 508.5,-105.6944 508.5,-96.7046"/>
<polygon fill="#191970" stroke="#191970" points="512.0001,-96.6426 508.5,-86.6427 505.0001,-96.6427 512.0001,-96.6426"/>
</g>
<!-- Node5 -->
<g id="node6" class="node">
<title>Node5</title>
<polygon fill="none" stroke="#bfbfbf" points="589.5,-67.5 589.5,-86.5 693.5,-86.5 693.5,-67.5 589.5,-67.5"/>
<text text-anchor="middle" x="641.5" y="-74.5" font-family="Arial" font-size="10.00" fill="#000000">deal.II/grid/grid_in.h</text>
</g>
<!-- Node0&#45;&gt;Node5 -->
<g id="edge5" class="edge">
<title>Node0&#45;&gt;Node5</title>
<path fill="none" stroke="#191970" d="M531.3635,-123.3733C552.905,-114.3032 585.3838,-100.6279 609.4956,-90.4755"/>
<polygon fill="#191970" stroke="#191970" points="611.0767,-93.6075 618.9348,-86.5011 608.3603,-87.156 611.0767,-93.6075"/>
</g>
<!-- Node6 -->
<g id="node7" class="node">
<title>Node6</title>
<polygon fill="none" stroke="#bfbfbf" points="711.5,-67.5 711.5,-86.5 761.5,-86.5 761.5,-67.5 711.5,-67.5"/>
<text text-anchor="middle" x="736.5" y="-74.5" font-family="Arial" font-size="10.00" fill="#000000">fstream</text>
</g>
<!-- Node0&#45;&gt;Node6 -->
<g id="edge6" class="edge">
<title>Node0&#45;&gt;Node6</title>
<path fill="none" stroke="#191970" d="M551.8139,-123.4241C589.0829,-115.0291 644.5045,-102.1767 701.4042,-87.1973"/>
<polygon fill="#191970" stroke="#191970" points="702.5215,-90.5221 711.291,-84.5767 700.728,-83.7558 702.5215,-90.5221"/>
</g>
<!-- Node7 -->
<g id="node8" class="node">
<title>Node7</title>
<g id="a_node8"><a xlink:href="mesh__generator_8h.html" target="_top" xlink:title="mesh_generator.h">
<polygon fill="none" stroke="#000000" points="779.5,-67.5 779.5,-86.5 877.5,-86.5 877.5,-67.5 779.5,-67.5"/>
<text text-anchor="middle" x="828.5" y="-74.5" font-family="Arial" font-size="10.00" fill="#000000">mesh_generator.h</text>
</a>
</g>
</g>
<!-- Node0&#45;&gt;Node7 -->
<g id="edge7" class="edge">
<title>Node0&#45;&gt;Node7</title>
<path fill="none" stroke="#191970" d="M563.1464,-123.4369C620.5198,-113.3965 710.428,-97.6626 769.415,-87.3399"/>
<polygon fill="#191970" stroke="#191970" points="770.0827,-90.7763 779.3296,-85.6048 768.876,-83.8811 770.0827,-90.7763"/>
</g>
<!-- Node8 -->
<g id="node9" class="node">
<title>Node8</title>
<polygon fill="none" stroke="#bfbfbf" points="539,-.5 539,-30.5 632,-30.5 632,-.5 539,-.5"/>
<text text-anchor="start" x="547" y="-18.5" font-family="Arial" font-size="10.00" fill="#000000">deal.II/distributed</text>
<text text-anchor="middle" x="585.5" y="-7.5" font-family="Arial" font-size="10.00" fill="#000000">/tria.h</text>
</g>
<!-- Node7&#45;&gt;Node8 -->
<g id="edge8" class="edge">
<title>Node7&#45;&gt;Node8</title>
<path fill="none" stroke="#191970" d="M787.6897,-67.4463C751.6997,-58.9247 697.5928,-45.8805 642.255,-31.4211"/>
<polygon fill="#191970" stroke="#191970" points="642.8386,-27.9558 632.2777,-28.802 641.0613,-34.7264 642.8386,-27.9558"/>
</g>
<!-- Node9 -->
<g id="node10" class="node">
<title>Node9</title>
<polygon fill="none" stroke="#bfbfbf" points="650,-.5 650,-30.5 767,-30.5 767,-.5 650,-.5"/>
<text text-anchor="start" x="658" y="-18.5" font-family="Arial" font-size="10.00" fill="#000000">deal.II/base/parameter</text>
<text text-anchor="middle" x="708.5" y="-7.5" font-family="Arial" font-size="10.00" fill="#000000">_handler.h</text>
</g>
<!-- Node7&#45;&gt;Node9 -->
<g id="edge9" class="edge">
<title>Node7&#45;&gt;Node9</title>
<path fill="none" stroke="#191970" d="M809.75,-67.3906C792.9831,-58.7976 767.8866,-45.9356 746.8748,-35.1671"/>
<polygon fill="#191970" stroke="#191970" points="748.351,-31.9908 737.8553,-30.5446 745.1583,-38.2203 748.351,-31.9908"/>
</g>
<!-- Node10 -->
<g id="node11" class="node">
<title>Node10</title>
<polygon fill="none" stroke="#bfbfbf" points="785,-6 785,-25 872,-25 872,-6 785,-6"/>
<text text-anchor="middle" x="828.5" y="-13" font-family="Arial" font-size="10.00" fill="#000000">unordered_map</text>
</g>
<!-- Node7&#45;&gt;Node10 -->
<g id="edge10" class="edge">
<title>Node7&#45;&gt;Node10</title>
<path fill="none" stroke="#191970" d="M828.5,-67.3906C828.5,-58.8657 828.5,-46.1392 828.5,-35.4235"/>
<polygon fill="#191970" stroke="#191970" points="832.0001,-35.2448 828.5,-25.2449 825.0001,-35.2449 832.0001,-35.2448"/>
</g>
<!-- Node11 -->
<g id="node12" class="node">
<title>Node11</title>
<polygon fill="none" stroke="#bfbfbf" points="890.5,-6 890.5,-25 926.5,-25 926.5,-6 890.5,-6"/>
<text text-anchor="middle" x="908.5" y="-13" font-family="Arial" font-size="10.00" fill="#000000">map</text>
</g>
<!-- Node7&#45;&gt;Node11 -->
<g id="edge11" class="edge">
<title>Node7&#45;&gt;Node11</title>
<path fill="none" stroke="#191970" d="M841,-67.3906C853.5636,-57.7324 873.1423,-42.6812 887.9849,-31.271"/>
<polygon fill="#191970" stroke="#191970" points="890.2928,-33.9115 896.0878,-25.0419 886.0265,-28.3618 890.2928,-33.9115"/>
</g>
<!-- Node12 -->
<g id="node13" class="node">
<title>Node12</title>
<polygon fill="none" stroke="#bfbfbf" points="944.5,-6 944.5,-25 988.5,-25 988.5,-6 944.5,-6"/>
<text text-anchor="middle" x="966.5" y="-13" font-family="Arial" font-size="10.00" fill="#000000">vector</text>
</g>
<!-- Node7&#45;&gt;Node12 -->
<g id="edge12" class="edge">
<title>Node7&#45;&gt;Node12</title>
<path fill="none" stroke="#191970" d="M852.0499,-67.3347C873.8456,-58.2811 907.0752,-44.2029 935.5,-31 936.5096,-30.5311 937.5352,-30.049 938.5691,-29.558"/>
<polygon fill="#191970" stroke="#191970" points="940.4362,-32.5419 947.8967,-25.0191 937.3733,-26.2476 940.4362,-32.5419"/>
</g>
</g>
</svg>
