<?xml version="1.0" encoding="UTF-8" standalone="no"?>
<!DOCTYPE svg PUBLIC "-//W3C//DTD SVG 1.1//EN"
 "http://www.w3.org/Graphics/SVG/1.1/DTD/svg11.dtd">
<!-- Generated by graphviz version 2.40.1 (20161225.0304)
 -->
<!-- Title: src/iteration/mg_base.h Pages: 1 -->
<svg width="631pt" height="285pt"
 viewBox="0.00 0.00 630.66 285.00" xmlns="http://www.w3.org/2000/svg" xmlns:xlink="http://www.w3.org/1999/xlink">
<g id="graph0" class="graph" transform="scale(1 1) rotate(0) translate(4 281)">
<title>src/iteration/mg_base.h</title>
<!-- Node33 -->
<g id="node1" class="node">
<title>Node33</title>
<polygon fill="#bfbfbf" stroke="#000000" points="178.1569,-257.5 178.1569,-276.5 298.1569,-276.5 298.1569,-257.5 178.1569,-257.5"/>
<text text-anchor="middle" x="238.1569" y="-264.5" font-family="Arial" font-size="10.00" fill="#000000">src/iteration/mg_base.h</text>
</g>
<!-- Node34 -->
<g id="node2" class="node">
<title>Node34</title>
<g id="a_node2"><a xlink:href="bart__driver_8h.html" target="_top" xlink:title="src/common/bart_driver.h">
<polygon fill="none" stroke="#000000" points="9.1569,-62 9.1569,-81 139.1569,-81 139.1569,-62 9.1569,-62"/>
<text text-anchor="middle" x="74.1569" y="-69" font-family="Arial" font-size="10.00" fill="#000000">src/common/bart_driver.h</text>
</a>
</g>
</g>
<!-- Node33&#45;&gt;Node34 -->
<g id="edge1" class="edge">
<title>Node33&#45;&gt;Node34</title>
<path fill="none" stroke="#191970" d="M172.1678,-255.1086C116.7676,-241.2451 41.0788,-212.3185 5.1569,-154 -2.0689,-142.2691 -1.019,-135.3161 5.1569,-123 14.9395,-103.4914 36.0065,-89.4841 52.3048,-81.0484"/>
<polygon fill="#191970" stroke="#191970" points="171.3738,-258.5173 181.9144,-257.4459 173.0063,-251.7103 171.3738,-258.5173"/>
</g>
<!-- Node37 -->
<g id="node5" class="node">
<title>Node37</title>
<g id="a_node5"><a xlink:href="eigen__base_8h.html" target="_top" xlink:title="src/iteration/eigen\l_base.h">
<polygon fill="none" stroke="#000000" points="190.6569,-190.5 190.6569,-220.5 285.6569,-220.5 285.6569,-190.5 190.6569,-190.5"/>
<text text-anchor="start" x="198.6569" y="-208.5" font-family="Arial" font-size="10.00" fill="#000000">src/iteration/eigen</text>
<text text-anchor="middle" x="238.1569" y="-197.5" font-family="Arial" font-size="10.00" fill="#000000">_base.h</text>
</a>
</g>
</g>
<!-- Node33&#45;&gt;Node37 -->
<g id="edge4" class="edge">
<title>Node33&#45;&gt;Node37</title>
<path fill="none" stroke="#191970" d="M238.1569,-247.3693C238.1569,-238.681 238.1569,-228.6241 238.1569,-220.5446"/>
<polygon fill="#191970" stroke="#191970" points="234.657,-247.3906 238.1569,-257.3906 241.657,-247.3907 234.657,-247.3906"/>
</g>
<!-- Node38 -->
<g id="node6" class="node">
<title>Node38</title>
<g id="a_node6"><a xlink:href="iterations_8h.html" target="_top" xlink:title="src/iteration/iterations.h">
<polygon fill="none" stroke="#000000" points="14.1569,-129 14.1569,-148 134.1569,-148 134.1569,-129 14.1569,-129"/>
<text text-anchor="middle" x="74.1569" y="-136" font-family="Arial" font-size="10.00" fill="#000000">src/iteration/iterations.h</text>
</a>
</g>
</g>
<!-- Node33&#45;&gt;Node38 -->
<g id="edge13" class="edge">
<title>Node33&#45;&gt;Node38</title>
<path fill="none" stroke="#191970" d="M217.8759,-251.1091C183.4992,-224.1737 114.7829,-170.332 86.6266,-148.2705"/>
<polygon fill="#191970" stroke="#191970" points="215.8,-253.929 225.8302,-257.3416 220.1174,-248.4189 215.8,-253.929"/>
</g>
<!-- Node43 -->
<g id="node11" class="node">
<title>Node43</title>
<g id="a_node11"><a xlink:href="gauss__seidel_8h.html" target="_top" xlink:title="src/iteration/gauss\l_seidel.h">
<polygon fill="none" stroke="#000000" points="381.1569,-190.5 381.1569,-220.5 479.1569,-220.5 479.1569,-190.5 381.1569,-190.5"/>
<text text-anchor="start" x="389.1569" y="-208.5" font-family="Arial" font-size="10.00" fill="#000000">src/iteration/gauss</text>
<text text-anchor="middle" x="430.1569" y="-197.5" font-family="Arial" font-size="10.00" fill="#000000">_seidel.h</text>
</a>
</g>
</g>
<!-- Node33&#45;&gt;Node43 -->
<g id="edge14" class="edge">
<title>Node33&#45;&gt;Node43</title>
<path fill="none" stroke="#191970" d="M278.0523,-254.221C308.6482,-244.4207 350.9579,-230.8684 383.1884,-220.5446"/>
<polygon fill="#191970" stroke="#191970" points="276.6126,-251.0069 268.1569,-257.3906 278.7479,-257.6733 276.6126,-251.0069"/>
</g>
<!-- Node45 -->
<g id="node13" class="node">
<title>Node45</title>
<g id="a_node13"><a xlink:href="mg__base_8cc.html" target="_top" xlink:title="src/iteration/mg_base.cc">
<polygon fill="none" stroke="#000000" points="497.6569,-196 497.6569,-215 622.6569,-215 622.6569,-196 497.6569,-196"/>
<text text-anchor="middle" x="560.1569" y="-203" font-family="Arial" font-size="10.00" fill="#000000">src/iteration/mg_base.cc</text>
</a>
</g>
</g>
<!-- Node33&#45;&gt;Node45 -->
<g id="edge17" class="edge">
<title>Node33&#45;&gt;Node45</title>
<path fill="none" stroke="#191970" d="M302.9975,-255.6211C353.5248,-246.6208 425.3999,-233.5258 488.1569,-221 497.4358,-219.148 507.3664,-217.0716 516.7967,-215.0552"/>
<polygon fill="#191970" stroke="#191970" points="302.1016,-252.2254 292.8684,-257.4215 303.3267,-259.1174 302.1016,-252.2254"/>
</g>
<!-- Node35 -->
<g id="node3" class="node">
<title>Node35</title>
<g id="a_node3"><a xlink:href="bart__driver_8cc.html" target="_top" xlink:title="src/common/bart_driver.cc">
<polygon fill="none" stroke="#000000" points="264.1569,-.5 264.1569,-19.5 398.1569,-19.5 398.1569,-.5 264.1569,-.5"/>
<text text-anchor="middle" x="331.1569" y="-7.5" font-family="Arial" font-size="10.00" fill="#000000">src/common/bart_driver.cc</text>
</a>
</g>
</g>
<!-- Node34&#45;&gt;Node35 -->
<g id="edge2" class="edge">
<title>Node34&#45;&gt;Node35</title>
<path fill="none" stroke="#191970" d="M124.0476,-59.5612C172.8217,-47.8895 246.1336,-30.346 291.1891,-19.5643"/>
<polygon fill="#191970" stroke="#191970" points="122.942,-56.2268 114.0311,-61.9581 124.5711,-63.0346 122.942,-56.2268"/>
</g>
<!-- Node36 -->
<g id="node4" class="node">
<title>Node36</title>
<g id="a_node4"><a xlink:href="main_8cc.html" target="_top" xlink:title="src/common/main.cc">
<polygon fill="none" stroke="#000000" points="20.1569,-.5 20.1569,-19.5 128.1569,-19.5 128.1569,-.5 20.1569,-.5"/>
<text text-anchor="middle" x="74.1569" y="-7.5" font-family="Arial" font-size="10.00" fill="#000000">src/common/main.cc</text>
</a>
</g>
</g>
<!-- Node34&#45;&gt;Node36 -->
<g id="edge3" class="edge">
<title>Node34&#45;&gt;Node36</title>
<path fill="none" stroke="#191970" d="M74.1569,-51.7462C74.1569,-41.0519 74.1569,-28.314 74.1569,-19.7449"/>
<polygon fill="#191970" stroke="#191970" points="70.657,-51.8906 74.1569,-61.8906 77.657,-51.8907 70.657,-51.8906"/>
</g>
<!-- Node37&#45;&gt;Node34 -->
<g id="edge5" class="edge">
<title>Node37&#45;&gt;Node34</title>
<path fill="none" stroke="#191970" d="M253.048,-181.0897C261.7441,-163.368 268.7664,-139.6727 256.1569,-123 247.6889,-111.8034 169.3284,-92.5864 118.2258,-81.0594"/>
<polygon fill="#191970" stroke="#191970" points="249.7854,-179.7689 248.1586,-190.2381 255.959,-183.0684 249.7854,-179.7689"/>
</g>
<!-- Node37&#45;&gt;Node38 -->
<g id="edge6" class="edge">
<title>Node37&#45;&gt;Node38</title>
<path fill="none" stroke="#191970" d="M191.7089,-186.5243C161.0279,-173.99 122.1125,-158.0916 97.665,-148.1039"/>
<polygon fill="#191970" stroke="#191970" points="190.7711,-189.9219 201.3521,-190.4639 193.4185,-183.4419 190.7711,-189.9219"/>
</g>
<!-- Node40 -->
<g id="node8" class="node">
<title>Node40</title>
<g id="a_node8"><a xlink:href="power__iteration_8h.html" target="_top" xlink:title="src/iteration/power\l_iteration.h">
<polygon fill="none" stroke="#000000" points="304.1569,-123.5 304.1569,-153.5 402.1569,-153.5 402.1569,-123.5 304.1569,-123.5"/>
<text text-anchor="start" x="312.1569" y="-141.5" font-family="Arial" font-size="10.00" fill="#000000">src/iteration/power</text>
<text text-anchor="middle" x="353.1569" y="-130.5" font-family="Arial" font-size="10.00" fill="#000000">_iteration.h</text>
</a>
</g>
</g>
<!-- Node37&#45;&gt;Node40 -->
<g id="edge9" class="edge">
<title>Node37&#45;&gt;Node40</title>
<path fill="none" stroke="#191970" d="M272.7322,-185.3561C290.1652,-175.1995 310.96,-163.0843 327.0369,-153.7177"/>
<polygon fill="#191970" stroke="#191970" points="270.8437,-182.4056 263.9651,-190.4639 274.3676,-188.454 270.8437,-182.4056"/>
</g>
<!-- Node42 -->
<g id="node10" class="node">
<title>Node42</title>
<g id="a_node10"><a xlink:href="eigen__base_8cc.html" target="_top" xlink:title="src/iteration/eigen\l_base.cc">
<polygon fill="none" stroke="#000000" points="152.6569,-123.5 152.6569,-153.5 247.6569,-153.5 247.6569,-123.5 152.6569,-123.5"/>
<text text-anchor="start" x="160.6569" y="-141.5" font-family="Arial" font-size="10.00" fill="#000000">src/iteration/eigen</text>
<text text-anchor="middle" x="200.1569" y="-130.5" font-family="Arial" font-size="10.00" fill="#000000">_base.cc</text>
</a>
</g>
</g>
<!-- Node37&#45;&gt;Node42 -->
<g id="edge12" class="edge">
<title>Node37&#45;&gt;Node42</title>
<path fill="none" stroke="#191970" d="M224.5357,-181.4837C219.2701,-172.1996 213.4039,-161.8565 208.7455,-153.6432"/>
<polygon fill="#191970" stroke="#191970" points="221.5562,-183.325 229.5341,-190.2967 227.6451,-179.8716 221.5562,-183.325"/>
</g>
<!-- Node38&#45;&gt;Node34 -->
<g id="edge7" class="edge">
<title>Node38&#45;&gt;Node34</title>
<path fill="none" stroke="#191970" d="M74.1569,-118.6079C74.1569,-106.214 74.1569,-90.8263 74.1569,-81.0817"/>
<polygon fill="#191970" stroke="#191970" points="70.657,-118.9005 74.1569,-128.9005 77.657,-118.9006 70.657,-118.9005"/>
</g>
<!-- Node39 -->
<g id="node7" class="node">
<title>Node39</title>
<g id="a_node7"><a xlink:href="iterations_8cc.html" target="_top" xlink:title="src/iteration/iterations.cc">
<polygon fill="none" stroke="#000000" points="157.1569,-62 157.1569,-81 281.1569,-81 281.1569,-62 157.1569,-62"/>
<text text-anchor="middle" x="219.1569" y="-69" font-family="Arial" font-size="10.00" fill="#000000">src/iteration/iterations.cc</text>
</a>
</g>
</g>
<!-- Node38&#45;&gt;Node39 -->
<g id="edge8" class="edge">
<title>Node38&#45;&gt;Node39</title>
<path fill="none" stroke="#191970" d="M104.2992,-124.5722C132.4695,-111.5555 173.7805,-92.467 198.4205,-81.0817"/>
<polygon fill="#191970" stroke="#191970" points="102.5415,-121.5287 94.9318,-128.9005 105.4777,-127.8831 102.5415,-121.5287"/>
</g>
<!-- Node40&#45;&gt;Node35 -->
<g id="edge10" class="edge">
<title>Node40&#45;&gt;Node35</title>
<path fill="none" stroke="#191970" d="M348.8232,-113.1876C343.9254,-84.5797 336.1965,-39.4362 332.8237,-19.7358"/>
<polygon fill="#191970" stroke="#191970" points="345.4094,-113.9888 350.5468,-123.2548 352.309,-112.8075 345.4094,-113.9888"/>
</g>
<!-- Node41 -->
<g id="node9" class="node">
<title>Node41</title>
<g id="a_node9"><a xlink:href="power__iteration_8cc.html" target="_top" xlink:title="src/iteration/power\l_iteration.cc">
<polygon fill="none" stroke="#000000" points="359.1569,-56.5 359.1569,-86.5 457.1569,-86.5 457.1569,-56.5 359.1569,-56.5"/>
<text text-anchor="start" x="367.1569" y="-74.5" font-family="Arial" font-size="10.00" fill="#000000">src/iteration/power</text>
<text text-anchor="middle" x="408.1569" y="-63.5" font-family="Arial" font-size="10.00" fill="#000000">_iteration.cc</text>
</a>
</g>
</g>
<!-- Node40&#45;&gt;Node41 -->
<g id="edge11" class="edge">
<title>Node40&#45;&gt;Node41</title>
<path fill="none" stroke="#191970" d="M372.1599,-115.3509C379.9606,-105.8482 388.7729,-95.1132 395.7259,-86.6432"/>
<polygon fill="#191970" stroke="#191970" points="369.2769,-113.3466 365.6372,-123.2967 374.6875,-117.7881 369.2769,-113.3466"/>
</g>
<!-- Node43&#45;&gt;Node35 -->
<g id="edge15" class="edge">
<title>Node43&#45;&gt;Node35</title>
<path fill="none" stroke="#191970" d="M488.7515,-187.0254C503.8829,-179.3031 518.3696,-168.6143 527.1569,-154 534.2566,-142.1923 532.1299,-135.849 527.1569,-123 503.6229,-62.194 428.1972,-32.7325 378.0722,-19.5328"/>
<polygon fill="#191970" stroke="#191970" points="486.8615,-184.0458 479.292,-191.4589 489.8322,-190.3842 486.8615,-184.0458"/>
</g>
<!-- Node44 -->
<g id="node12" class="node">
<title>Node44</title>
<g id="a_node12"><a xlink:href="gauss__seidel_8cc.html" target="_top" xlink:title="src/iteration/gauss\l_seidel.cc">
<polygon fill="none" stroke="#000000" points="420.1569,-123.5 420.1569,-153.5 518.1569,-153.5 518.1569,-123.5 420.1569,-123.5"/>
<text text-anchor="start" x="428.1569" y="-141.5" font-family="Arial" font-size="10.00" fill="#000000">src/iteration/gauss</text>
<text text-anchor="middle" x="469.1569" y="-130.5" font-family="Arial" font-size="10.00" fill="#000000">_seidel.cc</text>
</a>
</g>
</g>
<!-- Node43&#45;&gt;Node44 -->
<g id="edge16" class="edge">
<title>Node43&#45;&gt;Node44</title>
<path fill="none" stroke="#191970" d="M444.1365,-181.4837C449.5407,-172.1996 455.5613,-161.8565 460.3422,-153.6432"/>
<polygon fill="#191970" stroke="#191970" points="441.0125,-179.8934 439.0066,-190.2967 447.0622,-183.4149 441.0125,-179.8934"/>
</g>
</g>
</svg>
