<?xml version="1.0" encoding="UTF-8" standalone="no"?>
<!DOCTYPE svg PUBLIC "-//W3C//DTD SVG 1.1//EN"
 "http://www.w3.org/Graphics/SVG/1.1/DTD/svg11.dtd">
<!-- Generated by graphviz version 2.40.1 (20161225.0304)
 -->
<!-- Title: src/iteration/power_iteration.h Pages: 1 -->
<svg width="538pt" height="166pt"
 viewBox="0.00 0.00 538.00 166.00" xmlns="http://www.w3.org/2000/svg" xmlns:xlink="http://www.w3.org/1999/xlink">
<g id="graph0" class="graph" transform="scale(1 1) rotate(0) translate(4 162)">
<title>src/iteration/power_iteration.h</title>
<!-- Node35 -->
<g id="node1" class="node">
<title>Node35</title>
<polygon fill="#bfbfbf" stroke="#000000" points="180,-97.5 180,-157.5 393,-157.5 393,-97.5 180,-97.5"/>
<text text-anchor="start" x="188" y="-134.3" font-family="Arial" font-size="24.00" fill="#000000">src/iteration/power</text>
<text text-anchor="middle" x="286.5" y="-108.3" font-family="Arial" font-size="24.00" fill="#000000">_iteration.h</text>
</g>
<!-- Node36 -->
<g id="node2" class="node">
<title>Node36</title>
<g id="a_node2"><a xlink:href="bart__driver_8cc.html" target="_top" xlink:title="src/common/bart_driver.cc">
<polygon fill="none" stroke="#000000" points="0,-13.5 0,-47.5 299,-47.5 299,-13.5 0,-13.5"/>
<text text-anchor="middle" x="149.5" y="-24.3" font-family="Arial" font-size="24.00" fill="#000000">src/common/bart_driver.cc</text>
</a>
</g>
</g>
<!-- Node35&#45;&gt;Node36 -->
<g id="edge1" class="edge">
<title>Node35&#45;&gt;Node36</title>
<path fill="none" stroke="#191970" d="M235.6156,-91.4724C214.4321,-76.4738 190.8371,-59.7679 173.7095,-47.641"/>
<polygon fill="#191970" stroke="#191970" points="233.7194,-94.4182 243.9033,-97.3403 237.7644,-88.7052 233.7194,-94.4182"/>
</g>
<!-- Node37 -->
<g id="node3" class="node">
<title>Node37</title>
<g id="a_node3"><a xlink:href="power__iteration_8cc.html" target="_top" xlink:title="src/iteration/power\l_iteration.cc">
<polygon fill="none" stroke="#000000" points="317,-.5 317,-60.5 530,-60.5 530,-.5 317,-.5"/>
<text text-anchor="start" x="325" y="-37.3" font-family="Arial" font-size="24.00" fill="#000000">src/iteration/power</text>
<text text-anchor="middle" x="423.5" y="-11.3" font-family="Arial" font-size="24.00" fill="#000000">_iteration.cc</text>
</a>
</g>
</g>
<!-- Node35&#45;&gt;Node37 -->
<g id="edge2" class="edge">
<title>Node35&#45;&gt;Node37</title>
<path fill="none" stroke="#191970" d="M337.3844,-91.4724C351.7121,-81.328 367.1429,-70.4025 380.9297,-60.641"/>
<polygon fill="#191970" stroke="#191970" points="335.2356,-88.7052 329.0967,-97.3403 339.2806,-94.4182 335.2356,-88.7052"/>
</g>
</g>
</svg>
