<?xml version="1.0" encoding="UTF-8" standalone="no"?>
<!DOCTYPE svg PUBLIC "-//W3C//DTD SVG 1.1//EN"
 "http://www.w3.org/Graphics/SVG/1.1/DTD/svg11.dtd">
<!-- Generated by graphviz version 2.40.1 (20161225.0304)
 -->
<!-- Title: src/common/preconditioner_solver.cc Pages: 1 -->
<svg width="962pt" height="162pt"
 viewBox="0.00 0.00 962.00 162.00" xmlns="http://www.w3.org/2000/svg" xmlns:xlink="http://www.w3.org/1999/xlink">
<g id="graph0" class="graph" transform="scale(1 1) rotate(0) translate(4 158)">
<title>src/common/preconditioner_solver.cc</title>
<!-- Node0 -->
<g id="node1" class="node">
<title>Node0</title>
<polygon fill="#bfbfbf" stroke="#000000" points="485,-123.5 485,-153.5 622,-153.5 622,-123.5 485,-123.5"/>
<text text-anchor="start" x="493" y="-141.5" font-family="Arial" font-size="10.00" fill="#000000">src/common/preconditioner</text>
<text text-anchor="middle" x="553.5" y="-130.5" font-family="Arial" font-size="10.00" fill="#000000">_solver.cc</text>
</g>
<!-- Node1 -->
<g id="node2" class="node">
<title>Node1</title>
<g id="a_node2"><a xlink:href="preconditioner__solver_8h.html" target="_top" xlink:title="preconditioner_solver.h">
<polygon fill="none" stroke="#000000" points="493.5,-67.5 493.5,-86.5 613.5,-86.5 613.5,-67.5 493.5,-67.5"/>
<text text-anchor="middle" x="553.5" y="-74.5" font-family="Arial" font-size="10.00" fill="#000000">preconditioner_solver.h</text>
</a>
</g>
</g>
<!-- Node0&#45;&gt;Node1 -->
<g id="edge1" class="edge">
<title>Node0&#45;&gt;Node1</title>
<path fill="none" stroke="#191970" d="M553.5,-123.2977C553.5,-115.3834 553.5,-105.6043 553.5,-97.0759"/>
<polygon fill="#191970" stroke="#191970" points="557.0001,-96.8469 553.5,-86.8469 550.0001,-96.847 557.0001,-96.8469"/>
</g>
<!-- Node2 -->
<g id="node3" class="node">
<title>Node2</title>
<polygon fill="none" stroke="#bfbfbf" points="0,-.5 0,-30.5 95,-30.5 95,-.5 0,-.5"/>
<text text-anchor="start" x="8" y="-18.5" font-family="Arial" font-size="10.00" fill="#000000">deal.II/lac/generic</text>
<text text-anchor="middle" x="47.5" y="-7.5" font-family="Arial" font-size="10.00" fill="#000000">_linear_algebra.h</text>
</g>
<!-- Node1&#45;&gt;Node2 -->
<g id="edge2" class="edge">
<title>Node1&#45;&gt;Node2</title>
<path fill="none" stroke="#191970" d="M493.1381,-73.9552C408.4611,-68.991 249.5499,-57.1478 105.1899,-30.9269"/>
<polygon fill="#191970" stroke="#191970" points="105.732,-27.4679 95.2631,-29.0966 104.4627,-34.3519 105.732,-27.4679"/>
</g>
<!-- Node3 -->
<g id="node4" class="node">
<title>Node3</title>
<polygon fill="none" stroke="#bfbfbf" points="113.5,-.5 113.5,-30.5 237.5,-30.5 237.5,-.5 113.5,-.5"/>
<text text-anchor="start" x="121.5" y="-18.5" font-family="Arial" font-size="10.00" fill="#000000">deal.II/lac/petsc_parallel</text>
<text text-anchor="middle" x="175.5" y="-7.5" font-family="Arial" font-size="10.00" fill="#000000">_sparse_matrix.h</text>
</g>
<!-- Node1&#45;&gt;Node3 -->
<g id="edge3" class="edge">
<title>Node1&#45;&gt;Node3</title>
<path fill="none" stroke="#191970" d="M493.302,-69.1798C433.4436,-61.1327 338.7828,-47.6784 247.7282,-31.1607"/>
<polygon fill="#191970" stroke="#191970" points="248.2576,-27.6996 237.791,-29.3431 246.998,-34.5853 248.2576,-27.6996"/>
</g>
<!-- Node4 -->
<g id="node5" class="node">
<title>Node4</title>
<polygon fill="none" stroke="#bfbfbf" points="255.5,-.5 255.5,-30.5 379.5,-30.5 379.5,-.5 255.5,-.5"/>
<text text-anchor="start" x="263.5" y="-18.5" font-family="Arial" font-size="10.00" fill="#000000">deal.II/lac/petsc_parallel</text>
<text text-anchor="middle" x="317.5" y="-7.5" font-family="Arial" font-size="10.00" fill="#000000">_vector.h</text>
</g>
<!-- Node1&#45;&gt;Node4 -->
<g id="edge4" class="edge">
<title>Node1&#45;&gt;Node4</title>
<path fill="none" stroke="#191970" d="M516.8839,-67.4581C481.8111,-58.3183 428.0356,-44.3048 385.1671,-33.1336"/>
<polygon fill="#191970" stroke="#191970" points="385.9214,-29.7133 375.3619,-30.5784 384.1561,-36.4871 385.9214,-29.7133"/>
</g>
<!-- Node5 -->
<g id="node6" class="node">
<title>Node5</title>
<polygon fill="none" stroke="#bfbfbf" points="397.5,-6 397.5,-25 551.5,-25 551.5,-6 397.5,-6"/>
<text text-anchor="middle" x="474.5" y="-13" font-family="Arial" font-size="10.00" fill="#000000">deal.II/lac/petsc_precondition.h</text>
</g>
<!-- Node1&#45;&gt;Node5 -->
<g id="edge5" class="edge">
<title>Node1&#45;&gt;Node5</title>
<path fill="none" stroke="#191970" d="M541.1563,-67.3906C528.7497,-57.7324 509.4157,-42.6812 494.7587,-31.271"/>
<polygon fill="#191970" stroke="#191970" points="496.7979,-28.423 486.7571,-25.0419 492.4979,-33.9466 496.7979,-28.423"/>
</g>
<!-- Node6 -->
<g id="node7" class="node">
<title>Node6</title>
<polygon fill="none" stroke="#bfbfbf" points="570,-6 570,-25 697,-25 697,-6 570,-6"/>
<text text-anchor="middle" x="633.5" y="-13" font-family="Arial" font-size="10.00" fill="#000000">deal.II/lac/petsc_solver.h</text>
</g>
<!-- Node1&#45;&gt;Node6 -->
<g id="edge6" class="edge">
<title>Node1&#45;&gt;Node6</title>
<path fill="none" stroke="#191970" d="M566,-67.3906C578.5636,-57.7324 598.1423,-42.6812 612.9849,-31.271"/>
<polygon fill="#191970" stroke="#191970" points="615.2928,-33.9115 621.0878,-25.0419 611.0265,-28.3618 615.2928,-33.9115"/>
</g>
<!-- Node7 -->
<g id="node8" class="node">
<title>Node7</title>
<polygon fill="none" stroke="#bfbfbf" points="715,-.5 715,-30.5 832,-30.5 832,-.5 715,-.5"/>
<text text-anchor="start" x="723" y="-18.5" font-family="Arial" font-size="10.00" fill="#000000">deal.II/base/parameter</text>
<text text-anchor="middle" x="773.5" y="-7.5" font-family="Arial" font-size="10.00" fill="#000000">_handler.h</text>
</g>
<!-- Node1&#45;&gt;Node7 -->
<g id="edge7" class="edge">
<title>Node1&#45;&gt;Node7</title>
<path fill="none" stroke="#191970" d="M587.875,-67.3906C620.4062,-58.2967 670.0409,-44.4215 709.8023,-33.3064"/>
<polygon fill="#191970" stroke="#191970" points="710.9935,-36.6077 719.6819,-30.5446 709.1089,-29.8661 710.9935,-36.6077"/>
</g>
<!-- Node8 -->
<g id="node9" class="node">
<title>Node8</title>
<polygon fill="none" stroke="#bfbfbf" points="850.5,-6 850.5,-25 894.5,-25 894.5,-6 850.5,-6"/>
<text text-anchor="middle" x="872.5" y="-13" font-family="Arial" font-size="10.00" fill="#000000">vector</text>
</g>
<!-- Node1&#45;&gt;Node8 -->
<g id="edge8" class="edge">
<title>Node1&#45;&gt;Node8</title>
<path fill="none" stroke="#191970" d="M613.7572,-72.7527C672.901,-67.3412 765.0958,-55.56 841.5,-31 843.1147,-30.481 844.7497,-29.8883 846.3809,-29.2445"/>
<polygon fill="#191970" stroke="#191970" points="847.8177,-32.4361 855.5145,-25.1552 844.9572,-26.0472 847.8177,-32.4361"/>
</g>
<!-- Node9 -->
<g id="node10" class="node">
<title>Node9</title>
<polygon fill="none" stroke="#bfbfbf" points="913,-6 913,-25 954,-25 954,-6 913,-6"/>
<text text-anchor="middle" x="933.5" y="-13" font-family="Arial" font-size="10.00" fill="#000000">string</text>
</g>
<!-- Node1&#45;&gt;Node9 -->
<g id="edge9" class="edge">
<title>Node1&#45;&gt;Node9</title>
<path fill="none" stroke="#191970" d="M613.8098,-71.6072C699.215,-63.5383 850.8678,-47.4996 903.5,-31 904.9684,-30.5397 906.4511,-30.0108 907.9298,-29.4322"/>
<polygon fill="#191970" stroke="#191970" points="909.7902,-32.4304 917.4338,-25.0938 906.8834,-26.0625 909.7902,-32.4304"/>
</g>
</g>
</svg>
