<?xml version="1.0" encoding="UTF-8" standalone="no"?>
<!DOCTYPE svg PUBLIC "-//W3C//DTD SVG 1.1//EN"
 "http://www.w3.org/Graphics/SVG/1.1/DTD/svg11.dtd">
<!-- Generated by graphviz version 2.40.1 (20161225.0304)
 -->
<!-- Title: src/common/preconditioner_solver.h Pages: 1 -->
<svg width="962pt" height="106pt"
 viewBox="0.00 0.00 962.00 106.00" xmlns="http://www.w3.org/2000/svg" xmlns:xlink="http://www.w3.org/1999/xlink">
<g id="graph0" class="graph" transform="scale(1 1) rotate(0) translate(4 102)">
<title>src/common/preconditioner_solver.h</title>
<!-- Node0 -->
<g id="node1" class="node">
<title>Node0</title>
<polygon fill="#bfbfbf" stroke="#000000" points="485,-67.5 485,-97.5 622,-97.5 622,-67.5 485,-67.5"/>
<text text-anchor="start" x="493" y="-85.5" font-family="Arial" font-size="10.00" fill="#000000">src/common/preconditioner</text>
<text text-anchor="middle" x="553.5" y="-74.5" font-family="Arial" font-size="10.00" fill="#000000">_solver.h</text>
</g>
<!-- Node1 -->
<g id="node2" class="node">
<title>Node1</title>
<polygon fill="none" stroke="#bfbfbf" points="0,-.5 0,-30.5 95,-30.5 95,-.5 0,-.5"/>
<text text-anchor="start" x="8" y="-18.5" font-family="Arial" font-size="10.00" fill="#000000">deal.II/lac/generic</text>
<text text-anchor="middle" x="47.5" y="-7.5" font-family="Arial" font-size="10.00" fill="#000000">_linear_algebra.h</text>
</g>
<!-- Node0&#45;&gt;Node1 -->
<g id="edge1" class="edge">
<title>Node0&#45;&gt;Node1</title>
<path fill="none" stroke="#191970" d="M484.9316,-77.877C398.518,-71.3287 245.3826,-57.3297 105.3312,-30.9729"/>
<polygon fill="#191970" stroke="#191970" points="105.7499,-27.4898 95.2712,-29.0538 104.4382,-34.3658 105.7499,-27.4898"/>
</g>
<!-- Node2 -->
<g id="node3" class="node">
<title>Node2</title>
<polygon fill="none" stroke="#bfbfbf" points="113.5,-.5 113.5,-30.5 237.5,-30.5 237.5,-.5 113.5,-.5"/>
<text text-anchor="start" x="121.5" y="-18.5" font-family="Arial" font-size="10.00" fill="#000000">deal.II/lac/petsc_parallel</text>
<text text-anchor="middle" x="175.5" y="-7.5" font-family="Arial" font-size="10.00" fill="#000000">_sparse_matrix.h</text>
</g>
<!-- Node0&#45;&gt;Node2 -->
<g id="edge2" class="edge">
<title>Node0&#45;&gt;Node2</title>
<path fill="none" stroke="#191970" d="M484.7423,-71.9481C424.7233,-62.5128 335.0438,-47.8752 247.8688,-31.2161"/>
<polygon fill="#191970" stroke="#191970" points="248.2836,-27.7318 237.8027,-29.2811 246.9622,-34.606 248.2836,-27.7318"/>
</g>
<!-- Node3 -->
<g id="node4" class="node">
<title>Node3</title>
<polygon fill="none" stroke="#bfbfbf" points="255.5,-.5 255.5,-30.5 379.5,-30.5 379.5,-.5 255.5,-.5"/>
<text text-anchor="start" x="263.5" y="-18.5" font-family="Arial" font-size="10.00" fill="#000000">deal.II/lac/petsc_parallel</text>
<text text-anchor="middle" x="317.5" y="-7.5" font-family="Arial" font-size="10.00" fill="#000000">_vector.h</text>
</g>
<!-- Node0&#45;&gt;Node3 -->
<g id="edge3" class="edge">
<title>Node0&#45;&gt;Node3</title>
<path fill="none" stroke="#191970" d="M500.537,-67.4639C464.9828,-57.3701 417.9726,-44.024 380.4972,-33.3848"/>
<polygon fill="#191970" stroke="#191970" points="381.2697,-29.9659 370.694,-30.6017 379.358,-36.6998 381.2697,-29.9659"/>
</g>
<!-- Node4 -->
<g id="node5" class="node">
<title>Node4</title>
<polygon fill="none" stroke="#bfbfbf" points="397.5,-6 397.5,-25 551.5,-25 551.5,-6 397.5,-6"/>
<text text-anchor="middle" x="474.5" y="-13" font-family="Arial" font-size="10.00" fill="#000000">deal.II/lac/petsc_precondition.h</text>
</g>
<!-- Node0&#45;&gt;Node4 -->
<g id="edge4" class="edge">
<title>Node0&#45;&gt;Node4</title>
<path fill="none" stroke="#191970" d="M535.5737,-67.2967C523.0261,-56.6551 506.2889,-42.4602 493.5091,-31.6217"/>
<polygon fill="#191970" stroke="#191970" points="495.6567,-28.8538 485.7663,-25.055 491.129,-34.1924 495.6567,-28.8538"/>
</g>
<!-- Node5 -->
<g id="node6" class="node">
<title>Node5</title>
<polygon fill="none" stroke="#bfbfbf" points="570,-6 570,-25 697,-25 697,-6 570,-6"/>
<text text-anchor="middle" x="633.5" y="-13" font-family="Arial" font-size="10.00" fill="#000000">deal.II/lac/petsc_solver.h</text>
</g>
<!-- Node0&#45;&gt;Node5 -->
<g id="edge5" class="edge">
<title>Node0&#45;&gt;Node5</title>
<path fill="none" stroke="#191970" d="M571.6532,-67.2967C584.3596,-56.6551 601.3087,-42.4602 614.2502,-31.6217"/>
<polygon fill="#191970" stroke="#191970" points="616.6718,-34.159 622.0911,-25.055 612.1773,-28.7924 616.6718,-34.159"/>
</g>
<!-- Node6 -->
<g id="node7" class="node">
<title>Node6</title>
<polygon fill="none" stroke="#bfbfbf" points="715,-.5 715,-30.5 832,-30.5 832,-.5 715,-.5"/>
<text text-anchor="start" x="723" y="-18.5" font-family="Arial" font-size="10.00" fill="#000000">deal.II/base/parameter</text>
<text text-anchor="middle" x="773.5" y="-7.5" font-family="Arial" font-size="10.00" fill="#000000">_handler.h</text>
</g>
<!-- Node0&#45;&gt;Node6 -->
<g id="edge6" class="edge">
<title>Node0&#45;&gt;Node6</title>
<path fill="none" stroke="#191970" d="M602.8723,-67.4639C635.875,-57.4131 679.4663,-44.1375 714.3273,-33.5208"/>
<polygon fill="#191970" stroke="#191970" points="715.3658,-36.8633 723.9124,-30.6017 713.3265,-30.1669 715.3658,-36.8633"/>
</g>
<!-- Node7 -->
<g id="node8" class="node">
<title>Node7</title>
<polygon fill="none" stroke="#bfbfbf" points="850.5,-6 850.5,-25 894.5,-25 894.5,-6 850.5,-6"/>
<text text-anchor="middle" x="872.5" y="-13" font-family="Arial" font-size="10.00" fill="#000000">vector</text>
</g>
<!-- Node0&#45;&gt;Node7 -->
<g id="edge7" class="edge">
<title>Node0&#45;&gt;Node7</title>
<path fill="none" stroke="#191970" d="M622.0719,-75.8381C681.2956,-68.7717 768.5826,-55.1882 841.5,-31 843.1098,-30.466 844.741,-29.8616 846.3693,-29.209"/>
<polygon fill="#191970" stroke="#191970" points="847.8169,-32.3956 855.4947,-25.0948 844.9399,-26.0142 847.8169,-32.3956"/>
</g>
<!-- Node8 -->
<g id="node9" class="node">
<title>Node8</title>
<polygon fill="none" stroke="#bfbfbf" points="913,-6 913,-25 954,-25 954,-6 913,-6"/>
<text text-anchor="middle" x="933.5" y="-13" font-family="Arial" font-size="10.00" fill="#000000">string</text>
</g>
<!-- Node0&#45;&gt;Node8 -->
<g id="edge8" class="edge">
<title>Node0&#45;&gt;Node8</title>
<path fill="none" stroke="#191970" d="M622.1053,-79.1027C693.7898,-74.0173 808.7907,-61.494 903.5,-31 904.9648,-30.5284 906.4447,-29.9905 907.9211,-29.4049"/>
<polygon fill="#191970" stroke="#191970" points="909.7905,-32.3979 917.4183,-25.0448 906.8699,-26.0363 909.7905,-32.3979"/>
</g>
</g>
</svg>
