<?xml version="1.0" encoding="UTF-8" standalone="no"?>
<!DOCTYPE svg PUBLIC "-//W3C//DTD SVG 1.1//EN"
 "http://www.w3.org/Graphics/SVG/1.1/DTD/svg11.dtd">
<!-- Generated by graphviz version 2.40.1 (20161225.0304)
 -->
<!-- Title: src/common/problem_definition.h Pages: 1 -->
<!--zoomable 106 -->
<svg id="main" version="1.1" xmlns="http://www.w3.org/2000/svg" xmlns:xlink="http://www.w3.org/1999/xlink" xml:space="preserve" onload="init(evt)">
<style type="text/css"><![CDATA[
.edge:hover path { stroke: red; }
.edge:hover polygon { stroke: red; fill: red; }
]]></style>
<script type="text/javascript"><![CDATA[
var edges = document.getElementsByTagName('g');
if (edges && edges.length) {
  for (var i=0;i<edges.length;i++) {
    if (edges[i].id.substr(0,4)=='edge') {
      edges[i].setAttribute('class','edge');
    }
  }
}
]]></script>
        <defs>
                <circle id="rim" cx="0" cy="0" r="7"/>
                <circle id="rim2" cx="0" cy="0" r="3.5"/>
                <g id="zoomPlus">
                        <use xlink:href="#rim" fill="#404040">
                                <set attributeName="fill" to="#808080" begin="zoomplus.mouseover" end="zoomplus.mouseout"/>
                        </use>
                        <path d="M-4,0h8M0,-4v8" fill="none" stroke="white" stroke-width="1.5" pointer-events="none"/>
                </g>
                <g id="zoomMin">
                        <use xlink:href="#rim" fill="#404040">
                                <set attributeName="fill" to="#808080" begin="zoomminus.mouseover" end="zoomminus.mouseout"/>
                        </use>
                        <path d="M-4,0h8" fill="none" stroke="white" stroke-width="1.5" pointer-events="none"/>
                </g>
                <g id="dirArrow">
                        <path fill="none" stroke="white" stroke-width="1.5" d="M0,-3.0v7 M-2.5,-0.5L0,-3.0L2.5,-0.5"/>
                </g>
               <g id="resetDef">
                       <use xlink:href="#rim2" fill="#404040">
                               <set attributeName="fill" to="#808080" begin="reset.mouseover" end="reset.mouseout"/>
                       </use>
               </g>
        </defs>

<script type="text/javascript">
var viewWidth = 790;
var viewHeight = 106;
var sectionId = 'dynsection-0';
</script>
<script xlink:href="svgpan.js"/>
<svg id="graph" class="graph">
<g id="viewport">
<title>src/common/problem_definition.h</title>
<!-- Node0 -->
<g id="node1" class="node">
<title>Node0</title>
<polygon fill="#bfbfbf" stroke="#000000" points="435.5,-67.5 435.5,-97.5 545.5,-97.5 545.5,-67.5 435.5,-67.5"/>
<text text-anchor="start" x="443.5" y="-85.5" font-family="Arial" font-size="10.00" fill="#000000">src/common/problem</text>
<text text-anchor="middle" x="490.5" y="-74.5" font-family="Arial" font-size="10.00" fill="#000000">_definition.h</text>
</g>
<!-- Node1 -->
<g id="node2" class="node">
<title>Node1</title>
<polygon fill="none" stroke="#bfbfbf" points="0,-.5 0,-30.5 117,-30.5 117,-.5 0,-.5"/>
<text text-anchor="start" x="8" y="-18.5" font-family="Arial" font-size="10.00" fill="#000000">deal.II/base/parameter</text>
<text text-anchor="middle" x="58.5" y="-7.5" font-family="Arial" font-size="10.00" fill="#000000">_handler.h</text>
</g>
<!-- Node0&#45;&gt;Node1 -->
<g id="edge1" class="edge">
<title>Node0&#45;&gt;Node1</title>
<path fill="none" stroke="#191970" d="M435.2224,-76.2228C365.5432,-67.9722 241.9155,-52.2134 127.2656,-31.2467"/>
<polygon fill="#191970" stroke="#191970" points="127.7347,-27.7742 117.2654,-29.4002 126.4636,-34.6578 127.7347,-27.7742"/>
</g>
<!-- Node2 -->
<g id="node3" class="node">
<title>Node2</title>
<polygon fill="none" stroke="#bfbfbf" points="135,-6 135,-25 242,-25 242,-6 135,-6"/>
<text text-anchor="middle" x="188.5" y="-13" font-family="Arial" font-size="10.00" fill="#000000">deal.II/base/tensor.h</text>
</g>
<!-- Node0&#45;&gt;Node2 -->
<g id="edge2" class="edge">
<title>Node0&#45;&gt;Node2</title>
<path fill="none" stroke="#191970" d="M435.0944,-71.1619C386.3749,-61.0608 313.5961,-45.6523 250.5,-31 245.7514,-29.8973 240.8065,-28.7165 235.8725,-27.5169"/>
<polygon fill="#191970" stroke="#191970" points="236.3731,-24.0358 225.8266,-25.0472 234.7019,-30.8334 236.3731,-24.0358"/>
</g>
<!-- Node3 -->
<g id="node4" class="node">
<title>Node3</title>
<polygon fill="none" stroke="#bfbfbf" points="260,-.5 260,-30.5 379,-30.5 379,-.5 260,-.5"/>
<text text-anchor="start" x="268" y="-18.5" font-family="Arial" font-size="10.00" fill="#000000">deal.II/base/quadrature</text>
<text text-anchor="middle" x="319.5" y="-7.5" font-family="Arial" font-size="10.00" fill="#000000">_lib.h</text>
</g>
<!-- Node0&#45;&gt;Node3 -->
<g id="edge3" class="edge">
<title>Node0&#45;&gt;Node3</title>
<path fill="none" stroke="#191970" d="M452.1243,-67.4639C427.1299,-57.6708 394.322,-44.8162 367.5908,-34.3426"/>
<polygon fill="#191970" stroke="#191970" points="368.6308,-30.9911 358.0431,-30.6017 366.0771,-37.5086 368.6308,-30.9911"/>
</g>
<!-- Node4 -->
<g id="node5" class="node">
<title>Node4</title>
<polygon fill="none" stroke="#bfbfbf" points="397,-6 397,-25 452,-25 452,-6 397,-6"/>
<text text-anchor="middle" x="424.5" y="-13" font-family="Arial" font-size="10.00" fill="#000000">iostream</text>
</g>
<!-- Node0&#45;&gt;Node4 -->
<g id="edge4" class="edge">
<title>Node0&#45;&gt;Node4</title>
<path fill="none" stroke="#191970" d="M475.5236,-67.2967C465.2405,-56.8578 451.5892,-42.9997 440.9947,-32.2446"/>
<polygon fill="#191970" stroke="#191970" points="443.4235,-29.7228 433.9124,-25.055 438.4367,-34.6352 443.4235,-29.7228"/>
</g>
<!-- Node5 -->
<g id="node6" class="node">
<title>Node5</title>
<polygon fill="none" stroke="#bfbfbf" points="470,-6 470,-25 511,-25 511,-6 470,-6"/>
<text text-anchor="middle" x="490.5" y="-13" font-family="Arial" font-size="10.00" fill="#000000">string</text>
</g>
<!-- Node0&#45;&gt;Node5 -->
<g id="edge5" class="edge">
<title>Node0&#45;&gt;Node5</title>
<path fill="none" stroke="#191970" d="M490.5,-67.2967C490.5,-57.7699 490.5,-45.3954 490.5,-35.1306"/>
<polygon fill="#191970" stroke="#191970" points="494.0001,-35.0549 490.5,-25.055 487.0001,-35.055 494.0001,-35.0549"/>
</g>
<!-- Node6 -->
<g id="node7" class="node">
<title>Node6</title>
<polygon fill="none" stroke="#bfbfbf" points="529.5,-6 529.5,-25 565.5,-25 565.5,-6 529.5,-6"/>
<text text-anchor="middle" x="547.5" y="-13" font-family="Arial" font-size="10.00" fill="#000000">map</text>
</g>
<!-- Node0&#45;&gt;Node6 -->
<g id="edge6" class="edge">
<title>Node0&#45;&gt;Node6</title>
<path fill="none" stroke="#191970" d="M503.4342,-67.2967C512.1426,-57.0605 523.648,-43.5366 532.7186,-32.8746"/>
<polygon fill="#191970" stroke="#191970" points="535.5571,-34.9395 539.3711,-25.055 530.2255,-30.4036 535.5571,-34.9395"/>
</g>
<!-- Node7 -->
<g id="node8" class="node">
<title>Node7</title>
<polygon fill="none" stroke="#bfbfbf" points="584,-6 584,-25 671,-25 671,-6 584,-6"/>
<text text-anchor="middle" x="627.5" y="-13" font-family="Arial" font-size="10.00" fill="#000000">unordered_map</text>
</g>
<!-- Node0&#45;&gt;Node7 -->
<g id="edge7" class="edge">
<title>Node0&#45;&gt;Node7</title>
<path fill="none" stroke="#191970" d="M521.2455,-67.4639C544.4394,-56.1209 576.0316,-40.6707 598.7294,-29.5703"/>
<polygon fill="#191970" stroke="#191970" points="600.4165,-32.6414 607.8621,-25.1039 597.3412,-26.3531 600.4165,-32.6414"/>
</g>
<!-- Node8 -->
<g id="node9" class="node">
<title>Node8</title>
<polygon fill="none" stroke="#bfbfbf" points="689.5,-6 689.5,-25 733.5,-25 733.5,-6 689.5,-6"/>
<text text-anchor="middle" x="711.5" y="-13" font-family="Arial" font-size="10.00" fill="#000000">vector</text>
</g>
<!-- Node0&#45;&gt;Node8 -->
<g id="edge8" class="edge">
<title>Node0&#45;&gt;Node8</title>
<path fill="none" stroke="#191970" d="M545.8834,-70.5664C584.2856,-61.5502 636.2699,-47.8592 680.5,-31 681.8705,-30.4776 683.2611,-29.9142 684.6554,-29.3222"/>
<polygon fill="#191970" stroke="#191970" points="686.1235,-32.4995 693.7407,-25.1355 683.1938,-26.1421 686.1235,-32.4995"/>
</g>
<!-- Node9 -->
<g id="node10" class="node">
<title>Node9</title>
<polygon fill="none" stroke="#bfbfbf" points="751.5,-6 751.5,-25 781.5,-25 781.5,-6 751.5,-6"/>
<text text-anchor="middle" x="766.5" y="-13" font-family="Arial" font-size="10.00" fill="#000000">set</text>
</g>
<!-- Node0&#45;&gt;Node9 -->
<g id="edge9" class="edge">
<title>Node0&#45;&gt;Node9</title>
<path fill="none" stroke="#191970" d="M545.7906,-77.1762C598.0263,-70.7751 677.7979,-57.4083 742.5,-31 743.074,-30.7657 743.6492,-30.5173 744.2241,-30.2568"/>
<polygon fill="#191970" stroke="#191970" points="746.2001,-33.1646 753.2758,-25.2788 742.8268,-27.0309 746.2001,-33.1646"/>
</g>
</g>
</svg>
        <g id="navigator" transform="translate(0 0)" fill="#404254">
                <rect fill="#f2f5e9" fill-opacity="0.5" stroke="#606060" stroke-width=".5" x="0" y="0" width="60" height="60"/>
                <use id="zoomplus" xlink:href="#zoomPlus" x="17" y="9" onmousedown="handleZoom(evt,'in')"/>
                <use id="zoomminus" xlink:href="#zoomMin" x="42" y="9" onmousedown="handleZoom(evt,'out')"/>
                <use id="reset" xlink:href="#resetDef" x="30" y="36" onmousedown="handleReset()"/>
                <g id="arrowUp" xlink:href="#dirArrow" transform="translate(30 24)" onmousedown="handlePan(0,-1)">
                  <use xlink:href="#rim" fill="#404040">
                        <set attributeName="fill" to="#808080" begin="arrowUp.mouseover" end="arrowUp.mouseout"/>
                  </use>
                  <path fill="none" stroke="white" stroke-width="1.5" d="M0,-3.0v7 M-2.5,-0.5L0,-3.0L2.5,-0.5"/>
                </g>
                <g id="arrowRight" xlink:href="#dirArrow" transform="rotate(90) translate(36 -43)" onmousedown="handlePan(1,0)">
                  <use xlink:href="#rim" fill="#404040">
                        <set attributeName="fill" to="#808080" begin="arrowRight.mouseover" end="arrowRight.mouseout"/>
                  </use>
                  <path fill="none" stroke="white" stroke-width="1.5" d="M0,-3.0v7 M-2.5,-0.5L0,-3.0L2.5,-0.5"/>
                </g>
                <g id="arrowDown" xlink:href="#dirArrow" transform="rotate(180) translate(-30 -48)" onmousedown="handlePan(0,1)">
                  <use xlink:href="#rim" fill="#404040">
                        <set attributeName="fill" to="#808080" begin="arrowDown.mouseover" end="arrowDown.mouseout"/>
                  </use>
                  <path fill="none" stroke="white" stroke-width="1.5" d="M0,-3.0v7 M-2.5,-0.5L0,-3.0L2.5,-0.5"/>
                </g>
                <g id="arrowLeft" xlink:href="#dirArrow" transform="rotate(270) translate(-36 17)" onmousedown="handlePan(-1,0)">
                  <use xlink:href="#rim" fill="#404040">
                        <set attributeName="fill" to="#808080" begin="arrowLeft.mouseover" end="arrowLeft.mouseout"/>
                  </use>
                  <path fill="none" stroke="white" stroke-width="1.5" d="M0,-3.0v7 M-2.5,-0.5L0,-3.0L2.5,-0.5"/>
                </g>
        </g>
        <svg viewBox="0 0 15 15" width="100%" height="30px" preserveAspectRatio="xMaxYMin meet">
         <g id="arrow_out" transform="scale(0.3 0.3)">
          <a xlink:href="problem__definition_8h__incl_org.svg" target="_base">
           <rect id="button" ry="5" rx="5" y="6" x="6" height="38" width="38"
                fill="#f2f5e9" fill-opacity="0.5" stroke="#606060" stroke-width="1.0"/>
           <path id="arrow"
             d="M 11.500037,31.436501 C 11.940474,20.09759 22.043105,11.32322 32.158766,21.979434 L 37.068811,17.246167 C 37.068811,17.246167 37.088388,32 37.088388,32 L 22.160133,31.978069 C 22.160133,31.978069 26.997745,27.140456 26.997745,27.140456 C 18.528582,18.264221 13.291696,25.230495 11.500037,31.436501 z"
             style="fill:#404040;"/>
          </a>
         </g>
        </svg>
</svg>
