<?xml version="1.0" encoding="UTF-8" standalone="no"?>
<!DOCTYPE svg PUBLIC "-//W3C//DTD SVG 1.1//EN"
 "http://www.w3.org/Graphics/SVG/1.1/DTD/svg11.dtd">
<!-- Generated by graphviz version 2.40.1 (20161225.0304)
 -->
<!-- Title: src/common/problem_definition.cc Pages: 1 -->
<!--zoomable 162 -->
<svg id="main" version="1.1" xmlns="http://www.w3.org/2000/svg" xmlns:xlink="http://www.w3.org/1999/xlink" xml:space="preserve" onload="init(evt)">
<style type="text/css"><![CDATA[
.edge:hover path { stroke: red; }
.edge:hover polygon { stroke: red; fill: red; }
]]></style>
<script type="text/javascript"><![CDATA[
var edges = document.getElementsByTagName('g');
if (edges && edges.length) {
  for (var i=0;i<edges.length;i++) {
    if (edges[i].id.substr(0,4)=='edge') {
      edges[i].setAttribute('class','edge');
    }
  }
}
]]></script>
        <defs>
                <circle id="rim" cx="0" cy="0" r="7"/>
                <circle id="rim2" cx="0" cy="0" r="3.5"/>
                <g id="zoomPlus">
                        <use xlink:href="#rim" fill="#404040">
                                <set attributeName="fill" to="#808080" begin="zoomplus.mouseover" end="zoomplus.mouseout"/>
                        </use>
                        <path d="M-4,0h8M0,-4v8" fill="none" stroke="white" stroke-width="1.5" pointer-events="none"/>
                </g>
                <g id="zoomMin">
                        <use xlink:href="#rim" fill="#404040">
                                <set attributeName="fill" to="#808080" begin="zoomminus.mouseover" end="zoomminus.mouseout"/>
                        </use>
                        <path d="M-4,0h8" fill="none" stroke="white" stroke-width="1.5" pointer-events="none"/>
                </g>
                <g id="dirArrow">
                        <path fill="none" stroke="white" stroke-width="1.5" d="M0,-3.0v7 M-2.5,-0.5L0,-3.0L2.5,-0.5"/>
                </g>
               <g id="resetDef">
                       <use xlink:href="#rim2" fill="#404040">
                               <set attributeName="fill" to="#808080" begin="reset.mouseover" end="reset.mouseout"/>
                       </use>
               </g>
        </defs>

<script type="text/javascript">
var viewWidth = 790;
var viewHeight = 162;
var sectionId = 'dynsection-0';
</script>
<script xlink:href="svgpan.js"/>
<svg id="graph" class="graph">
<g id="viewport">
<title>src/common/problem_definition.cc</title>
<!-- Node0 -->
<g id="node1" class="node">
<title>Node0</title>
<polygon fill="#bfbfbf" stroke="#000000" points="273.5,-123.5 273.5,-153.5 383.5,-153.5 383.5,-123.5 273.5,-123.5"/>
<text text-anchor="start" x="281.5" y="-141.5" font-family="Arial" font-size="10.00" fill="#000000">src/common/problem</text>
<text text-anchor="middle" x="328.5" y="-130.5" font-family="Arial" font-size="10.00" fill="#000000">_definition.cc</text>
</g>
<!-- Node1 -->
<g id="node2" class="node">
<title>Node1</title>
<polygon fill="none" stroke="#bfbfbf" points="110.5,-67.5 110.5,-86.5 220.5,-86.5 220.5,-67.5 110.5,-67.5"/>
<text text-anchor="middle" x="165.5" y="-74.5" font-family="Arial" font-size="10.00" fill="#000000">deal.II/base/utilities.h</text>
</g>
<!-- Node0&#45;&gt;Node1 -->
<g id="edge1" class="edge">
<title>Node0&#45;&gt;Node1</title>
<path fill="none" stroke="#191970" d="M288.6257,-123.4554C261.548,-113.239 226.0906,-99.8609 200.1834,-90.0861"/>
<polygon fill="#191970" stroke="#191970" points="201.351,-86.7858 190.7592,-86.5303 198.8799,-93.3352 201.351,-86.7858"/>
</g>
<!-- Node2 -->
<g id="node3" class="node">
<title>Node2</title>
<polygon fill="none" stroke="#bfbfbf" points="238.5,-67.5 238.5,-86.5 290.5,-86.5 290.5,-67.5 238.5,-67.5"/>
<text text-anchor="middle" x="264.5" y="-74.5" font-family="Arial" font-size="10.00" fill="#000000">sstream</text>
</g>
<!-- Node0&#45;&gt;Node2 -->
<g id="edge2" class="edge">
<title>Node0&#45;&gt;Node2</title>
<path fill="none" stroke="#191970" d="M312.6798,-123.2977C303.4258,-114.4052 291.7219,-103.1586 282.167,-93.9769"/>
<polygon fill="#191970" stroke="#191970" points="284.3828,-91.2521 274.7472,-86.8469 279.5326,-96.2995 284.3828,-91.2521"/>
</g>
<!-- Node3 -->
<g id="node4" class="node">
<title>Node3</title>
<polygon fill="none" stroke="#bfbfbf" points="309,-67.5 309,-86.5 348,-86.5 348,-67.5 309,-67.5"/>
<text text-anchor="middle" x="328.5" y="-74.5" font-family="Arial" font-size="10.00" fill="#000000">utility</text>
</g>
<!-- Node0&#45;&gt;Node3 -->
<g id="edge3" class="edge">
<title>Node0&#45;&gt;Node3</title>
<path fill="none" stroke="#191970" d="M328.5,-123.2977C328.5,-115.3834 328.5,-105.6043 328.5,-97.0759"/>
<polygon fill="#191970" stroke="#191970" points="332.0001,-96.8469 328.5,-86.8469 325.0001,-96.847 332.0001,-96.8469"/>
</g>
<!-- Node4 -->
<g id="node5" class="node">
<title>Node4</title>
<polygon fill="none" stroke="#bfbfbf" points="366.5,-67.5 366.5,-86.5 418.5,-86.5 418.5,-67.5 366.5,-67.5"/>
<text text-anchor="middle" x="392.5" y="-74.5" font-family="Arial" font-size="10.00" fill="#000000">iomanip</text>
</g>
<!-- Node0&#45;&gt;Node4 -->
<g id="edge4" class="edge">
<title>Node0&#45;&gt;Node4</title>
<path fill="none" stroke="#191970" d="M344.3202,-123.2977C353.5742,-114.4052 365.2781,-103.1586 374.833,-93.9769"/>
<polygon fill="#191970" stroke="#191970" points="377.4674,-96.2995 382.2528,-86.8469 372.6172,-91.2521 377.4674,-96.2995"/>
</g>
<!-- Node5 -->
<g id="node6" class="node">
<title>Node5</title>
<g id="a_node6"><a xlink:href="problem__definition_8h.html" target="_top" xlink:title="problem_definition.h">
<polygon fill="none" stroke="#000000" points="437,-67.5 437,-86.5 544,-86.5 544,-67.5 437,-67.5"/>
<text text-anchor="middle" x="490.5" y="-74.5" font-family="Arial" font-size="10.00" fill="#000000">problem_definition.h</text>
</a>
</g>
</g>
<!-- Node0&#45;&gt;Node5 -->
<g id="edge5" class="edge">
<title>Node0&#45;&gt;Node5</title>
<path fill="none" stroke="#191970" d="M368.1297,-123.4554C395.0412,-113.239 430.2811,-99.8609 456.0294,-90.0861"/>
<polygon fill="#191970" stroke="#191970" points="457.289,-93.3517 465.3957,-86.5303 454.8045,-86.8074 457.289,-93.3517"/>
</g>
<!-- Node6 -->
<g id="node7" class="node">
<title>Node6</title>
<polygon fill="none" stroke="#bfbfbf" points="0,-.5 0,-30.5 117,-30.5 117,-.5 0,-.5"/>
<text text-anchor="start" x="8" y="-18.5" font-family="Arial" font-size="10.00" fill="#000000">deal.II/base/parameter</text>
<text text-anchor="middle" x="58.5" y="-7.5" font-family="Arial" font-size="10.00" fill="#000000">_handler.h</text>
</g>
<!-- Node5&#45;&gt;Node6 -->
<g id="edge6" class="edge">
<title>Node5&#45;&gt;Node6</title>
<path fill="none" stroke="#191970" d="M436.9048,-68.348C433.7245,-67.8796 430.5713,-67.4267 427.5,-67 296.8819,-48.8552 260.4208,-53.9958 127.4216,-31.2345"/>
<polygon fill="#191970" stroke="#191970" points="127.7031,-27.7312 117.2523,-29.4725 126.508,-34.6284 127.7031,-27.7312"/>
</g>
<!-- Node7 -->
<g id="node8" class="node">
<title>Node7</title>
<polygon fill="none" stroke="#bfbfbf" points="135,-6 135,-25 242,-25 242,-6 135,-6"/>
<text text-anchor="middle" x="188.5" y="-13" font-family="Arial" font-size="10.00" fill="#000000">deal.II/base/tensor.h</text>
</g>
<!-- Node5&#45;&gt;Node7 -->
<g id="edge7" class="edge">
<title>Node5&#45;&gt;Node7</title>
<path fill="none" stroke="#191970" d="M436.9448,-67.6161C388.1912,-58.8646 314.3,-45.0777 250.5,-31 245.4823,-29.8928 240.2509,-28.6789 235.0474,-27.4332"/>
<polygon fill="#191970" stroke="#191970" points="235.6832,-23.9858 225.1387,-25.0181 234.0254,-30.7867 235.6832,-23.9858"/>
</g>
<!-- Node8 -->
<g id="node9" class="node">
<title>Node8</title>
<polygon fill="none" stroke="#bfbfbf" points="260,-.5 260,-30.5 379,-30.5 379,-.5 260,-.5"/>
<text text-anchor="start" x="268" y="-18.5" font-family="Arial" font-size="10.00" fill="#000000">deal.II/base/quadrature</text>
<text text-anchor="middle" x="319.5" y="-7.5" font-family="Arial" font-size="10.00" fill="#000000">_lib.h</text>
</g>
<!-- Node5&#45;&gt;Node8 -->
<g id="edge8" class="edge">
<title>Node5&#45;&gt;Node8</title>
<path fill="none" stroke="#191970" d="M463.7813,-67.3906C439.0313,-58.4893 401.5447,-45.0073 370.985,-34.0165"/>
<polygon fill="#191970" stroke="#191970" points="371.9258,-30.6355 361.3313,-30.5446 369.5567,-37.2224 371.9258,-30.6355"/>
</g>
<!-- Node9 -->
<g id="node10" class="node">
<title>Node9</title>
<polygon fill="none" stroke="#bfbfbf" points="397,-6 397,-25 452,-25 452,-6 397,-6"/>
<text text-anchor="middle" x="424.5" y="-13" font-family="Arial" font-size="10.00" fill="#000000">iostream</text>
</g>
<!-- Node5&#45;&gt;Node9 -->
<g id="edge9" class="edge">
<title>Node5&#45;&gt;Node9</title>
<path fill="none" stroke="#191970" d="M480.1875,-67.3906C470.0758,-57.9683 454.4558,-43.4134 442.3293,-32.1137"/>
<polygon fill="#191970" stroke="#191970" points="444.6601,-29.5015 434.9579,-25.2449 439.888,-34.6228 444.6601,-29.5015"/>
</g>
<!-- Node10 -->
<g id="node11" class="node">
<title>Node10</title>
<polygon fill="none" stroke="#bfbfbf" points="470,-6 470,-25 511,-25 511,-6 470,-6"/>
<text text-anchor="middle" x="490.5" y="-13" font-family="Arial" font-size="10.00" fill="#000000">string</text>
</g>
<!-- Node5&#45;&gt;Node10 -->
<g id="edge10" class="edge">
<title>Node5&#45;&gt;Node10</title>
<path fill="none" stroke="#191970" d="M490.5,-67.3906C490.5,-58.8657 490.5,-46.1392 490.5,-35.4235"/>
<polygon fill="#191970" stroke="#191970" points="494.0001,-35.2448 490.5,-25.2449 487.0001,-35.2449 494.0001,-35.2448"/>
</g>
<!-- Node11 -->
<g id="node12" class="node">
<title>Node11</title>
<polygon fill="none" stroke="#bfbfbf" points="529.5,-6 529.5,-25 565.5,-25 565.5,-6 529.5,-6"/>
<text text-anchor="middle" x="547.5" y="-13" font-family="Arial" font-size="10.00" fill="#000000">map</text>
</g>
<!-- Node5&#45;&gt;Node11 -->
<g id="edge11" class="edge">
<title>Node5&#45;&gt;Node11</title>
<path fill="none" stroke="#191970" d="M499.4063,-67.3906C507.9728,-58.1478 521.1169,-43.966 531.5003,-32.7628"/>
<polygon fill="#191970" stroke="#191970" points="534.2375,-34.9584 538.4682,-25.2449 529.1035,-30.2 534.2375,-34.9584"/>
</g>
<!-- Node12 -->
<g id="node13" class="node">
<title>Node12</title>
<polygon fill="none" stroke="#bfbfbf" points="584,-6 584,-25 671,-25 671,-6 584,-6"/>
<text text-anchor="middle" x="627.5" y="-13" font-family="Arial" font-size="10.00" fill="#000000">unordered_map</text>
</g>
<!-- Node5&#45;&gt;Node12 -->
<g id="edge12" class="edge">
<title>Node5&#45;&gt;Node12</title>
<path fill="none" stroke="#191970" d="M511.9063,-67.3906C534.7283,-57.1457 571.0679,-40.8326 596.9057,-29.2339"/>
<polygon fill="#191970" stroke="#191970" points="598.5545,-32.3303 606.2441,-25.0419 595.6877,-25.9443 598.5545,-32.3303"/>
</g>
<!-- Node13 -->
<g id="node14" class="node">
<title>Node13</title>
<polygon fill="none" stroke="#bfbfbf" points="689.5,-6 689.5,-25 733.5,-25 733.5,-6 689.5,-6"/>
<text text-anchor="middle" x="711.5" y="-13" font-family="Arial" font-size="10.00" fill="#000000">vector</text>
</g>
<!-- Node5&#45;&gt;Node13 -->
<g id="edge13" class="edge">
<title>Node5&#45;&gt;Node13</title>
<path fill="none" stroke="#191970" d="M543.8689,-67.4419C582.483,-59.721 635.5569,-47.4356 680.5,-31 681.9128,-30.4833 683.3453,-29.9198 684.7802,-29.3234"/>
<polygon fill="#191970" stroke="#191970" points="686.4622,-32.4029 694.1005,-25.0607 683.5507,-26.037 686.4622,-32.4029"/>
</g>
<!-- Node14 -->
<g id="node15" class="node">
<title>Node14</title>
<polygon fill="none" stroke="#bfbfbf" points="751.5,-6 751.5,-25 781.5,-25 781.5,-6 751.5,-6"/>
<text text-anchor="middle" x="766.5" y="-13" font-family="Arial" font-size="10.00" fill="#000000">set</text>
</g>
<!-- Node5&#45;&gt;Node14 -->
<g id="edge14" class="edge">
<title>Node5&#45;&gt;Node14</title>
<path fill="none" stroke="#191970" d="M544.2916,-73.3101C596.4877,-68.3271 677.1673,-56.8674 742.5,-31 743.3474,-30.6645 744.1968,-30.2973 745.0436,-29.9047"/>
<polygon fill="#191970" stroke="#191970" points="746.7793,-32.9442 753.8024,-25.0115 743.3653,-26.8331 746.7793,-32.9442"/>
</g>
</g>
</svg>
        <g id="navigator" transform="translate(0 0)" fill="#404254">
                <rect fill="#f2f5e9" fill-opacity="0.5" stroke="#606060" stroke-width=".5" x="0" y="0" width="60" height="60"/>
                <use id="zoomplus" xlink:href="#zoomPlus" x="17" y="9" onmousedown="handleZoom(evt,'in')"/>
                <use id="zoomminus" xlink:href="#zoomMin" x="42" y="9" onmousedown="handleZoom(evt,'out')"/>
                <use id="reset" xlink:href="#resetDef" x="30" y="36" onmousedown="handleReset()"/>
                <g id="arrowUp" xlink:href="#dirArrow" transform="translate(30 24)" onmousedown="handlePan(0,-1)">
                  <use xlink:href="#rim" fill="#404040">
                        <set attributeName="fill" to="#808080" begin="arrowUp.mouseover" end="arrowUp.mouseout"/>
                  </use>
                  <path fill="none" stroke="white" stroke-width="1.5" d="M0,-3.0v7 M-2.5,-0.5L0,-3.0L2.5,-0.5"/>
                </g>
                <g id="arrowRight" xlink:href="#dirArrow" transform="rotate(90) translate(36 -43)" onmousedown="handlePan(1,0)">
                  <use xlink:href="#rim" fill="#404040">
                        <set attributeName="fill" to="#808080" begin="arrowRight.mouseover" end="arrowRight.mouseout"/>
                  </use>
                  <path fill="none" stroke="white" stroke-width="1.5" d="M0,-3.0v7 M-2.5,-0.5L0,-3.0L2.5,-0.5"/>
                </g>
                <g id="arrowDown" xlink:href="#dirArrow" transform="rotate(180) translate(-30 -48)" onmousedown="handlePan(0,1)">
                  <use xlink:href="#rim" fill="#404040">
                        <set attributeName="fill" to="#808080" begin="arrowDown.mouseover" end="arrowDown.mouseout"/>
                  </use>
                  <path fill="none" stroke="white" stroke-width="1.5" d="M0,-3.0v7 M-2.5,-0.5L0,-3.0L2.5,-0.5"/>
                </g>
                <g id="arrowLeft" xlink:href="#dirArrow" transform="rotate(270) translate(-36 17)" onmousedown="handlePan(-1,0)">
                  <use xlink:href="#rim" fill="#404040">
                        <set attributeName="fill" to="#808080" begin="arrowLeft.mouseover" end="arrowLeft.mouseout"/>
                  </use>
                  <path fill="none" stroke="white" stroke-width="1.5" d="M0,-3.0v7 M-2.5,-0.5L0,-3.0L2.5,-0.5"/>
                </g>
        </g>
        <svg viewBox="0 0 15 15" width="100%" height="30px" preserveAspectRatio="xMaxYMin meet">
         <g id="arrow_out" transform="scale(0.3 0.3)">
          <a xlink:href="problem__definition_8cc__incl_org.svg" target="_base">
           <rect id="button" ry="5" rx="5" y="6" x="6" height="38" width="38"
                fill="#f2f5e9" fill-opacity="0.5" stroke="#606060" stroke-width="1.0"/>
           <path id="arrow"
             d="M 11.500037,31.436501 C 11.940474,20.09759 22.043105,11.32322 32.158766,21.979434 L 37.068811,17.246167 C 37.068811,17.246167 37.088388,32 37.088388,32 L 22.160133,31.978069 C 22.160133,31.978069 26.997745,27.140456 26.997745,27.140456 C 18.528582,18.264221 13.291696,25.230495 11.500037,31.436501 z"
             style="fill:#404040;"/>
          </a>
         </g>
        </svg>
</svg>
