<?xml version="1.0" encoding="UTF-8" standalone="no"?>
<!DOCTYPE svg PUBLIC "-//W3C//DTD SVG 1.1//EN"
 "http://www.w3.org/Graphics/SVG/1.1/DTD/svg11.dtd">
<!-- Generated by graphviz version 2.40.1 (20161225.0304)
 -->
<!-- Title: src/common/problem_definition.h Pages: 1 -->
<svg width="1040pt" height="553pt"
 viewBox="0.00 0.00 1040.00 553.00" xmlns="http://www.w3.org/2000/svg" xmlns:xlink="http://www.w3.org/1999/xlink">
<g id="graph0" class="graph" transform="scale(1 1) rotate(0) translate(4 549)">
<title>src/common/problem_definition.h</title>
<!-- Node10 -->
<g id="node1" class="node">
<title>Node10</title>
<polygon fill="#bfbfbf" stroke="#000000" points="839,-514.5 839,-544.5 949,-544.5 949,-514.5 839,-514.5"/>
<text text-anchor="start" x="847" y="-532.5" font-family="Arial" font-size="10.00" fill="#000000">src/common/problem</text>
<text text-anchor="middle" x="894" y="-521.5" font-family="Arial" font-size="10.00" fill="#000000">_definition.h</text>
</g>
<!-- Node11 -->
<g id="node2" class="node">
<title>Node11</title>
<g id="a_node2"><a xlink:href="equation__base_8h.html" target="_top" xlink:title="src/equation/equation\l_base.h">
<polygon fill="none" stroke="#000000" points="651,-447.5 651,-477.5 763,-477.5 763,-447.5 651,-447.5"/>
<text text-anchor="start" x="659" y="-465.5" font-family="Arial" font-size="10.00" fill="#000000">src/equation/equation</text>
<text text-anchor="middle" x="707" y="-454.5" font-family="Arial" font-size="10.00" fill="#000000">_base.h</text>
</a>
</g>
</g>
<!-- Node10&#45;&gt;Node11 -->
<g id="edge1" class="edge">
<title>Node10&#45;&gt;Node11</title>
<path fill="none" stroke="#191970" d="M842.372,-511.0023C813.0326,-500.4903 776.7607,-487.4945 749.1495,-477.6017"/>
<polygon fill="#191970" stroke="#191970" points="841.439,-514.3858 852.0335,-514.4639 843.8001,-507.796 841.439,-514.3858"/>
</g>
<!-- Node17 -->
<g id="node8" class="node">
<title>Node17</title>
<g id="a_node8"><a xlink:href="main_8cc.html" target="_top" xlink:title="src/common/main.cc">
<polygon fill="none" stroke="#000000" points="592,-.5 592,-19.5 700,-19.5 700,-.5 592,-.5"/>
<text text-anchor="middle" x="646" y="-7.5" font-family="Arial" font-size="10.00" fill="#000000">src/common/main.cc</text>
</a>
</g>
</g>
<!-- Node10&#45;&gt;Node17 -->
<g id="edge34" class="edge">
<title>Node10&#45;&gt;Node17</title>
<path fill="none" stroke="#191970" d="M894,-504.1092C894,-477.1594 894,-433.3265 894,-395.5 894,-395.5 894,-395.5 894,-138.5 894,-51.8206 773.0895,-23.5384 700.1182,-14.3626"/>
<polygon fill="#191970" stroke="#191970" points="890.5001,-504.227 894,-514.2271 897.5001,-504.2271 890.5001,-504.227"/>
</g>
<!-- Node32 -->
<g id="node23" class="node">
<title>Node32</title>
<g id="a_node23"><a xlink:href="problem__definition_8cc.html" target="_top" xlink:title="src/common/problem\l_definition.cc">
<polygon fill="none" stroke="#000000" points="922,-447.5 922,-477.5 1032,-477.5 1032,-447.5 922,-447.5"/>
<text text-anchor="start" x="930" y="-465.5" font-family="Arial" font-size="10.00" fill="#000000">src/common/problem</text>
<text text-anchor="middle" x="977" y="-454.5" font-family="Arial" font-size="10.00" fill="#000000">_definition.cc</text>
</a>
</g>
</g>
<!-- Node10&#45;&gt;Node32 -->
<g id="edge35" class="edge">
<title>Node10&#45;&gt;Node32</title>
<path fill="none" stroke="#191970" d="M920.9058,-507.7808C933.0988,-497.9383 947.2179,-486.541 958.2405,-477.6432"/>
<polygon fill="#191970" stroke="#191970" points="918.4168,-505.292 912.834,-514.2967 922.8136,-510.7389 918.4168,-505.292"/>
</g>
<!-- Node12 -->
<g id="node3" class="node">
<title>Node12</title>
<g id="a_node3"><a xlink:href="equation__base_8cc.html" target="_top" xlink:title="src/equation/equation\l_base.cc">
<polygon fill="none" stroke="#000000" points="754,-380.5 754,-410.5 866,-410.5 866,-380.5 754,-380.5"/>
<text text-anchor="start" x="762" y="-398.5" font-family="Arial" font-size="10.00" fill="#000000">src/equation/equation</text>
<text text-anchor="middle" x="810" y="-387.5" font-family="Arial" font-size="10.00" fill="#000000">_base.cc</text>
</a>
</g>
</g>
<!-- Node11&#45;&gt;Node12 -->
<g id="edge2" class="edge">
<title>Node11&#45;&gt;Node12</title>
<path fill="none" stroke="#191970" d="M738.8299,-441.7951C754.2634,-431.7558 772.4705,-419.9124 786.6056,-410.7177"/>
<polygon fill="#191970" stroke="#191970" points="736.5893,-439.0772 730.1152,-447.4639 740.4063,-444.945 736.5893,-439.0772"/>
</g>
<!-- Node13 -->
<g id="node4" class="node">
<title>Node13</title>
<g id="a_node4"><a xlink:href="even__parity_8h.html" target="_top" xlink:title="src/equation/even_parity.h">
<polygon fill="none" stroke="#000000" points="90,-386 90,-405 224,-405 224,-386 90,-386"/>
<text text-anchor="middle" x="157" y="-393" font-family="Arial" font-size="10.00" fill="#000000">src/equation/even_parity.h</text>
</a>
</g>
</g>
<!-- Node11&#45;&gt;Node13 -->
<g id="edge3" class="edge">
<title>Node11&#45;&gt;Node13</title>
<path fill="none" stroke="#191970" d="M640.7879,-454.4342C535.3688,-441.5922 330.4725,-416.6321 224.3454,-403.7039"/>
<polygon fill="#191970" stroke="#191970" points="640.631,-457.9408 650.9809,-455.6759 641.4776,-450.9922 640.631,-457.9408"/>
</g>
<!-- Node16 -->
<g id="node7" class="node">
<title>Node16</title>
<g id="a_node7"><a xlink:href="bart__driver_8h.html" target="_top" xlink:title="src/common/bart_driver.h">
<polygon fill="none" stroke="#000000" points="333,-62 333,-81 463,-81 463,-62 333,-62"/>
<text text-anchor="middle" x="398" y="-69" font-family="Arial" font-size="10.00" fill="#000000">src/common/bart_driver.h</text>
</a>
</g>
</g>
<!-- Node11&#45;&gt;Node16 -->
<g id="edge6" class="edge">
<title>Node11&#45;&gt;Node16</title>
<path fill="none" stroke="#191970" d="M701.2579,-437.2603C695.6648,-410.4355 688,-366.7049 688,-328.5 688,-328.5 688,-328.5 688,-205.5 688,-167.8735 696.1139,-149.0881 669,-123 654.2684,-108.8258 538.6264,-90.6485 463.2407,-80.114"/>
<polygon fill="#191970" stroke="#191970" points="697.8988,-438.2877 703.4262,-447.3264 704.7419,-436.8136 697.8988,-438.2877"/>
</g>
<!-- Node18 -->
<g id="node9" class="node">
<title>Node18</title>
<g id="a_node9"><a xlink:href="iteration__base_8h.html" target="_top" xlink:title="src/iteration/iteration\l_base.h">
<polygon fill="none" stroke="#000000" points="470.5,-380.5 470.5,-410.5 577.5,-410.5 577.5,-380.5 470.5,-380.5"/>
<text text-anchor="start" x="478.5" y="-398.5" font-family="Arial" font-size="10.00" fill="#000000">src/iteration/iteration</text>
<text text-anchor="middle" x="524" y="-387.5" font-family="Arial" font-size="10.00" fill="#000000">_base.h</text>
</a>
</g>
</g>
<!-- Node11&#45;&gt;Node18 -->
<g id="edge9" class="edge">
<title>Node11&#45;&gt;Node18</title>
<path fill="none" stroke="#191970" d="M656.4763,-444.0023C627.7645,-433.4903 592.2685,-420.4945 565.2479,-410.6017"/>
<polygon fill="#191970" stroke="#191970" points="655.3375,-447.3125 665.9312,-447.4639 657.7441,-440.7392 655.3375,-447.3125"/>
</g>
<!-- Node21 -->
<g id="node12" class="node">
<title>Node21</title>
<g id="a_node12"><a xlink:href="iterations_8h.html" target="_top" xlink:title="src/iteration/iterations.h">
<polygon fill="none" stroke="#000000" points="540,-129 540,-148 660,-148 660,-129 540,-129"/>
<text text-anchor="middle" x="600" y="-136" font-family="Arial" font-size="10.00" fill="#000000">src/iteration/iterations.h</text>
</a>
</g>
</g>
<!-- Node11&#45;&gt;Node21 -->
<g id="edge33" class="edge">
<title>Node11&#45;&gt;Node21</title>
<path fill="none" stroke="#191970" d="M707.6635,-436.9267C707.5505,-420.4678 706.3871,-398.73 702,-380 679.7875,-285.1681 623.4348,-180.1251 605.5419,-148.2105"/>
<polygon fill="#191970" stroke="#191970" points="704.161,-437.3552 707.6006,-447.3761 711.1608,-437.3974 704.161,-437.3552"/>
</g>
<!-- Node14 -->
<g id="node5" class="node">
<title>Node14</title>
<g id="a_node5"><a xlink:href="even__parity_8cc.html" target="_top" xlink:title="src/equation/even_parity.cc">
<polygon fill="none" stroke="#000000" points="88,-319 88,-338 226,-338 226,-319 88,-319"/>
<text text-anchor="middle" x="157" y="-326" font-family="Arial" font-size="10.00" fill="#000000">src/equation/even_parity.cc</text>
</a>
</g>
</g>
<!-- Node13&#45;&gt;Node14 -->
<g id="edge4" class="edge">
<title>Node13&#45;&gt;Node14</title>
<path fill="none" stroke="#191970" d="M157,-375.6079C157,-363.214 157,-347.8263 157,-338.0817"/>
<polygon fill="#191970" stroke="#191970" points="153.5001,-375.9005 157,-385.9005 160.5001,-375.9006 153.5001,-375.9005"/>
</g>
<!-- Node15 -->
<g id="node6" class="node">
<title>Node15</title>
<g id="a_node6"><a xlink:href="bart__driver_8cc.html" target="_top" xlink:title="src/common/bart_driver.cc">
<polygon fill="none" stroke="#000000" points="0,-.5 0,-19.5 134,-19.5 134,-.5 0,-.5"/>
<text text-anchor="middle" x="67" y="-7.5" font-family="Arial" font-size="10.00" fill="#000000">src/common/bart_driver.cc</text>
</a>
</g>
</g>
<!-- Node13&#45;&gt;Node15 -->
<g id="edge5" class="edge">
<title>Node13&#45;&gt;Node15</title>
<path fill="none" stroke="#191970" d="M116.825,-382.4275C70.3085,-364.4677 0,-327.3415 0,-267 0,-267 0,-267 0,-138.5 0,-89.1876 39.2742,-40.0605 57.6839,-19.7409"/>
<polygon fill="#191970" stroke="#191970" points="115.7632,-385.7668 126.3561,-385.9705 118.2023,-379.2054 115.7632,-385.7668"/>
</g>
<!-- Node16&#45;&gt;Node15 -->
<g id="edge7" class="edge">
<title>Node16&#45;&gt;Node15</title>
<path fill="none" stroke="#191970" d="M336.4678,-60.0673C273.5865,-48.3839 177.0523,-30.4478 118.2037,-19.5137"/>
<polygon fill="#191970" stroke="#191970" points="336.1733,-63.5724 346.6444,-61.9581 337.4521,-56.6902 336.1733,-63.5724"/>
</g>
<!-- Node16&#45;&gt;Node17 -->
<g id="edge8" class="edge">
<title>Node16&#45;&gt;Node17</title>
<path fill="none" stroke="#191970" d="M446.4393,-59.4878C493.5056,-47.8162 564.0451,-30.3235 607.4318,-19.5643"/>
<polygon fill="#191970" stroke="#191970" points="445.3415,-56.154 436.4779,-61.9581 447.0264,-62.9482 445.3415,-56.154"/>
</g>
<!-- Node19 -->
<g id="node10" class="node">
<title>Node19</title>
<g id="a_node10"><a xlink:href="mg__base_8h.html" target="_top" xlink:title="src/iteration/mg_base.h">
<polygon fill="none" stroke="#000000" points="212,-257.5 212,-276.5 332,-276.5 332,-257.5 212,-257.5"/>
<text text-anchor="middle" x="272" y="-264.5" font-family="Arial" font-size="10.00" fill="#000000">src/iteration/mg_base.h</text>
</a>
</g>
</g>
<!-- Node18&#45;&gt;Node19 -->
<g id="edge10" class="edge">
<title>Node18&#45;&gt;Node19</title>
<path fill="none" stroke="#191970" d="M460.5942,-378.8663C432.8471,-370.338 400.4355,-358.6349 373,-344 336.6201,-324.5939 299.4969,-292.4529 282.1281,-276.5367"/>
<polygon fill="#191970" stroke="#191970" points="459.6143,-382.2263 470.1984,-381.75 461.6274,-375.522 459.6143,-382.2263"/>
</g>
<!-- Node20 -->
<g id="node11" class="node">
<title>Node20</title>
<g id="a_node11"><a xlink:href="eigen__base_8h.html" target="_top" xlink:title="src/iteration/eigen\l_base.h">
<polygon fill="none" stroke="#000000" points="388.5,-190.5 388.5,-220.5 483.5,-220.5 483.5,-190.5 388.5,-190.5"/>
<text text-anchor="start" x="396.5" y="-208.5" font-family="Arial" font-size="10.00" fill="#000000">src/iteration/eigen</text>
<text text-anchor="middle" x="436" y="-197.5" font-family="Arial" font-size="10.00" fill="#000000">_base.h</text>
</a>
</g>
</g>
<!-- Node18&#45;&gt;Node20 -->
<g id="edge31" class="edge">
<title>Node18&#45;&gt;Node20</title>
<path fill="none" stroke="#191970" d="M529.2769,-370.2155C533.9987,-340.8653 537.3994,-292.0179 517,-257 507.5215,-240.729 490.6287,-228.788 474.7139,-220.5247"/>
<polygon fill="#191970" stroke="#191970" points="525.8269,-369.6261 527.5192,-380.0849 532.7185,-370.8535 525.8269,-369.6261"/>
</g>
<!-- Node29 -->
<g id="node20" class="node">
<title>Node29</title>
<g id="a_node20"><a xlink:href="ig__base_8h.html" target="_top" xlink:title="src/iteration/ig_base.h">
<polygon fill="none" stroke="#000000" points="382,-319 382,-338 496,-338 496,-319 382,-319"/>
<text text-anchor="middle" x="439" y="-326" font-family="Arial" font-size="10.00" fill="#000000">src/iteration/ig_base.h</text>
</a>
</g>
</g>
<!-- Node18&#45;&gt;Node29 -->
<g id="edge26" class="edge">
<title>Node18&#45;&gt;Node29</title>
<path fill="none" stroke="#191970" d="M496.5675,-373.8767C481.242,-361.7967 462.9139,-347.3498 451.122,-338.055"/>
<polygon fill="#191970" stroke="#191970" points="494.6919,-376.8549 504.7122,-380.2967 499.0253,-371.3574 494.6919,-376.8549"/>
</g>
<!-- Node31 -->
<g id="node22" class="node">
<title>Node31</title>
<g id="a_node22"><a xlink:href="iteration__base_8cc.html" target="_top" xlink:title="src/iteration/iteration\l_base.cc">
<polygon fill="none" stroke="#000000" points="552.5,-313.5 552.5,-343.5 659.5,-343.5 659.5,-313.5 552.5,-313.5"/>
<text text-anchor="start" x="560.5" y="-331.5" font-family="Arial" font-size="10.00" fill="#000000">src/iteration/iteration</text>
<text text-anchor="middle" x="606" y="-320.5" font-family="Arial" font-size="10.00" fill="#000000">_base.cc</text>
</a>
</g>
</g>
<!-- Node18&#45;&gt;Node31 -->
<g id="edge32" class="edge">
<title>Node18&#45;&gt;Node31</title>
<path fill="none" stroke="#191970" d="M550.5817,-373.7808C562.6278,-363.9383 576.5767,-352.541 587.4666,-343.6432"/>
<polygon fill="#191970" stroke="#191970" points="548.1363,-371.2591 542.6071,-380.2967 552.5654,-376.6797 548.1363,-371.2591"/>
</g>
<!-- Node19&#45;&gt;Node16 -->
<g id="edge11" class="edge">
<title>Node19&#45;&gt;Node16</title>
<path fill="none" stroke="#191970" d="M234.4666,-253.028C220.4229,-245.7521 205.9578,-235.3168 198,-221 191.3063,-208.9575 190.2541,-201.3942 198,-190 222.4524,-154.0301 251.0896,-175.3202 289,-154 327.8897,-132.1291 368.4446,-97.8883 387.2454,-81.241"/>
<polygon fill="#191970" stroke="#191970" points="233.0288,-256.2199 243.5619,-257.3621 236.0401,-249.9007 233.0288,-256.2199"/>
</g>
<!-- Node19&#45;&gt;Node20 -->
<g id="edge12" class="edge">
<title>Node19&#45;&gt;Node20</title>
<path fill="none" stroke="#191970" d="M307.1051,-253.8356C333.1527,-244.0678 368.71,-230.7338 395.8811,-220.5446"/>
<polygon fill="#191970" stroke="#191970" points="305.7593,-250.6022 297.625,-257.3906 308.2173,-257.1565 305.7593,-250.6022"/>
</g>
<!-- Node19&#45;&gt;Node21 -->
<g id="edge21" class="edge">
<title>Node19&#45;&gt;Node21</title>
<path fill="none" stroke="#191970" d="M342.6356,-260.5098C387.3268,-254.4453 445.4326,-242.8741 493,-221 503.6025,-216.1244 562.3776,-168.9771 588.0253,-148.2235"/>
<polygon fill="#191970" stroke="#191970" points="341.9152,-257.0737 332.4474,-261.829 342.8141,-264.0158 341.9152,-257.0737"/>
</g>
<!-- Node26 -->
<g id="node17" class="node">
<title>Node26</title>
<g id="a_node17"><a xlink:href="gauss__seidel_8h.html" target="_top" xlink:title="src/iteration/gauss\l_seidel.h">
<polygon fill="none" stroke="#000000" points="52,-190.5 52,-220.5 150,-220.5 150,-190.5 52,-190.5"/>
<text text-anchor="start" x="60" y="-208.5" font-family="Arial" font-size="10.00" fill="#000000">src/iteration/gauss</text>
<text text-anchor="middle" x="101" y="-197.5" font-family="Arial" font-size="10.00" fill="#000000">_seidel.h</text>
</a>
</g>
</g>
<!-- Node19&#45;&gt;Node26 -->
<g id="edge22" class="edge">
<title>Node19&#45;&gt;Node26</title>
<path fill="none" stroke="#191970" d="M235.7549,-253.9645C208.564,-244.1853 171.287,-230.7786 142.8313,-220.5446"/>
<polygon fill="#191970" stroke="#191970" points="234.6868,-257.2998 245.2813,-257.3906 237.0558,-250.7128 234.6868,-257.2998"/>
</g>
<!-- Node28 -->
<g id="node19" class="node">
<title>Node28</title>
<g id="a_node19"><a xlink:href="mg__base_8cc.html" target="_top" xlink:title="src/iteration/mg_base.cc">
<polygon fill="none" stroke="#000000" points="206.5,-196 206.5,-215 331.5,-215 331.5,-196 206.5,-196"/>
<text text-anchor="middle" x="269" y="-203" font-family="Arial" font-size="10.00" fill="#000000">src/iteration/mg_base.cc</text>
</a>
</g>
</g>
<!-- Node19&#45;&gt;Node28 -->
<g id="edge25" class="edge">
<title>Node19&#45;&gt;Node28</title>
<path fill="none" stroke="#191970" d="M271.0364,-247.2462C270.5147,-236.5519 269.8934,-223.814 269.4754,-215.2449"/>
<polygon fill="#191970" stroke="#191970" points="267.5481,-247.5731 271.5313,-257.3906 274.5398,-247.2319 267.5481,-247.5731"/>
</g>
<!-- Node20&#45;&gt;Node16 -->
<g id="edge13" class="edge">
<title>Node20&#45;&gt;Node16</title>
<path fill="none" stroke="#191970" d="M426.7756,-180.6939C423.7945,-172.2778 420.5926,-162.7829 418,-154 410.3227,-127.992 403.3495,-96.7508 400.0343,-81.235"/>
<polygon fill="#191970" stroke="#191970" points="423.5577,-182.088 430.2465,-190.3044 430.1415,-179.7101 423.5577,-182.088"/>
</g>
<!-- Node20&#45;&gt;Node21 -->
<g id="edge14" class="edge">
<title>Node20&#45;&gt;Node21</title>
<path fill="none" stroke="#191970" d="M482.448,-186.5243C513.1289,-173.99 552.0444,-158.0916 576.4919,-148.1039"/>
<polygon fill="#191970" stroke="#191970" points="480.7384,-183.4419 472.8048,-190.4639 483.3858,-189.9219 480.7384,-183.4419"/>
</g>
<!-- Node23 -->
<g id="node14" class="node">
<title>Node23</title>
<g id="a_node14"><a xlink:href="power__iteration_8h.html" target="_top" xlink:title="src/iteration/power\l_iteration.h">
<polygon fill="none" stroke="#000000" points="182,-123.5 182,-153.5 280,-153.5 280,-123.5 182,-123.5"/>
<text text-anchor="start" x="190" y="-141.5" font-family="Arial" font-size="10.00" fill="#000000">src/iteration/power</text>
<text text-anchor="middle" x="231" y="-130.5" font-family="Arial" font-size="10.00" fill="#000000">_iteration.h</text>
</a>
</g>
</g>
<!-- Node20&#45;&gt;Node23 -->
<g id="edge17" class="edge">
<title>Node20&#45;&gt;Node23</title>
<path fill="none" stroke="#191970" d="M380.2397,-187.2759C347.9311,-176.7165 307.7388,-163.5805 277.2067,-153.6017"/>
<polygon fill="#191970" stroke="#191970" points="379.4014,-190.6841 389.994,-190.4639 381.5761,-184.0304 379.4014,-190.6841"/>
</g>
<!-- Node25 -->
<g id="node16" class="node">
<title>Node25</title>
<g id="a_node16"><a xlink:href="eigen__base_8cc.html" target="_top" xlink:title="src/iteration/eigen\l_base.cc">
<polygon fill="none" stroke="#000000" points="426.5,-123.5 426.5,-153.5 521.5,-153.5 521.5,-123.5 426.5,-123.5"/>
<text text-anchor="start" x="434.5" y="-141.5" font-family="Arial" font-size="10.00" fill="#000000">src/iteration/eigen</text>
<text text-anchor="middle" x="474" y="-130.5" font-family="Arial" font-size="10.00" fill="#000000">_base.cc</text>
</a>
</g>
</g>
<!-- Node20&#45;&gt;Node25 -->
<g id="edge20" class="edge">
<title>Node20&#45;&gt;Node25</title>
<path fill="none" stroke="#191970" d="M449.6212,-181.4837C454.8868,-172.1996 460.753,-161.8565 465.4113,-153.6432"/>
<polygon fill="#191970" stroke="#191970" points="446.5118,-179.8716 444.6228,-190.2967 452.6007,-183.325 446.5118,-179.8716"/>
</g>
<!-- Node21&#45;&gt;Node16 -->
<g id="edge15" class="edge">
<title>Node21&#45;&gt;Node16</title>
<path fill="none" stroke="#191970" d="M561.555,-125.7484C522.3045,-112.7297 462.2632,-92.815 426.888,-81.0817"/>
<polygon fill="#191970" stroke="#191970" points="560.4649,-129.0743 571.0583,-128.9005 562.6687,-122.4303 560.4649,-129.0743"/>
</g>
<!-- Node22 -->
<g id="node13" class="node">
<title>Node22</title>
<g id="a_node13"><a xlink:href="iterations_8cc.html" target="_top" xlink:title="src/iteration/iterations.cc">
<polygon fill="none" stroke="#000000" points="538,-62 538,-81 662,-81 662,-62 538,-62"/>
<text text-anchor="middle" x="600" y="-69" font-family="Arial" font-size="10.00" fill="#000000">src/iteration/iterations.cc</text>
</a>
</g>
</g>
<!-- Node21&#45;&gt;Node22 -->
<g id="edge16" class="edge">
<title>Node21&#45;&gt;Node22</title>
<path fill="none" stroke="#191970" d="M600,-118.6079C600,-106.214 600,-90.8263 600,-81.0817"/>
<polygon fill="#191970" stroke="#191970" points="596.5001,-118.9005 600,-128.9005 603.5001,-118.9006 596.5001,-118.9005"/>
</g>
<!-- Node23&#45;&gt;Node15 -->
<g id="edge18" class="edge">
<title>Node23&#45;&gt;Node15</title>
<path fill="none" stroke="#191970" d="M203.3925,-116.8685C167.3226,-88.6064 105.676,-40.3041 79.4254,-19.7358"/>
<polygon fill="#191970" stroke="#191970" points="201.5128,-119.8421 211.543,-123.2548 205.8302,-114.3321 201.5128,-119.8421"/>
</g>
<!-- Node24 -->
<g id="node15" class="node">
<title>Node24</title>
<g id="a_node15"><a xlink:href="power__iteration_8cc.html" target="_top" xlink:title="src/iteration/power\l_iteration.cc">
<polygon fill="none" stroke="#000000" points="182,-56.5 182,-86.5 280,-86.5 280,-56.5 182,-56.5"/>
<text text-anchor="start" x="190" y="-74.5" font-family="Arial" font-size="10.00" fill="#000000">src/iteration/power</text>
<text text-anchor="middle" x="231" y="-63.5" font-family="Arial" font-size="10.00" fill="#000000">_iteration.cc</text>
</a>
</g>
</g>
<!-- Node23&#45;&gt;Node24 -->
<g id="edge19" class="edge">
<title>Node23&#45;&gt;Node24</title>
<path fill="none" stroke="#191970" d="M231,-113.0249C231,-104.128 231,-94.4287 231,-86.6432"/>
<polygon fill="#191970" stroke="#191970" points="227.5001,-113.2966 231,-123.2967 234.5001,-113.2967 227.5001,-113.2966"/>
</g>
<!-- Node26&#45;&gt;Node15 -->
<g id="edge23" class="edge">
<title>Node26&#45;&gt;Node15</title>
<path fill="none" stroke="#191970" d="M75.7342,-182.9631C68.2226,-174.6873 60.9491,-164.7017 57,-154 39.3883,-106.2736 55.9956,-43.6912 63.627,-19.8238"/>
<polygon fill="#191970" stroke="#191970" points="73.4278,-185.6117 82.9083,-190.3413 78.4464,-180.7318 73.4278,-185.6117"/>
</g>
<!-- Node27 -->
<g id="node18" class="node">
<title>Node27</title>
<g id="a_node18"><a xlink:href="gauss__seidel_8cc.html" target="_top" xlink:title="src/iteration/gauss\l_seidel.cc">
<polygon fill="none" stroke="#000000" points="66,-123.5 66,-153.5 164,-153.5 164,-123.5 66,-123.5"/>
<text text-anchor="start" x="74" y="-141.5" font-family="Arial" font-size="10.00" fill="#000000">src/iteration/gauss</text>
<text text-anchor="middle" x="115" y="-130.5" font-family="Arial" font-size="10.00" fill="#000000">_seidel.cc</text>
</a>
</g>
</g>
<!-- Node26&#45;&gt;Node27 -->
<g id="edge24" class="edge">
<title>Node26&#45;&gt;Node27</title>
<path fill="none" stroke="#191970" d="M106.2619,-180.3179C108.1376,-171.3414 110.191,-161.5143 111.8358,-153.6432"/>
<polygon fill="#191970" stroke="#191970" points="102.7963,-179.7922 104.1768,-190.2967 109.6483,-181.224 102.7963,-179.7922"/>
</g>
<!-- Node29&#45;&gt;Node16 -->
<g id="edge28" class="edge">
<title>Node29&#45;&gt;Node16</title>
<path fill="none" stroke="#191970" d="M413.0303,-313.326C400.5565,-304.4798 386.8563,-292.0856 380,-277 348.4368,-207.553 381.8577,-111.4074 393.9756,-81.0679"/>
<polygon fill="#191970" stroke="#191970" points="411.106,-316.2496 421.3709,-318.8731 414.9824,-310.4209 411.106,-316.2496"/>
</g>
<!-- Node29&#45;&gt;Node19 -->
<g id="edge27" class="edge">
<title>Node29&#45;&gt;Node19</title>
<path fill="none" stroke="#191970" d="M403.1543,-315.2993C371.5125,-303.6468 326.1465,-286.9402 297.9105,-276.5419"/>
<polygon fill="#191970" stroke="#191970" points="402.3128,-318.7192 412.9063,-318.8906 404.7319,-312.1504 402.3128,-318.7192"/>
</g>
<!-- Node29&#45;&gt;Node21 -->
<g id="edge29" class="edge">
<title>Node29&#45;&gt;Node21</title>
<path fill="none" stroke="#191970" d="M467.2657,-313.9814C483.168,-304.8587 502.6484,-291.9923 517,-277 556.5441,-235.6904 585.7706,-172.2691 596.0123,-148.2087"/>
<polygon fill="#191970" stroke="#191970" points="465.4298,-310.9973 458.3819,-318.9078 468.8246,-317.119 465.4298,-310.9973"/>
</g>
<!-- Node30 -->
<g id="node21" class="node">
<title>Node30</title>
<g id="a_node21"><a xlink:href="ig__base_8cc.html" target="_top" xlink:title="src/iteration/ig_base.cc">
<polygon fill="none" stroke="#000000" points="388.5,-257.5 388.5,-276.5 507.5,-276.5 507.5,-257.5 388.5,-257.5"/>
<text text-anchor="middle" x="448" y="-264.5" font-family="Arial" font-size="10.00" fill="#000000">src/iteration/ig_base.cc</text>
</a>
</g>
</g>
<!-- Node29&#45;&gt;Node30 -->
<g id="edge30" class="edge">
<title>Node29&#45;&gt;Node30</title>
<path fill="none" stroke="#191970" d="M441.8908,-308.7462C443.4558,-298.0519 445.3199,-285.314 446.5739,-276.7449"/>
<polygon fill="#191970" stroke="#191970" points="438.3912,-308.4892 440.4063,-318.8906 445.3174,-309.5028 438.3912,-308.4892"/>
</g>
</g>
</svg>
